%TF.GenerationSoftware,KiCad,Pcbnew,8.0.0*%
%TF.CreationDate,2024-05-26T00:16:25+03:00*%
%TF.ProjectId,pulsejen,70756c73-656a-4656-9e2e-6b696361645f,rev?*%
%TF.SameCoordinates,Original*%
%TF.FileFunction,Copper,L2,Bot*%
%TF.FilePolarity,Positive*%
%FSLAX46Y46*%
G04 Gerber Fmt 4.6, Leading zero omitted, Abs format (unit mm)*
G04 Created by KiCad (PCBNEW 8.0.0) date 2024-05-26 00:16:25*
%MOMM*%
%LPD*%
G01*
G04 APERTURE LIST*
G04 Aperture macros list*
%AMRoundRect*
0 Rectangle with rounded corners*
0 $1 Rounding radius*
0 $2 $3 $4 $5 $6 $7 $8 $9 X,Y pos of 4 corners*
0 Add a 4 corners polygon primitive as box body*
4,1,4,$2,$3,$4,$5,$6,$7,$8,$9,$2,$3,0*
0 Add four circle primitives for the rounded corners*
1,1,$1+$1,$2,$3*
1,1,$1+$1,$4,$5*
1,1,$1+$1,$6,$7*
1,1,$1+$1,$8,$9*
0 Add four rect primitives between the rounded corners*
20,1,$1+$1,$2,$3,$4,$5,0*
20,1,$1+$1,$4,$5,$6,$7,0*
20,1,$1+$1,$6,$7,$8,$9,0*
20,1,$1+$1,$8,$9,$2,$3,0*%
G04 Aperture macros list end*
%TA.AperFunction,SMDPad,CuDef*%
%ADD10RoundRect,0.500000X-2.000000X-0.500000X2.000000X-0.500000X2.000000X0.500000X-2.000000X0.500000X0*%
%TD*%
%TA.AperFunction,ViaPad*%
%ADD11C,1.500000*%
%TD*%
%TA.AperFunction,Conductor*%
%ADD12C,0.300000*%
%TD*%
G04 APERTURE END LIST*
D10*
%TO.P,RV1,3,3*%
%TO.N,Net-(C1-Pad2)*%
X144000000Y-103000000D03*
%TO.P,RV1,2,2*%
%TO.N,Net-(D1-A)*%
X136000000Y-105000000D03*
%TO.P,RV1,1,1*%
X144000000Y-107000000D03*
%TD*%
%TO.P,RV2,3,3*%
%TO.N,Net-(C1-Pad2)*%
X144000000Y-93000000D03*
%TO.P,RV2,2,2*%
%TO.N,Net-(D2-K)*%
X136000000Y-95000000D03*
%TO.P,RV2,1,1*%
X144000000Y-97000000D03*
%TD*%
%TO.P,RV3,1,1*%
%TO.N,/in4*%
X144000000Y-87100000D03*
%TO.P,RV3,2,2*%
%TO.N,Net-(C2-Pad2)*%
X136000000Y-85100000D03*
%TO.P,RV3,3,3*%
X144000000Y-83100000D03*
%TD*%
D11*
%TO.N,GND*%
X132000000Y-103000000D03*
X149000000Y-108500000D03*
X131500000Y-86500000D03*
X148500000Y-83500000D03*
%TO.N,Net-(C2-Pad2)*%
X148000000Y-91500000D03*
%TO.N,Net-(C1-Pad2)*%
X131500000Y-94000000D03*
%TO.N,/in4*%
X144500000Y-91000000D03*
%TO.N,Net-(D1-A)*%
X134500000Y-100000000D03*
%TO.N,Net-(D2-K)*%
X134000000Y-88000000D03*
%TD*%
D12*
%TO.N,Net-(C2-Pad2)*%
X146600000Y-83100000D02*
X144000000Y-83100000D01*
X147000000Y-83500000D02*
X146600000Y-83100000D01*
X147000000Y-90500000D02*
X147000000Y-83500000D01*
X148000000Y-91500000D02*
X147000000Y-90500000D01*
%TO.N,Net-(D1-A)*%
X136000000Y-103500000D02*
X136000000Y-105000000D01*
X134500000Y-100000000D02*
X134500000Y-102000000D01*
X134500000Y-102000000D02*
X136000000Y-103500000D01*
%TO.N,/in4*%
X144000000Y-90500000D02*
X144000000Y-87100000D01*
X144500000Y-91000000D02*
X144000000Y-90500000D01*
%TO.N,Net-(C2-Pad2)*%
X136400000Y-83100000D02*
X144000000Y-83100000D01*
X136000000Y-83500000D02*
X136400000Y-83100000D01*
X136000000Y-85100000D02*
X136000000Y-83500000D01*
%TO.N,Net-(C1-Pad2)*%
X131750000Y-96500000D02*
X140250000Y-96500000D01*
X131500000Y-96250000D02*
X131750000Y-96500000D01*
X131500000Y-94000000D02*
X131500000Y-96250000D01*
X141000000Y-93000000D02*
X144000000Y-93000000D01*
X140250000Y-102500000D02*
X140250000Y-93750000D01*
X140750000Y-103000000D02*
X140250000Y-102500000D01*
X144000000Y-103000000D02*
X140750000Y-103000000D01*
X140250000Y-93750000D02*
X141000000Y-93000000D01*
%TO.N,Net-(D2-K)*%
X136000000Y-93500000D02*
X136000000Y-95000000D01*
X134000000Y-91500000D02*
X136000000Y-93500000D01*
X134000000Y-88000000D02*
X134000000Y-91500000D01*
%TD*%
%TA.AperFunction,Conductor*%
%TO.N,GND*%
G36*
X131144423Y-80019685D02*
G01*
X131190178Y-80072489D01*
X131199855Y-80104597D01*
X131202929Y-80124000D01*
X131231523Y-80304534D01*
X131294781Y-80499223D01*
X131387715Y-80681613D01*
X131508028Y-80847213D01*
X131652786Y-80991971D01*
X131807749Y-81104556D01*
X131818390Y-81112287D01*
X131934607Y-81171503D01*
X132000776Y-81205218D01*
X132000778Y-81205218D01*
X132000781Y-81205220D01*
X132105137Y-81239127D01*
X132195465Y-81268477D01*
X132296557Y-81284488D01*
X132397648Y-81300500D01*
X132397649Y-81300500D01*
X132602351Y-81300500D01*
X132602352Y-81300500D01*
X132804534Y-81268477D01*
X132999219Y-81205220D01*
X133181610Y-81112287D01*
X133274590Y-81044732D01*
X133347213Y-80991971D01*
X133347215Y-80991968D01*
X133347219Y-80991966D01*
X133491966Y-80847219D01*
X133491968Y-80847215D01*
X133491971Y-80847213D01*
X133544732Y-80774590D01*
X133612287Y-80681610D01*
X133705220Y-80499219D01*
X133768477Y-80304534D01*
X133800143Y-80104600D01*
X133830072Y-80041467D01*
X133889384Y-80004536D01*
X133922616Y-80000000D01*
X134386696Y-80000000D01*
X134453735Y-80019685D01*
X134499490Y-80072489D01*
X134506469Y-80091902D01*
X134515070Y-80124000D01*
X134533608Y-80193187D01*
X134566554Y-80250250D01*
X134599500Y-80307314D01*
X134692686Y-80400500D01*
X134806814Y-80466392D01*
X134934108Y-80500500D01*
X134934110Y-80500500D01*
X145065890Y-80500500D01*
X145065892Y-80500500D01*
X145193186Y-80466392D01*
X145307314Y-80400500D01*
X145400500Y-80307314D01*
X145466392Y-80193186D01*
X145493529Y-80091905D01*
X145529894Y-80032246D01*
X145592741Y-80001717D01*
X145613304Y-80000000D01*
X146077384Y-80000000D01*
X146144423Y-80019685D01*
X146190178Y-80072489D01*
X146199855Y-80104597D01*
X146202929Y-80124000D01*
X146231523Y-80304534D01*
X146294781Y-80499223D01*
X146387715Y-80681613D01*
X146508028Y-80847213D01*
X146652786Y-80991971D01*
X146807749Y-81104556D01*
X146818390Y-81112287D01*
X146934607Y-81171503D01*
X147000776Y-81205218D01*
X147000778Y-81205218D01*
X147000781Y-81205220D01*
X147105137Y-81239127D01*
X147195465Y-81268477D01*
X147296557Y-81284488D01*
X147397648Y-81300500D01*
X147397649Y-81300500D01*
X147602351Y-81300500D01*
X147602352Y-81300500D01*
X147804534Y-81268477D01*
X147999219Y-81205220D01*
X148181610Y-81112287D01*
X148274590Y-81044732D01*
X148347213Y-80991971D01*
X148347215Y-80991968D01*
X148347219Y-80991966D01*
X148491966Y-80847219D01*
X148491968Y-80847215D01*
X148491971Y-80847213D01*
X148544732Y-80774590D01*
X148612287Y-80681610D01*
X148705220Y-80499219D01*
X148768477Y-80304534D01*
X148800143Y-80104600D01*
X148830072Y-80041467D01*
X148889384Y-80004536D01*
X148922616Y-80000000D01*
X149375500Y-80000000D01*
X149442539Y-80019685D01*
X149488294Y-80072489D01*
X149499500Y-80124000D01*
X149499500Y-109876000D01*
X149479815Y-109943039D01*
X149427011Y-109988794D01*
X149375500Y-110000000D01*
X148922616Y-110000000D01*
X148855577Y-109980315D01*
X148809822Y-109927511D01*
X148800144Y-109895402D01*
X148768477Y-109695466D01*
X148705220Y-109500781D01*
X148705218Y-109500778D01*
X148705218Y-109500776D01*
X148671503Y-109434607D01*
X148612287Y-109318390D01*
X148604556Y-109307749D01*
X148491971Y-109152786D01*
X148347213Y-109008028D01*
X148181613Y-108887715D01*
X148181612Y-108887714D01*
X148181610Y-108887713D01*
X148124653Y-108858691D01*
X147999223Y-108794781D01*
X147804534Y-108731522D01*
X147629995Y-108703878D01*
X147602352Y-108699500D01*
X147397648Y-108699500D01*
X147373329Y-108703351D01*
X147195465Y-108731522D01*
X147000776Y-108794781D01*
X146818386Y-108887715D01*
X146652786Y-109008028D01*
X146508028Y-109152786D01*
X146387715Y-109318386D01*
X146294781Y-109500776D01*
X146232427Y-109692683D01*
X146231523Y-109695466D01*
X146199856Y-109895399D01*
X146169928Y-109958533D01*
X146110616Y-109995464D01*
X146077384Y-110000000D01*
X145613304Y-110000000D01*
X145546265Y-109980315D01*
X145500510Y-109927511D01*
X145493529Y-109908093D01*
X145466392Y-109806814D01*
X145400500Y-109692686D01*
X145307314Y-109599500D01*
X145250250Y-109566554D01*
X145193187Y-109533608D01*
X145129539Y-109516554D01*
X145065892Y-109499500D01*
X135065892Y-109499500D01*
X134934108Y-109499500D01*
X134806812Y-109533608D01*
X134692686Y-109599500D01*
X134692683Y-109599502D01*
X134599502Y-109692683D01*
X134599500Y-109692686D01*
X134533608Y-109806812D01*
X134517520Y-109866853D01*
X134509270Y-109897648D01*
X134506471Y-109908093D01*
X134470106Y-109967754D01*
X134407259Y-109998283D01*
X134386696Y-110000000D01*
X133922616Y-110000000D01*
X133855577Y-109980315D01*
X133809822Y-109927511D01*
X133800144Y-109895402D01*
X133768477Y-109695466D01*
X133705220Y-109500781D01*
X133705218Y-109500778D01*
X133705218Y-109500776D01*
X133671503Y-109434607D01*
X133612287Y-109318390D01*
X133604556Y-109307749D01*
X133491971Y-109152786D01*
X133347213Y-109008028D01*
X133181613Y-108887715D01*
X133181612Y-108887714D01*
X133181610Y-108887713D01*
X133124653Y-108858691D01*
X132999223Y-108794781D01*
X132804534Y-108731522D01*
X132629995Y-108703878D01*
X132602352Y-108699500D01*
X132397648Y-108699500D01*
X132373329Y-108703351D01*
X132195465Y-108731522D01*
X132000776Y-108794781D01*
X131818386Y-108887715D01*
X131652786Y-109008028D01*
X131508028Y-109152786D01*
X131387715Y-109318386D01*
X131294781Y-109500776D01*
X131232427Y-109692683D01*
X131231523Y-109695466D01*
X131199856Y-109895399D01*
X131169928Y-109958533D01*
X131110616Y-109995464D01*
X131077384Y-110000000D01*
X130624500Y-110000000D01*
X130557461Y-109980315D01*
X130511706Y-109927511D01*
X130500500Y-109876000D01*
X130500500Y-107550001D01*
X141249500Y-107550001D01*
X141249501Y-107550019D01*
X141260000Y-107652796D01*
X141260001Y-107652799D01*
X141315185Y-107819331D01*
X141315186Y-107819334D01*
X141407288Y-107968656D01*
X141531344Y-108092712D01*
X141680666Y-108184814D01*
X141847203Y-108239999D01*
X141949991Y-108250500D01*
X146050008Y-108250499D01*
X146152797Y-108239999D01*
X146319334Y-108184814D01*
X146468656Y-108092712D01*
X146592712Y-107968656D01*
X146684814Y-107819334D01*
X146739999Y-107652797D01*
X146750500Y-107550009D01*
X146750499Y-106449992D01*
X146739999Y-106347203D01*
X146684814Y-106180666D01*
X146592712Y-106031344D01*
X146468656Y-105907288D01*
X146375888Y-105850069D01*
X146319336Y-105815187D01*
X146319331Y-105815185D01*
X146317862Y-105814698D01*
X146152797Y-105760001D01*
X146152795Y-105760000D01*
X146050010Y-105749500D01*
X141949998Y-105749500D01*
X141949981Y-105749501D01*
X141847203Y-105760000D01*
X141847200Y-105760001D01*
X141680668Y-105815185D01*
X141680663Y-105815187D01*
X141531342Y-105907289D01*
X141407289Y-106031342D01*
X141315187Y-106180663D01*
X141315186Y-106180666D01*
X141260001Y-106347203D01*
X141260001Y-106347204D01*
X141260000Y-106347204D01*
X141249500Y-106449983D01*
X141249500Y-107550001D01*
X130500500Y-107550001D01*
X130500500Y-105550001D01*
X133249500Y-105550001D01*
X133249501Y-105550019D01*
X133260000Y-105652796D01*
X133260001Y-105652799D01*
X133295525Y-105760001D01*
X133315186Y-105819334D01*
X133407288Y-105968656D01*
X133531344Y-106092712D01*
X133680666Y-106184814D01*
X133847203Y-106239999D01*
X133949991Y-106250500D01*
X138050008Y-106250499D01*
X138152797Y-106239999D01*
X138319334Y-106184814D01*
X138468656Y-106092712D01*
X138592712Y-105968656D01*
X138684814Y-105819334D01*
X138739999Y-105652797D01*
X138750500Y-105550009D01*
X138750499Y-104449992D01*
X138739999Y-104347203D01*
X138684814Y-104180666D01*
X138592712Y-104031344D01*
X138468656Y-103907288D01*
X138375888Y-103850069D01*
X138319336Y-103815187D01*
X138319331Y-103815185D01*
X138317862Y-103814698D01*
X138152797Y-103760001D01*
X138152795Y-103760000D01*
X138050016Y-103749500D01*
X138050009Y-103749500D01*
X136524500Y-103749500D01*
X136457461Y-103729815D01*
X136411706Y-103677011D01*
X136400500Y-103625500D01*
X136400500Y-103447275D01*
X136400500Y-103447273D01*
X136373207Y-103345413D01*
X136320480Y-103254087D01*
X136245913Y-103179520D01*
X134936819Y-101870426D01*
X134903334Y-101809103D01*
X134900500Y-101782745D01*
X134900500Y-100994705D01*
X134920185Y-100927666D01*
X134966045Y-100885348D01*
X135058538Y-100835910D01*
X135210883Y-100710883D01*
X135335910Y-100558538D01*
X135428814Y-100384727D01*
X135486024Y-100196132D01*
X135505341Y-100000000D01*
X135486024Y-99803868D01*
X135428814Y-99615273D01*
X135428811Y-99615269D01*
X135428811Y-99615266D01*
X135335913Y-99441467D01*
X135335909Y-99441460D01*
X135210883Y-99289116D01*
X135058539Y-99164090D01*
X135058532Y-99164086D01*
X134884733Y-99071188D01*
X134884727Y-99071186D01*
X134696132Y-99013976D01*
X134696129Y-99013975D01*
X134500000Y-98994659D01*
X134303870Y-99013975D01*
X134115266Y-99071188D01*
X133941467Y-99164086D01*
X133941460Y-99164090D01*
X133789116Y-99289116D01*
X133664090Y-99441460D01*
X133664086Y-99441467D01*
X133571188Y-99615266D01*
X133513975Y-99803870D01*
X133494659Y-100000000D01*
X133513975Y-100196129D01*
X133571188Y-100384733D01*
X133664086Y-100558532D01*
X133664090Y-100558539D01*
X133789116Y-100710883D01*
X133941460Y-100835909D01*
X133941463Y-100835911D01*
X133973143Y-100852844D01*
X134033953Y-100885347D01*
X134083797Y-100934308D01*
X134099500Y-100994705D01*
X134099500Y-102052726D01*
X134126793Y-102154589D01*
X134141849Y-102180666D01*
X134179520Y-102245913D01*
X134179522Y-102245915D01*
X135471426Y-103537819D01*
X135504911Y-103599142D01*
X135499927Y-103668834D01*
X135458055Y-103724767D01*
X135392591Y-103749184D01*
X135383745Y-103749500D01*
X133949998Y-103749500D01*
X133949981Y-103749501D01*
X133847203Y-103760000D01*
X133847200Y-103760001D01*
X133680668Y-103815185D01*
X133680663Y-103815187D01*
X133531342Y-103907289D01*
X133407289Y-104031342D01*
X133315187Y-104180663D01*
X133315186Y-104180666D01*
X133260001Y-104347203D01*
X133260001Y-104347204D01*
X133260000Y-104347204D01*
X133249500Y-104449983D01*
X133249500Y-105550001D01*
X130500500Y-105550001D01*
X130500500Y-94705759D01*
X130520185Y-94638720D01*
X130572989Y-94592965D01*
X130642147Y-94583021D01*
X130705703Y-94612046D01*
X130720354Y-94627095D01*
X130789117Y-94710883D01*
X130941460Y-94835909D01*
X130941463Y-94835911D01*
X130973143Y-94852844D01*
X131033953Y-94885347D01*
X131083797Y-94934308D01*
X131099500Y-94994705D01*
X131099500Y-96302726D01*
X131126793Y-96404589D01*
X131153000Y-96449980D01*
X131179520Y-96495913D01*
X131429519Y-96745912D01*
X131429520Y-96745913D01*
X131504087Y-96820480D01*
X131595413Y-96873207D01*
X131697273Y-96900500D01*
X131802727Y-96900500D01*
X139725500Y-96900500D01*
X139792539Y-96920185D01*
X139838294Y-96972989D01*
X139849500Y-97024500D01*
X139849500Y-102552726D01*
X139876793Y-102654589D01*
X139903156Y-102700250D01*
X139929520Y-102745913D01*
X139929521Y-102745914D01*
X139929522Y-102745915D01*
X140425179Y-103241571D01*
X140425189Y-103241582D01*
X140429519Y-103245912D01*
X140429520Y-103245913D01*
X140504087Y-103320480D01*
X140547271Y-103345412D01*
X140595412Y-103373207D01*
X140697273Y-103400500D01*
X141125501Y-103400500D01*
X141192540Y-103420185D01*
X141238295Y-103472989D01*
X141249501Y-103524500D01*
X141249501Y-103550018D01*
X141260000Y-103652796D01*
X141260001Y-103652799D01*
X141295525Y-103760001D01*
X141315186Y-103819334D01*
X141407288Y-103968656D01*
X141531344Y-104092712D01*
X141680666Y-104184814D01*
X141847203Y-104239999D01*
X141949991Y-104250500D01*
X146050008Y-104250499D01*
X146152797Y-104239999D01*
X146319334Y-104184814D01*
X146468656Y-104092712D01*
X146592712Y-103968656D01*
X146684814Y-103819334D01*
X146739999Y-103652797D01*
X146750500Y-103550009D01*
X146750499Y-102449992D01*
X146739999Y-102347203D01*
X146684814Y-102180666D01*
X146592712Y-102031344D01*
X146468656Y-101907288D01*
X146319334Y-101815186D01*
X146152797Y-101760001D01*
X146152795Y-101760000D01*
X146050010Y-101749500D01*
X141949998Y-101749500D01*
X141949981Y-101749501D01*
X141847203Y-101760000D01*
X141847200Y-101760001D01*
X141680668Y-101815185D01*
X141680663Y-101815187D01*
X141531342Y-101907289D01*
X141407289Y-102031342D01*
X141315187Y-102180663D01*
X141315186Y-102180666D01*
X141260001Y-102347203D01*
X141260001Y-102347204D01*
X141260000Y-102347204D01*
X141249500Y-102449983D01*
X141249500Y-102475500D01*
X141229815Y-102542539D01*
X141177011Y-102588294D01*
X141125500Y-102599500D01*
X140967254Y-102599500D01*
X140900215Y-102579815D01*
X140879573Y-102563181D01*
X140686819Y-102370426D01*
X140653334Y-102309103D01*
X140650500Y-102282745D01*
X140650500Y-97550001D01*
X141249500Y-97550001D01*
X141249501Y-97550019D01*
X141260000Y-97652796D01*
X141260001Y-97652799D01*
X141315185Y-97819331D01*
X141315186Y-97819334D01*
X141407288Y-97968656D01*
X141531344Y-98092712D01*
X141680666Y-98184814D01*
X141847203Y-98239999D01*
X141949991Y-98250500D01*
X146050008Y-98250499D01*
X146152797Y-98239999D01*
X146319334Y-98184814D01*
X146468656Y-98092712D01*
X146592712Y-97968656D01*
X146684814Y-97819334D01*
X146739999Y-97652797D01*
X146750500Y-97550009D01*
X146750499Y-96449992D01*
X146739999Y-96347203D01*
X146684814Y-96180666D01*
X146592712Y-96031344D01*
X146468656Y-95907288D01*
X146375888Y-95850069D01*
X146319336Y-95815187D01*
X146319331Y-95815185D01*
X146317862Y-95814698D01*
X146152797Y-95760001D01*
X146152795Y-95760000D01*
X146050010Y-95749500D01*
X141949998Y-95749500D01*
X141949981Y-95749501D01*
X141847203Y-95760000D01*
X141847200Y-95760001D01*
X141680668Y-95815185D01*
X141680663Y-95815187D01*
X141531342Y-95907289D01*
X141407289Y-96031342D01*
X141315187Y-96180663D01*
X141315186Y-96180666D01*
X141260001Y-96347203D01*
X141260001Y-96347204D01*
X141260000Y-96347204D01*
X141249500Y-96449983D01*
X141249500Y-97550001D01*
X140650500Y-97550001D01*
X140650500Y-93967255D01*
X140670185Y-93900216D01*
X140686819Y-93879574D01*
X140841626Y-93724767D01*
X141043376Y-93523016D01*
X141104697Y-93489533D01*
X141174388Y-93494517D01*
X141230322Y-93536388D01*
X141254413Y-93598097D01*
X141260001Y-93652797D01*
X141260001Y-93652799D01*
X141295525Y-93760001D01*
X141315186Y-93819334D01*
X141407288Y-93968656D01*
X141531344Y-94092712D01*
X141680666Y-94184814D01*
X141847203Y-94239999D01*
X141949991Y-94250500D01*
X146050008Y-94250499D01*
X146152797Y-94239999D01*
X146319334Y-94184814D01*
X146468656Y-94092712D01*
X146592712Y-93968656D01*
X146684814Y-93819334D01*
X146739999Y-93652797D01*
X146750500Y-93550009D01*
X146750499Y-92449992D01*
X146748335Y-92428811D01*
X146739999Y-92347203D01*
X146739998Y-92347200D01*
X146736257Y-92335910D01*
X146684814Y-92180666D01*
X146592712Y-92031344D01*
X146468656Y-91907288D01*
X146319334Y-91815186D01*
X146152797Y-91760001D01*
X146152795Y-91760000D01*
X146050016Y-91749500D01*
X146050009Y-91749500D01*
X145440301Y-91749500D01*
X145373262Y-91729815D01*
X145327507Y-91677011D01*
X145317563Y-91607853D01*
X145334172Y-91564516D01*
X145333039Y-91563911D01*
X145428811Y-91384733D01*
X145428811Y-91384732D01*
X145428814Y-91384727D01*
X145486024Y-91196132D01*
X145505341Y-91000000D01*
X145486024Y-90803868D01*
X145428814Y-90615273D01*
X145428811Y-90615269D01*
X145428811Y-90615266D01*
X145335913Y-90441467D01*
X145335909Y-90441460D01*
X145210883Y-90289116D01*
X145058539Y-90164090D01*
X145058532Y-90164086D01*
X144884733Y-90071188D01*
X144884727Y-90071186D01*
X144696132Y-90013976D01*
X144696129Y-90013975D01*
X144512345Y-89995874D01*
X144447558Y-89969713D01*
X144407200Y-89912678D01*
X144400500Y-89872471D01*
X144400500Y-88474499D01*
X144420185Y-88407460D01*
X144472989Y-88361705D01*
X144524500Y-88350499D01*
X146050002Y-88350499D01*
X146050008Y-88350499D01*
X146152797Y-88339999D01*
X146319334Y-88284814D01*
X146410404Y-88228641D01*
X146477796Y-88210202D01*
X146544459Y-88231125D01*
X146589229Y-88284767D01*
X146599500Y-88334181D01*
X146599500Y-90552726D01*
X146626793Y-90654589D01*
X146632279Y-90664090D01*
X146679520Y-90745913D01*
X146679522Y-90745915D01*
X147013439Y-91079832D01*
X147046924Y-91141155D01*
X147044419Y-91203507D01*
X147013976Y-91303867D01*
X146994659Y-91500000D01*
X147013975Y-91696129D01*
X147071188Y-91884733D01*
X147164086Y-92058532D01*
X147164090Y-92058539D01*
X147289116Y-92210883D01*
X147441460Y-92335909D01*
X147441467Y-92335913D01*
X147615266Y-92428811D01*
X147615269Y-92428811D01*
X147615273Y-92428814D01*
X147803868Y-92486024D01*
X148000000Y-92505341D01*
X148196132Y-92486024D01*
X148384727Y-92428814D01*
X148558538Y-92335910D01*
X148710883Y-92210883D01*
X148835910Y-92058538D01*
X148882362Y-91971632D01*
X148928811Y-91884733D01*
X148928811Y-91884732D01*
X148928814Y-91884727D01*
X148986024Y-91696132D01*
X149005341Y-91500000D01*
X148986024Y-91303868D01*
X148928814Y-91115273D01*
X148928811Y-91115269D01*
X148928811Y-91115266D01*
X148835913Y-90941467D01*
X148835909Y-90941460D01*
X148710883Y-90789116D01*
X148558539Y-90664090D01*
X148558532Y-90664086D01*
X148384733Y-90571188D01*
X148384727Y-90571186D01*
X148196132Y-90513976D01*
X148196129Y-90513975D01*
X148000000Y-90494659D01*
X147803867Y-90513976D01*
X147703507Y-90544419D01*
X147633640Y-90545042D01*
X147579832Y-90513439D01*
X147436819Y-90370426D01*
X147403334Y-90309103D01*
X147400500Y-90282745D01*
X147400500Y-83447275D01*
X147400500Y-83447273D01*
X147373207Y-83345413D01*
X147320480Y-83254087D01*
X147245913Y-83179520D01*
X146845913Y-82779520D01*
X146812497Y-82760227D01*
X146764283Y-82709660D01*
X146750499Y-82652841D01*
X146750499Y-82549998D01*
X146750498Y-82549981D01*
X146739999Y-82447203D01*
X146739998Y-82447200D01*
X146684814Y-82280666D01*
X146592712Y-82131344D01*
X146468656Y-82007288D01*
X146319334Y-81915186D01*
X146152797Y-81860001D01*
X146152795Y-81860000D01*
X146050010Y-81849500D01*
X141949998Y-81849500D01*
X141949981Y-81849501D01*
X141847203Y-81860000D01*
X141847200Y-81860001D01*
X141680668Y-81915185D01*
X141680663Y-81915187D01*
X141531342Y-82007289D01*
X141407289Y-82131342D01*
X141315187Y-82280663D01*
X141315186Y-82280666D01*
X141260001Y-82447203D01*
X141260001Y-82447204D01*
X141260000Y-82447204D01*
X141249500Y-82549983D01*
X141249500Y-82575500D01*
X141229815Y-82642539D01*
X141177011Y-82688294D01*
X141125500Y-82699500D01*
X136347273Y-82699500D01*
X136245413Y-82726793D01*
X136245410Y-82726794D01*
X136154085Y-82779521D01*
X135679522Y-83254084D01*
X135679518Y-83254090D01*
X135626792Y-83345412D01*
X135626793Y-83345413D01*
X135599500Y-83447273D01*
X135599500Y-83725500D01*
X135579815Y-83792539D01*
X135527011Y-83838294D01*
X135475500Y-83849500D01*
X133949998Y-83849500D01*
X133949981Y-83849501D01*
X133847203Y-83860000D01*
X133847200Y-83860001D01*
X133680668Y-83915185D01*
X133680663Y-83915187D01*
X133531342Y-84007289D01*
X133407289Y-84131342D01*
X133315187Y-84280663D01*
X133315186Y-84280666D01*
X133260001Y-84447203D01*
X133260001Y-84447204D01*
X133260000Y-84447204D01*
X133249500Y-84549983D01*
X133249500Y-85650001D01*
X133249501Y-85650019D01*
X133260000Y-85752796D01*
X133260001Y-85752799D01*
X133313811Y-85915185D01*
X133315186Y-85919334D01*
X133407288Y-86068656D01*
X133531344Y-86192712D01*
X133680666Y-86284814D01*
X133847203Y-86339999D01*
X133949991Y-86350500D01*
X138050008Y-86350499D01*
X138152797Y-86339999D01*
X138319334Y-86284814D01*
X138468656Y-86192712D01*
X138592712Y-86068656D01*
X138684814Y-85919334D01*
X138739999Y-85752797D01*
X138750500Y-85650009D01*
X138750499Y-84549992D01*
X138739999Y-84447203D01*
X138684814Y-84280666D01*
X138592712Y-84131344D01*
X138468656Y-84007288D01*
X138375888Y-83950069D01*
X138319336Y-83915187D01*
X138319331Y-83915185D01*
X138317862Y-83914698D01*
X138152797Y-83860001D01*
X138152795Y-83860000D01*
X138050016Y-83849500D01*
X138050009Y-83849500D01*
X136524500Y-83849500D01*
X136457461Y-83829815D01*
X136411706Y-83777011D01*
X136400500Y-83725500D01*
X136400500Y-83717255D01*
X136420185Y-83650216D01*
X136436819Y-83629574D01*
X136529574Y-83536819D01*
X136590897Y-83503334D01*
X136617255Y-83500500D01*
X141125501Y-83500500D01*
X141192540Y-83520185D01*
X141238295Y-83572989D01*
X141249501Y-83624500D01*
X141249501Y-83650018D01*
X141260000Y-83752796D01*
X141260001Y-83752799D01*
X141295525Y-83860001D01*
X141315186Y-83919334D01*
X141407288Y-84068656D01*
X141531344Y-84192712D01*
X141680666Y-84284814D01*
X141847203Y-84339999D01*
X141949991Y-84350500D01*
X146050008Y-84350499D01*
X146152797Y-84339999D01*
X146319334Y-84284814D01*
X146410404Y-84228641D01*
X146477796Y-84210202D01*
X146544459Y-84231125D01*
X146589229Y-84284767D01*
X146599500Y-84334181D01*
X146599500Y-85865818D01*
X146579815Y-85932857D01*
X146527011Y-85978612D01*
X146457853Y-85988556D01*
X146410404Y-85971357D01*
X146319340Y-85915190D01*
X146319334Y-85915186D01*
X146152797Y-85860001D01*
X146152795Y-85860000D01*
X146050010Y-85849500D01*
X141949998Y-85849500D01*
X141949981Y-85849501D01*
X141847203Y-85860000D01*
X141847200Y-85860001D01*
X141680668Y-85915185D01*
X141680663Y-85915187D01*
X141531342Y-86007289D01*
X141407289Y-86131342D01*
X141315187Y-86280663D01*
X141315186Y-86280666D01*
X141260001Y-86447203D01*
X141260001Y-86447204D01*
X141260000Y-86447204D01*
X141249500Y-86549983D01*
X141249500Y-87650001D01*
X141249501Y-87650019D01*
X141260000Y-87752796D01*
X141260001Y-87752799D01*
X141315185Y-87919331D01*
X141315186Y-87919334D01*
X141407288Y-88068656D01*
X141531344Y-88192712D01*
X141680666Y-88284814D01*
X141847203Y-88339999D01*
X141949991Y-88350500D01*
X143475500Y-88350499D01*
X143542539Y-88370184D01*
X143588294Y-88422987D01*
X143599500Y-88474499D01*
X143599500Y-90531240D01*
X143584859Y-90589691D01*
X143571186Y-90615271D01*
X143513976Y-90803865D01*
X143494659Y-91000000D01*
X143513975Y-91196129D01*
X143571188Y-91384733D01*
X143666961Y-91563911D01*
X143665356Y-91564768D01*
X143683678Y-91623298D01*
X143665188Y-91690676D01*
X143613204Y-91737362D01*
X143559698Y-91749500D01*
X141949998Y-91749500D01*
X141949981Y-91749501D01*
X141847203Y-91760000D01*
X141847200Y-91760001D01*
X141680668Y-91815185D01*
X141680663Y-91815187D01*
X141531342Y-91907289D01*
X141407289Y-92031342D01*
X141315187Y-92180663D01*
X141315186Y-92180666D01*
X141260001Y-92347203D01*
X141260001Y-92347204D01*
X141260000Y-92347204D01*
X141249500Y-92449983D01*
X141249500Y-92475500D01*
X141229815Y-92542539D01*
X141177011Y-92588294D01*
X141125500Y-92599500D01*
X140947273Y-92599500D01*
X140845410Y-92626793D01*
X140754087Y-92679520D01*
X140754084Y-92679522D01*
X139929522Y-93504084D01*
X139929520Y-93504087D01*
X139876793Y-93595410D01*
X139872783Y-93610375D01*
X139870779Y-93617857D01*
X139870779Y-93617858D01*
X139870778Y-93617857D01*
X139849500Y-93697271D01*
X139849500Y-95975500D01*
X139829815Y-96042539D01*
X139777011Y-96088294D01*
X139725500Y-96099500D01*
X138734181Y-96099500D01*
X138667142Y-96079815D01*
X138621387Y-96027011D01*
X138611443Y-95957853D01*
X138628641Y-95910405D01*
X138684814Y-95819334D01*
X138739999Y-95652797D01*
X138750500Y-95550009D01*
X138750499Y-94449992D01*
X138739999Y-94347203D01*
X138684814Y-94180666D01*
X138592712Y-94031344D01*
X138468656Y-93907288D01*
X138375888Y-93850069D01*
X138319336Y-93815187D01*
X138319331Y-93815185D01*
X138317862Y-93814698D01*
X138152797Y-93760001D01*
X138152795Y-93760000D01*
X138050016Y-93749500D01*
X138050009Y-93749500D01*
X136524500Y-93749500D01*
X136457461Y-93729815D01*
X136411706Y-93677011D01*
X136400500Y-93625500D01*
X136400500Y-93447275D01*
X136400500Y-93447273D01*
X136373207Y-93345413D01*
X136373207Y-93345412D01*
X136320480Y-93254087D01*
X134436819Y-91370426D01*
X134403334Y-91309103D01*
X134400500Y-91282745D01*
X134400500Y-88994705D01*
X134420185Y-88927666D01*
X134466045Y-88885348D01*
X134558538Y-88835910D01*
X134710883Y-88710883D01*
X134835910Y-88558538D01*
X134928814Y-88384727D01*
X134986024Y-88196132D01*
X135005341Y-88000000D01*
X134986024Y-87803868D01*
X134928814Y-87615273D01*
X134928811Y-87615269D01*
X134928811Y-87615266D01*
X134835913Y-87441467D01*
X134835909Y-87441460D01*
X134710883Y-87289116D01*
X134558539Y-87164090D01*
X134558532Y-87164086D01*
X134384733Y-87071188D01*
X134384727Y-87071186D01*
X134196132Y-87013976D01*
X134196129Y-87013975D01*
X134000000Y-86994659D01*
X133803870Y-87013975D01*
X133615266Y-87071188D01*
X133441467Y-87164086D01*
X133441460Y-87164090D01*
X133289116Y-87289116D01*
X133164090Y-87441460D01*
X133164086Y-87441467D01*
X133071188Y-87615266D01*
X133013975Y-87803870D01*
X132994659Y-88000000D01*
X133013975Y-88196129D01*
X133013976Y-88196132D01*
X133066774Y-88370184D01*
X133071188Y-88384733D01*
X133164086Y-88558532D01*
X133164090Y-88558539D01*
X133289116Y-88710883D01*
X133441460Y-88835909D01*
X133441463Y-88835911D01*
X133473143Y-88852844D01*
X133533953Y-88885347D01*
X133583797Y-88934308D01*
X133599500Y-88994705D01*
X133599500Y-91447273D01*
X133599500Y-91552727D01*
X133613146Y-91603657D01*
X133626793Y-91654589D01*
X133650777Y-91696129D01*
X133679520Y-91745913D01*
X133679522Y-91745915D01*
X135471426Y-93537819D01*
X135504911Y-93599142D01*
X135499927Y-93668834D01*
X135458055Y-93724767D01*
X135392591Y-93749184D01*
X135383745Y-93749500D01*
X133949998Y-93749500D01*
X133949981Y-93749501D01*
X133847203Y-93760000D01*
X133847200Y-93760001D01*
X133680668Y-93815185D01*
X133680663Y-93815187D01*
X133531342Y-93907289D01*
X133407289Y-94031342D01*
X133315187Y-94180663D01*
X133315186Y-94180666D01*
X133260001Y-94347203D01*
X133260001Y-94347204D01*
X133260000Y-94347204D01*
X133249500Y-94449983D01*
X133249500Y-95550001D01*
X133249501Y-95550019D01*
X133260000Y-95652796D01*
X133260001Y-95652799D01*
X133295525Y-95760001D01*
X133315186Y-95819334D01*
X133371358Y-95910404D01*
X133389798Y-95977796D01*
X133368875Y-96044459D01*
X133315233Y-96089229D01*
X133265819Y-96099500D01*
X132024500Y-96099500D01*
X131957461Y-96079815D01*
X131911706Y-96027011D01*
X131900500Y-95975500D01*
X131900500Y-94994705D01*
X131920185Y-94927666D01*
X131966045Y-94885348D01*
X132058538Y-94835910D01*
X132210883Y-94710883D01*
X132335910Y-94558538D01*
X132428814Y-94384727D01*
X132486024Y-94196132D01*
X132505341Y-94000000D01*
X132486024Y-93803868D01*
X132428814Y-93615273D01*
X132428811Y-93615269D01*
X132428811Y-93615266D01*
X132335913Y-93441467D01*
X132335909Y-93441460D01*
X132210883Y-93289116D01*
X132058539Y-93164090D01*
X132058532Y-93164086D01*
X131884733Y-93071188D01*
X131884727Y-93071186D01*
X131696132Y-93013976D01*
X131696129Y-93013975D01*
X131500000Y-92994659D01*
X131303870Y-93013975D01*
X131115266Y-93071188D01*
X130941467Y-93164086D01*
X130941460Y-93164090D01*
X130789116Y-93289116D01*
X130720353Y-93372905D01*
X130662607Y-93412239D01*
X130592763Y-93414110D01*
X130532994Y-93377922D01*
X130502279Y-93315166D01*
X130500500Y-93294240D01*
X130500500Y-80124000D01*
X130520185Y-80056961D01*
X130572989Y-80011206D01*
X130624500Y-80000000D01*
X131077384Y-80000000D01*
X131144423Y-80019685D01*
G37*
%TD.AperFunction*%
%TD*%
M02*
