%TF.GenerationSoftware,KiCad,Pcbnew,8.0.0*%
%TF.CreationDate,2024-05-26T00:16:25+03:00*%
%TF.ProjectId,pulsejen,70756c73-656a-4656-9e2e-6b696361645f,rev?*%
%TF.SameCoordinates,Original*%
%TF.FileFunction,Copper,L1,Top*%
%TF.FilePolarity,Positive*%
%FSLAX46Y46*%
G04 Gerber Fmt 4.6, Leading zero omitted, Abs format (unit mm)*
G04 Created by KiCad (PCBNEW 8.0.0) date 2024-05-26 00:16:25*
%MOMM*%
%LPD*%
G01*
G04 APERTURE LIST*
G04 Aperture macros list*
%AMRoundRect*
0 Rectangle with rounded corners*
0 $1 Rounding radius*
0 $2 $3 $4 $5 $6 $7 $8 $9 X,Y pos of 4 corners*
0 Add a 4 corners polygon primitive as box body*
4,1,4,$2,$3,$4,$5,$6,$7,$8,$9,$2,$3,0*
0 Add four circle primitives for the rounded corners*
1,1,$1+$1,$2,$3*
1,1,$1+$1,$4,$5*
1,1,$1+$1,$6,$7*
1,1,$1+$1,$8,$9*
0 Add four rect primitives between the rounded corners*
20,1,$1+$1,$2,$3,$4,$5,0*
20,1,$1+$1,$4,$5,$6,$7,0*
20,1,$1+$1,$6,$7,$8,$9,0*
20,1,$1+$1,$8,$9,$2,$3,0*%
G04 Aperture macros list end*
%TA.AperFunction,EtchedComponent*%
%ADD10C,0.000000*%
%TD*%
%TA.AperFunction,SMDPad,CuDef*%
%ADD11RoundRect,0.250000X0.625000X-0.400000X0.625000X0.400000X-0.625000X0.400000X-0.625000X-0.400000X0*%
%TD*%
%TA.AperFunction,SMDPad,CuDef*%
%ADD12C,2.000000*%
%TD*%
%TA.AperFunction,SMDPad,CuDef*%
%ADD13R,2.000000X2.000000*%
%TD*%
%TA.AperFunction,SMDPad,CuDef*%
%ADD14RoundRect,0.225000X0.375000X-0.225000X0.375000X0.225000X-0.375000X0.225000X-0.375000X-0.225000X0*%
%TD*%
%TA.AperFunction,SMDPad,CuDef*%
%ADD15RoundRect,0.375000X-0.625000X-0.375000X0.625000X-0.375000X0.625000X0.375000X-0.625000X0.375000X0*%
%TD*%
%TA.AperFunction,SMDPad,CuDef*%
%ADD16RoundRect,0.500000X-0.500000X-1.400000X0.500000X-1.400000X0.500000X1.400000X-0.500000X1.400000X0*%
%TD*%
%TA.AperFunction,SMDPad,CuDef*%
%ADD17RoundRect,0.250000X0.475000X-0.337500X0.475000X0.337500X-0.475000X0.337500X-0.475000X-0.337500X0*%
%TD*%
%TA.AperFunction,SMDPad,CuDef*%
%ADD18RoundRect,0.225000X0.225000X0.375000X-0.225000X0.375000X-0.225000X-0.375000X0.225000X-0.375000X0*%
%TD*%
%TA.AperFunction,SMDPad,CuDef*%
%ADD19RoundRect,0.225000X-0.375000X0.225000X-0.375000X-0.225000X0.375000X-0.225000X0.375000X0.225000X0*%
%TD*%
%TA.AperFunction,SMDPad,CuDef*%
%ADD20RoundRect,0.250000X0.450000X-0.350000X0.450000X0.350000X-0.450000X0.350000X-0.450000X-0.350000X0*%
%TD*%
%TA.AperFunction,SMDPad,CuDef*%
%ADD21RoundRect,0.250000X-0.350000X-0.450000X0.350000X-0.450000X0.350000X0.450000X-0.350000X0.450000X0*%
%TD*%
%TA.AperFunction,SMDPad,CuDef*%
%ADD22RoundRect,0.250000X-0.450000X0.350000X-0.450000X-0.350000X0.450000X-0.350000X0.450000X0.350000X0*%
%TD*%
%TA.AperFunction,SMDPad,CuDef*%
%ADD23RoundRect,0.250000X-0.337500X-0.475000X0.337500X-0.475000X0.337500X0.475000X-0.337500X0.475000X0*%
%TD*%
%TA.AperFunction,SMDPad,CuDef*%
%ADD24RoundRect,0.150000X-0.825000X-0.150000X0.825000X-0.150000X0.825000X0.150000X-0.825000X0.150000X0*%
%TD*%
%TA.AperFunction,SMDPad,CuDef*%
%ADD25RoundRect,0.150000X0.150000X-0.587500X0.150000X0.587500X-0.150000X0.587500X-0.150000X-0.587500X0*%
%TD*%
%TA.AperFunction,ViaPad*%
%ADD26C,1.500000*%
%TD*%
%TA.AperFunction,Conductor*%
%ADD27C,0.300000*%
%TD*%
%TA.AperFunction,Conductor*%
%ADD28C,0.500000*%
%TD*%
%TA.AperFunction,Conductor*%
%ADD29C,0.600000*%
%TD*%
G04 APERTURE END LIST*
D10*
%TA.AperFunction,EtchedComponent*%
%TO.C,G\u002A\u002A\u002A*%
G36*
X132252812Y-81062964D02*
G01*
X132280594Y-81066341D01*
X132316388Y-81071119D01*
X132358427Y-81077035D01*
X132404942Y-81083826D01*
X132454165Y-81091230D01*
X132504328Y-81098984D01*
X132553662Y-81106824D01*
X132600399Y-81114487D01*
X132642771Y-81121711D01*
X132679009Y-81128230D01*
X132685942Y-81129537D01*
X132776079Y-81149104D01*
X132854351Y-81171631D01*
X132922228Y-81197991D01*
X132981178Y-81229057D01*
X133032671Y-81265700D01*
X133078176Y-81308794D01*
X133119161Y-81359208D01*
X133149151Y-81404525D01*
X133172164Y-81444401D01*
X133195941Y-81490107D01*
X133221175Y-81543135D01*
X133248552Y-81604975D01*
X133278765Y-81677119D01*
X133302933Y-81736963D01*
X133358051Y-81875159D01*
X133381425Y-81850224D01*
X133409701Y-81827158D01*
X133442395Y-81811677D01*
X133475309Y-81805409D01*
X133493532Y-81806770D01*
X133530874Y-81821026D01*
X133565583Y-81847727D01*
X133597015Y-81885964D01*
X133624534Y-81934835D01*
X133647496Y-81993434D01*
X133661554Y-82044119D01*
X133677411Y-82133837D01*
X133682606Y-82220917D01*
X133677154Y-82303532D01*
X133661071Y-82379856D01*
X133658420Y-82388532D01*
X133640973Y-82443623D01*
X133687988Y-82447232D01*
X133740226Y-82448579D01*
X133795788Y-82444553D01*
X133856259Y-82434827D01*
X133923223Y-82419076D01*
X133998268Y-82396974D01*
X134082980Y-82368193D01*
X134097449Y-82362979D01*
X134230912Y-82314542D01*
X134403837Y-82048733D01*
X134465966Y-81953567D01*
X134521463Y-81869312D01*
X134570754Y-81795379D01*
X134614268Y-81731177D01*
X134652433Y-81676118D01*
X134685678Y-81629611D01*
X134714430Y-81591066D01*
X134739119Y-81559893D01*
X134760170Y-81535503D01*
X134778014Y-81517305D01*
X134793078Y-81504709D01*
X134803323Y-81498318D01*
X134813735Y-81493734D01*
X134824400Y-81491672D01*
X134837952Y-81492477D01*
X134857029Y-81496494D01*
X134884264Y-81504067D01*
X134912637Y-81512593D01*
X134960706Y-81528162D01*
X134997345Y-81542426D01*
X135024418Y-81556414D01*
X135043791Y-81571152D01*
X135057326Y-81587668D01*
X135061272Y-81594517D01*
X135067805Y-81613748D01*
X135066474Y-81633547D01*
X135056474Y-81655509D01*
X135037007Y-81681229D01*
X135007268Y-81712299D01*
X134997073Y-81722097D01*
X134941094Y-81779566D01*
X134881768Y-81848788D01*
X134819911Y-81928676D01*
X134756338Y-82018145D01*
X134691868Y-82116108D01*
X134649195Y-82184931D01*
X134629412Y-82218055D01*
X134616083Y-82241869D01*
X134608344Y-82258404D01*
X134605331Y-82269691D01*
X134606180Y-82277762D01*
X134608047Y-82281678D01*
X134612510Y-82293351D01*
X134606403Y-82299832D01*
X134603292Y-82301088D01*
X134593525Y-82307541D01*
X134592211Y-82312403D01*
X134590704Y-82321833D01*
X134584138Y-82337878D01*
X134580652Y-82344736D01*
X134569649Y-82361780D01*
X134560363Y-82367522D01*
X134556412Y-82366936D01*
X134549484Y-82371239D01*
X134538364Y-82386104D01*
X134524013Y-82409614D01*
X134507389Y-82439857D01*
X134489452Y-82474919D01*
X134471163Y-82512885D01*
X134453480Y-82551841D01*
X134437363Y-82589874D01*
X134423773Y-82625070D01*
X134416768Y-82645454D01*
X134390002Y-82735868D01*
X134369401Y-82821220D01*
X134355229Y-82899998D01*
X134347748Y-82970685D01*
X134347226Y-83031766D01*
X134347834Y-83040919D01*
X134349738Y-83077448D01*
X134348298Y-83103061D01*
X134342901Y-83120060D01*
X134332938Y-83130744D01*
X134322627Y-83135805D01*
X134301579Y-83144772D01*
X134281310Y-83155012D01*
X134260675Y-83161300D01*
X134233686Y-83159918D01*
X134198897Y-83150629D01*
X134158318Y-83134700D01*
X134138167Y-83125413D01*
X134126585Y-83116883D01*
X134119703Y-83104621D01*
X134113655Y-83084135D01*
X134113159Y-83082262D01*
X134108416Y-83053576D01*
X134106573Y-83013988D01*
X134107650Y-82963050D01*
X134111669Y-82900316D01*
X134118649Y-82825339D01*
X134128611Y-82737673D01*
X134129179Y-82733025D01*
X134134283Y-82690399D01*
X134138592Y-82652589D01*
X134141903Y-82621537D01*
X134144011Y-82599185D01*
X134144714Y-82587475D01*
X134144546Y-82586199D01*
X134137331Y-82586607D01*
X134119211Y-82588515D01*
X134092657Y-82591639D01*
X134060140Y-82595697D01*
X134047987Y-82597263D01*
X133935441Y-82608647D01*
X133826884Y-82613273D01*
X133725973Y-82610993D01*
X133720737Y-82610666D01*
X133690665Y-82608854D01*
X133665854Y-82607617D01*
X133649220Y-82607080D01*
X133643735Y-82607251D01*
X133643767Y-82613910D01*
X133646626Y-82630978D01*
X133651806Y-82655789D01*
X133658012Y-82682436D01*
X133677844Y-82776499D01*
X133691975Y-82870740D01*
X133700295Y-82962894D01*
X133702693Y-83050693D01*
X133699060Y-83131872D01*
X133689284Y-83204163D01*
X133684434Y-83226770D01*
X133676342Y-83256399D01*
X133668904Y-83273958D01*
X133661510Y-83280814D01*
X133660170Y-83281016D01*
X133648149Y-83281341D01*
X133626897Y-83281729D01*
X133600677Y-83282103D01*
X133596468Y-83282155D01*
X133510627Y-83289776D01*
X133428045Y-83310434D01*
X133349187Y-83343968D01*
X133274512Y-83390212D01*
X133258265Y-83402406D01*
X133203231Y-83450859D01*
X133155918Y-83505493D01*
X133114441Y-83568775D01*
X133080990Y-83634178D01*
X133066311Y-83665392D01*
X133054250Y-83687900D01*
X133042048Y-83705370D01*
X133026946Y-83721478D01*
X133006182Y-83739892D01*
X132993577Y-83750478D01*
X132929079Y-83802286D01*
X132869948Y-83845227D01*
X132813301Y-83881114D01*
X132756254Y-83911763D01*
X132695925Y-83938986D01*
X132690480Y-83941231D01*
X132656995Y-83954156D01*
X132623021Y-83965956D01*
X132593444Y-83974995D01*
X132579279Y-83978529D01*
X132486712Y-83991936D01*
X132396211Y-83992363D01*
X132307454Y-83979722D01*
X132220124Y-83953924D01*
X132133902Y-83914881D01*
X132048469Y-83862502D01*
X131981163Y-83811503D01*
X131960729Y-83794339D01*
X131945179Y-83780562D01*
X131936802Y-83772234D01*
X131935989Y-83770799D01*
X131941285Y-83765747D01*
X131955045Y-83753569D01*
X131975432Y-83735867D01*
X132000613Y-83714239D01*
X132013069Y-83703609D01*
X132114351Y-83613018D01*
X132204295Y-83523522D01*
X132282662Y-83435460D01*
X132349216Y-83349168D01*
X132403718Y-83264988D01*
X132445932Y-83183255D01*
X132475620Y-83104308D01*
X132492544Y-83028486D01*
X132493815Y-83018697D01*
X132495465Y-82978782D01*
X132491418Y-82941033D01*
X132482394Y-82908575D01*
X132469115Y-82884537D01*
X132461066Y-82876622D01*
X132446406Y-82868366D01*
X132424356Y-82860358D01*
X132393871Y-82852379D01*
X132353909Y-82844213D01*
X132303426Y-82835641D01*
X132241379Y-82826446D01*
X132181524Y-82818340D01*
X132065315Y-82802393D01*
X131961399Y-82786658D01*
X131870080Y-82771187D01*
X131791663Y-82756029D01*
X131730211Y-82742170D01*
X131581250Y-82700755D01*
X131443128Y-82652342D01*
X131314836Y-82596396D01*
X131195366Y-82532386D01*
X131083712Y-82459776D01*
X130978864Y-82378035D01*
X130891874Y-82298562D01*
X130799849Y-82200500D01*
X130715313Y-82093767D01*
X130637326Y-81977063D01*
X130564952Y-81849091D01*
X130558278Y-81836190D01*
X130541958Y-81804398D01*
X130577063Y-81770032D01*
X130662459Y-81695514D01*
X130754174Y-81632908D01*
X130852024Y-81582299D01*
X130955829Y-81543772D01*
X131065403Y-81517414D01*
X131143162Y-81506478D01*
X131223687Y-81500934D01*
X131305580Y-81500873D01*
X131389880Y-81506537D01*
X131477627Y-81518166D01*
X131569860Y-81536000D01*
X131667618Y-81560277D01*
X131771937Y-81591238D01*
X131883859Y-81629122D01*
X132004422Y-81674170D01*
X132134665Y-81726622D01*
X132180831Y-81745969D01*
X132252686Y-81776170D01*
X132313391Y-81801253D01*
X132364093Y-81821654D01*
X132405941Y-81837808D01*
X132440084Y-81850150D01*
X132467671Y-81859115D01*
X132489851Y-81865140D01*
X132502208Y-81867739D01*
X132527964Y-81872967D01*
X132551858Y-81878747D01*
X132562456Y-81881827D01*
X132590925Y-81885031D01*
X132621494Y-81878962D01*
X132648743Y-81865239D01*
X132663073Y-81851773D01*
X132681384Y-81817350D01*
X132689547Y-81774669D01*
X132687564Y-81724368D01*
X132675435Y-81667087D01*
X132662982Y-81628795D01*
X132631856Y-81556841D01*
X132589596Y-81481603D01*
X132535931Y-81402717D01*
X132470594Y-81319820D01*
X132393317Y-81232548D01*
X132303831Y-81140538D01*
X132299639Y-81136405D01*
X132274581Y-81111434D01*
X132253393Y-81089741D01*
X132237754Y-81073089D01*
X132229341Y-81063242D01*
X132228359Y-81061469D01*
X132234811Y-81061253D01*
X132252812Y-81062964D01*
G37*
%TD.AperFunction*%
%TA.AperFunction,EtchedComponent*%
G36*
X133706389Y-83380431D02*
G01*
X133781198Y-83402062D01*
X133852551Y-83435314D01*
X133919253Y-83479736D01*
X133980111Y-83534876D01*
X134033931Y-83600282D01*
X134035710Y-83602807D01*
X134062488Y-83647591D01*
X134087089Y-83700958D01*
X134107780Y-83758155D01*
X134122828Y-83814436D01*
X134130225Y-83861663D01*
X134131260Y-83942238D01*
X134120852Y-84020965D01*
X134099758Y-84096360D01*
X134068733Y-84166938D01*
X134028534Y-84231217D01*
X133979915Y-84287710D01*
X133923634Y-84334935D01*
X133873969Y-84364855D01*
X133841783Y-84380998D01*
X133817780Y-84392267D01*
X133798223Y-84400130D01*
X133779379Y-84406050D01*
X133757514Y-84411492D01*
X133751698Y-84412822D01*
X133673625Y-84423958D01*
X133596633Y-84422401D01*
X133521779Y-84408960D01*
X133450128Y-84384441D01*
X133382738Y-84349648D01*
X133320673Y-84305389D01*
X133264991Y-84252469D01*
X133216754Y-84191693D01*
X133177025Y-84123868D01*
X133146862Y-84049801D01*
X133127329Y-83970295D01*
X133122492Y-83934928D01*
X133120138Y-83854231D01*
X133130434Y-83775228D01*
X133153640Y-83696480D01*
X133174761Y-83646871D01*
X133215116Y-83576814D01*
X133265155Y-83515520D01*
X133323888Y-83463840D01*
X133390326Y-83422627D01*
X133463480Y-83392733D01*
X133473175Y-83389798D01*
X133551183Y-83373848D01*
X133629320Y-83370876D01*
X133706389Y-83380431D01*
G37*
%TD.AperFunction*%
%TA.AperFunction,EtchedComponent*%
G36*
X134576728Y-83179802D02*
G01*
X134603847Y-83182910D01*
X134642159Y-83191059D01*
X134686876Y-83205929D01*
X134733949Y-83225713D01*
X134779320Y-83248603D01*
X134818938Y-83272791D01*
X134838930Y-83287727D01*
X134897545Y-83344529D01*
X134946114Y-83408813D01*
X134984308Y-83479053D01*
X135011795Y-83553721D01*
X135028248Y-83631288D01*
X135033337Y-83710230D01*
X135026730Y-83789018D01*
X135008099Y-83866125D01*
X134978981Y-83936393D01*
X134938038Y-84002881D01*
X134887974Y-84060187D01*
X134829888Y-84107517D01*
X134764878Y-84144077D01*
X134694042Y-84169075D01*
X134642994Y-84179080D01*
X134571423Y-84182139D01*
X134498929Y-84172645D01*
X134427376Y-84151250D01*
X134358624Y-84118606D01*
X134294540Y-84075364D01*
X134259336Y-84044825D01*
X134238441Y-84024745D01*
X134225590Y-84011115D01*
X134219043Y-84001088D01*
X134217060Y-83991816D01*
X134217902Y-83980453D01*
X134218265Y-83977610D01*
X134221060Y-83929609D01*
X134218832Y-83873931D01*
X134212139Y-83815185D01*
X134201542Y-83757982D01*
X134187601Y-83706930D01*
X134184200Y-83697144D01*
X134173733Y-83671889D01*
X134158916Y-83640525D01*
X134142368Y-83608495D01*
X134136248Y-83597418D01*
X134103471Y-83539387D01*
X134115298Y-83498891D01*
X134141322Y-83432434D01*
X134179141Y-83368684D01*
X134227056Y-83310172D01*
X134267644Y-83272043D01*
X134286194Y-83257147D01*
X134303300Y-83245451D01*
X134322297Y-83235218D01*
X134346515Y-83224714D01*
X134379290Y-83212203D01*
X134390406Y-83208122D01*
X134434296Y-83192944D01*
X134470436Y-83183046D01*
X134503265Y-83177906D01*
X134537218Y-83177000D01*
X134576728Y-83179802D01*
G37*
%TD.AperFunction*%
%TA.AperFunction,EtchedComponent*%
G36*
X135195622Y-83782122D02*
G01*
X135228253Y-83784922D01*
X135260865Y-83789851D01*
X135275969Y-83793025D01*
X135348866Y-83816805D01*
X135416044Y-83852329D01*
X135476401Y-83898659D01*
X135528832Y-83954858D01*
X135572236Y-84019988D01*
X135593495Y-84062986D01*
X135614114Y-84121270D01*
X135627871Y-84183762D01*
X135633690Y-84244853D01*
X135633410Y-84270825D01*
X135623409Y-84344941D01*
X135601632Y-84416682D01*
X135569164Y-84483972D01*
X135527094Y-84544740D01*
X135476507Y-84596910D01*
X135452471Y-84616135D01*
X135419868Y-84636515D01*
X135379571Y-84656401D01*
X135337027Y-84673454D01*
X135297683Y-84685335D01*
X135285391Y-84687888D01*
X135218523Y-84693181D01*
X135149007Y-84687083D01*
X135079946Y-84670414D01*
X135014445Y-84643991D01*
X134955608Y-84608634D01*
X134940283Y-84596866D01*
X134905322Y-84568455D01*
X134902424Y-84520880D01*
X134897214Y-84484128D01*
X134886414Y-84440164D01*
X134871460Y-84393079D01*
X134853791Y-84346964D01*
X134834843Y-84305913D01*
X134816054Y-84274018D01*
X134815397Y-84273090D01*
X134802315Y-84254541D01*
X134792877Y-84240763D01*
X134789328Y-84235097D01*
X134794334Y-84230904D01*
X134808487Y-84222792D01*
X134828235Y-84212759D01*
X134887702Y-84177156D01*
X134944074Y-84130248D01*
X134995321Y-84074181D01*
X135039416Y-84011103D01*
X135066705Y-83960207D01*
X135080410Y-83928197D01*
X135093438Y-83892803D01*
X135104722Y-83857511D01*
X135113192Y-83825799D01*
X135117776Y-83801152D01*
X135118273Y-83792416D01*
X135124300Y-83786598D01*
X135140979Y-83782950D01*
X135165642Y-83781461D01*
X135195622Y-83782122D01*
G37*
%TD.AperFunction*%
%TA.AperFunction,EtchedComponent*%
G36*
X134240242Y-84147071D02*
G01*
X134247830Y-84154883D01*
X134265018Y-84166865D01*
X134289148Y-84181532D01*
X134317567Y-84197397D01*
X134347619Y-84212976D01*
X134376648Y-84226781D01*
X134400623Y-84236812D01*
X134451449Y-84252186D01*
X134508912Y-84263241D01*
X134567684Y-84269301D01*
X134622436Y-84269685D01*
X134644297Y-84267832D01*
X134694885Y-84261704D01*
X134717838Y-84290432D01*
X134760158Y-84353811D01*
X134790502Y-84422095D01*
X134808764Y-84493763D01*
X134814839Y-84567296D01*
X134808619Y-84641174D01*
X134790000Y-84713878D01*
X134758872Y-84783889D01*
X134753059Y-84794164D01*
X134712842Y-84851016D01*
X134663025Y-84901567D01*
X134605983Y-84944098D01*
X134544084Y-84976890D01*
X134479705Y-84998227D01*
X134467682Y-85000787D01*
X134433333Y-85006180D01*
X134400399Y-85008176D01*
X134364081Y-85006810D01*
X134319585Y-85002121D01*
X134318378Y-85001968D01*
X134249604Y-84986623D01*
X134183777Y-84959206D01*
X134122577Y-84921081D01*
X134067682Y-84873615D01*
X134020774Y-84818171D01*
X133983530Y-84756114D01*
X133966416Y-84715982D01*
X133948606Y-84649971D01*
X133940588Y-84579347D01*
X133942649Y-84508832D01*
X133951024Y-84458661D01*
X133958074Y-84434003D01*
X133967318Y-84417026D01*
X133982412Y-84401989D01*
X133991986Y-84394405D01*
X134046565Y-84345785D01*
X134096389Y-84288130D01*
X134137765Y-84225862D01*
X134146723Y-84209381D01*
X134159018Y-84188028D01*
X134171573Y-84174303D01*
X134189442Y-84163451D01*
X134201555Y-84157793D01*
X134221238Y-84149981D01*
X134235330Y-84146283D01*
X134240242Y-84147071D01*
G37*
%TD.AperFunction*%
%TA.AperFunction,EtchedComponent*%
G36*
X133397320Y-84459139D02*
G01*
X133408157Y-84463837D01*
X133460631Y-84484975D01*
X133521840Y-84500473D01*
X133588059Y-84509876D01*
X133655563Y-84512734D01*
X133720630Y-84508597D01*
X133745925Y-84504740D01*
X133761171Y-84503767D01*
X133775971Y-84508040D01*
X133794414Y-84519129D01*
X133806846Y-84528143D01*
X133822967Y-84540406D01*
X133834244Y-84550723D01*
X133841929Y-84561943D01*
X133847275Y-84576913D01*
X133851539Y-84598481D01*
X133855974Y-84629496D01*
X133857939Y-84644156D01*
X133873097Y-84713210D01*
X133899337Y-84782847D01*
X133934955Y-84849333D01*
X133978248Y-84908933D01*
X133979363Y-84910244D01*
X134004963Y-84940205D01*
X133999744Y-84986351D01*
X133984519Y-85061901D01*
X133956731Y-85134151D01*
X133917185Y-85201691D01*
X133866682Y-85263113D01*
X133815888Y-85309340D01*
X133782536Y-85331604D01*
X133740242Y-85353525D01*
X133693480Y-85373252D01*
X133646721Y-85388936D01*
X133604433Y-85398724D01*
X133597450Y-85399742D01*
X133570791Y-85401465D01*
X133536366Y-85401296D01*
X133499756Y-85399335D01*
X133481808Y-85397652D01*
X133445634Y-85392772D01*
X133415119Y-85386118D01*
X133385079Y-85376173D01*
X133350332Y-85361414D01*
X133336699Y-85355111D01*
X133266770Y-85316115D01*
X133207269Y-85269204D01*
X133157420Y-85213519D01*
X133116449Y-85148200D01*
X133084988Y-85076293D01*
X133063466Y-85003373D01*
X133053718Y-84933414D01*
X133055498Y-84863231D01*
X133064524Y-84807265D01*
X133086205Y-84734623D01*
X133118460Y-84666838D01*
X133160019Y-84605440D01*
X133209616Y-84551964D01*
X133265983Y-84507943D01*
X133327854Y-84474912D01*
X133344529Y-84468370D01*
X133368507Y-84460315D01*
X133384607Y-84457344D01*
X133397320Y-84459139D01*
G37*
%TD.AperFunction*%
%TA.AperFunction,EtchedComponent*%
G36*
X135733950Y-84320869D02*
G01*
X135751836Y-84325111D01*
X135775595Y-84331793D01*
X135781676Y-84333632D01*
X135846935Y-84360501D01*
X135906533Y-84398601D01*
X135959355Y-84446457D01*
X136004293Y-84502596D01*
X136040233Y-84565542D01*
X136066065Y-84633821D01*
X136080677Y-84705959D01*
X136083024Y-84733448D01*
X136080804Y-84806156D01*
X136066814Y-84876077D01*
X136041856Y-84941582D01*
X136006730Y-85001047D01*
X135962237Y-85052840D01*
X135909178Y-85095338D01*
X135903034Y-85099262D01*
X135865057Y-85120769D01*
X135829955Y-85134958D01*
X135791194Y-85144193D01*
X135769538Y-85147536D01*
X135719488Y-85150250D01*
X135666496Y-85146186D01*
X135616828Y-85136002D01*
X135596857Y-85129455D01*
X135560689Y-85115761D01*
X135550671Y-85063425D01*
X135532906Y-84996720D01*
X135505867Y-84929492D01*
X135471526Y-84865642D01*
X135431855Y-84809070D01*
X135408734Y-84782736D01*
X135381140Y-84754019D01*
X135403252Y-84745971D01*
X135430762Y-84733285D01*
X135464173Y-84713859D01*
X135499599Y-84690247D01*
X135533150Y-84664998D01*
X135554517Y-84646729D01*
X135606188Y-84590649D01*
X135649992Y-84525299D01*
X135684463Y-84453294D01*
X135708132Y-84377248D01*
X135709627Y-84370550D01*
X135715388Y-84346723D01*
X135720876Y-84328784D01*
X135725020Y-84320179D01*
X135725422Y-84319918D01*
X135733950Y-84320869D01*
G37*
%TD.AperFunction*%
%TA.AperFunction,EtchedComponent*%
G36*
X134957012Y-84720709D02*
G01*
X134984048Y-84729960D01*
X134998077Y-84735742D01*
X135078334Y-84764097D01*
X135155814Y-84779745D01*
X135230000Y-84782591D01*
X135244534Y-84781604D01*
X135263389Y-84781577D01*
X135279161Y-84786693D01*
X135297045Y-84799000D01*
X135304707Y-84805337D01*
X135324466Y-84823822D01*
X135347700Y-84848120D01*
X135369720Y-84873302D01*
X135371848Y-84875892D01*
X135387295Y-84895473D01*
X135399275Y-84912901D01*
X135409497Y-84931478D01*
X135419665Y-84954505D01*
X135431486Y-84985287D01*
X135438996Y-85005848D01*
X135452097Y-85042911D01*
X135461032Y-85071145D01*
X135466648Y-85094248D01*
X135469790Y-85115925D01*
X135471306Y-85139875D01*
X135471578Y-85148386D01*
X135467569Y-85227053D01*
X135451490Y-85301800D01*
X135423897Y-85371382D01*
X135385337Y-85434554D01*
X135336366Y-85490073D01*
X135309643Y-85513384D01*
X135267036Y-85541529D01*
X135216291Y-85565673D01*
X135162631Y-85583744D01*
X135111272Y-85593674D01*
X135105915Y-85594186D01*
X135072147Y-85595477D01*
X135035412Y-85594525D01*
X135008195Y-85592063D01*
X134965705Y-85582337D01*
X134918048Y-85565060D01*
X134869531Y-85542291D01*
X134824466Y-85516090D01*
X134787158Y-85488513D01*
X134782143Y-85484061D01*
X134728934Y-85426414D01*
X134686043Y-85361045D01*
X134654119Y-85289648D01*
X134633809Y-85213917D01*
X134625762Y-85135541D01*
X134627713Y-85080656D01*
X134629530Y-85063159D01*
X134632381Y-85049942D01*
X134638055Y-85038697D01*
X134648347Y-85027116D01*
X134665050Y-85012895D01*
X134689955Y-84993724D01*
X134702840Y-84983985D01*
X134746777Y-84946861D01*
X134784275Y-84905915D01*
X134817847Y-84857983D01*
X134850008Y-84799906D01*
X134851381Y-84797167D01*
X134887935Y-84723957D01*
X134916688Y-84718649D01*
X134935888Y-84717218D01*
X134957012Y-84720709D01*
G37*
%TD.AperFunction*%
%TA.AperFunction,EtchedComponent*%
G36*
X134155200Y-85045365D02*
G01*
X134176505Y-85054232D01*
X134242716Y-85077602D01*
X134313730Y-85092169D01*
X134385106Y-85097305D01*
X134448931Y-85092913D01*
X134473848Y-85090558D01*
X134491792Y-85093248D01*
X134508673Y-85102009D01*
X134511220Y-85103732D01*
X134535218Y-85120266D01*
X134537216Y-85162449D01*
X134547636Y-85242659D01*
X134570890Y-85322116D01*
X134606345Y-85399205D01*
X134653363Y-85472308D01*
X134664627Y-85486975D01*
X134705771Y-85538987D01*
X134694607Y-85581978D01*
X134668130Y-85658788D01*
X134630718Y-85727842D01*
X134582644Y-85788759D01*
X134524182Y-85841158D01*
X134493395Y-85862605D01*
X134447272Y-85887660D01*
X134393827Y-85909441D01*
X134339194Y-85925692D01*
X134302511Y-85932713D01*
X134259516Y-85935202D01*
X134209513Y-85932787D01*
X134157826Y-85926044D01*
X134109779Y-85915555D01*
X134090467Y-85909664D01*
X134025465Y-85880696D01*
X133964969Y-85840479D01*
X133910783Y-85790901D01*
X133864711Y-85733853D01*
X133828554Y-85671225D01*
X133805879Y-85611297D01*
X133799169Y-85582627D01*
X133793731Y-85549582D01*
X133789830Y-85515424D01*
X133787728Y-85483410D01*
X133787690Y-85456801D01*
X133789981Y-85438858D01*
X133791600Y-85434848D01*
X133800687Y-85426178D01*
X133816909Y-85415208D01*
X133824182Y-85411046D01*
X133853977Y-85391646D01*
X133887984Y-85364380D01*
X133922701Y-85332449D01*
X133954621Y-85299058D01*
X133978144Y-85270295D01*
X134001517Y-85235233D01*
X134024563Y-85194810D01*
X134045223Y-85153145D01*
X134061435Y-85114358D01*
X134070395Y-85085849D01*
X134076230Y-85066658D01*
X134084765Y-85055694D01*
X134100558Y-85047811D01*
X134105857Y-85045835D01*
X134122738Y-85040848D01*
X134137557Y-85040497D01*
X134155200Y-85045365D01*
G37*
%TD.AperFunction*%
%TA.AperFunction,EtchedComponent*%
G36*
X135565777Y-85214960D02*
G01*
X135581277Y-85218402D01*
X135599890Y-85223339D01*
X135663349Y-85235572D01*
X135731184Y-85238718D01*
X135786727Y-85234161D01*
X135811778Y-85230409D01*
X135831195Y-85227342D01*
X135841508Y-85225514D01*
X135842222Y-85225328D01*
X135847558Y-85229708D01*
X135858732Y-85242378D01*
X135873526Y-85260793D01*
X135876660Y-85264858D01*
X135891373Y-85285281D01*
X135903605Y-85305715D01*
X135915085Y-85329651D01*
X135927545Y-85360583D01*
X135937701Y-85388060D01*
X135950416Y-85424052D01*
X135958979Y-85451313D01*
X135964226Y-85473651D01*
X135966987Y-85494880D01*
X135968098Y-85518807D01*
X135968242Y-85527681D01*
X135967466Y-85561249D01*
X135964785Y-85596191D01*
X135960760Y-85625401D01*
X135960353Y-85627499D01*
X135949985Y-85665232D01*
X135934077Y-85706798D01*
X135914814Y-85747394D01*
X135894378Y-85782211D01*
X135883104Y-85797554D01*
X135837822Y-85843621D01*
X135785280Y-85881735D01*
X135728313Y-85910263D01*
X135669757Y-85927574D01*
X135652535Y-85930305D01*
X135588958Y-85932139D01*
X135523447Y-85922848D01*
X135460183Y-85903344D01*
X135407371Y-85877045D01*
X135367207Y-85848221D01*
X135327856Y-85812428D01*
X135291994Y-85772705D01*
X135262300Y-85732085D01*
X135241455Y-85693604D01*
X135238167Y-85685302D01*
X135228604Y-85659029D01*
X135273928Y-85638057D01*
X135326227Y-85608835D01*
X135377872Y-85570949D01*
X135423629Y-85528431D01*
X135439779Y-85510227D01*
X135477953Y-85456183D01*
X135510848Y-85393965D01*
X135536426Y-85328177D01*
X135552650Y-85263420D01*
X135554590Y-85251024D01*
X135557354Y-85231184D01*
X135559234Y-85217747D01*
X135559686Y-85214565D01*
X135565777Y-85214960D01*
G37*
%TD.AperFunction*%
%TA.AperFunction,EtchedComponent*%
G36*
X134890437Y-85655052D02*
G01*
X134922690Y-85662494D01*
X134952275Y-85670191D01*
X134979665Y-85676279D01*
X135000353Y-85679792D01*
X135005508Y-85680250D01*
X135025095Y-85685243D01*
X135051245Y-85697583D01*
X135080751Y-85715305D01*
X135110407Y-85736444D01*
X135137004Y-85759035D01*
X135141975Y-85763855D01*
X135185983Y-85817009D01*
X135219459Y-85877446D01*
X135241867Y-85943381D01*
X135252672Y-86013027D01*
X135251339Y-86084600D01*
X135247134Y-86114225D01*
X135240971Y-86138038D01*
X135230495Y-86168303D01*
X135217666Y-86199517D01*
X135213676Y-86208190D01*
X135177273Y-86269714D01*
X135130843Y-86323012D01*
X135075751Y-86367093D01*
X135013364Y-86400968D01*
X134945044Y-86423651D01*
X134906311Y-86430877D01*
X134836301Y-86433893D01*
X134767172Y-86424250D01*
X134700717Y-86402758D01*
X134638730Y-86370223D01*
X134583006Y-86327454D01*
X134535337Y-86275258D01*
X134523227Y-86258402D01*
X134497496Y-86211595D01*
X134477194Y-86156999D01*
X134463817Y-86099735D01*
X134458859Y-86044923D01*
X134458918Y-86037896D01*
X134460107Y-85983899D01*
X134505960Y-85958702D01*
X134575743Y-85913331D01*
X134638164Y-85858545D01*
X134691508Y-85796161D01*
X134734066Y-85727998D01*
X134745647Y-85704110D01*
X134756777Y-85681881D01*
X134767334Y-85664944D01*
X134775111Y-85656823D01*
X134775363Y-85656721D01*
X134806922Y-85650228D01*
X134846584Y-85649724D01*
X134890437Y-85655052D01*
G37*
%TD.AperFunction*%
%TA.AperFunction,EtchedComponent*%
G36*
X135462970Y-85999863D02*
G01*
X135474090Y-86003183D01*
X135526282Y-86015041D01*
X135584906Y-86020557D01*
X135644285Y-86019350D01*
X135670762Y-86016365D01*
X135697534Y-86013078D01*
X135719983Y-86011490D01*
X135734106Y-86011852D01*
X135735835Y-86012266D01*
X135755110Y-86021777D01*
X135780929Y-86038043D01*
X135809942Y-86058639D01*
X135838799Y-86081143D01*
X135864149Y-86103131D01*
X135872212Y-86110893D01*
X135917408Y-86163367D01*
X135953438Y-86222008D01*
X135979649Y-86282542D01*
X136000929Y-86358373D01*
X136009831Y-86434187D01*
X136006783Y-86508649D01*
X135992217Y-86580422D01*
X135966560Y-86648174D01*
X135930242Y-86710568D01*
X135883690Y-86766268D01*
X135827336Y-86813940D01*
X135803895Y-86829394D01*
X135760365Y-86853574D01*
X135719492Y-86869994D01*
X135674925Y-86880942D01*
X135649693Y-86885020D01*
X135578626Y-86888442D01*
X135507621Y-86879217D01*
X135438326Y-86858099D01*
X135372391Y-86825842D01*
X135311468Y-86783200D01*
X135257206Y-86730930D01*
X135225478Y-86691011D01*
X135210636Y-86666270D01*
X135194650Y-86633299D01*
X135178755Y-86595444D01*
X135164184Y-86556048D01*
X135152173Y-86518455D01*
X135143956Y-86486011D01*
X135140767Y-86462059D01*
X135140763Y-86461514D01*
X135141754Y-86445792D01*
X135146378Y-86433144D01*
X135156875Y-86419831D01*
X135175484Y-86402116D01*
X135177394Y-86400394D01*
X135234195Y-86340615D01*
X135279664Y-86274087D01*
X135313311Y-86201788D01*
X135334652Y-86124691D01*
X135341828Y-86070788D01*
X135344215Y-86048700D01*
X135348809Y-86035438D01*
X135358303Y-86026339D01*
X135372038Y-86018500D01*
X135400616Y-86004425D01*
X135422338Y-85997071D01*
X135441643Y-85995773D01*
X135462970Y-85999863D01*
G37*
%TD.AperFunction*%
%TD*%
D11*
%TO.P,R4,2*%
%TO.N,Net-(J4-Pad1)*%
X138500000Y-84450000D03*
%TO.P,R4,1*%
%TO.N,+3V3*%
X138500000Y-87550000D03*
%TD*%
D12*
%TO.P,J4,1,1*%
%TO.N,Net-(J4-Pad1)*%
X138500000Y-81500000D03*
%TD*%
D13*
%TO.P,J3,1,1*%
%TO.N,Net-(Q1-D)*%
X141500000Y-81500000D03*
%TD*%
D14*
%TO.P,D5,1,K*%
%TO.N,Net-(D5-K)*%
X135000000Y-108250000D03*
%TO.P,D5,2,A*%
%TO.N,/9V*%
X135000000Y-104950000D03*
%TD*%
D15*
%TO.P,U4,3,VI*%
%TO.N,Net-(D5-K)*%
X139850000Y-108300000D03*
D16*
%TO.P,U4,2,VO*%
%TO.N,+3V3*%
X146150000Y-106000000D03*
D15*
X139850000Y-106000000D03*
%TO.P,U4,1,GND*%
%TO.N,GND*%
X139850000Y-103700000D03*
%TD*%
D17*
%TO.P,C4,1*%
%TO.N,+3V3*%
X146500000Y-102537500D03*
%TO.P,C4,2*%
%TO.N,GND*%
X146500000Y-100462500D03*
%TD*%
D18*
%TO.P,D3,1,K*%
%TO.N,/in3c*%
X141605000Y-101000000D03*
%TO.P,D3,2,A*%
%TO.N,/o2*%
X138305000Y-101000000D03*
%TD*%
D19*
%TO.P,D2,1,K*%
%TO.N,Net-(D2-K)*%
X134000000Y-89850000D03*
%TO.P,D2,2,A*%
%TO.N,/in2*%
X134000000Y-93150000D03*
%TD*%
%TO.P,D1,1,K*%
%TO.N,/in2*%
X133977500Y-94850000D03*
%TO.P,D1,2,A*%
%TO.N,Net-(D1-A)*%
X133977500Y-98150000D03*
%TD*%
D12*
%TO.P,J2,1,1*%
%TO.N,/9V*%
X132000000Y-106000000D03*
%TD*%
D13*
%TO.P,J1,1,1*%
%TO.N,GND*%
X132000000Y-103000000D03*
%TD*%
D20*
%TO.P,R3,1*%
%TO.N,/out4*%
X144500000Y-88500000D03*
%TO.P,R3,2*%
%TO.N,GND*%
X144500000Y-86500000D03*
%TD*%
D21*
%TO.P,R2,1*%
%TO.N,/in3fb*%
X145000000Y-97000000D03*
%TO.P,R2,2*%
%TO.N,Net-(C2-Pad2)*%
X147000000Y-97000000D03*
%TD*%
D22*
%TO.P,R1,1*%
%TO.N,/in1*%
X131500000Y-90000000D03*
%TO.P,R1,2*%
%TO.N,Net-(C1-Pad2)*%
X131500000Y-92000000D03*
%TD*%
D17*
%TO.P,C3,1*%
%TO.N,Net-(D5-K)*%
X137400000Y-108237500D03*
%TO.P,C3,2*%
%TO.N,GND*%
X137400000Y-106162500D03*
%TD*%
D23*
%TO.P,C2,1*%
%TO.N,/out4*%
X144962500Y-95000000D03*
%TO.P,C2,2*%
%TO.N,Net-(C2-Pad2)*%
X147037500Y-95000000D03*
%TD*%
D17*
%TO.P,C1,1*%
%TO.N,/o2*%
X131500000Y-98037500D03*
%TO.P,C1,2*%
%TO.N,Net-(C1-Pad2)*%
X131500000Y-95962500D03*
%TD*%
D24*
%TO.P,U1,14,VCC*%
%TO.N,+3V3*%
X142475000Y-91190000D03*
%TO.P,U1,13*%
%TO.N,/in4*%
X142475000Y-92460000D03*
%TO.P,U1,12*%
X142475000Y-93730000D03*
%TO.P,U1,11*%
%TO.N,/out4*%
X142475000Y-95000000D03*
%TO.P,U1,10*%
%TO.N,/in3fb*%
X142475000Y-96270000D03*
%TO.P,U1,9*%
%TO.N,/in3c*%
X142475000Y-97540000D03*
%TO.P,U1,8*%
%TO.N,/in4*%
X142475000Y-98810000D03*
%TO.P,U1,7,GND*%
%TO.N,GND*%
X137525000Y-98810000D03*
%TO.P,U1,6*%
%TO.N,/o2*%
X137525000Y-97540000D03*
%TO.P,U1,5*%
%TO.N,/in2*%
X137525000Y-96270000D03*
%TO.P,U1,4*%
X137525000Y-95000000D03*
%TO.P,U1,3*%
X137525000Y-93730000D03*
%TO.P,U1,2*%
%TO.N,/in1*%
X137525000Y-92460000D03*
%TO.P,U1,1*%
X137525000Y-91190000D03*
%TD*%
D25*
%TO.P,Q1,1,G*%
%TO.N,/out4*%
X140550000Y-86437500D03*
%TO.P,Q1,2,S*%
%TO.N,GND*%
X142450000Y-86437500D03*
%TO.P,Q1,3,D*%
%TO.N,Net-(Q1-D)*%
X141500000Y-84562500D03*
%TD*%
D26*
%TO.N,GND*%
X132000000Y-103000000D03*
X149000000Y-108500000D03*
X131500000Y-86500000D03*
X148500000Y-83500000D03*
%TO.N,Net-(C2-Pad2)*%
X148000000Y-91500000D03*
%TO.N,Net-(C1-Pad2)*%
X131500000Y-94000000D03*
%TO.N,/in4*%
X144500000Y-91000000D03*
%TO.N,Net-(D1-A)*%
X134500000Y-100000000D03*
%TO.N,Net-(D2-K)*%
X134000000Y-88000000D03*
%TD*%
D27*
%TO.N,/in3c*%
X143640000Y-97540000D02*
X142475000Y-97540000D01*
X144500000Y-98400000D02*
X143640000Y-97540000D01*
X144500000Y-100500000D02*
X144500000Y-98400000D01*
X144000000Y-101000000D02*
X144500000Y-100500000D01*
X141605000Y-101000000D02*
X144000000Y-101000000D01*
%TO.N,Net-(C2-Pad2)*%
X148000000Y-91500000D02*
X147037500Y-92462500D01*
X147037500Y-92462500D02*
X147037500Y-95000000D01*
D28*
%TO.N,+3V3*%
X146500000Y-103500000D02*
X146500000Y-102537500D01*
X146150000Y-103850000D02*
X146500000Y-103500000D01*
X146150000Y-106000000D02*
X146150000Y-103850000D01*
D27*
%TO.N,Net-(D1-A)*%
X133977500Y-99477500D02*
X133977500Y-98150000D01*
X134500000Y-100000000D02*
X133977500Y-99477500D01*
D28*
%TO.N,/9V*%
X133050000Y-104950000D02*
X135000000Y-104950000D01*
X132000000Y-106000000D02*
X133050000Y-104950000D01*
D27*
%TO.N,/in4*%
X143540000Y-92460000D02*
X142475000Y-92460000D01*
X144500000Y-91500000D02*
X143540000Y-92460000D01*
X144500000Y-91000000D02*
X144500000Y-91500000D01*
%TO.N,Net-(C2-Pad2)*%
X147037500Y-96962500D02*
X147000000Y-97000000D01*
X147037500Y-95000000D02*
X147037500Y-96962500D01*
%TO.N,Net-(C1-Pad2)*%
X131500000Y-94000000D02*
X131500000Y-92000000D01*
X131500000Y-95462500D02*
X131500000Y-94000000D01*
%TO.N,/in1*%
X131500000Y-91000000D02*
X131500000Y-90000000D01*
X134000000Y-91000000D02*
X131500000Y-91000000D01*
X134190000Y-91190000D02*
X134000000Y-91000000D01*
X137525000Y-91190000D02*
X134190000Y-91190000D01*
%TO.N,/o2*%
X131500000Y-97000000D02*
X131500000Y-98037500D01*
X135500000Y-97000000D02*
X131500000Y-97000000D01*
X136040000Y-97540000D02*
X135500000Y-97000000D01*
X137525000Y-97540000D02*
X136040000Y-97540000D01*
%TO.N,/out4*%
X144962500Y-95000000D02*
X144962500Y-92537500D01*
X146000000Y-91500000D02*
X146000000Y-89000000D01*
X144962500Y-92537500D02*
X146000000Y-91500000D01*
X142475000Y-95000000D02*
X144962500Y-95000000D01*
%TO.N,/in3fb*%
X144750000Y-97000000D02*
X145000000Y-97000000D01*
X144020000Y-96270000D02*
X144750000Y-97000000D01*
X142475000Y-96270000D02*
X144020000Y-96270000D01*
D28*
%TO.N,+3V3*%
X140000000Y-91190000D02*
X142475000Y-91190000D01*
X140000000Y-92000000D02*
X140000000Y-91190000D01*
X138500000Y-89000000D02*
X138500000Y-87550000D01*
X140000000Y-92000000D02*
X140000000Y-90500000D01*
X140000000Y-90500000D02*
X138500000Y-89000000D01*
D29*
%TO.N,Net-(J4-Pad1)*%
X138500000Y-84450000D02*
X138500000Y-81500000D01*
D27*
%TO.N,/out4*%
X140550000Y-88050000D02*
X140550000Y-86437500D01*
X141000000Y-88500000D02*
X140550000Y-88050000D01*
X146000000Y-89000000D02*
X145500000Y-88500000D01*
X145500000Y-88500000D02*
X141000000Y-88500000D01*
D29*
%TO.N,Net-(Q1-D)*%
X141500000Y-84562500D02*
X141500000Y-81500000D01*
D28*
%TO.N,Net-(D5-K)*%
X139787500Y-108237500D02*
X139850000Y-108300000D01*
X137400000Y-108237500D02*
X139787500Y-108237500D01*
X137387500Y-108250000D02*
X137400000Y-108237500D01*
X135000000Y-108250000D02*
X137387500Y-108250000D01*
%TO.N,+3V3*%
X140000000Y-101000000D02*
X140000000Y-92000000D01*
X142500000Y-105000000D02*
X142500000Y-103500000D01*
X143500000Y-106000000D02*
X142500000Y-105000000D01*
X146150000Y-106000000D02*
X143500000Y-106000000D01*
X142500000Y-103500000D02*
X140000000Y-101000000D01*
D27*
%TO.N,/in2*%
X133977500Y-93172500D02*
X134000000Y-93150000D01*
X133977500Y-94850000D02*
X133977500Y-93172500D01*
X134127500Y-95000000D02*
X133977500Y-94850000D01*
X137525000Y-95000000D02*
X134127500Y-95000000D01*
%TO.N,+3V3*%
X140000000Y-105500000D02*
X139500000Y-106000000D01*
%TO.N,Net-(D2-K)*%
X134000000Y-88000000D02*
X134000000Y-89850000D01*
%TO.N,/o2*%
X139000000Y-100305000D02*
X138305000Y-101000000D01*
X138540000Y-97540000D02*
X139000000Y-98000000D01*
X137525000Y-97540000D02*
X138540000Y-97540000D01*
X139000000Y-98000000D02*
X139000000Y-100305000D01*
%TO.N,/in4*%
X142475000Y-93730000D02*
X142475000Y-92460000D01*
X141000000Y-94230001D02*
X141500001Y-93730000D01*
X141500001Y-93730000D02*
X142475000Y-93730000D01*
X141000000Y-98500000D02*
X141000000Y-94230001D01*
X142475000Y-98810000D02*
X141310000Y-98810000D01*
X141310000Y-98810000D02*
X141000000Y-98500000D01*
%TO.N,/in2*%
X137525000Y-96270000D02*
X137525000Y-95000000D01*
X137525000Y-95000000D02*
X137525000Y-93730000D01*
%TO.N,/in1*%
X137525000Y-92460000D02*
X137525000Y-91190000D01*
%TD*%
%TA.AperFunction,Conductor*%
%TO.N,GND*%
G36*
X146144423Y-80019685D02*
G01*
X146190178Y-80072489D01*
X146199855Y-80104597D01*
X146202929Y-80124000D01*
X146231523Y-80304534D01*
X146294781Y-80499223D01*
X146387715Y-80681613D01*
X146508028Y-80847213D01*
X146652786Y-80991971D01*
X146807749Y-81104556D01*
X146818390Y-81112287D01*
X146887739Y-81147622D01*
X147000776Y-81205218D01*
X147000778Y-81205218D01*
X147000781Y-81205220D01*
X147040739Y-81218203D01*
X147195465Y-81268477D01*
X147248109Y-81276815D01*
X147397648Y-81300500D01*
X147397649Y-81300500D01*
X147602351Y-81300500D01*
X147602352Y-81300500D01*
X147804534Y-81268477D01*
X147999219Y-81205220D01*
X148181610Y-81112287D01*
X148274590Y-81044732D01*
X148347213Y-80991971D01*
X148347215Y-80991968D01*
X148347219Y-80991966D01*
X148491966Y-80847219D01*
X148491968Y-80847215D01*
X148491971Y-80847213D01*
X148544732Y-80774590D01*
X148612287Y-80681610D01*
X148705220Y-80499219D01*
X148768477Y-80304534D01*
X148800143Y-80104600D01*
X148830072Y-80041467D01*
X148889384Y-80004536D01*
X148922616Y-80000000D01*
X149375500Y-80000000D01*
X149442539Y-80019685D01*
X149488294Y-80072489D01*
X149499500Y-80124000D01*
X149499500Y-109876000D01*
X149479815Y-109943039D01*
X149427011Y-109988794D01*
X149375500Y-110000000D01*
X148922616Y-110000000D01*
X148855577Y-109980315D01*
X148809822Y-109927511D01*
X148800144Y-109895402D01*
X148768477Y-109695466D01*
X148705220Y-109500781D01*
X148705218Y-109500778D01*
X148705218Y-109500776D01*
X148632394Y-109357853D01*
X148612287Y-109318390D01*
X148599289Y-109300499D01*
X148491971Y-109152786D01*
X148347213Y-109008028D01*
X148181613Y-108887715D01*
X148181612Y-108887714D01*
X148181610Y-108887713D01*
X148124653Y-108858691D01*
X147999223Y-108794781D01*
X147804534Y-108731522D01*
X147629995Y-108703878D01*
X147602352Y-108699500D01*
X147397648Y-108699500D01*
X147373329Y-108703351D01*
X147195465Y-108731522D01*
X147000776Y-108794781D01*
X146818386Y-108887715D01*
X146652786Y-109008028D01*
X146508028Y-109152786D01*
X146387715Y-109318386D01*
X146294781Y-109500776D01*
X146232427Y-109692683D01*
X146231523Y-109695466D01*
X146199856Y-109895399D01*
X146169928Y-109958533D01*
X146110616Y-109995464D01*
X146077384Y-110000000D01*
X145613304Y-110000000D01*
X145546265Y-109980315D01*
X145500510Y-109927511D01*
X145493529Y-109908093D01*
X145466392Y-109806814D01*
X145400500Y-109692686D01*
X145307314Y-109599500D01*
X145250250Y-109566554D01*
X145193187Y-109533608D01*
X145129539Y-109516554D01*
X145065892Y-109499500D01*
X140750328Y-109499500D01*
X140683289Y-109479815D01*
X140637534Y-109427011D01*
X140627590Y-109357853D01*
X140656615Y-109294297D01*
X140715393Y-109256523D01*
X140715733Y-109256424D01*
X140719091Y-109255447D01*
X140725390Y-109253618D01*
X140861420Y-109173170D01*
X140973170Y-109061420D01*
X141053618Y-108925390D01*
X141097709Y-108773627D01*
X141100500Y-108738163D01*
X141100499Y-107861838D01*
X141097709Y-107826373D01*
X141053618Y-107674610D01*
X140973170Y-107538580D01*
X140973168Y-107538578D01*
X140973165Y-107538574D01*
X140861425Y-107426834D01*
X140861416Y-107426827D01*
X140725390Y-107346382D01*
X140725385Y-107346380D01*
X140573633Y-107302292D01*
X140573620Y-107302290D01*
X140538163Y-107299500D01*
X139161849Y-107299500D01*
X139161824Y-107299501D01*
X139126372Y-107302291D01*
X138974614Y-107346380D01*
X138974609Y-107346382D01*
X138838583Y-107426827D01*
X138838574Y-107426834D01*
X138726834Y-107538574D01*
X138726828Y-107538582D01*
X138716771Y-107555588D01*
X138646382Y-107674610D01*
X138646381Y-107674611D01*
X138645489Y-107676121D01*
X138594420Y-107723804D01*
X138538757Y-107737000D01*
X138434479Y-107737000D01*
X138367440Y-107717315D01*
X138321685Y-107664511D01*
X138319020Y-107658080D01*
X138318794Y-107657665D01*
X138232547Y-107542455D01*
X138232544Y-107542452D01*
X138117335Y-107456206D01*
X138117328Y-107456202D01*
X137982482Y-107405908D01*
X137982483Y-107405908D01*
X137922883Y-107399501D01*
X137922881Y-107399500D01*
X137922873Y-107399500D01*
X137922864Y-107399500D01*
X136877129Y-107399500D01*
X136877123Y-107399501D01*
X136817516Y-107405908D01*
X136682671Y-107456202D01*
X136682664Y-107456206D01*
X136567455Y-107542452D01*
X136567452Y-107542455D01*
X136481206Y-107657664D01*
X136481204Y-107657668D01*
X136481204Y-107657669D01*
X136477039Y-107668834D01*
X136435171Y-107724766D01*
X136369707Y-107749184D01*
X136360859Y-107749500D01*
X135824807Y-107749500D01*
X135757768Y-107729815D01*
X135725541Y-107699812D01*
X135714687Y-107685313D01*
X135714681Y-107685307D01*
X135605230Y-107603374D01*
X135605227Y-107603373D01*
X135605226Y-107603372D01*
X135477114Y-107555588D01*
X135477112Y-107555587D01*
X135477110Y-107555587D01*
X135420493Y-107549500D01*
X134579518Y-107549500D01*
X134579509Y-107549501D01*
X134522885Y-107555587D01*
X134394773Y-107603372D01*
X134285313Y-107685313D01*
X134203373Y-107794771D01*
X134155587Y-107922889D01*
X134149500Y-107979498D01*
X134149500Y-108520481D01*
X134149501Y-108520490D01*
X134155587Y-108577114D01*
X134201236Y-108699500D01*
X134203372Y-108705226D01*
X134285313Y-108814687D01*
X134373177Y-108880461D01*
X134382867Y-108887715D01*
X134394774Y-108896628D01*
X134522886Y-108944412D01*
X134579515Y-108950500D01*
X135420484Y-108950499D01*
X135477114Y-108944412D01*
X135605226Y-108896628D01*
X135605229Y-108896626D01*
X135714681Y-108814692D01*
X135714683Y-108814689D01*
X135714687Y-108814687D01*
X135725541Y-108800188D01*
X135781476Y-108758317D01*
X135824807Y-108750500D01*
X136371139Y-108750500D01*
X136438178Y-108770185D01*
X136475637Y-108810418D01*
X136475888Y-108810231D01*
X136477635Y-108812565D01*
X136479973Y-108815076D01*
X136481207Y-108817336D01*
X136567452Y-108932544D01*
X136567455Y-108932547D01*
X136682664Y-109018793D01*
X136682671Y-109018797D01*
X136817517Y-109069091D01*
X136817516Y-109069091D01*
X136824444Y-109069835D01*
X136877127Y-109075500D01*
X137922872Y-109075499D01*
X137982483Y-109069091D01*
X138117331Y-109018796D01*
X138232546Y-108932546D01*
X138311254Y-108827406D01*
X138318794Y-108817334D01*
X138323044Y-108809551D01*
X138324518Y-108810356D01*
X138360166Y-108762734D01*
X138425630Y-108738316D01*
X138434479Y-108738000D01*
X138498839Y-108738000D01*
X138565878Y-108757685D01*
X138611633Y-108810489D01*
X138617912Y-108827395D01*
X138638026Y-108896628D01*
X138646382Y-108925390D01*
X138726827Y-109061416D01*
X138726834Y-109061425D01*
X138838574Y-109173165D01*
X138838578Y-109173168D01*
X138838580Y-109173170D01*
X138974610Y-109253618D01*
X138979759Y-109255114D01*
X138984267Y-109256424D01*
X139043153Y-109294030D01*
X139072359Y-109357503D01*
X139062613Y-109426689D01*
X139017009Y-109479624D01*
X138950026Y-109499499D01*
X138949672Y-109499500D01*
X134934108Y-109499500D01*
X134806812Y-109533608D01*
X134692686Y-109599500D01*
X134692683Y-109599502D01*
X134599502Y-109692683D01*
X134599500Y-109692686D01*
X134533608Y-109806812D01*
X134517520Y-109866853D01*
X134509270Y-109897648D01*
X134506471Y-109908093D01*
X134470106Y-109967754D01*
X134407259Y-109998283D01*
X134386696Y-110000000D01*
X133922616Y-110000000D01*
X133855577Y-109980315D01*
X133809822Y-109927511D01*
X133800144Y-109895402D01*
X133768477Y-109695466D01*
X133705220Y-109500781D01*
X133705218Y-109500778D01*
X133705218Y-109500776D01*
X133632394Y-109357853D01*
X133612287Y-109318390D01*
X133599289Y-109300499D01*
X133491971Y-109152786D01*
X133347213Y-109008028D01*
X133181613Y-108887715D01*
X133181612Y-108887714D01*
X133181610Y-108887713D01*
X133124653Y-108858691D01*
X132999223Y-108794781D01*
X132804534Y-108731522D01*
X132629995Y-108703878D01*
X132602352Y-108699500D01*
X132397648Y-108699500D01*
X132373329Y-108703351D01*
X132195465Y-108731522D01*
X132000776Y-108794781D01*
X131818386Y-108887715D01*
X131652786Y-109008028D01*
X131508028Y-109152786D01*
X131387715Y-109318386D01*
X131294781Y-109500776D01*
X131232427Y-109692683D01*
X131231523Y-109695466D01*
X131199856Y-109895399D01*
X131169928Y-109958533D01*
X131110616Y-109995464D01*
X131077384Y-110000000D01*
X130624500Y-110000000D01*
X130557461Y-109980315D01*
X130511706Y-109927511D01*
X130500500Y-109876000D01*
X130500500Y-106048585D01*
X130515074Y-105998949D01*
X130514887Y-105998593D01*
X130733800Y-105998593D01*
X130743477Y-106013650D01*
X130748028Y-106037778D01*
X130763793Y-106217975D01*
X130763793Y-106217979D01*
X130820422Y-106429322D01*
X130820424Y-106429326D01*
X130820425Y-106429330D01*
X130853612Y-106500499D01*
X130912897Y-106627638D01*
X130912898Y-106627639D01*
X131038402Y-106806877D01*
X131193123Y-106961598D01*
X131372361Y-107087102D01*
X131570670Y-107179575D01*
X131782023Y-107236207D01*
X131964926Y-107252208D01*
X131999998Y-107255277D01*
X132000000Y-107255277D01*
X132000002Y-107255277D01*
X132028254Y-107252805D01*
X132217977Y-107236207D01*
X132429330Y-107179575D01*
X132627639Y-107087102D01*
X132806877Y-106961598D01*
X132961598Y-106806877D01*
X133087102Y-106627639D01*
X133179575Y-106429330D01*
X133217578Y-106287500D01*
X136425000Y-106287500D01*
X136425000Y-106547844D01*
X136431401Y-106607372D01*
X136431403Y-106607379D01*
X136481645Y-106742086D01*
X136481649Y-106742093D01*
X136567809Y-106857187D01*
X136567812Y-106857190D01*
X136682906Y-106943350D01*
X136682913Y-106943354D01*
X136817620Y-106993596D01*
X136817627Y-106993598D01*
X136877155Y-106999999D01*
X136877172Y-107000000D01*
X137275000Y-107000000D01*
X137525000Y-107000000D01*
X137922828Y-107000000D01*
X137922844Y-106999999D01*
X137982372Y-106993598D01*
X137982379Y-106993596D01*
X138117086Y-106943354D01*
X138117093Y-106943350D01*
X138232187Y-106857190D01*
X138232190Y-106857187D01*
X138318350Y-106742093D01*
X138318354Y-106742086D01*
X138368596Y-106607379D01*
X138368598Y-106607372D01*
X138375077Y-106547117D01*
X138401815Y-106482566D01*
X138459208Y-106442718D01*
X138529033Y-106440225D01*
X138589121Y-106475878D01*
X138617441Y-106525775D01*
X138646382Y-106625390D01*
X138647712Y-106627639D01*
X138726827Y-106761416D01*
X138726834Y-106761425D01*
X138838574Y-106873165D01*
X138838578Y-106873168D01*
X138838580Y-106873170D01*
X138974610Y-106953618D01*
X139126373Y-106997709D01*
X139161837Y-107000500D01*
X140538162Y-107000499D01*
X140573627Y-106997709D01*
X140725390Y-106953618D01*
X140861420Y-106873170D01*
X140973170Y-106761420D01*
X141053618Y-106625390D01*
X141097709Y-106473627D01*
X141100500Y-106438163D01*
X141100499Y-105561838D01*
X141097709Y-105526373D01*
X141053618Y-105374610D01*
X140973170Y-105238580D01*
X140973168Y-105238578D01*
X140973165Y-105238574D01*
X140861425Y-105126834D01*
X140861416Y-105126827D01*
X140725390Y-105046382D01*
X140725385Y-105046380D01*
X140573633Y-105002292D01*
X140573620Y-105002290D01*
X140538163Y-104999500D01*
X139161849Y-104999500D01*
X139161824Y-104999501D01*
X139126372Y-105002291D01*
X138974614Y-105046380D01*
X138974609Y-105046382D01*
X138838583Y-105126827D01*
X138838574Y-105126834D01*
X138726834Y-105238574D01*
X138726827Y-105238583D01*
X138646382Y-105374609D01*
X138646380Y-105374614D01*
X138602292Y-105526366D01*
X138602290Y-105526379D01*
X138599500Y-105561829D01*
X138599500Y-105649409D01*
X138579815Y-105716448D01*
X138527011Y-105762203D01*
X138457853Y-105772147D01*
X138394297Y-105743122D01*
X138359318Y-105692742D01*
X138318354Y-105582913D01*
X138318350Y-105582906D01*
X138232190Y-105467812D01*
X138232187Y-105467809D01*
X138117093Y-105381649D01*
X138117086Y-105381645D01*
X137982379Y-105331403D01*
X137982372Y-105331401D01*
X137922844Y-105325000D01*
X137525000Y-105325000D01*
X137525000Y-107000000D01*
X137275000Y-107000000D01*
X137275000Y-106287500D01*
X136425000Y-106287500D01*
X133217578Y-106287500D01*
X133236207Y-106217977D01*
X133251996Y-106037500D01*
X136425000Y-106037500D01*
X137275000Y-106037500D01*
X137275000Y-105325000D01*
X136877155Y-105325000D01*
X136817627Y-105331401D01*
X136817620Y-105331403D01*
X136682913Y-105381645D01*
X136682906Y-105381649D01*
X136567812Y-105467809D01*
X136567809Y-105467812D01*
X136481649Y-105582906D01*
X136481645Y-105582913D01*
X136431403Y-105717620D01*
X136431401Y-105717627D01*
X136425000Y-105777155D01*
X136425000Y-106037500D01*
X133251996Y-106037500D01*
X133255277Y-106000000D01*
X133236207Y-105782023D01*
X133212284Y-105692742D01*
X133189201Y-105606593D01*
X133190864Y-105536743D01*
X133230027Y-105478881D01*
X133294255Y-105451377D01*
X133308976Y-105450500D01*
X134175193Y-105450500D01*
X134242232Y-105470185D01*
X134274459Y-105500188D01*
X134285312Y-105514686D01*
X134285318Y-105514692D01*
X134394769Y-105596625D01*
X134394770Y-105596625D01*
X134394774Y-105596628D01*
X134522886Y-105644412D01*
X134579515Y-105650500D01*
X135420484Y-105650499D01*
X135477114Y-105644412D01*
X135605226Y-105596628D01*
X135714687Y-105514687D01*
X135796628Y-105405226D01*
X135844412Y-105277114D01*
X135846687Y-105255944D01*
X135850499Y-105220501D01*
X135850499Y-105220494D01*
X135850500Y-105220485D01*
X135850499Y-104679516D01*
X135844412Y-104622886D01*
X135796628Y-104494774D01*
X135714687Y-104385313D01*
X135634365Y-104325185D01*
X135605228Y-104303373D01*
X135605226Y-104303372D01*
X135477114Y-104255588D01*
X135477112Y-104255587D01*
X135477110Y-104255587D01*
X135420493Y-104249500D01*
X134579518Y-104249500D01*
X134579509Y-104249501D01*
X134522885Y-104255587D01*
X134394771Y-104303373D01*
X134394770Y-104303373D01*
X134285318Y-104385307D01*
X134285312Y-104385313D01*
X134274459Y-104399812D01*
X134218524Y-104441683D01*
X134175193Y-104449500D01*
X133186037Y-104449500D01*
X133118998Y-104429815D01*
X133073243Y-104377011D01*
X133063299Y-104307853D01*
X133092324Y-104244297D01*
X133117146Y-104222398D01*
X133180239Y-104180239D01*
X133235494Y-104097544D01*
X133235496Y-104097540D01*
X133249999Y-104024628D01*
X133250000Y-104024626D01*
X133250000Y-103825000D01*
X138600000Y-103825000D01*
X138600000Y-104138118D01*
X138602788Y-104173547D01*
X138602789Y-104173553D01*
X138646843Y-104325185D01*
X138646844Y-104325188D01*
X138727226Y-104461108D01*
X138727232Y-104461116D01*
X138838883Y-104572767D01*
X138838891Y-104572773D01*
X138974811Y-104653155D01*
X138974814Y-104653156D01*
X139126446Y-104697210D01*
X139126452Y-104697211D01*
X139161881Y-104699999D01*
X139161894Y-104700000D01*
X139725000Y-104700000D01*
X139725000Y-103825000D01*
X139975000Y-103825000D01*
X139975000Y-104700000D01*
X140538106Y-104700000D01*
X140538118Y-104699999D01*
X140573547Y-104697211D01*
X140573553Y-104697210D01*
X140725185Y-104653156D01*
X140725188Y-104653155D01*
X140861108Y-104572773D01*
X140861116Y-104572767D01*
X140972767Y-104461116D01*
X140972773Y-104461108D01*
X141053155Y-104325188D01*
X141053156Y-104325185D01*
X141097210Y-104173553D01*
X141097211Y-104173547D01*
X141099999Y-104138118D01*
X141100000Y-104138105D01*
X141100000Y-103825000D01*
X139975000Y-103825000D01*
X139725000Y-103825000D01*
X138600000Y-103825000D01*
X133250000Y-103825000D01*
X133250000Y-103575000D01*
X138600000Y-103575000D01*
X139725000Y-103575000D01*
X139725000Y-102700000D01*
X139161881Y-102700000D01*
X139126452Y-102702788D01*
X139126446Y-102702789D01*
X138974814Y-102746843D01*
X138974811Y-102746844D01*
X138838891Y-102827226D01*
X138838883Y-102827232D01*
X138727232Y-102938883D01*
X138727226Y-102938891D01*
X138646844Y-103074811D01*
X138646843Y-103074814D01*
X138602789Y-103226446D01*
X138602788Y-103226452D01*
X138600000Y-103261881D01*
X138600000Y-103575000D01*
X133250000Y-103575000D01*
X133250000Y-103125000D01*
X132125000Y-103125000D01*
X132125000Y-104250000D01*
X132798660Y-104250000D01*
X132865699Y-104269685D01*
X132911454Y-104322489D01*
X132921398Y-104391647D01*
X132892373Y-104455203D01*
X132860660Y-104481387D01*
X132742689Y-104549497D01*
X132742683Y-104549502D01*
X132669301Y-104622885D01*
X132649500Y-104642686D01*
X132649498Y-104642688D01*
X132543876Y-104748309D01*
X132513416Y-104778769D01*
X132452092Y-104812253D01*
X132393642Y-104810862D01*
X132217977Y-104763793D01*
X132000002Y-104744723D01*
X131999998Y-104744723D01*
X131854682Y-104757436D01*
X131782023Y-104763793D01*
X131782020Y-104763793D01*
X131570677Y-104820422D01*
X131570668Y-104820426D01*
X131372361Y-104912898D01*
X131372357Y-104912900D01*
X131193121Y-105038402D01*
X131038402Y-105193121D01*
X130912900Y-105372357D01*
X130912898Y-105372361D01*
X130820426Y-105570668D01*
X130820422Y-105570677D01*
X130763793Y-105782020D01*
X130763793Y-105782024D01*
X130748028Y-105962221D01*
X130733800Y-105998593D01*
X130514887Y-105998593D01*
X130502931Y-105975846D01*
X130500500Y-105951414D01*
X130500500Y-103125000D01*
X130750000Y-103125000D01*
X130750000Y-104024628D01*
X130764503Y-104097540D01*
X130764505Y-104097544D01*
X130819760Y-104180239D01*
X130902455Y-104235494D01*
X130902459Y-104235496D01*
X130975371Y-104249999D01*
X130975374Y-104250000D01*
X131875000Y-104250000D01*
X131875000Y-103125000D01*
X130750000Y-103125000D01*
X130500500Y-103125000D01*
X130500500Y-102875000D01*
X130750000Y-102875000D01*
X131875000Y-102875000D01*
X131875000Y-101750000D01*
X132125000Y-101750000D01*
X132125000Y-102875000D01*
X133250000Y-102875000D01*
X133250000Y-101975373D01*
X133249999Y-101975371D01*
X133235496Y-101902459D01*
X133235494Y-101902455D01*
X133180239Y-101819760D01*
X133097544Y-101764505D01*
X133097540Y-101764503D01*
X133024627Y-101750000D01*
X132125000Y-101750000D01*
X131875000Y-101750000D01*
X130975373Y-101750000D01*
X130902459Y-101764503D01*
X130902455Y-101764505D01*
X130819760Y-101819760D01*
X130764505Y-101902455D01*
X130764503Y-101902459D01*
X130750000Y-101975371D01*
X130750000Y-102875000D01*
X130500500Y-102875000D01*
X130500500Y-98855286D01*
X130520185Y-98788247D01*
X130572989Y-98742492D01*
X130642147Y-98732548D01*
X130698810Y-98756019D01*
X130782665Y-98818793D01*
X130782668Y-98818795D01*
X130782671Y-98818797D01*
X130917517Y-98869091D01*
X130917516Y-98869091D01*
X130924444Y-98869835D01*
X130977127Y-98875500D01*
X132022872Y-98875499D01*
X132082483Y-98869091D01*
X132217331Y-98818796D01*
X132332546Y-98732546D01*
X132418796Y-98617331D01*
X132469091Y-98482483D01*
X132475500Y-98422873D01*
X132475499Y-97652128D01*
X132469091Y-97592517D01*
X132466404Y-97585313D01*
X132459885Y-97567832D01*
X132454901Y-97498140D01*
X132488387Y-97436818D01*
X132549711Y-97403333D01*
X132576067Y-97400500D01*
X133153442Y-97400500D01*
X133220481Y-97420185D01*
X133266236Y-97472989D01*
X133276180Y-97542147D01*
X133252709Y-97598810D01*
X133180874Y-97694769D01*
X133180872Y-97694773D01*
X133180872Y-97694774D01*
X133138810Y-97807544D01*
X133133087Y-97822889D01*
X133127000Y-97879498D01*
X133127000Y-98420481D01*
X133127001Y-98420490D01*
X133133087Y-98477114D01*
X133166201Y-98565892D01*
X133180872Y-98605226D01*
X133262813Y-98714687D01*
X133372274Y-98796628D01*
X133496336Y-98842901D01*
X133552267Y-98884771D01*
X133576684Y-98950235D01*
X133577000Y-98959081D01*
X133577000Y-99530231D01*
X133577660Y-99532691D01*
X133577608Y-99534845D01*
X133578061Y-99538281D01*
X133577524Y-99538351D01*
X133575994Y-99602541D01*
X133572451Y-99612218D01*
X133571186Y-99615272D01*
X133513976Y-99803865D01*
X133494659Y-100000000D01*
X133513975Y-100196129D01*
X133571188Y-100384733D01*
X133664086Y-100558532D01*
X133664090Y-100558539D01*
X133789116Y-100710883D01*
X133941460Y-100835909D01*
X133941467Y-100835913D01*
X134115266Y-100928811D01*
X134115269Y-100928811D01*
X134115273Y-100928814D01*
X134303868Y-100986024D01*
X134500000Y-101005341D01*
X134696132Y-100986024D01*
X134884727Y-100928814D01*
X134906353Y-100917255D01*
X135058532Y-100835913D01*
X135058538Y-100835910D01*
X135210883Y-100710883D01*
X135335910Y-100558538D01*
X135423444Y-100394774D01*
X135428811Y-100384733D01*
X135428811Y-100384732D01*
X135428814Y-100384727D01*
X135486024Y-100196132D01*
X135505341Y-100000000D01*
X135486024Y-99803868D01*
X135428814Y-99615273D01*
X135428811Y-99615269D01*
X135428811Y-99615266D01*
X135335913Y-99441467D01*
X135335909Y-99441460D01*
X135210883Y-99289116D01*
X135058539Y-99164090D01*
X135058532Y-99164086D01*
X134884733Y-99071188D01*
X134884727Y-99071186D01*
X134696132Y-99013976D01*
X134696129Y-99013975D01*
X134657124Y-99010134D01*
X134592337Y-98983973D01*
X134557682Y-98935000D01*
X136300001Y-98935000D01*
X136300001Y-98991479D01*
X136314835Y-99085149D01*
X136314837Y-99085155D01*
X136372356Y-99198041D01*
X136372363Y-99198050D01*
X136461949Y-99287636D01*
X136461953Y-99287639D01*
X136574855Y-99345166D01*
X136668514Y-99359999D01*
X137399999Y-99359999D01*
X137400000Y-99359998D01*
X137400000Y-98935000D01*
X136300001Y-98935000D01*
X134557682Y-98935000D01*
X134551978Y-98926939D01*
X134548861Y-98857139D01*
X134583976Y-98796734D01*
X134594968Y-98787464D01*
X134640391Y-98753461D01*
X134692187Y-98714687D01*
X134774128Y-98605226D01*
X134821912Y-98477114D01*
X134824187Y-98455944D01*
X134827999Y-98420501D01*
X134827999Y-98420490D01*
X134828000Y-98420485D01*
X134827999Y-97879516D01*
X134821912Y-97822886D01*
X134816190Y-97807546D01*
X134807698Y-97784779D01*
X134774128Y-97694774D01*
X134774126Y-97694771D01*
X134702291Y-97598810D01*
X134677874Y-97533346D01*
X134692726Y-97465073D01*
X134742131Y-97415668D01*
X134801558Y-97400500D01*
X135282745Y-97400500D01*
X135349784Y-97420185D01*
X135370425Y-97436818D01*
X135719519Y-97785912D01*
X135719520Y-97785913D01*
X135794087Y-97860480D01*
X135885413Y-97913207D01*
X135987273Y-97940500D01*
X136332746Y-97940500D01*
X136399785Y-97960185D01*
X136420428Y-97976820D01*
X136461653Y-98018046D01*
X136461656Y-98018048D01*
X136461658Y-98018050D01*
X136513403Y-98044415D01*
X136553401Y-98064796D01*
X136604196Y-98112770D01*
X136620991Y-98180591D01*
X136598453Y-98246726D01*
X136553401Y-98285764D01*
X136461956Y-98332358D01*
X136461949Y-98332363D01*
X136372363Y-98421949D01*
X136372360Y-98421953D01*
X136314833Y-98534855D01*
X136300000Y-98628513D01*
X136300000Y-98685000D01*
X137526000Y-98685000D01*
X137593039Y-98704685D01*
X137638794Y-98757489D01*
X137650000Y-98809000D01*
X137650000Y-99359999D01*
X138381484Y-99359999D01*
X138381484Y-99359998D01*
X138456103Y-99348181D01*
X138525396Y-99357136D01*
X138578848Y-99402132D01*
X138599487Y-99468884D01*
X138599500Y-99470654D01*
X138599500Y-100025500D01*
X138579815Y-100092539D01*
X138527011Y-100138294D01*
X138475500Y-100149500D01*
X138034518Y-100149500D01*
X138034509Y-100149501D01*
X137977885Y-100155587D01*
X137849773Y-100203372D01*
X137740313Y-100285313D01*
X137658373Y-100394771D01*
X137610587Y-100522889D01*
X137604500Y-100579498D01*
X137604500Y-101420481D01*
X137604501Y-101420490D01*
X137610587Y-101477114D01*
X137658372Y-101605226D01*
X137740313Y-101714687D01*
X137849774Y-101796628D01*
X137977886Y-101844412D01*
X138034515Y-101850500D01*
X138575484Y-101850499D01*
X138632114Y-101844412D01*
X138760226Y-101796628D01*
X138869687Y-101714687D01*
X138951628Y-101605226D01*
X138999412Y-101477114D01*
X139004990Y-101425232D01*
X139005499Y-101420501D01*
X139005499Y-101420490D01*
X139005500Y-101420485D01*
X139005499Y-100917254D01*
X139025183Y-100850216D01*
X139041818Y-100829574D01*
X139160509Y-100710883D01*
X139287820Y-100583571D01*
X139349142Y-100550088D01*
X139418834Y-100555072D01*
X139474767Y-100596944D01*
X139499184Y-100662408D01*
X139499500Y-100671254D01*
X139499500Y-101065891D01*
X139533608Y-101193187D01*
X139562570Y-101243350D01*
X139599500Y-101307314D01*
X139599502Y-101307316D01*
X140826052Y-102533866D01*
X140859537Y-102595189D01*
X140854553Y-102664881D01*
X140812681Y-102720814D01*
X140747217Y-102745231D01*
X140703776Y-102740623D01*
X140573553Y-102702789D01*
X140573547Y-102702788D01*
X140538118Y-102700000D01*
X139975000Y-102700000D01*
X139975000Y-103575000D01*
X141100000Y-103575000D01*
X141100000Y-103261894D01*
X141099999Y-103261881D01*
X141097211Y-103226452D01*
X141097210Y-103226446D01*
X141059376Y-103096223D01*
X141059575Y-103026354D01*
X141097517Y-102967684D01*
X141161155Y-102938840D01*
X141230285Y-102948981D01*
X141266133Y-102973947D01*
X141963181Y-103670995D01*
X141996666Y-103732318D01*
X141999500Y-103758676D01*
X141999500Y-105065891D01*
X142033608Y-105193187D01*
X142049369Y-105220485D01*
X142099500Y-105307314D01*
X143099500Y-106307314D01*
X143192686Y-106400500D01*
X143306814Y-106466392D01*
X143434108Y-106500500D01*
X144775501Y-106500500D01*
X144842540Y-106520185D01*
X144888295Y-106572989D01*
X144899501Y-106624500D01*
X144899501Y-107450018D01*
X144910000Y-107552796D01*
X144910001Y-107552799D01*
X144965185Y-107719331D01*
X144965187Y-107719336D01*
X144983792Y-107749500D01*
X145057288Y-107868656D01*
X145181344Y-107992712D01*
X145330666Y-108084814D01*
X145497203Y-108139999D01*
X145599991Y-108150500D01*
X146700008Y-108150499D01*
X146700016Y-108150498D01*
X146700019Y-108150498D01*
X146756302Y-108144748D01*
X146802797Y-108139999D01*
X146969334Y-108084814D01*
X147118656Y-107992712D01*
X147242712Y-107868656D01*
X147334814Y-107719334D01*
X147389999Y-107552797D01*
X147400500Y-107450009D01*
X147400499Y-104549992D01*
X147400448Y-104549497D01*
X147389999Y-104447203D01*
X147389998Y-104447200D01*
X147374295Y-104399812D01*
X147334814Y-104280666D01*
X147242712Y-104131344D01*
X147118656Y-104007288D01*
X147042055Y-103960040D01*
X146975163Y-103918781D01*
X146928439Y-103866833D01*
X146917216Y-103797870D01*
X146932874Y-103751241D01*
X146966389Y-103693191D01*
X146966388Y-103693191D01*
X146966392Y-103693186D01*
X147000500Y-103565892D01*
X147000500Y-103485764D01*
X147020185Y-103418725D01*
X147072989Y-103372970D01*
X147081167Y-103369582D01*
X147217328Y-103318797D01*
X147217327Y-103318797D01*
X147217331Y-103318796D01*
X147332546Y-103232546D01*
X147418796Y-103117331D01*
X147469091Y-102982483D01*
X147475500Y-102922873D01*
X147475499Y-102152128D01*
X147469091Y-102092517D01*
X147425398Y-101975371D01*
X147418797Y-101957671D01*
X147418793Y-101957664D01*
X147332547Y-101842455D01*
X147332544Y-101842452D01*
X147217335Y-101756206D01*
X147217328Y-101756202D01*
X147082482Y-101705908D01*
X147082483Y-101705908D01*
X147022883Y-101699501D01*
X147022881Y-101699500D01*
X147022873Y-101699500D01*
X147022864Y-101699500D01*
X145977129Y-101699500D01*
X145977123Y-101699501D01*
X145917516Y-101705908D01*
X145782671Y-101756202D01*
X145782664Y-101756206D01*
X145667455Y-101842452D01*
X145667452Y-101842455D01*
X145581206Y-101957664D01*
X145581202Y-101957671D01*
X145530910Y-102092513D01*
X145530909Y-102092517D01*
X145524500Y-102152127D01*
X145524500Y-102152134D01*
X145524500Y-102152135D01*
X145524500Y-102922870D01*
X145524501Y-102922876D01*
X145530908Y-102982483D01*
X145581202Y-103117328D01*
X145581206Y-103117335D01*
X145667452Y-103232544D01*
X145667455Y-103232547D01*
X145777180Y-103314688D01*
X145819051Y-103370622D01*
X145824035Y-103440313D01*
X145790551Y-103501634D01*
X145749503Y-103542682D01*
X145749500Y-103542686D01*
X145683608Y-103656812D01*
X145673861Y-103693191D01*
X145656315Y-103758676D01*
X145655005Y-103763564D01*
X145618640Y-103823225D01*
X145555793Y-103853754D01*
X145547832Y-103854829D01*
X145497202Y-103860001D01*
X145497200Y-103860001D01*
X145330668Y-103915185D01*
X145330663Y-103915187D01*
X145181342Y-104007289D01*
X145057289Y-104131342D01*
X144965187Y-104280663D01*
X144965185Y-104280668D01*
X144956177Y-104307853D01*
X144910001Y-104447203D01*
X144910001Y-104447204D01*
X144910000Y-104447204D01*
X144899500Y-104549983D01*
X144899500Y-105375500D01*
X144879815Y-105442539D01*
X144827011Y-105488294D01*
X144775500Y-105499500D01*
X143758676Y-105499500D01*
X143691637Y-105479815D01*
X143670995Y-105463181D01*
X143036819Y-104829005D01*
X143003334Y-104767682D01*
X143000500Y-104741324D01*
X143000500Y-103434110D01*
X143000500Y-103434108D01*
X142966392Y-103306814D01*
X142900500Y-103192686D01*
X142807314Y-103099500D01*
X141769994Y-102062180D01*
X141736509Y-102000857D01*
X141741493Y-101931165D01*
X141783365Y-101875232D01*
X141848829Y-101850815D01*
X141857675Y-101850499D01*
X141875481Y-101850499D01*
X141875484Y-101850499D01*
X141932114Y-101844412D01*
X142060226Y-101796628D01*
X142169687Y-101714687D01*
X142251628Y-101605226D01*
X142297901Y-101481164D01*
X142339772Y-101425232D01*
X142405237Y-101400816D01*
X142414082Y-101400500D01*
X144052725Y-101400500D01*
X144052727Y-101400500D01*
X144154588Y-101373207D01*
X144245913Y-101320480D01*
X144735706Y-100830684D01*
X144735711Y-100830681D01*
X144745911Y-100820480D01*
X144745913Y-100820480D01*
X144820480Y-100745913D01*
X144859570Y-100678207D01*
X144873207Y-100654588D01*
X144891183Y-100587500D01*
X145525000Y-100587500D01*
X145525000Y-100847844D01*
X145531401Y-100907372D01*
X145531403Y-100907379D01*
X145581645Y-101042086D01*
X145581649Y-101042093D01*
X145667809Y-101157187D01*
X145667812Y-101157190D01*
X145782906Y-101243350D01*
X145782913Y-101243354D01*
X145917620Y-101293596D01*
X145917627Y-101293598D01*
X145977155Y-101299999D01*
X145977172Y-101300000D01*
X146375000Y-101300000D01*
X146375000Y-100587500D01*
X146625000Y-100587500D01*
X146625000Y-101300000D01*
X147022828Y-101300000D01*
X147022844Y-101299999D01*
X147082372Y-101293598D01*
X147082379Y-101293596D01*
X147217086Y-101243354D01*
X147217093Y-101243350D01*
X147332187Y-101157190D01*
X147332190Y-101157187D01*
X147418350Y-101042093D01*
X147418354Y-101042086D01*
X147468596Y-100907379D01*
X147468598Y-100907372D01*
X147474999Y-100847844D01*
X147475000Y-100847827D01*
X147475000Y-100587500D01*
X146625000Y-100587500D01*
X146375000Y-100587500D01*
X145525000Y-100587500D01*
X144891183Y-100587500D01*
X144900500Y-100552727D01*
X144900500Y-100447273D01*
X144900500Y-100337500D01*
X145525000Y-100337500D01*
X146375000Y-100337500D01*
X146375000Y-99625000D01*
X146625000Y-99625000D01*
X146625000Y-100337500D01*
X147475000Y-100337500D01*
X147475000Y-100077172D01*
X147474999Y-100077155D01*
X147468598Y-100017627D01*
X147468596Y-100017620D01*
X147418354Y-99882913D01*
X147418350Y-99882906D01*
X147332190Y-99767812D01*
X147332187Y-99767809D01*
X147217093Y-99681649D01*
X147217086Y-99681645D01*
X147082379Y-99631403D01*
X147082372Y-99631401D01*
X147022844Y-99625000D01*
X146625000Y-99625000D01*
X146375000Y-99625000D01*
X145977155Y-99625000D01*
X145917627Y-99631401D01*
X145917620Y-99631403D01*
X145782913Y-99681645D01*
X145782906Y-99681649D01*
X145667812Y-99767809D01*
X145667809Y-99767812D01*
X145581649Y-99882906D01*
X145581645Y-99882913D01*
X145531403Y-100017620D01*
X145531401Y-100017627D01*
X145525000Y-100077155D01*
X145525000Y-100337500D01*
X144900500Y-100337500D01*
X144900500Y-98462729D01*
X144900501Y-98462716D01*
X144900501Y-98347274D01*
X144896973Y-98334107D01*
X144873207Y-98245413D01*
X144842419Y-98192087D01*
X144820480Y-98154087D01*
X144820475Y-98154082D01*
X144817335Y-98149990D01*
X144792138Y-98084821D01*
X144806174Y-98016376D01*
X144854986Y-97966384D01*
X144915708Y-97950499D01*
X145397871Y-97950499D01*
X145397872Y-97950499D01*
X145457483Y-97944091D01*
X145592331Y-97893796D01*
X145707546Y-97807546D01*
X145793796Y-97692331D01*
X145844091Y-97557483D01*
X145850500Y-97497873D01*
X145850500Y-97497870D01*
X146149500Y-97497870D01*
X146149501Y-97497876D01*
X146155908Y-97557483D01*
X146206202Y-97692328D01*
X146206206Y-97692335D01*
X146292452Y-97807544D01*
X146292455Y-97807547D01*
X146407664Y-97893793D01*
X146407671Y-97893797D01*
X146542517Y-97944091D01*
X146542516Y-97944091D01*
X146549444Y-97944835D01*
X146602127Y-97950500D01*
X147397872Y-97950499D01*
X147457483Y-97944091D01*
X147592331Y-97893796D01*
X147707546Y-97807546D01*
X147793796Y-97692331D01*
X147844091Y-97557483D01*
X147850500Y-97497873D01*
X147850499Y-96502128D01*
X147844091Y-96442517D01*
X147831024Y-96407483D01*
X147793797Y-96307671D01*
X147793793Y-96307664D01*
X147707547Y-96192455D01*
X147612261Y-96121123D01*
X147570391Y-96065189D01*
X147565407Y-95995497D01*
X147598893Y-95934175D01*
X147612262Y-95922590D01*
X147617329Y-95918796D01*
X147617331Y-95918796D01*
X147732546Y-95832546D01*
X147818796Y-95717331D01*
X147869091Y-95582483D01*
X147875500Y-95522873D01*
X147875499Y-94477128D01*
X147869091Y-94417517D01*
X147861026Y-94395894D01*
X147818797Y-94282671D01*
X147818793Y-94282664D01*
X147732547Y-94167455D01*
X147732544Y-94167452D01*
X147617335Y-94081206D01*
X147617328Y-94081202D01*
X147518667Y-94044404D01*
X147462733Y-94002533D01*
X147438316Y-93937068D01*
X147438000Y-93928222D01*
X147438000Y-92679754D01*
X147457685Y-92612715D01*
X147474313Y-92592078D01*
X147579835Y-92486556D01*
X147641154Y-92453074D01*
X147703509Y-92455580D01*
X147803865Y-92486023D01*
X147803867Y-92486024D01*
X147823184Y-92487926D01*
X148000000Y-92505341D01*
X148196132Y-92486024D01*
X148384727Y-92428814D01*
X148425028Y-92407273D01*
X148558532Y-92335913D01*
X148558538Y-92335910D01*
X148710883Y-92210883D01*
X148835910Y-92058538D01*
X148907633Y-91924354D01*
X148928811Y-91884733D01*
X148928811Y-91884732D01*
X148928814Y-91884727D01*
X148986024Y-91696132D01*
X149005341Y-91500000D01*
X148986024Y-91303868D01*
X148928814Y-91115273D01*
X148928811Y-91115269D01*
X148928811Y-91115266D01*
X148835913Y-90941467D01*
X148835909Y-90941460D01*
X148710883Y-90789116D01*
X148558539Y-90664090D01*
X148558532Y-90664086D01*
X148384733Y-90571188D01*
X148384727Y-90571186D01*
X148196132Y-90513976D01*
X148196129Y-90513975D01*
X148000000Y-90494659D01*
X147803870Y-90513975D01*
X147615266Y-90571188D01*
X147441467Y-90664086D01*
X147441460Y-90664090D01*
X147289116Y-90789116D01*
X147164090Y-90941460D01*
X147164086Y-90941467D01*
X147071188Y-91115266D01*
X147013975Y-91303870D01*
X146994659Y-91500000D01*
X147013975Y-91696130D01*
X147044419Y-91796490D01*
X147045042Y-91866357D01*
X147013440Y-91920166D01*
X146717019Y-92216588D01*
X146717018Y-92216590D01*
X146664292Y-92307912D01*
X146664293Y-92307913D01*
X146637000Y-92409773D01*
X146637000Y-93928222D01*
X146617315Y-93995261D01*
X146564511Y-94041016D01*
X146556333Y-94044404D01*
X146457671Y-94081202D01*
X146457664Y-94081206D01*
X146342455Y-94167452D01*
X146342452Y-94167455D01*
X146256206Y-94282664D01*
X146256202Y-94282671D01*
X146205908Y-94417517D01*
X146199501Y-94477116D01*
X146199501Y-94477123D01*
X146199500Y-94477135D01*
X146199500Y-95522870D01*
X146199501Y-95522876D01*
X146205908Y-95582483D01*
X146256202Y-95717328D01*
X146256206Y-95717335D01*
X146312066Y-95791953D01*
X146342454Y-95832546D01*
X146426876Y-95895744D01*
X146468746Y-95951677D01*
X146473730Y-96021369D01*
X146440245Y-96082692D01*
X146412002Y-96103836D01*
X146407671Y-96106201D01*
X146292455Y-96192452D01*
X146292452Y-96192455D01*
X146206206Y-96307664D01*
X146206202Y-96307671D01*
X146155908Y-96442517D01*
X146149501Y-96502116D01*
X146149501Y-96502123D01*
X146149500Y-96502135D01*
X146149500Y-97497870D01*
X145850500Y-97497870D01*
X145850499Y-96502128D01*
X145844091Y-96442517D01*
X145831024Y-96407483D01*
X145793797Y-96307671D01*
X145793793Y-96307664D01*
X145707547Y-96192455D01*
X145707544Y-96192452D01*
X145592329Y-96106201D01*
X145588001Y-96103838D01*
X145538599Y-96054429D01*
X145523752Y-95986155D01*
X145548173Y-95920693D01*
X145573118Y-95895748D01*
X145657546Y-95832546D01*
X145743796Y-95717331D01*
X145794091Y-95582483D01*
X145800500Y-95522873D01*
X145800499Y-94477128D01*
X145794091Y-94417517D01*
X145786026Y-94395894D01*
X145743797Y-94282671D01*
X145743793Y-94282664D01*
X145657547Y-94167455D01*
X145657544Y-94167452D01*
X145542335Y-94081206D01*
X145542328Y-94081202D01*
X145443667Y-94044404D01*
X145387733Y-94002533D01*
X145363316Y-93937068D01*
X145363000Y-93928222D01*
X145363000Y-92754753D01*
X145382685Y-92687714D01*
X145399315Y-92667076D01*
X146235703Y-91830687D01*
X146235708Y-91830684D01*
X146245911Y-91820480D01*
X146245913Y-91820480D01*
X146320480Y-91745913D01*
X146373207Y-91654587D01*
X146376457Y-91642457D01*
X146400501Y-91552727D01*
X146400501Y-91447273D01*
X146400501Y-91439678D01*
X146400500Y-91439660D01*
X146400500Y-88947275D01*
X146400500Y-88947273D01*
X146373207Y-88845412D01*
X146346843Y-88799750D01*
X146320480Y-88754087D01*
X146245913Y-88679520D01*
X146245912Y-88679519D01*
X146241582Y-88675189D01*
X146241571Y-88675179D01*
X145745915Y-88179522D01*
X145745914Y-88179521D01*
X145745913Y-88179520D01*
X145700250Y-88153156D01*
X145654589Y-88126793D01*
X145603657Y-88113146D01*
X145552727Y-88099500D01*
X145552726Y-88099500D01*
X145551440Y-88099500D01*
X145550395Y-88099193D01*
X145544667Y-88098439D01*
X145544784Y-88097545D01*
X145484401Y-88079815D01*
X145438646Y-88027011D01*
X145435258Y-88018833D01*
X145393797Y-87907671D01*
X145393793Y-87907664D01*
X145307547Y-87792455D01*
X145307544Y-87792452D01*
X145192335Y-87706206D01*
X145192328Y-87706202D01*
X145057482Y-87655908D01*
X145057483Y-87655908D01*
X144997883Y-87649501D01*
X144997881Y-87649500D01*
X144997873Y-87649500D01*
X144997864Y-87649500D01*
X144002129Y-87649500D01*
X144002123Y-87649501D01*
X143942516Y-87655908D01*
X143807671Y-87706202D01*
X143807664Y-87706206D01*
X143692455Y-87792452D01*
X143692452Y-87792455D01*
X143606206Y-87907664D01*
X143606202Y-87907671D01*
X143564742Y-88018833D01*
X143522871Y-88074767D01*
X143457407Y-88099184D01*
X143448560Y-88099500D01*
X141217255Y-88099500D01*
X141150216Y-88079815D01*
X141129574Y-88063181D01*
X140986819Y-87920426D01*
X140953334Y-87859103D01*
X140950500Y-87832745D01*
X140950500Y-87392254D01*
X140970185Y-87325215D01*
X140986820Y-87304572D01*
X141028046Y-87263346D01*
X141028050Y-87263342D01*
X141085646Y-87150304D01*
X141085646Y-87150302D01*
X141085647Y-87150301D01*
X141100499Y-87056524D01*
X141100500Y-87056519D01*
X141100500Y-86562500D01*
X141900001Y-86562500D01*
X141900001Y-87056479D01*
X141914835Y-87150149D01*
X141914837Y-87150155D01*
X141972356Y-87263041D01*
X141972363Y-87263050D01*
X142061949Y-87352636D01*
X142061953Y-87352639D01*
X142174855Y-87410166D01*
X142268514Y-87424999D01*
X142324999Y-87424998D01*
X142325000Y-87424998D01*
X142325000Y-86562500D01*
X142575000Y-86562500D01*
X142575000Y-87424999D01*
X142631479Y-87424999D01*
X142725149Y-87410164D01*
X142725155Y-87410162D01*
X142838041Y-87352643D01*
X142838050Y-87352636D01*
X142927636Y-87263050D01*
X142927639Y-87263046D01*
X142985166Y-87150144D01*
X143000000Y-87056486D01*
X143000000Y-86625000D01*
X143550000Y-86625000D01*
X143550000Y-86897844D01*
X143556401Y-86957372D01*
X143556403Y-86957379D01*
X143606645Y-87092086D01*
X143606649Y-87092093D01*
X143692809Y-87207187D01*
X143692812Y-87207190D01*
X143807906Y-87293350D01*
X143807913Y-87293354D01*
X143942620Y-87343596D01*
X143942627Y-87343598D01*
X144002155Y-87349999D01*
X144002172Y-87350000D01*
X144375000Y-87350000D01*
X144375000Y-86625000D01*
X144625000Y-86625000D01*
X144625000Y-87350000D01*
X144997828Y-87350000D01*
X144997844Y-87349999D01*
X145057372Y-87343598D01*
X145057379Y-87343596D01*
X145192086Y-87293354D01*
X145192093Y-87293350D01*
X145307187Y-87207190D01*
X145307190Y-87207187D01*
X145393350Y-87092093D01*
X145393354Y-87092086D01*
X145443596Y-86957379D01*
X145443598Y-86957372D01*
X145449999Y-86897844D01*
X145450000Y-86897827D01*
X145450000Y-86625000D01*
X144625000Y-86625000D01*
X144375000Y-86625000D01*
X143550000Y-86625000D01*
X143000000Y-86625000D01*
X143000000Y-86562500D01*
X142575000Y-86562500D01*
X142325000Y-86562500D01*
X141900001Y-86562500D01*
X141100500Y-86562500D01*
X141100500Y-86375000D01*
X143550000Y-86375000D01*
X144375000Y-86375000D01*
X144375000Y-85650000D01*
X144625000Y-85650000D01*
X144625000Y-86375000D01*
X145450000Y-86375000D01*
X145450000Y-86102172D01*
X145449999Y-86102155D01*
X145443598Y-86042627D01*
X145443596Y-86042620D01*
X145393354Y-85907913D01*
X145393350Y-85907906D01*
X145307190Y-85792812D01*
X145307187Y-85792809D01*
X145192093Y-85706649D01*
X145192086Y-85706645D01*
X145057379Y-85656403D01*
X145057372Y-85656401D01*
X144997844Y-85650000D01*
X144625000Y-85650000D01*
X144375000Y-85650000D01*
X144002155Y-85650000D01*
X143942627Y-85656401D01*
X143942620Y-85656403D01*
X143807913Y-85706645D01*
X143807906Y-85706649D01*
X143692812Y-85792809D01*
X143692809Y-85792812D01*
X143606649Y-85907906D01*
X143606645Y-85907913D01*
X143556403Y-86042620D01*
X143556401Y-86042627D01*
X143550000Y-86102155D01*
X143550000Y-86375000D01*
X141100500Y-86375000D01*
X141100499Y-85818482D01*
X141085646Y-85724696D01*
X141078527Y-85710725D01*
X141065632Y-85642059D01*
X141091908Y-85577319D01*
X141149014Y-85537061D01*
X141215039Y-85534231D01*
X141215057Y-85534120D01*
X141215605Y-85534206D01*
X141218820Y-85534069D01*
X141223893Y-85535519D01*
X141318475Y-85550499D01*
X141318481Y-85550500D01*
X141681518Y-85550499D01*
X141775304Y-85535646D01*
X141775305Y-85535645D01*
X141784943Y-85534119D01*
X141785232Y-85535946D01*
X141843163Y-85534283D01*
X141903001Y-85570354D01*
X141933839Y-85633051D01*
X141925885Y-85702466D01*
X141922145Y-85710505D01*
X141914834Y-85724853D01*
X141914833Y-85724855D01*
X141900000Y-85818513D01*
X141900000Y-86312500D01*
X142325000Y-86312500D01*
X142325000Y-85450000D01*
X142575000Y-85450000D01*
X142575000Y-86312500D01*
X142999999Y-86312500D01*
X142999999Y-85818520D01*
X142985164Y-85724850D01*
X142985162Y-85724844D01*
X142927643Y-85611958D01*
X142927636Y-85611949D01*
X142838050Y-85522363D01*
X142838046Y-85522360D01*
X142725144Y-85464833D01*
X142631486Y-85450000D01*
X142575000Y-85450000D01*
X142325000Y-85450000D01*
X142324999Y-85449999D01*
X142268521Y-85450000D01*
X142165214Y-85466362D01*
X142164916Y-85464482D01*
X142107150Y-85466125D01*
X142047322Y-85430037D01*
X142016502Y-85367332D01*
X142024476Y-85297919D01*
X142028195Y-85289925D01*
X142035646Y-85275304D01*
X142036169Y-85272003D01*
X142050500Y-85181524D01*
X142050500Y-82874500D01*
X142070185Y-82807461D01*
X142122989Y-82761706D01*
X142174500Y-82750500D01*
X142524676Y-82750500D01*
X142524677Y-82750499D01*
X142597740Y-82735966D01*
X142680601Y-82680601D01*
X142735966Y-82597740D01*
X142750500Y-82524674D01*
X142750500Y-80624500D01*
X142770185Y-80557461D01*
X142822989Y-80511706D01*
X142874500Y-80500500D01*
X145065890Y-80500500D01*
X145065892Y-80500500D01*
X145193186Y-80466392D01*
X145307314Y-80400500D01*
X145400500Y-80307314D01*
X145466392Y-80193186D01*
X145493529Y-80091905D01*
X145529894Y-80032246D01*
X145592741Y-80001717D01*
X145613304Y-80000000D01*
X146077384Y-80000000D01*
X146144423Y-80019685D01*
G37*
%TD.AperFunction*%
%TA.AperFunction,Conductor*%
G36*
X134453735Y-80019685D02*
G01*
X134499490Y-80072489D01*
X134506469Y-80091902D01*
X134515070Y-80124000D01*
X134533608Y-80193187D01*
X134566554Y-80250250D01*
X134599500Y-80307314D01*
X134692686Y-80400500D01*
X134806814Y-80466392D01*
X134934108Y-80500500D01*
X137435076Y-80500500D01*
X137502115Y-80520185D01*
X137547870Y-80572989D01*
X137557814Y-80642147D01*
X137536651Y-80695623D01*
X137412900Y-80872357D01*
X137412898Y-80872361D01*
X137320426Y-81070668D01*
X137320422Y-81070677D01*
X137263793Y-81282020D01*
X137263793Y-81282023D01*
X137260870Y-81315432D01*
X137244723Y-81499997D01*
X137244723Y-81500002D01*
X137250288Y-81563612D01*
X137260949Y-81685474D01*
X137263793Y-81717975D01*
X137263793Y-81717979D01*
X137320422Y-81929322D01*
X137320424Y-81929326D01*
X137320425Y-81929330D01*
X137339035Y-81969239D01*
X137412897Y-82127638D01*
X137412898Y-82127639D01*
X137538402Y-82306877D01*
X137693123Y-82461598D01*
X137872361Y-82587102D01*
X137877900Y-82589685D01*
X137930339Y-82635851D01*
X137949500Y-82702068D01*
X137949500Y-83425500D01*
X137929815Y-83492539D01*
X137877011Y-83538294D01*
X137830389Y-83548450D01*
X137830423Y-83549099D01*
X137830429Y-83549146D01*
X137830426Y-83549146D01*
X137830436Y-83549324D01*
X137827123Y-83549501D01*
X137767516Y-83555908D01*
X137632671Y-83606202D01*
X137632664Y-83606206D01*
X137517455Y-83692452D01*
X137517452Y-83692455D01*
X137431206Y-83807664D01*
X137431202Y-83807671D01*
X137380908Y-83942517D01*
X137377118Y-83977773D01*
X137374501Y-84002123D01*
X137374500Y-84002135D01*
X137374500Y-84897870D01*
X137374501Y-84897876D01*
X137380908Y-84957483D01*
X137431202Y-85092328D01*
X137431206Y-85092335D01*
X137517452Y-85207544D01*
X137517455Y-85207547D01*
X137632664Y-85293793D01*
X137632671Y-85293797D01*
X137767517Y-85344091D01*
X137767516Y-85344091D01*
X137774444Y-85344835D01*
X137827127Y-85350500D01*
X139172872Y-85350499D01*
X139232483Y-85344091D01*
X139367331Y-85293796D01*
X139482546Y-85207546D01*
X139568796Y-85092331D01*
X139619091Y-84957483D01*
X139625500Y-84897873D01*
X139625499Y-84002128D01*
X139619091Y-83942517D01*
X139605752Y-83906754D01*
X139568797Y-83807671D01*
X139568793Y-83807664D01*
X139482547Y-83692455D01*
X139482544Y-83692452D01*
X139367335Y-83606206D01*
X139367328Y-83606202D01*
X139232482Y-83555908D01*
X139232483Y-83555908D01*
X139172883Y-83549501D01*
X139172881Y-83549500D01*
X139172873Y-83549500D01*
X139172864Y-83549500D01*
X139169548Y-83549322D01*
X139169615Y-83548065D01*
X139107461Y-83529815D01*
X139061706Y-83477011D01*
X139050500Y-83425500D01*
X139050500Y-82702068D01*
X139070185Y-82635029D01*
X139122099Y-82589685D01*
X139127639Y-82587102D01*
X139306877Y-82461598D01*
X139461598Y-82306877D01*
X139587102Y-82127639D01*
X139679575Y-81929330D01*
X139736207Y-81717977D01*
X139754197Y-81512343D01*
X139755277Y-81500002D01*
X139755277Y-81499997D01*
X139749879Y-81438300D01*
X139736207Y-81282023D01*
X139690726Y-81112287D01*
X139679577Y-81070677D01*
X139679576Y-81070676D01*
X139679575Y-81070670D01*
X139587102Y-80872362D01*
X139587100Y-80872359D01*
X139587099Y-80872357D01*
X139463349Y-80695623D01*
X139441022Y-80629417D01*
X139458032Y-80561650D01*
X139508980Y-80513837D01*
X139564924Y-80500500D01*
X140125500Y-80500500D01*
X140192539Y-80520185D01*
X140238294Y-80572989D01*
X140249500Y-80624500D01*
X140249500Y-82524678D01*
X140264032Y-82597735D01*
X140264033Y-82597739D01*
X140264034Y-82597740D01*
X140319399Y-82680601D01*
X140387120Y-82725850D01*
X140402260Y-82735966D01*
X140402264Y-82735967D01*
X140475321Y-82750499D01*
X140475324Y-82750500D01*
X140475326Y-82750500D01*
X140825500Y-82750500D01*
X140892539Y-82770185D01*
X140938294Y-82822989D01*
X140949500Y-82874500D01*
X140949500Y-85181517D01*
X140953623Y-85207546D01*
X140964354Y-85275304D01*
X140968764Y-85283959D01*
X140971472Y-85289273D01*
X140984367Y-85357942D01*
X140958090Y-85422682D01*
X140900983Y-85462938D01*
X140834960Y-85465767D01*
X140834943Y-85465880D01*
X140834389Y-85465792D01*
X140831177Y-85465930D01*
X140826109Y-85464480D01*
X140731524Y-85449500D01*
X140368482Y-85449500D01*
X140290014Y-85461928D01*
X140274696Y-85464354D01*
X140161658Y-85521950D01*
X140161657Y-85521951D01*
X140161652Y-85521954D01*
X140071954Y-85611652D01*
X140071951Y-85611657D01*
X140071950Y-85611658D01*
X140056460Y-85642059D01*
X140014352Y-85724698D01*
X139999500Y-85818475D01*
X139999500Y-87056517D01*
X140010128Y-87123619D01*
X140014354Y-87150304D01*
X140071950Y-87263342D01*
X140071952Y-87263344D01*
X140071953Y-87263346D01*
X140113180Y-87304572D01*
X140146666Y-87365895D01*
X140149500Y-87392254D01*
X140149500Y-88102726D01*
X140176793Y-88204589D01*
X140203156Y-88250250D01*
X140229520Y-88295913D01*
X140754087Y-88820480D01*
X140845412Y-88873207D01*
X140947273Y-88900500D01*
X143448560Y-88900500D01*
X143515599Y-88920185D01*
X143561354Y-88972989D01*
X143564742Y-88981167D01*
X143606202Y-89092328D01*
X143606206Y-89092335D01*
X143692452Y-89207544D01*
X143692455Y-89207547D01*
X143807664Y-89293793D01*
X143807671Y-89293797D01*
X143942517Y-89344091D01*
X143942516Y-89344091D01*
X143949444Y-89344835D01*
X144002127Y-89350500D01*
X144997872Y-89350499D01*
X145057483Y-89344091D01*
X145192331Y-89293796D01*
X145307546Y-89207546D01*
X145364610Y-89131318D01*
X145420543Y-89089448D01*
X145490235Y-89084464D01*
X145551557Y-89117949D01*
X145563181Y-89129573D01*
X145596666Y-89190896D01*
X145599500Y-89217254D01*
X145599500Y-90439567D01*
X145579815Y-90506606D01*
X145527011Y-90552361D01*
X145457853Y-90562305D01*
X145394297Y-90533280D01*
X145366142Y-90498020D01*
X145335914Y-90441467D01*
X145335909Y-90441460D01*
X145210883Y-90289116D01*
X145058539Y-90164090D01*
X145058532Y-90164086D01*
X144884733Y-90071188D01*
X144884727Y-90071186D01*
X144696132Y-90013976D01*
X144696129Y-90013975D01*
X144500000Y-89994659D01*
X144303870Y-90013975D01*
X144115266Y-90071188D01*
X143941467Y-90164086D01*
X143941460Y-90164090D01*
X143789116Y-90289116D01*
X143664090Y-90441460D01*
X143664086Y-90441467D01*
X143580740Y-90597397D01*
X143531778Y-90647242D01*
X143463640Y-90662702D01*
X143433064Y-90656875D01*
X143425302Y-90654353D01*
X143331524Y-90639500D01*
X141618482Y-90639500D01*
X141524694Y-90654354D01*
X141482243Y-90675985D01*
X141425948Y-90689500D01*
X140624500Y-90689500D01*
X140557461Y-90669815D01*
X140511706Y-90617011D01*
X140500500Y-90565500D01*
X140500500Y-90434110D01*
X140500500Y-90434108D01*
X140466392Y-90306814D01*
X140400500Y-90192686D01*
X140307314Y-90099500D01*
X139036819Y-88829005D01*
X139003334Y-88767682D01*
X139000500Y-88741324D01*
X139000500Y-88574499D01*
X139020185Y-88507460D01*
X139072989Y-88461705D01*
X139124500Y-88450499D01*
X139172871Y-88450499D01*
X139172872Y-88450499D01*
X139232483Y-88444091D01*
X139367331Y-88393796D01*
X139482546Y-88307546D01*
X139568796Y-88192331D01*
X139619091Y-88057483D01*
X139625500Y-87997873D01*
X139625499Y-87102128D01*
X139619091Y-87042517D01*
X139613398Y-87027254D01*
X139568797Y-86907671D01*
X139568793Y-86907664D01*
X139482547Y-86792455D01*
X139482544Y-86792452D01*
X139367335Y-86706206D01*
X139367328Y-86706202D01*
X139232482Y-86655908D01*
X139232483Y-86655908D01*
X139172883Y-86649501D01*
X139172881Y-86649500D01*
X139172873Y-86649500D01*
X139172864Y-86649500D01*
X137827129Y-86649500D01*
X137827123Y-86649501D01*
X137767516Y-86655908D01*
X137632671Y-86706202D01*
X137632664Y-86706206D01*
X137517455Y-86792452D01*
X137517452Y-86792455D01*
X137431206Y-86907664D01*
X137431202Y-86907671D01*
X137380908Y-87042517D01*
X137374501Y-87102116D01*
X137374501Y-87102123D01*
X137374500Y-87102135D01*
X137374500Y-87997870D01*
X137374501Y-87997876D01*
X137380908Y-88057483D01*
X137431202Y-88192328D01*
X137431206Y-88192335D01*
X137517452Y-88307544D01*
X137517455Y-88307547D01*
X137632664Y-88393793D01*
X137632671Y-88393797D01*
X137677618Y-88410561D01*
X137767517Y-88444091D01*
X137827127Y-88450500D01*
X137875500Y-88450499D01*
X137942537Y-88470182D01*
X137988293Y-88522985D01*
X137999500Y-88574499D01*
X137999500Y-88934108D01*
X137999500Y-89065892D01*
X138016554Y-89129539D01*
X138033608Y-89193187D01*
X138065171Y-89247855D01*
X138099500Y-89307314D01*
X138099502Y-89307316D01*
X139463181Y-90670995D01*
X139496666Y-90732318D01*
X139499500Y-90758676D01*
X139499500Y-97633745D01*
X139479815Y-97700784D01*
X139427011Y-97746539D01*
X139357853Y-97756483D01*
X139294297Y-97727458D01*
X139287819Y-97721426D01*
X138785915Y-97219522D01*
X138785913Y-97219520D01*
X138705403Y-97173037D01*
X138679722Y-97153331D01*
X138678051Y-97151660D01*
X138678050Y-97151658D01*
X138588342Y-97061950D01*
X138585599Y-97060552D01*
X138497147Y-97015483D01*
X138446352Y-96967509D01*
X138429557Y-96899687D01*
X138452095Y-96833553D01*
X138497145Y-96794517D01*
X138588342Y-96748050D01*
X138678050Y-96658342D01*
X138735646Y-96545304D01*
X138735646Y-96545302D01*
X138735647Y-96545301D01*
X138750499Y-96451524D01*
X138750500Y-96451519D01*
X138750499Y-96088482D01*
X138735646Y-95994696D01*
X138678050Y-95881658D01*
X138678046Y-95881654D01*
X138678045Y-95881652D01*
X138588347Y-95791954D01*
X138588343Y-95791951D01*
X138588342Y-95791950D01*
X138585599Y-95790552D01*
X138497147Y-95745483D01*
X138446352Y-95697509D01*
X138429557Y-95629687D01*
X138452095Y-95563553D01*
X138497145Y-95524517D01*
X138588342Y-95478050D01*
X138678050Y-95388342D01*
X138735646Y-95275304D01*
X138735646Y-95275302D01*
X138735647Y-95275301D01*
X138750499Y-95181524D01*
X138750500Y-95181519D01*
X138750499Y-94818482D01*
X138735646Y-94724696D01*
X138678050Y-94611658D01*
X138678046Y-94611654D01*
X138678045Y-94611652D01*
X138588347Y-94521954D01*
X138588343Y-94521951D01*
X138588342Y-94521950D01*
X138582227Y-94518834D01*
X138497147Y-94475483D01*
X138446352Y-94427509D01*
X138429557Y-94359687D01*
X138452095Y-94293553D01*
X138497145Y-94254517D01*
X138588342Y-94208050D01*
X138678050Y-94118342D01*
X138735646Y-94005304D01*
X138735646Y-94005302D01*
X138735647Y-94005301D01*
X138746453Y-93937068D01*
X138750500Y-93911519D01*
X138750499Y-93548482D01*
X138735646Y-93454696D01*
X138678050Y-93341658D01*
X138678046Y-93341654D01*
X138678045Y-93341652D01*
X138588347Y-93251954D01*
X138588343Y-93251951D01*
X138588342Y-93251950D01*
X138585599Y-93250552D01*
X138497147Y-93205483D01*
X138446352Y-93157509D01*
X138429557Y-93089687D01*
X138452095Y-93023553D01*
X138497145Y-92984517D01*
X138588342Y-92938050D01*
X138678050Y-92848342D01*
X138735646Y-92735304D01*
X138735646Y-92735302D01*
X138735647Y-92735301D01*
X138750499Y-92641524D01*
X138750500Y-92641519D01*
X138750499Y-92278482D01*
X138735646Y-92184696D01*
X138678050Y-92071658D01*
X138678046Y-92071654D01*
X138678045Y-92071652D01*
X138588347Y-91981954D01*
X138588343Y-91981951D01*
X138588342Y-91981950D01*
X138585599Y-91980552D01*
X138497147Y-91935483D01*
X138446352Y-91887509D01*
X138429557Y-91819687D01*
X138452095Y-91753553D01*
X138497145Y-91714517D01*
X138588342Y-91668050D01*
X138678050Y-91578342D01*
X138735646Y-91465304D01*
X138735646Y-91465302D01*
X138735647Y-91465301D01*
X138750499Y-91371524D01*
X138750500Y-91371519D01*
X138750499Y-91008482D01*
X138735646Y-90914696D01*
X138678050Y-90801658D01*
X138678046Y-90801654D01*
X138678045Y-90801652D01*
X138588347Y-90711954D01*
X138588344Y-90711952D01*
X138588342Y-90711950D01*
X138491688Y-90662702D01*
X138475301Y-90654352D01*
X138381524Y-90639500D01*
X136668482Y-90639500D01*
X136587519Y-90652323D01*
X136574696Y-90654354D01*
X136461658Y-90711950D01*
X136461657Y-90711951D01*
X136461653Y-90711953D01*
X136420428Y-90753180D01*
X136359105Y-90786666D01*
X136332746Y-90789500D01*
X134503890Y-90789500D01*
X134436851Y-90769815D01*
X134391096Y-90717011D01*
X134381152Y-90647853D01*
X134410177Y-90584297D01*
X134468955Y-90546523D01*
X134475374Y-90544823D01*
X134477104Y-90544413D01*
X134477114Y-90544412D01*
X134605226Y-90496628D01*
X134714687Y-90414687D01*
X134796628Y-90305226D01*
X134844412Y-90177114D01*
X134846687Y-90155944D01*
X134850499Y-90120501D01*
X134850499Y-90120490D01*
X134850500Y-90120485D01*
X134850499Y-89579516D01*
X134844412Y-89522886D01*
X134796628Y-89394774D01*
X134714687Y-89285313D01*
X134648911Y-89236074D01*
X134605228Y-89203373D01*
X134605226Y-89203372D01*
X134481164Y-89157098D01*
X134425232Y-89115228D01*
X134400816Y-89049763D01*
X134400500Y-89040918D01*
X134400500Y-88994705D01*
X134420185Y-88927666D01*
X134466045Y-88885348D01*
X134558538Y-88835910D01*
X134710883Y-88710883D01*
X134835910Y-88558538D01*
X134928814Y-88384727D01*
X134986024Y-88196132D01*
X135005341Y-88000000D01*
X134986024Y-87803868D01*
X134928814Y-87615273D01*
X134928811Y-87615269D01*
X134928811Y-87615266D01*
X134835913Y-87441467D01*
X134835909Y-87441460D01*
X134710883Y-87289116D01*
X134558539Y-87164090D01*
X134558532Y-87164086D01*
X134384733Y-87071188D01*
X134384727Y-87071186D01*
X134239917Y-87027258D01*
X134196129Y-87013975D01*
X134000000Y-86994659D01*
X133803870Y-87013975D01*
X133615266Y-87071188D01*
X133441467Y-87164086D01*
X133441460Y-87164090D01*
X133289116Y-87289116D01*
X133164090Y-87441460D01*
X133164086Y-87441467D01*
X133071188Y-87615266D01*
X133013975Y-87803870D01*
X132994659Y-88000000D01*
X133013975Y-88196129D01*
X133071188Y-88384733D01*
X133164086Y-88558532D01*
X133164090Y-88558539D01*
X133289116Y-88710883D01*
X133441460Y-88835909D01*
X133441463Y-88835911D01*
X133459237Y-88845411D01*
X133533953Y-88885347D01*
X133583797Y-88934308D01*
X133599500Y-88994705D01*
X133599500Y-89040917D01*
X133579815Y-89107956D01*
X133527011Y-89153711D01*
X133518835Y-89157098D01*
X133394773Y-89203372D01*
X133285313Y-89285313D01*
X133203373Y-89394771D01*
X133155587Y-89522889D01*
X133149500Y-89579498D01*
X133149500Y-90120481D01*
X133149501Y-90120490D01*
X133155587Y-90177114D01*
X133203373Y-90305228D01*
X133275209Y-90401190D01*
X133299626Y-90466654D01*
X133284774Y-90534927D01*
X133235369Y-90584332D01*
X133175942Y-90599500D01*
X132566868Y-90599500D01*
X132499829Y-90579815D01*
X132454074Y-90527011D01*
X132443579Y-90462244D01*
X132445813Y-90441467D01*
X132450500Y-90397873D01*
X132450499Y-89602128D01*
X132444091Y-89542517D01*
X132436770Y-89522889D01*
X132393797Y-89407671D01*
X132393793Y-89407664D01*
X132307547Y-89292455D01*
X132307544Y-89292452D01*
X132192335Y-89206206D01*
X132192328Y-89206202D01*
X132057482Y-89155908D01*
X132057483Y-89155908D01*
X131997883Y-89149501D01*
X131997881Y-89149500D01*
X131997873Y-89149500D01*
X131997864Y-89149500D01*
X131002129Y-89149500D01*
X131002123Y-89149501D01*
X130942516Y-89155908D01*
X130807671Y-89206202D01*
X130807669Y-89206204D01*
X130698811Y-89287695D01*
X130633347Y-89312112D01*
X130565074Y-89297260D01*
X130515668Y-89247855D01*
X130500500Y-89188428D01*
X130500500Y-82567616D01*
X130520185Y-82500577D01*
X130572989Y-82454822D01*
X130642147Y-82444878D01*
X130705703Y-82473903D01*
X130711581Y-82479339D01*
X130719542Y-82487194D01*
X130769336Y-82532685D01*
X130806530Y-82566665D01*
X130821775Y-82579538D01*
X130845123Y-82597740D01*
X130926620Y-82661276D01*
X130944420Y-82673968D01*
X131011601Y-82717656D01*
X131056072Y-82746577D01*
X131062703Y-82750500D01*
X131074701Y-82757598D01*
X131194171Y-82821608D01*
X131212705Y-82830596D01*
X131340997Y-82886542D01*
X131349208Y-82889766D01*
X131358610Y-82893459D01*
X131406345Y-82910190D01*
X131496736Y-82941873D01*
X131512810Y-82946918D01*
X131572402Y-82963486D01*
X131661752Y-82988328D01*
X131661762Y-82988330D01*
X131661771Y-82988333D01*
X131674001Y-82991410D01*
X131735453Y-83005269D01*
X131743172Y-83006885D01*
X131743180Y-83006886D01*
X131743187Y-83006888D01*
X131821567Y-83022039D01*
X131821587Y-83022042D01*
X131821589Y-83022043D01*
X131827402Y-83023097D01*
X131918721Y-83038568D01*
X131923147Y-83039278D01*
X132021486Y-83054168D01*
X132084820Y-83083666D01*
X132122154Y-83142725D01*
X132121632Y-83212593D01*
X132101109Y-83252498D01*
X132088493Y-83268856D01*
X132082935Y-83275562D01*
X132021080Y-83345069D01*
X132015910Y-83350535D01*
X131941295Y-83424778D01*
X131936500Y-83429302D01*
X131846028Y-83510223D01*
X131843869Y-83512109D01*
X131834706Y-83519931D01*
X131834043Y-83520498D01*
X131809077Y-83541941D01*
X131808958Y-83542045D01*
X131807918Y-83542944D01*
X131807785Y-83543059D01*
X131787611Y-83560575D01*
X131785686Y-83562263D01*
X131771950Y-83574420D01*
X131764938Y-83580863D01*
X131759629Y-83585927D01*
X131759629Y-83585928D01*
X131734560Y-83613616D01*
X131689741Y-83702664D01*
X131682412Y-83802086D01*
X131682412Y-83802087D01*
X131713685Y-83896740D01*
X131713686Y-83896742D01*
X131713687Y-83896744D01*
X131714500Y-83898179D01*
X131714503Y-83898183D01*
X131714508Y-83898191D01*
X131756661Y-83953422D01*
X131756667Y-83953429D01*
X131765057Y-83961770D01*
X131775726Y-83971784D01*
X131775741Y-83971798D01*
X131775745Y-83971801D01*
X131791295Y-83985578D01*
X131796397Y-83989979D01*
X131816831Y-84007143D01*
X131826859Y-84015146D01*
X131894165Y-84066145D01*
X131914923Y-84080322D01*
X132000356Y-84132701D01*
X132028508Y-84147631D01*
X132114730Y-84186674D01*
X132147740Y-84198956D01*
X132235070Y-84224754D01*
X132271429Y-84232669D01*
X132271443Y-84232671D01*
X132271441Y-84232671D01*
X132297513Y-84236384D01*
X132360186Y-84245310D01*
X132397416Y-84247860D01*
X132487917Y-84247433D01*
X132523335Y-84244798D01*
X132615902Y-84231391D01*
X132641127Y-84226430D01*
X132641143Y-84226425D01*
X132641148Y-84226425D01*
X132648125Y-84224683D01*
X132655292Y-84222896D01*
X132668118Y-84219339D01*
X132697695Y-84210300D01*
X132706850Y-84207312D01*
X132740824Y-84195512D01*
X132747055Y-84193228D01*
X132748987Y-84192521D01*
X132749000Y-84192516D01*
X132782485Y-84179591D01*
X132787871Y-84177441D01*
X132789843Y-84176627D01*
X132859319Y-84169241D01*
X132921762Y-84200590D01*
X132948362Y-84236384D01*
X132956561Y-84253004D01*
X132956573Y-84253027D01*
X132980718Y-84294246D01*
X132997617Y-84362042D01*
X132975180Y-84428211D01*
X132970810Y-84434057D01*
X132948433Y-84462220D01*
X132906876Y-84523616D01*
X132906866Y-84523632D01*
X132887755Y-84557041D01*
X132887745Y-84557061D01*
X132855492Y-84624841D01*
X132841381Y-84661539D01*
X132841377Y-84661551D01*
X132819699Y-84734178D01*
X132819696Y-84734190D01*
X132812283Y-84766580D01*
X132812281Y-84766594D01*
X132803256Y-84822554D01*
X132800079Y-84856760D01*
X132798299Y-84926915D01*
X132798300Y-84926929D01*
X132800663Y-84968676D01*
X132810409Y-85038623D01*
X132810410Y-85038630D01*
X132810411Y-85038633D01*
X132818416Y-85075698D01*
X132818417Y-85075700D01*
X132818421Y-85075717D01*
X132839931Y-85148597D01*
X132839935Y-85148609D01*
X132839938Y-85148618D01*
X132846840Y-85167542D01*
X132850913Y-85178710D01*
X132882375Y-85250619D01*
X132900001Y-85283959D01*
X132940972Y-85349279D01*
X132967054Y-85383934D01*
X132967060Y-85383942D01*
X133016889Y-85439605D01*
X133016904Y-85439621D01*
X133049077Y-85469842D01*
X133049083Y-85469847D01*
X133108582Y-85516756D01*
X133108584Y-85516758D01*
X133142328Y-85539262D01*
X133185243Y-85563193D01*
X133212260Y-85578259D01*
X133229478Y-85587024D01*
X133243111Y-85593327D01*
X133250444Y-85596579D01*
X133285191Y-85611338D01*
X133304780Y-85618727D01*
X133304786Y-85618729D01*
X133304794Y-85618732D01*
X133334765Y-85628655D01*
X133334794Y-85628663D01*
X133334820Y-85628672D01*
X133360685Y-85635752D01*
X133391200Y-85642406D01*
X133411476Y-85645978D01*
X133447650Y-85650858D01*
X133447658Y-85650859D01*
X133447681Y-85650862D01*
X133457927Y-85652033D01*
X133457931Y-85652033D01*
X133457954Y-85652036D01*
X133474405Y-85653578D01*
X133539314Y-85679433D01*
X133578808Y-85733154D01*
X133589588Y-85761643D01*
X133607283Y-85798972D01*
X133607289Y-85798983D01*
X133607292Y-85798988D01*
X133618568Y-85818520D01*
X133643440Y-85861600D01*
X133665938Y-85894382D01*
X133665943Y-85894388D01*
X133712019Y-85951441D01*
X133737188Y-85978211D01*
X133738310Y-85979404D01*
X133792496Y-86028982D01*
X133823520Y-86053252D01*
X133884016Y-86093469D01*
X133921462Y-86114071D01*
X133986464Y-86143039D01*
X134015920Y-86154047D01*
X134015934Y-86154051D01*
X134015936Y-86154052D01*
X134035226Y-86159937D01*
X134051613Y-86164216D01*
X134055285Y-86165176D01*
X134103332Y-86175665D01*
X134124774Y-86179397D01*
X134143297Y-86181813D01*
X134207225Y-86210005D01*
X134243478Y-86261550D01*
X134253812Y-86289340D01*
X134258017Y-86300646D01*
X134273595Y-86334674D01*
X134299330Y-86381489D01*
X134315732Y-86407487D01*
X134315733Y-86407489D01*
X134327831Y-86424328D01*
X134327832Y-86424330D01*
X134344306Y-86444637D01*
X134346675Y-86447557D01*
X134394344Y-86499753D01*
X134394348Y-86499757D01*
X134427442Y-86530136D01*
X134483148Y-86572892D01*
X134483173Y-86572910D01*
X134519984Y-86596452D01*
X134581966Y-86628985D01*
X134581972Y-86628987D01*
X134581975Y-86628989D01*
X134622096Y-86645861D01*
X134622102Y-86645863D01*
X134622101Y-86645863D01*
X134633348Y-86649500D01*
X134688551Y-86667353D01*
X134704030Y-86670907D01*
X134731859Y-86677297D01*
X134731866Y-86677298D01*
X134731873Y-86677300D01*
X134731876Y-86677300D01*
X134731879Y-86677301D01*
X134766437Y-86682121D01*
X134801002Y-86686943D01*
X134847298Y-86689156D01*
X134854554Y-86688843D01*
X134922378Y-86705623D01*
X134970364Y-86756408D01*
X134971469Y-86758630D01*
X134980740Y-86777752D01*
X134991533Y-86797703D01*
X135006372Y-86822439D01*
X135006376Y-86822445D01*
X135006378Y-86822448D01*
X135025461Y-86849987D01*
X135044877Y-86874416D01*
X135057195Y-86889913D01*
X135079954Y-86914948D01*
X135134209Y-86967210D01*
X135164949Y-86992513D01*
X135164972Y-86992530D01*
X135225856Y-87035146D01*
X135225874Y-87035157D01*
X135225881Y-87035162D01*
X135260111Y-87055349D01*
X135326046Y-87087606D01*
X135337432Y-87092093D01*
X135363837Y-87102499D01*
X135363841Y-87102500D01*
X135363843Y-87102501D01*
X135378862Y-87107078D01*
X135433144Y-87123621D01*
X135474692Y-87132586D01*
X135474696Y-87132586D01*
X135474703Y-87132588D01*
X135545708Y-87141813D01*
X135574476Y-87142979D01*
X135590911Y-87143646D01*
X135590915Y-87143646D01*
X135590922Y-87143646D01*
X135644782Y-87141052D01*
X135661982Y-87140224D01*
X135690458Y-87137247D01*
X135715690Y-87133169D01*
X135735877Y-87129065D01*
X135780444Y-87118117D01*
X135814736Y-87107078D01*
X135852037Y-87092093D01*
X135855602Y-87090661D01*
X135855620Y-87090653D01*
X135868648Y-87084446D01*
X135884434Y-87076928D01*
X135927964Y-87052748D01*
X135944527Y-87042708D01*
X135967968Y-87027254D01*
X135992350Y-87009006D01*
X136048704Y-86961334D01*
X136079736Y-86930116D01*
X136126288Y-86874416D01*
X136151058Y-86839100D01*
X136187376Y-86776706D01*
X136205501Y-86738659D01*
X136231158Y-86670907D01*
X136242613Y-86631239D01*
X136257179Y-86559466D01*
X136262069Y-86519099D01*
X136265117Y-86444637D01*
X136263588Y-86404391D01*
X136259137Y-86366484D01*
X136254687Y-86328583D01*
X136254687Y-86328582D01*
X136246929Y-86289356D01*
X136246926Y-86289340D01*
X136240608Y-86266826D01*
X136225656Y-86213543D01*
X136225652Y-86213530D01*
X136225646Y-86213509D01*
X136214113Y-86181020D01*
X136213410Y-86179397D01*
X136187902Y-86120487D01*
X136187899Y-86120479D01*
X136176670Y-86098899D01*
X136171131Y-86088254D01*
X136171128Y-86088250D01*
X136171126Y-86088245D01*
X136171118Y-86088231D01*
X136135106Y-86029621D01*
X136135099Y-86029610D01*
X136133399Y-86027284D01*
X136109737Y-85961543D01*
X136125375Y-85893445D01*
X136126527Y-85891436D01*
X136135161Y-85876728D01*
X136145646Y-85856925D01*
X136164909Y-85816329D01*
X136172328Y-85798988D01*
X136172697Y-85798125D01*
X136188603Y-85756563D01*
X136188605Y-85756558D01*
X136188606Y-85756556D01*
X136196354Y-85732927D01*
X136206722Y-85695194D01*
X136211177Y-85676157D01*
X136211584Y-85674059D01*
X136213868Y-85660278D01*
X136217893Y-85631068D01*
X136219536Y-85615737D01*
X136222217Y-85580795D01*
X136222898Y-85567154D01*
X136223674Y-85533586D01*
X136223708Y-85523536D01*
X136223564Y-85514662D01*
X136223323Y-85506956D01*
X136222212Y-85483029D01*
X136220353Y-85461928D01*
X136217592Y-85440699D01*
X136212956Y-85415226D01*
X136207709Y-85392888D01*
X136202737Y-85374746D01*
X136194174Y-85347485D01*
X136191325Y-85338945D01*
X136178610Y-85302953D01*
X136177354Y-85299480D01*
X136175529Y-85294544D01*
X136170748Y-85224841D01*
X136197781Y-85170745D01*
X136200537Y-85167538D01*
X136226717Y-85130993D01*
X136261843Y-85071528D01*
X136280613Y-85032551D01*
X136305571Y-84967046D01*
X136317348Y-84926205D01*
X136323018Y-84897870D01*
X136331338Y-84856285D01*
X136331339Y-84856278D01*
X136335200Y-84822554D01*
X136336185Y-84813954D01*
X136338405Y-84741246D01*
X136337598Y-84711713D01*
X136335251Y-84684224D01*
X136331092Y-84655236D01*
X136316480Y-84583098D01*
X136308965Y-84557041D01*
X136305037Y-84543420D01*
X136279200Y-84475127D01*
X136262118Y-84438867D01*
X136262116Y-84438862D01*
X136262113Y-84438856D01*
X136226173Y-84375910D01*
X136221850Y-84369549D01*
X136203764Y-84342935D01*
X136203752Y-84342919D01*
X136158823Y-84286792D01*
X136158821Y-84286789D01*
X136130901Y-84257110D01*
X136130898Y-84257108D01*
X136130896Y-84257105D01*
X136130888Y-84257098D01*
X136078089Y-84209262D01*
X136078077Y-84209252D01*
X136044156Y-84183333D01*
X136044147Y-84183327D01*
X135984564Y-84145237D01*
X135984560Y-84145234D01*
X135984554Y-84145231D01*
X135960462Y-84132698D01*
X135944204Y-84124240D01*
X135944201Y-84124239D01*
X135927168Y-84117226D01*
X135872672Y-84073500D01*
X135855727Y-84037846D01*
X135855573Y-84037896D01*
X135855206Y-84036749D01*
X135855147Y-84036624D01*
X135854984Y-84036055D01*
X135842982Y-84002128D01*
X135834366Y-83977773D01*
X135822530Y-83949747D01*
X135818955Y-83942517D01*
X135801273Y-83906754D01*
X135801271Y-83906749D01*
X135795192Y-83896218D01*
X135784856Y-83878309D01*
X135784850Y-83878300D01*
X135741444Y-83813167D01*
X135715650Y-83780562D01*
X135663223Y-83724367D01*
X135663210Y-83724354D01*
X135631984Y-83695992D01*
X135627376Y-83692455D01*
X135571617Y-83649654D01*
X135571616Y-83649653D01*
X135571613Y-83649651D01*
X135535482Y-83626464D01*
X135468304Y-83590940D01*
X135468295Y-83590936D01*
X135468291Y-83590934D01*
X135428117Y-83573908D01*
X135428092Y-83573898D01*
X135355218Y-83550126D01*
X135355200Y-83550121D01*
X135336910Y-83545231D01*
X135277230Y-83508898D01*
X135253023Y-83467293D01*
X135252335Y-83467547D01*
X135224078Y-83390787D01*
X135224072Y-83390774D01*
X135208781Y-83357022D01*
X135208776Y-83357011D01*
X135208772Y-83357004D01*
X135208770Y-83356999D01*
X135170576Y-83286759D01*
X135149971Y-83254791D01*
X135101402Y-83190507D01*
X135075351Y-83161048D01*
X135075350Y-83161047D01*
X135075339Y-83161035D01*
X135016748Y-83104257D01*
X135016742Y-83104252D01*
X135016736Y-83104246D01*
X134999301Y-83089390D01*
X134991841Y-83083034D01*
X134971882Y-83068123D01*
X134971870Y-83068115D01*
X134971858Y-83068106D01*
X134952076Y-83054721D01*
X134912458Y-83030533D01*
X134912451Y-83030529D01*
X134894411Y-83020493D01*
X134849030Y-82997598D01*
X134832948Y-82990171D01*
X134808356Y-82979836D01*
X134785871Y-82970386D01*
X134767498Y-82963482D01*
X134722781Y-82948612D01*
X134722769Y-82948608D01*
X134722142Y-82948419D01*
X134722082Y-82948380D01*
X134721141Y-82948067D01*
X134721223Y-82947818D01*
X134663658Y-82910190D01*
X134635127Y-82846411D01*
X134639098Y-82794521D01*
X134659436Y-82725819D01*
X134661048Y-82720778D01*
X134663101Y-82714804D01*
X134664670Y-82710500D01*
X134673512Y-82687600D01*
X134674993Y-82683943D01*
X134686881Y-82655889D01*
X134688113Y-82653083D01*
X134702033Y-82622418D01*
X134703229Y-82619862D01*
X134713885Y-82597740D01*
X134717677Y-82589867D01*
X134718953Y-82587297D01*
X134731643Y-82562493D01*
X134752980Y-82532685D01*
X134760742Y-82524674D01*
X134784305Y-82500355D01*
X134795308Y-82483311D01*
X134808416Y-82460511D01*
X134811902Y-82453653D01*
X134815465Y-82445869D01*
X134825031Y-82428711D01*
X134845782Y-82397583D01*
X134857321Y-82346900D01*
X134872835Y-82309094D01*
X134906369Y-82255010D01*
X134908103Y-82252299D01*
X134966038Y-82164267D01*
X134968538Y-82160612D01*
X135023664Y-82083030D01*
X135026701Y-82078937D01*
X135078015Y-82012666D01*
X135081907Y-82007889D01*
X135127234Y-81955001D01*
X135132526Y-81949209D01*
X135175800Y-81904783D01*
X135178621Y-81901983D01*
X135184311Y-81896516D01*
X135191844Y-81888968D01*
X135221583Y-81857898D01*
X135240732Y-81835425D01*
X135260199Y-81809705D01*
X135289004Y-81761387D01*
X135289362Y-81760602D01*
X135299003Y-81739427D01*
X135301693Y-81728768D01*
X135321399Y-81650684D01*
X135322730Y-81630885D01*
X135322762Y-81630400D01*
X135322762Y-81630394D01*
X135309727Y-81531563D01*
X135309726Y-81531560D01*
X135303198Y-81512343D01*
X135303197Y-81512340D01*
X135303194Y-81512333D01*
X135282657Y-81466968D01*
X135278711Y-81460119D01*
X135254944Y-81425719D01*
X135241409Y-81409203D01*
X135241407Y-81409200D01*
X135198483Y-81367803D01*
X135179108Y-81353064D01*
X135179099Y-81353058D01*
X135141708Y-81329427D01*
X135141702Y-81329423D01*
X135141699Y-81329422D01*
X135114626Y-81315434D01*
X135114411Y-81315337D01*
X135107704Y-81312309D01*
X135090038Y-81304333D01*
X135090028Y-81304329D01*
X135090022Y-81304326D01*
X135053413Y-81290074D01*
X135053093Y-81289960D01*
X135039433Y-81285094D01*
X135001232Y-81272721D01*
X134991374Y-81269528D01*
X134990189Y-81269158D01*
X134986166Y-81267902D01*
X134986130Y-81267891D01*
X134986107Y-81267884D01*
X134957834Y-81259388D01*
X134952729Y-81257910D01*
X134925457Y-81250327D01*
X134909682Y-81246478D01*
X134890608Y-81242461D01*
X134853089Y-81237425D01*
X134839545Y-81236621D01*
X134775905Y-81240817D01*
X134775900Y-81240817D01*
X134775899Y-81240818D01*
X134765234Y-81242880D01*
X134710784Y-81259894D01*
X134710782Y-81259894D01*
X134710775Y-81259897D01*
X134700378Y-81264474D01*
X134700362Y-81264482D01*
X134668112Y-81281527D01*
X134668109Y-81281529D01*
X134657845Y-81287931D01*
X134629176Y-81308707D01*
X134629167Y-81308714D01*
X134614121Y-81321296D01*
X134595587Y-81338417D01*
X134577741Y-81356616D01*
X134566745Y-81368567D01*
X134545703Y-81392946D01*
X134538848Y-81401237D01*
X134538832Y-81401256D01*
X134538828Y-81401262D01*
X134514139Y-81432435D01*
X134514098Y-81432487D01*
X134509661Y-81438259D01*
X134508582Y-81439706D01*
X134480879Y-81476845D01*
X134480853Y-81476879D01*
X134480840Y-81476898D01*
X134477821Y-81481030D01*
X134444612Y-81527486D01*
X134442429Y-81530587D01*
X134404270Y-81585638D01*
X134402776Y-81587819D01*
X134359132Y-81652213D01*
X134358240Y-81653540D01*
X134308873Y-81727586D01*
X134308173Y-81728642D01*
X134308091Y-81728768D01*
X134287129Y-81760593D01*
X134252519Y-81813136D01*
X134252086Y-81813795D01*
X134252087Y-81813796D01*
X134189938Y-81908990D01*
X134189939Y-81908991D01*
X134189661Y-81909418D01*
X134129046Y-82002589D01*
X134075987Y-82048049D01*
X134006774Y-82057606D01*
X133943382Y-82028227D01*
X133905936Y-81969239D01*
X133905664Y-81968277D01*
X133893701Y-81925146D01*
X133885384Y-81900217D01*
X133885383Y-81900214D01*
X133885376Y-81900194D01*
X133872137Y-81866412D01*
X133862422Y-81841618D01*
X133859490Y-81835440D01*
X133847174Y-81809491D01*
X133847164Y-81809472D01*
X133819645Y-81760600D01*
X133819640Y-81760593D01*
X133794395Y-81723727D01*
X133794391Y-81723721D01*
X133789671Y-81717979D01*
X133762956Y-81685480D01*
X133721371Y-81645217D01*
X133702741Y-81630885D01*
X133686671Y-81618522D01*
X133686665Y-81618518D01*
X133686662Y-81618516D01*
X133622001Y-81582329D01*
X133584659Y-81568073D01*
X133584654Y-81568071D01*
X133564675Y-81563612D01*
X133503534Y-81529795D01*
X133478302Y-81492785D01*
X133476900Y-81489619D01*
X133454804Y-81439706D01*
X133452566Y-81434832D01*
X133451898Y-81433376D01*
X133432662Y-81392953D01*
X133426651Y-81380321D01*
X133422605Y-81372193D01*
X133398828Y-81326487D01*
X133393456Y-81316690D01*
X133370443Y-81276814D01*
X133362219Y-81263520D01*
X133332229Y-81218203D01*
X133317413Y-81198036D01*
X133317398Y-81198017D01*
X133305745Y-81183683D01*
X133278730Y-81119247D01*
X133290841Y-81050435D01*
X133329076Y-81005146D01*
X133347219Y-80991966D01*
X133491966Y-80847219D01*
X133612287Y-80681610D01*
X133705220Y-80499219D01*
X133768477Y-80304534D01*
X133800143Y-80104600D01*
X133830072Y-80041467D01*
X133889384Y-80004536D01*
X133922616Y-80000000D01*
X134386696Y-80000000D01*
X134453735Y-80019685D01*
G37*
%TD.AperFunction*%
%TD*%
M02*
