%TF.GenerationSoftware,KiCad,Pcbnew,8.0.0*%
%TF.CreationDate,2024-05-26T00:19:16+03:00*%
%TF.ProjectId,pulsejen,70756c73-656a-4656-9e2e-6b696361645f,rev?*%
%TF.SameCoordinates,Original*%
%TF.FileFunction,Drillmap*%
%TF.FilePolarity,Positive*%
%FSLAX45Y45*%
G04 Gerber Fmt 4.5, Leading zero omitted, Abs format (unit mm)*
G04 Created by KiCad (PCBNEW 8.0.0) date 2024-05-26 00:19:16*
%MOMM*%
%LPD*%
G01*
G04 APERTURE LIST*
%ADD10C,0.200000*%
%ADD11C,0.210000*%
G04 APERTURE END LIST*
D10*
X13500000Y-11000000D02*
G75*
G02*
X13000000Y-11000000I-250000J0D01*
G01*
X15000000Y-11000000D02*
G75*
G02*
X14500000Y-11000000I-250000J0D01*
G01*
X14500000Y-8000000D02*
G75*
G02*
X15000000Y-8000000I250000J0D01*
G01*
X13000000Y-8000000D02*
G75*
G02*
X13500000Y-8000000I250000J0D01*
G01*
X15000000Y-11000000D02*
X15000000Y-8000000D01*
X13000000Y-8000000D02*
X13000000Y-11000000D01*
X14500000Y-8000000D02*
X13500000Y-8000000D01*
X13500000Y-11000000D02*
X14500000Y-11000000D01*
D11*
X13145000Y-7895000D02*
X13355000Y-8105000D01*
X13355000Y-7895000D02*
X13145000Y-8105000D01*
X13145000Y-10895000D02*
X13355000Y-11105000D01*
X13355000Y-10895000D02*
X13145000Y-11105000D01*
X14645000Y-7895000D02*
X14855000Y-8105000D01*
X14855000Y-7895000D02*
X14645000Y-8105000D01*
X14645000Y-10895000D02*
X14855000Y-11105000D01*
X14855000Y-10895000D02*
X14645000Y-11105000D01*
D10*
X13250777Y-11571484D02*
X13250777Y-11371484D01*
X13250777Y-11371484D02*
X13298396Y-11371484D01*
X13298396Y-11371484D02*
X13326967Y-11381008D01*
X13326967Y-11381008D02*
X13346015Y-11400055D01*
X13346015Y-11400055D02*
X13355539Y-11419103D01*
X13355539Y-11419103D02*
X13365062Y-11457198D01*
X13365062Y-11457198D02*
X13365062Y-11485769D01*
X13365062Y-11485769D02*
X13355539Y-11523865D01*
X13355539Y-11523865D02*
X13346015Y-11542912D01*
X13346015Y-11542912D02*
X13326967Y-11561960D01*
X13326967Y-11561960D02*
X13298396Y-11571484D01*
X13298396Y-11571484D02*
X13250777Y-11571484D01*
X13450777Y-11571484D02*
X13450777Y-11438150D01*
X13450777Y-11476246D02*
X13460301Y-11457198D01*
X13460301Y-11457198D02*
X13469824Y-11447674D01*
X13469824Y-11447674D02*
X13488872Y-11438150D01*
X13488872Y-11438150D02*
X13507920Y-11438150D01*
X13574586Y-11571484D02*
X13574586Y-11438150D01*
X13574586Y-11371484D02*
X13565062Y-11381008D01*
X13565062Y-11381008D02*
X13574586Y-11390531D01*
X13574586Y-11390531D02*
X13584110Y-11381008D01*
X13584110Y-11381008D02*
X13574586Y-11371484D01*
X13574586Y-11371484D02*
X13574586Y-11390531D01*
X13698396Y-11571484D02*
X13679348Y-11561960D01*
X13679348Y-11561960D02*
X13669824Y-11542912D01*
X13669824Y-11542912D02*
X13669824Y-11371484D01*
X13803158Y-11571484D02*
X13784110Y-11561960D01*
X13784110Y-11561960D02*
X13774586Y-11542912D01*
X13774586Y-11542912D02*
X13774586Y-11371484D01*
X14031729Y-11571484D02*
X14031729Y-11371484D01*
X14031729Y-11371484D02*
X14098396Y-11514341D01*
X14098396Y-11514341D02*
X14165062Y-11371484D01*
X14165062Y-11371484D02*
X14165062Y-11571484D01*
X14346015Y-11571484D02*
X14346015Y-11466722D01*
X14346015Y-11466722D02*
X14336491Y-11447674D01*
X14336491Y-11447674D02*
X14317443Y-11438150D01*
X14317443Y-11438150D02*
X14279348Y-11438150D01*
X14279348Y-11438150D02*
X14260301Y-11447674D01*
X14346015Y-11561960D02*
X14326967Y-11571484D01*
X14326967Y-11571484D02*
X14279348Y-11571484D01*
X14279348Y-11571484D02*
X14260301Y-11561960D01*
X14260301Y-11561960D02*
X14250777Y-11542912D01*
X14250777Y-11542912D02*
X14250777Y-11523865D01*
X14250777Y-11523865D02*
X14260301Y-11504817D01*
X14260301Y-11504817D02*
X14279348Y-11495293D01*
X14279348Y-11495293D02*
X14326967Y-11495293D01*
X14326967Y-11495293D02*
X14346015Y-11485769D01*
X14441253Y-11438150D02*
X14441253Y-11638150D01*
X14441253Y-11447674D02*
X14460301Y-11438150D01*
X14460301Y-11438150D02*
X14498396Y-11438150D01*
X14498396Y-11438150D02*
X14517443Y-11447674D01*
X14517443Y-11447674D02*
X14526967Y-11457198D01*
X14526967Y-11457198D02*
X14536491Y-11476246D01*
X14536491Y-11476246D02*
X14536491Y-11533388D01*
X14536491Y-11533388D02*
X14526967Y-11552436D01*
X14526967Y-11552436D02*
X14517443Y-11561960D01*
X14517443Y-11561960D02*
X14498396Y-11571484D01*
X14498396Y-11571484D02*
X14460301Y-11571484D01*
X14460301Y-11571484D02*
X14441253Y-11561960D01*
X14622205Y-11552436D02*
X14631729Y-11561960D01*
X14631729Y-11561960D02*
X14622205Y-11571484D01*
X14622205Y-11571484D02*
X14612682Y-11561960D01*
X14612682Y-11561960D02*
X14622205Y-11552436D01*
X14622205Y-11552436D02*
X14622205Y-11571484D01*
X14622205Y-11447674D02*
X14631729Y-11457198D01*
X14631729Y-11457198D02*
X14622205Y-11466722D01*
X14622205Y-11466722D02*
X14612682Y-11457198D01*
X14612682Y-11457198D02*
X14622205Y-11447674D01*
X14622205Y-11447674D02*
X14622205Y-11466722D01*
X12790000Y-11800000D02*
X12990000Y-12000000D01*
X12990000Y-11800000D02*
X12790000Y-12000000D01*
X13241253Y-11810531D02*
X13250777Y-11801008D01*
X13250777Y-11801008D02*
X13269824Y-11791484D01*
X13269824Y-11791484D02*
X13317443Y-11791484D01*
X13317443Y-11791484D02*
X13336491Y-11801008D01*
X13336491Y-11801008D02*
X13346015Y-11810531D01*
X13346015Y-11810531D02*
X13355539Y-11829579D01*
X13355539Y-11829579D02*
X13355539Y-11848627D01*
X13355539Y-11848627D02*
X13346015Y-11877198D01*
X13346015Y-11877198D02*
X13231729Y-11991484D01*
X13231729Y-11991484D02*
X13355539Y-11991484D01*
X13441253Y-11972436D02*
X13450777Y-11981960D01*
X13450777Y-11981960D02*
X13441253Y-11991484D01*
X13441253Y-11991484D02*
X13431729Y-11981960D01*
X13431729Y-11981960D02*
X13441253Y-11972436D01*
X13441253Y-11972436D02*
X13441253Y-11991484D01*
X13641253Y-11991484D02*
X13526967Y-11991484D01*
X13584110Y-11991484D02*
X13584110Y-11791484D01*
X13584110Y-11791484D02*
X13565062Y-11820055D01*
X13565062Y-11820055D02*
X13546015Y-11839103D01*
X13546015Y-11839103D02*
X13526967Y-11848627D01*
X13765062Y-11791484D02*
X13784110Y-11791484D01*
X13784110Y-11791484D02*
X13803158Y-11801008D01*
X13803158Y-11801008D02*
X13812682Y-11810531D01*
X13812682Y-11810531D02*
X13822205Y-11829579D01*
X13822205Y-11829579D02*
X13831729Y-11867674D01*
X13831729Y-11867674D02*
X13831729Y-11915293D01*
X13831729Y-11915293D02*
X13822205Y-11953388D01*
X13822205Y-11953388D02*
X13812682Y-11972436D01*
X13812682Y-11972436D02*
X13803158Y-11981960D01*
X13803158Y-11981960D02*
X13784110Y-11991484D01*
X13784110Y-11991484D02*
X13765062Y-11991484D01*
X13765062Y-11991484D02*
X13746015Y-11981960D01*
X13746015Y-11981960D02*
X13736491Y-11972436D01*
X13736491Y-11972436D02*
X13726967Y-11953388D01*
X13726967Y-11953388D02*
X13717443Y-11915293D01*
X13717443Y-11915293D02*
X13717443Y-11867674D01*
X13717443Y-11867674D02*
X13726967Y-11829579D01*
X13726967Y-11829579D02*
X13736491Y-11810531D01*
X13736491Y-11810531D02*
X13746015Y-11801008D01*
X13746015Y-11801008D02*
X13765062Y-11791484D01*
X13955539Y-11791484D02*
X13974586Y-11791484D01*
X13974586Y-11791484D02*
X13993634Y-11801008D01*
X13993634Y-11801008D02*
X14003158Y-11810531D01*
X14003158Y-11810531D02*
X14012682Y-11829579D01*
X14012682Y-11829579D02*
X14022205Y-11867674D01*
X14022205Y-11867674D02*
X14022205Y-11915293D01*
X14022205Y-11915293D02*
X14012682Y-11953388D01*
X14012682Y-11953388D02*
X14003158Y-11972436D01*
X14003158Y-11972436D02*
X13993634Y-11981960D01*
X13993634Y-11981960D02*
X13974586Y-11991484D01*
X13974586Y-11991484D02*
X13955539Y-11991484D01*
X13955539Y-11991484D02*
X13936491Y-11981960D01*
X13936491Y-11981960D02*
X13926967Y-11972436D01*
X13926967Y-11972436D02*
X13917443Y-11953388D01*
X13917443Y-11953388D02*
X13907920Y-11915293D01*
X13907920Y-11915293D02*
X13907920Y-11867674D01*
X13907920Y-11867674D02*
X13917443Y-11829579D01*
X13917443Y-11829579D02*
X13926967Y-11810531D01*
X13926967Y-11810531D02*
X13936491Y-11801008D01*
X13936491Y-11801008D02*
X13955539Y-11791484D01*
X14107920Y-11991484D02*
X14107920Y-11858150D01*
X14107920Y-11877198D02*
X14117443Y-11867674D01*
X14117443Y-11867674D02*
X14136491Y-11858150D01*
X14136491Y-11858150D02*
X14165063Y-11858150D01*
X14165063Y-11858150D02*
X14184110Y-11867674D01*
X14184110Y-11867674D02*
X14193634Y-11886722D01*
X14193634Y-11886722D02*
X14193634Y-11991484D01*
X14193634Y-11886722D02*
X14203158Y-11867674D01*
X14203158Y-11867674D02*
X14222205Y-11858150D01*
X14222205Y-11858150D02*
X14250777Y-11858150D01*
X14250777Y-11858150D02*
X14269824Y-11867674D01*
X14269824Y-11867674D02*
X14279348Y-11886722D01*
X14279348Y-11886722D02*
X14279348Y-11991484D01*
X14374586Y-11991484D02*
X14374586Y-11858150D01*
X14374586Y-11877198D02*
X14384110Y-11867674D01*
X14384110Y-11867674D02*
X14403158Y-11858150D01*
X14403158Y-11858150D02*
X14431729Y-11858150D01*
X14431729Y-11858150D02*
X14450777Y-11867674D01*
X14450777Y-11867674D02*
X14460301Y-11886722D01*
X14460301Y-11886722D02*
X14460301Y-11991484D01*
X14460301Y-11886722D02*
X14469824Y-11867674D01*
X14469824Y-11867674D02*
X14488872Y-11858150D01*
X14488872Y-11858150D02*
X14517443Y-11858150D01*
X14517443Y-11858150D02*
X14536491Y-11867674D01*
X14536491Y-11867674D02*
X14546015Y-11886722D01*
X14546015Y-11886722D02*
X14546015Y-11991484D01*
X14936491Y-11781960D02*
X14765063Y-12039103D01*
X15193634Y-11791484D02*
X15212682Y-11791484D01*
X15212682Y-11791484D02*
X15231729Y-11801008D01*
X15231729Y-11801008D02*
X15241253Y-11810531D01*
X15241253Y-11810531D02*
X15250777Y-11829579D01*
X15250777Y-11829579D02*
X15260301Y-11867674D01*
X15260301Y-11867674D02*
X15260301Y-11915293D01*
X15260301Y-11915293D02*
X15250777Y-11953388D01*
X15250777Y-11953388D02*
X15241253Y-11972436D01*
X15241253Y-11972436D02*
X15231729Y-11981960D01*
X15231729Y-11981960D02*
X15212682Y-11991484D01*
X15212682Y-11991484D02*
X15193634Y-11991484D01*
X15193634Y-11991484D02*
X15174586Y-11981960D01*
X15174586Y-11981960D02*
X15165063Y-11972436D01*
X15165063Y-11972436D02*
X15155539Y-11953388D01*
X15155539Y-11953388D02*
X15146015Y-11915293D01*
X15146015Y-11915293D02*
X15146015Y-11867674D01*
X15146015Y-11867674D02*
X15155539Y-11829579D01*
X15155539Y-11829579D02*
X15165063Y-11810531D01*
X15165063Y-11810531D02*
X15174586Y-11801008D01*
X15174586Y-11801008D02*
X15193634Y-11791484D01*
X15346015Y-11972436D02*
X15355539Y-11981960D01*
X15355539Y-11981960D02*
X15346015Y-11991484D01*
X15346015Y-11991484D02*
X15336491Y-11981960D01*
X15336491Y-11981960D02*
X15346015Y-11972436D01*
X15346015Y-11972436D02*
X15346015Y-11991484D01*
X15479348Y-11791484D02*
X15498396Y-11791484D01*
X15498396Y-11791484D02*
X15517444Y-11801008D01*
X15517444Y-11801008D02*
X15526967Y-11810531D01*
X15526967Y-11810531D02*
X15536491Y-11829579D01*
X15536491Y-11829579D02*
X15546015Y-11867674D01*
X15546015Y-11867674D02*
X15546015Y-11915293D01*
X15546015Y-11915293D02*
X15536491Y-11953388D01*
X15536491Y-11953388D02*
X15526967Y-11972436D01*
X15526967Y-11972436D02*
X15517444Y-11981960D01*
X15517444Y-11981960D02*
X15498396Y-11991484D01*
X15498396Y-11991484D02*
X15479348Y-11991484D01*
X15479348Y-11991484D02*
X15460301Y-11981960D01*
X15460301Y-11981960D02*
X15450777Y-11972436D01*
X15450777Y-11972436D02*
X15441253Y-11953388D01*
X15441253Y-11953388D02*
X15431729Y-11915293D01*
X15431729Y-11915293D02*
X15431729Y-11867674D01*
X15431729Y-11867674D02*
X15441253Y-11829579D01*
X15441253Y-11829579D02*
X15450777Y-11810531D01*
X15450777Y-11810531D02*
X15460301Y-11801008D01*
X15460301Y-11801008D02*
X15479348Y-11791484D01*
X15660301Y-11877198D02*
X15641253Y-11867674D01*
X15641253Y-11867674D02*
X15631729Y-11858150D01*
X15631729Y-11858150D02*
X15622206Y-11839103D01*
X15622206Y-11839103D02*
X15622206Y-11829579D01*
X15622206Y-11829579D02*
X15631729Y-11810531D01*
X15631729Y-11810531D02*
X15641253Y-11801008D01*
X15641253Y-11801008D02*
X15660301Y-11791484D01*
X15660301Y-11791484D02*
X15698396Y-11791484D01*
X15698396Y-11791484D02*
X15717444Y-11801008D01*
X15717444Y-11801008D02*
X15726967Y-11810531D01*
X15726967Y-11810531D02*
X15736491Y-11829579D01*
X15736491Y-11829579D02*
X15736491Y-11839103D01*
X15736491Y-11839103D02*
X15726967Y-11858150D01*
X15726967Y-11858150D02*
X15717444Y-11867674D01*
X15717444Y-11867674D02*
X15698396Y-11877198D01*
X15698396Y-11877198D02*
X15660301Y-11877198D01*
X15660301Y-11877198D02*
X15641253Y-11886722D01*
X15641253Y-11886722D02*
X15631729Y-11896246D01*
X15631729Y-11896246D02*
X15622206Y-11915293D01*
X15622206Y-11915293D02*
X15622206Y-11953388D01*
X15622206Y-11953388D02*
X15631729Y-11972436D01*
X15631729Y-11972436D02*
X15641253Y-11981960D01*
X15641253Y-11981960D02*
X15660301Y-11991484D01*
X15660301Y-11991484D02*
X15698396Y-11991484D01*
X15698396Y-11991484D02*
X15717444Y-11981960D01*
X15717444Y-11981960D02*
X15726967Y-11972436D01*
X15726967Y-11972436D02*
X15736491Y-11953388D01*
X15736491Y-11953388D02*
X15736491Y-11915293D01*
X15736491Y-11915293D02*
X15726967Y-11896246D01*
X15726967Y-11896246D02*
X15717444Y-11886722D01*
X15717444Y-11886722D02*
X15698396Y-11877198D01*
X15812682Y-11810531D02*
X15822206Y-11801008D01*
X15822206Y-11801008D02*
X15841253Y-11791484D01*
X15841253Y-11791484D02*
X15888872Y-11791484D01*
X15888872Y-11791484D02*
X15907920Y-11801008D01*
X15907920Y-11801008D02*
X15917444Y-11810531D01*
X15917444Y-11810531D02*
X15926967Y-11829579D01*
X15926967Y-11829579D02*
X15926967Y-11848627D01*
X15926967Y-11848627D02*
X15917444Y-11877198D01*
X15917444Y-11877198D02*
X15803158Y-11991484D01*
X15803158Y-11991484D02*
X15926967Y-11991484D01*
X15993634Y-11791484D02*
X16126967Y-11791484D01*
X16126967Y-11791484D02*
X16041253Y-11991484D01*
X16193634Y-11791484D02*
X16193634Y-11829579D01*
X16269825Y-11791484D02*
X16269825Y-11829579D01*
X16565063Y-12067674D02*
X16555539Y-12058150D01*
X16555539Y-12058150D02*
X16536491Y-12029579D01*
X16536491Y-12029579D02*
X16526968Y-12010531D01*
X16526968Y-12010531D02*
X16517444Y-11981960D01*
X16517444Y-11981960D02*
X16507920Y-11934341D01*
X16507920Y-11934341D02*
X16507920Y-11896246D01*
X16507920Y-11896246D02*
X16517444Y-11848627D01*
X16517444Y-11848627D02*
X16526968Y-11820055D01*
X16526968Y-11820055D02*
X16536491Y-11801008D01*
X16536491Y-11801008D02*
X16555539Y-11772436D01*
X16555539Y-11772436D02*
X16565063Y-11762912D01*
X16726968Y-11858150D02*
X16726968Y-11991484D01*
X16679348Y-11781960D02*
X16631729Y-11924817D01*
X16631729Y-11924817D02*
X16755539Y-11924817D01*
X16984111Y-11991484D02*
X16984111Y-11791484D01*
X17069825Y-11991484D02*
X17069825Y-11886722D01*
X17069825Y-11886722D02*
X17060301Y-11867674D01*
X17060301Y-11867674D02*
X17041253Y-11858150D01*
X17041253Y-11858150D02*
X17012682Y-11858150D01*
X17012682Y-11858150D02*
X16993634Y-11867674D01*
X16993634Y-11867674D02*
X16984111Y-11877198D01*
X17193634Y-11991484D02*
X17174587Y-11981960D01*
X17174587Y-11981960D02*
X17165063Y-11972436D01*
X17165063Y-11972436D02*
X17155539Y-11953388D01*
X17155539Y-11953388D02*
X17155539Y-11896246D01*
X17155539Y-11896246D02*
X17165063Y-11877198D01*
X17165063Y-11877198D02*
X17174587Y-11867674D01*
X17174587Y-11867674D02*
X17193634Y-11858150D01*
X17193634Y-11858150D02*
X17222206Y-11858150D01*
X17222206Y-11858150D02*
X17241253Y-11867674D01*
X17241253Y-11867674D02*
X17250777Y-11877198D01*
X17250777Y-11877198D02*
X17260301Y-11896246D01*
X17260301Y-11896246D02*
X17260301Y-11953388D01*
X17260301Y-11953388D02*
X17250777Y-11972436D01*
X17250777Y-11972436D02*
X17241253Y-11981960D01*
X17241253Y-11981960D02*
X17222206Y-11991484D01*
X17222206Y-11991484D02*
X17193634Y-11991484D01*
X17374587Y-11991484D02*
X17355539Y-11981960D01*
X17355539Y-11981960D02*
X17346015Y-11962912D01*
X17346015Y-11962912D02*
X17346015Y-11791484D01*
X17526968Y-11981960D02*
X17507920Y-11991484D01*
X17507920Y-11991484D02*
X17469825Y-11991484D01*
X17469825Y-11991484D02*
X17450777Y-11981960D01*
X17450777Y-11981960D02*
X17441253Y-11962912D01*
X17441253Y-11962912D02*
X17441253Y-11886722D01*
X17441253Y-11886722D02*
X17450777Y-11867674D01*
X17450777Y-11867674D02*
X17469825Y-11858150D01*
X17469825Y-11858150D02*
X17507920Y-11858150D01*
X17507920Y-11858150D02*
X17526968Y-11867674D01*
X17526968Y-11867674D02*
X17536492Y-11886722D01*
X17536492Y-11886722D02*
X17536492Y-11905769D01*
X17536492Y-11905769D02*
X17441253Y-11924817D01*
X17612682Y-11981960D02*
X17631730Y-11991484D01*
X17631730Y-11991484D02*
X17669825Y-11991484D01*
X17669825Y-11991484D02*
X17688873Y-11981960D01*
X17688873Y-11981960D02*
X17698396Y-11962912D01*
X17698396Y-11962912D02*
X17698396Y-11953388D01*
X17698396Y-11953388D02*
X17688873Y-11934341D01*
X17688873Y-11934341D02*
X17669825Y-11924817D01*
X17669825Y-11924817D02*
X17641253Y-11924817D01*
X17641253Y-11924817D02*
X17622206Y-11915293D01*
X17622206Y-11915293D02*
X17612682Y-11896246D01*
X17612682Y-11896246D02*
X17612682Y-11886722D01*
X17612682Y-11886722D02*
X17622206Y-11867674D01*
X17622206Y-11867674D02*
X17641253Y-11858150D01*
X17641253Y-11858150D02*
X17669825Y-11858150D01*
X17669825Y-11858150D02*
X17688873Y-11867674D01*
X17765063Y-12067674D02*
X17774587Y-12058150D01*
X17774587Y-12058150D02*
X17793634Y-12029579D01*
X17793634Y-12029579D02*
X17803158Y-12010531D01*
X17803158Y-12010531D02*
X17812682Y-11981960D01*
X17812682Y-11981960D02*
X17822206Y-11934341D01*
X17822206Y-11934341D02*
X17822206Y-11896246D01*
X17822206Y-11896246D02*
X17812682Y-11848627D01*
X17812682Y-11848627D02*
X17803158Y-11820055D01*
X17803158Y-11820055D02*
X17793634Y-11801008D01*
X17793634Y-11801008D02*
X17774587Y-11772436D01*
X17774587Y-11772436D02*
X17765063Y-11762912D01*
X18126968Y-12067674D02*
X18117444Y-12058150D01*
X18117444Y-12058150D02*
X18098396Y-12029579D01*
X18098396Y-12029579D02*
X18088873Y-12010531D01*
X18088873Y-12010531D02*
X18079349Y-11981960D01*
X18079349Y-11981960D02*
X18069825Y-11934341D01*
X18069825Y-11934341D02*
X18069825Y-11896246D01*
X18069825Y-11896246D02*
X18079349Y-11848627D01*
X18079349Y-11848627D02*
X18088873Y-11820055D01*
X18088873Y-11820055D02*
X18098396Y-11801008D01*
X18098396Y-11801008D02*
X18117444Y-11772436D01*
X18117444Y-11772436D02*
X18126968Y-11762912D01*
X18203158Y-11858150D02*
X18203158Y-11991484D01*
X18203158Y-11877198D02*
X18212682Y-11867674D01*
X18212682Y-11867674D02*
X18231730Y-11858150D01*
X18231730Y-11858150D02*
X18260301Y-11858150D01*
X18260301Y-11858150D02*
X18279349Y-11867674D01*
X18279349Y-11867674D02*
X18288873Y-11886722D01*
X18288873Y-11886722D02*
X18288873Y-11991484D01*
X18412682Y-11991484D02*
X18393634Y-11981960D01*
X18393634Y-11981960D02*
X18384111Y-11972436D01*
X18384111Y-11972436D02*
X18374587Y-11953388D01*
X18374587Y-11953388D02*
X18374587Y-11896246D01*
X18374587Y-11896246D02*
X18384111Y-11877198D01*
X18384111Y-11877198D02*
X18393634Y-11867674D01*
X18393634Y-11867674D02*
X18412682Y-11858150D01*
X18412682Y-11858150D02*
X18441254Y-11858150D01*
X18441254Y-11858150D02*
X18460301Y-11867674D01*
X18460301Y-11867674D02*
X18469825Y-11877198D01*
X18469825Y-11877198D02*
X18479349Y-11896246D01*
X18479349Y-11896246D02*
X18479349Y-11953388D01*
X18479349Y-11953388D02*
X18469825Y-11972436D01*
X18469825Y-11972436D02*
X18460301Y-11981960D01*
X18460301Y-11981960D02*
X18441254Y-11991484D01*
X18441254Y-11991484D02*
X18412682Y-11991484D01*
X18536492Y-11858150D02*
X18612682Y-11858150D01*
X18565063Y-11791484D02*
X18565063Y-11962912D01*
X18565063Y-11962912D02*
X18574587Y-11981960D01*
X18574587Y-11981960D02*
X18593634Y-11991484D01*
X18593634Y-11991484D02*
X18612682Y-11991484D01*
X18831730Y-11858150D02*
X18831730Y-12058150D01*
X18831730Y-11867674D02*
X18850777Y-11858150D01*
X18850777Y-11858150D02*
X18888873Y-11858150D01*
X18888873Y-11858150D02*
X18907920Y-11867674D01*
X18907920Y-11867674D02*
X18917444Y-11877198D01*
X18917444Y-11877198D02*
X18926968Y-11896246D01*
X18926968Y-11896246D02*
X18926968Y-11953388D01*
X18926968Y-11953388D02*
X18917444Y-11972436D01*
X18917444Y-11972436D02*
X18907920Y-11981960D01*
X18907920Y-11981960D02*
X18888873Y-11991484D01*
X18888873Y-11991484D02*
X18850777Y-11991484D01*
X18850777Y-11991484D02*
X18831730Y-11981960D01*
X19041254Y-11991484D02*
X19022206Y-11981960D01*
X19022206Y-11981960D02*
X19012682Y-11962912D01*
X19012682Y-11962912D02*
X19012682Y-11791484D01*
X19203158Y-11991484D02*
X19203158Y-11886722D01*
X19203158Y-11886722D02*
X19193635Y-11867674D01*
X19193635Y-11867674D02*
X19174587Y-11858150D01*
X19174587Y-11858150D02*
X19136492Y-11858150D01*
X19136492Y-11858150D02*
X19117444Y-11867674D01*
X19203158Y-11981960D02*
X19184111Y-11991484D01*
X19184111Y-11991484D02*
X19136492Y-11991484D01*
X19136492Y-11991484D02*
X19117444Y-11981960D01*
X19117444Y-11981960D02*
X19107920Y-11962912D01*
X19107920Y-11962912D02*
X19107920Y-11943865D01*
X19107920Y-11943865D02*
X19117444Y-11924817D01*
X19117444Y-11924817D02*
X19136492Y-11915293D01*
X19136492Y-11915293D02*
X19184111Y-11915293D01*
X19184111Y-11915293D02*
X19203158Y-11905769D01*
X19269825Y-11858150D02*
X19346015Y-11858150D01*
X19298396Y-11791484D02*
X19298396Y-11962912D01*
X19298396Y-11962912D02*
X19307920Y-11981960D01*
X19307920Y-11981960D02*
X19326968Y-11991484D01*
X19326968Y-11991484D02*
X19346015Y-11991484D01*
X19488873Y-11981960D02*
X19469825Y-11991484D01*
X19469825Y-11991484D02*
X19431730Y-11991484D01*
X19431730Y-11991484D02*
X19412682Y-11981960D01*
X19412682Y-11981960D02*
X19403158Y-11962912D01*
X19403158Y-11962912D02*
X19403158Y-11886722D01*
X19403158Y-11886722D02*
X19412682Y-11867674D01*
X19412682Y-11867674D02*
X19431730Y-11858150D01*
X19431730Y-11858150D02*
X19469825Y-11858150D01*
X19469825Y-11858150D02*
X19488873Y-11867674D01*
X19488873Y-11867674D02*
X19498396Y-11886722D01*
X19498396Y-11886722D02*
X19498396Y-11905769D01*
X19498396Y-11905769D02*
X19403158Y-11924817D01*
X19669825Y-11991484D02*
X19669825Y-11791484D01*
X19669825Y-11981960D02*
X19650777Y-11991484D01*
X19650777Y-11991484D02*
X19612682Y-11991484D01*
X19612682Y-11991484D02*
X19593635Y-11981960D01*
X19593635Y-11981960D02*
X19584111Y-11972436D01*
X19584111Y-11972436D02*
X19574587Y-11953388D01*
X19574587Y-11953388D02*
X19574587Y-11896246D01*
X19574587Y-11896246D02*
X19584111Y-11877198D01*
X19584111Y-11877198D02*
X19593635Y-11867674D01*
X19593635Y-11867674D02*
X19612682Y-11858150D01*
X19612682Y-11858150D02*
X19650777Y-11858150D01*
X19650777Y-11858150D02*
X19669825Y-11867674D01*
X19746016Y-12067674D02*
X19755539Y-12058150D01*
X19755539Y-12058150D02*
X19774587Y-12029579D01*
X19774587Y-12029579D02*
X19784111Y-12010531D01*
X19784111Y-12010531D02*
X19793635Y-11981960D01*
X19793635Y-11981960D02*
X19803158Y-11934341D01*
X19803158Y-11934341D02*
X19803158Y-11896246D01*
X19803158Y-11896246D02*
X19793635Y-11848627D01*
X19793635Y-11848627D02*
X19784111Y-11820055D01*
X19784111Y-11820055D02*
X19774587Y-11801008D01*
X19774587Y-11801008D02*
X19755539Y-11772436D01*
X19755539Y-11772436D02*
X19746016Y-11762912D01*
M02*
