%TF.GenerationSoftware,KiCad,Pcbnew,8.0.0*%
%TF.CreationDate,2024-05-26T00:16:25+03:00*%
%TF.ProjectId,pulsejen,70756c73-656a-4656-9e2e-6b696361645f,rev?*%
%TF.SameCoordinates,Original*%
%TF.FileFunction,Paste,Top*%
%TF.FilePolarity,Positive*%
%FSLAX46Y46*%
G04 Gerber Fmt 4.6, Leading zero omitted, Abs format (unit mm)*
G04 Created by KiCad (PCBNEW 8.0.0) date 2024-05-26 00:16:25*
%MOMM*%
%LPD*%
G01*
G04 APERTURE LIST*
G04 Aperture macros list*
%AMRoundRect*
0 Rectangle with rounded corners*
0 $1 Rounding radius*
0 $2 $3 $4 $5 $6 $7 $8 $9 X,Y pos of 4 corners*
0 Add a 4 corners polygon primitive as box body*
4,1,4,$2,$3,$4,$5,$6,$7,$8,$9,$2,$3,0*
0 Add four circle primitives for the rounded corners*
1,1,$1+$1,$2,$3*
1,1,$1+$1,$4,$5*
1,1,$1+$1,$6,$7*
1,1,$1+$1,$8,$9*
0 Add four rect primitives between the rounded corners*
20,1,$1+$1,$2,$3,$4,$5,0*
20,1,$1+$1,$4,$5,$6,$7,0*
20,1,$1+$1,$6,$7,$8,$9,0*
20,1,$1+$1,$8,$9,$2,$3,0*%
G04 Aperture macros list end*
%ADD10RoundRect,0.250000X0.625000X-0.400000X0.625000X0.400000X-0.625000X0.400000X-0.625000X-0.400000X0*%
%ADD11RoundRect,0.225000X0.375000X-0.225000X0.375000X0.225000X-0.375000X0.225000X-0.375000X-0.225000X0*%
%ADD12RoundRect,0.375000X-0.625000X-0.375000X0.625000X-0.375000X0.625000X0.375000X-0.625000X0.375000X0*%
%ADD13RoundRect,0.500000X-0.500000X-1.400000X0.500000X-1.400000X0.500000X1.400000X-0.500000X1.400000X0*%
%ADD14RoundRect,0.250000X0.475000X-0.337500X0.475000X0.337500X-0.475000X0.337500X-0.475000X-0.337500X0*%
%ADD15RoundRect,0.225000X0.225000X0.375000X-0.225000X0.375000X-0.225000X-0.375000X0.225000X-0.375000X0*%
%ADD16RoundRect,0.225000X-0.375000X0.225000X-0.375000X-0.225000X0.375000X-0.225000X0.375000X0.225000X0*%
%ADD17RoundRect,0.250000X0.450000X-0.350000X0.450000X0.350000X-0.450000X0.350000X-0.450000X-0.350000X0*%
%ADD18RoundRect,0.250000X-0.350000X-0.450000X0.350000X-0.450000X0.350000X0.450000X-0.350000X0.450000X0*%
%ADD19RoundRect,0.250000X-0.450000X0.350000X-0.450000X-0.350000X0.450000X-0.350000X0.450000X0.350000X0*%
%ADD20RoundRect,0.250000X-0.337500X-0.475000X0.337500X-0.475000X0.337500X0.475000X-0.337500X0.475000X0*%
%ADD21RoundRect,0.150000X-0.825000X-0.150000X0.825000X-0.150000X0.825000X0.150000X-0.825000X0.150000X0*%
%ADD22RoundRect,0.150000X0.150000X-0.587500X0.150000X0.587500X-0.150000X0.587500X-0.150000X-0.587500X0*%
G04 APERTURE END LIST*
D10*
%TO.C,R4*%
X138500000Y-84450000D03*
X138500000Y-87550000D03*
%TD*%
D11*
%TO.C,D5*%
X135000000Y-108250000D03*
X135000000Y-104950000D03*
%TD*%
D12*
%TO.C,U4*%
X139850000Y-108300000D03*
D13*
X146150000Y-106000000D03*
D12*
X139850000Y-106000000D03*
X139850000Y-103700000D03*
%TD*%
D14*
%TO.C,C4*%
X146500000Y-102537500D03*
X146500000Y-100462500D03*
%TD*%
D15*
%TO.C,D3*%
X141605000Y-101000000D03*
X138305000Y-101000000D03*
%TD*%
D16*
%TO.C,D2*%
X134000000Y-89850000D03*
X134000000Y-93150000D03*
%TD*%
%TO.C,D1*%
X133977500Y-94850000D03*
X133977500Y-98150000D03*
%TD*%
D17*
%TO.C,R3*%
X144500000Y-88500000D03*
X144500000Y-86500000D03*
%TD*%
D18*
%TO.C,R2*%
X145000000Y-97000000D03*
X147000000Y-97000000D03*
%TD*%
D19*
%TO.C,R1*%
X131500000Y-90000000D03*
X131500000Y-92000000D03*
%TD*%
D14*
%TO.C,C3*%
X137400000Y-108237500D03*
X137400000Y-106162500D03*
%TD*%
D20*
%TO.C,C2*%
X144962500Y-95000000D03*
X147037500Y-95000000D03*
%TD*%
D14*
%TO.C,C1*%
X131500000Y-98037500D03*
X131500000Y-95962500D03*
%TD*%
D21*
%TO.C,U1*%
X142475000Y-91190000D03*
X142475000Y-92460000D03*
X142475000Y-93730000D03*
X142475000Y-95000000D03*
X142475000Y-96270000D03*
X142475000Y-97540000D03*
X142475000Y-98810000D03*
X137525000Y-98810000D03*
X137525000Y-97540000D03*
X137525000Y-96270000D03*
X137525000Y-95000000D03*
X137525000Y-93730000D03*
X137525000Y-92460000D03*
X137525000Y-91190000D03*
%TD*%
D22*
%TO.C,Q1*%
X140550000Y-86437500D03*
X142450000Y-86437500D03*
X141500000Y-84562500D03*
%TD*%
M02*
