G04 EAGLE Gerber RS-274X export*
G75*
%MOMM*%
%FSLAX34Y34*%
%LPD*%
%INTop Copper*%
%IPPOS*%
%AMOC8*
5,1,8,0,0,1.08239X$1,22.5*%
G01*
%ADD10C,1.320800*%
%ADD11C,1.524000*%
%ADD12P,4.870755X8X292.500000*%
%ADD13C,2.000000*%
%ADD14P,2.749271X8X22.500000*%
%ADD15C,0.756400*%
%ADD16C,4.000000*%


D10*
X475996Y127000D02*
X489204Y127000D01*
X489204Y101600D02*
X475996Y101600D01*
X70104Y165100D02*
X56896Y165100D01*
X56896Y139700D02*
X70104Y139700D01*
X133096Y139700D02*
X146304Y139700D01*
X146304Y165100D02*
X133096Y165100D01*
X70104Y114300D02*
X56896Y114300D01*
X56896Y88900D02*
X70104Y88900D01*
X133096Y114300D02*
X146304Y114300D01*
X146304Y88900D02*
X133096Y88900D01*
D11*
X436880Y215900D02*
X452120Y215900D01*
X452120Y190500D02*
X436880Y190500D01*
X436880Y165100D02*
X452120Y165100D01*
D12*
X226500Y150000D03*
X393500Y150000D03*
D10*
X552196Y127000D02*
X565404Y127000D01*
X565404Y177800D02*
X552196Y177800D01*
X552196Y152400D02*
X565404Y152400D01*
X330200Y229996D02*
X330200Y243204D01*
X279400Y243204D02*
X279400Y229996D01*
X304800Y229996D02*
X304800Y243204D01*
D13*
X190500Y114300D03*
X190500Y190500D03*
X520700Y254000D03*
X520700Y177800D03*
X520700Y50800D03*
X520700Y127000D03*
D14*
X279400Y50800D03*
X342900Y50800D03*
D15*
X211400Y165100D03*
X226500Y103700D03*
D16*
X160000Y30000D03*
X440000Y270000D03*
M02*
