M48
;GenerationSoftware,Autodesk,EAGLE,9.6.2*%
;CreationDate,2021-09-25T19:19:46Z*%
FMAT,2
ICI,OFF
METRIC,TZ,000.000
T6C0.350
T5C0.813
T4C1.016
T3C2.000
T2C3.000
T1C10.000
%
G90
M71
T1
X31000Y15000
T2
X39350Y15000
X22650Y15000
T3
X16000Y3000
X44000Y27000
T4
X44450Y16510
X27940Y5080
X44450Y21590
X44450Y19050
X34290Y5080
T5
X48260Y12700
X48260Y10160
X6350Y16510
X6350Y13970
X13970Y13970
X13970Y16510
X6350Y11430
X6350Y8890
X13970Y11430
X55880Y12700
X55880Y17780
X55880Y15240
X33020Y23660
X27940Y23660
X30480Y23660
X19050Y11430
X19050Y19050
X52070Y25400
X52070Y17780
X52070Y5080
X52070Y12700
X13970Y8890
T6
X22650Y10370
X21140Y16510
M30