G04 EAGLE Gerber RS-274X export*
G75*
%MOMM*%
%FSLAX34Y34*%
%LPD*%
%INBottom Copper*%
%IPPOS*%
%AMOC8*
5,1,8,0,0,1.08239X$1,22.5*%
G01*
%ADD10C,0.200000*%
%ADD11C,1.006400*%
%ADD12C,1.050000*%
%ADD13C,1.930400*%
%ADD14R,1.930400X1.930400*%
%ADD15C,1.350000*%
%ADD16C,1.500000*%
%ADD17C,0.609600*%
%ADD18C,0.812800*%
%ADD19C,0.250000*%
%ADD20C,1.016000*%

G36*
X565125Y3767D02*
X565125Y3767D01*
X565250Y3776D01*
X565281Y3787D01*
X565313Y3791D01*
X565430Y3837D01*
X565549Y3878D01*
X565576Y3896D01*
X565606Y3908D01*
X565707Y3982D01*
X565813Y4051D01*
X565834Y4075D01*
X565860Y4094D01*
X565940Y4192D01*
X566024Y4285D01*
X566039Y4314D01*
X566060Y4339D01*
X566113Y4453D01*
X566171Y4565D01*
X566175Y4590D01*
X566192Y4625D01*
X566248Y4936D01*
X566245Y4975D01*
X566249Y5000D01*
X566249Y153358D01*
X566231Y153498D01*
X566217Y153640D01*
X566211Y153655D01*
X566209Y153671D01*
X566157Y153802D01*
X566108Y153936D01*
X566098Y153949D01*
X566092Y153964D01*
X566008Y154078D01*
X565928Y154195D01*
X565915Y154205D01*
X565906Y154218D01*
X565796Y154308D01*
X565688Y154400D01*
X565674Y154407D01*
X565661Y154418D01*
X565532Y154477D01*
X565405Y154540D01*
X565389Y154543D01*
X565375Y154550D01*
X565235Y154575D01*
X565096Y154603D01*
X565080Y154603D01*
X565064Y154605D01*
X564923Y154595D01*
X564781Y154588D01*
X564766Y154583D01*
X564750Y154582D01*
X564615Y154536D01*
X564480Y154494D01*
X564469Y154486D01*
X564451Y154480D01*
X564187Y154307D01*
X564147Y154263D01*
X564117Y154241D01*
X562457Y152581D01*
X559241Y151249D01*
X555759Y151249D01*
X552543Y152581D01*
X550081Y155043D01*
X548749Y158259D01*
X548749Y161741D01*
X550081Y164957D01*
X551069Y165945D01*
X551137Y166032D01*
X551210Y166113D01*
X551233Y166156D01*
X551263Y166194D01*
X551306Y166295D01*
X551357Y166393D01*
X551364Y166430D01*
X551387Y166484D01*
X551435Y166796D01*
X551433Y166815D01*
X551435Y166828D01*
X551435Y188172D01*
X551421Y188281D01*
X551416Y188391D01*
X551402Y188437D01*
X551395Y188485D01*
X551355Y188587D01*
X551322Y188692D01*
X551300Y188723D01*
X551278Y188778D01*
X551092Y189032D01*
X551077Y189044D01*
X551069Y189055D01*
X550081Y190043D01*
X548749Y193259D01*
X548749Y196741D01*
X550081Y199957D01*
X552543Y202419D01*
X555759Y203751D01*
X559241Y203751D01*
X562457Y202419D01*
X564117Y200759D01*
X564229Y200672D01*
X564339Y200582D01*
X564353Y200576D01*
X564366Y200566D01*
X564497Y200510D01*
X564625Y200450D01*
X564641Y200448D01*
X564656Y200441D01*
X564797Y200420D01*
X564936Y200395D01*
X564952Y200396D01*
X564968Y200393D01*
X565109Y200408D01*
X565250Y200418D01*
X565266Y200423D01*
X565282Y200425D01*
X565415Y200474D01*
X565549Y200520D01*
X565563Y200529D01*
X565578Y200534D01*
X565694Y200615D01*
X565813Y200693D01*
X565824Y200705D01*
X565837Y200715D01*
X565929Y200822D01*
X566024Y200927D01*
X566032Y200942D01*
X566042Y200954D01*
X566105Y201081D01*
X566171Y201207D01*
X566173Y201220D01*
X566182Y201237D01*
X566246Y201546D01*
X566243Y201605D01*
X566249Y201642D01*
X566249Y395000D01*
X566233Y395125D01*
X566224Y395250D01*
X566213Y395281D01*
X566209Y395313D01*
X566163Y395430D01*
X566122Y395549D01*
X566104Y395576D01*
X566092Y395606D01*
X566018Y395707D01*
X565949Y395813D01*
X565925Y395834D01*
X565906Y395860D01*
X565808Y395940D01*
X565715Y396024D01*
X565686Y396039D01*
X565661Y396060D01*
X565547Y396113D01*
X565436Y396171D01*
X565410Y396175D01*
X565375Y396192D01*
X565064Y396248D01*
X565025Y396245D01*
X565000Y396249D01*
X24500Y396249D01*
X24375Y396233D01*
X24250Y396224D01*
X24219Y396213D01*
X24187Y396209D01*
X24070Y396163D01*
X23951Y396122D01*
X23924Y396104D01*
X23894Y396092D01*
X23793Y396018D01*
X23687Y395949D01*
X23666Y395925D01*
X23640Y395906D01*
X23560Y395808D01*
X23476Y395715D01*
X23461Y395686D01*
X23440Y395661D01*
X23387Y395547D01*
X23329Y395436D01*
X23325Y395410D01*
X23308Y395375D01*
X23252Y395064D01*
X23255Y395025D01*
X23251Y395000D01*
X23251Y386429D01*
X23257Y386379D01*
X23255Y386329D01*
X23277Y386223D01*
X23291Y386116D01*
X23309Y386070D01*
X23319Y386020D01*
X23367Y385924D01*
X23408Y385823D01*
X23437Y385783D01*
X23459Y385738D01*
X23505Y385690D01*
X23594Y385569D01*
X23720Y385466D01*
X23766Y385418D01*
X25620Y384071D01*
X25637Y384034D01*
X25666Y383951D01*
X25704Y383892D01*
X25734Y383829D01*
X25791Y383761D01*
X25839Y383687D01*
X25891Y383640D01*
X25936Y383586D01*
X26007Y383535D01*
X26073Y383476D01*
X26135Y383443D01*
X26192Y383402D01*
X26274Y383370D01*
X26352Y383329D01*
X26403Y383320D01*
X26486Y383288D01*
X26764Y383255D01*
X26788Y383251D01*
X41347Y383251D01*
X43251Y381347D01*
X43251Y378653D01*
X41347Y376749D01*
X26788Y376749D01*
X26701Y376738D01*
X26612Y376737D01*
X26545Y376718D01*
X26475Y376709D01*
X26393Y376677D01*
X26308Y376653D01*
X26247Y376619D01*
X26182Y376592D01*
X26111Y376540D01*
X26034Y376497D01*
X25984Y376447D01*
X25928Y376406D01*
X25872Y376338D01*
X25809Y376276D01*
X25784Y376231D01*
X25728Y376161D01*
X25622Y375930D01*
X23766Y374582D01*
X23729Y374547D01*
X23687Y374520D01*
X23615Y374439D01*
X23536Y374365D01*
X23509Y374323D01*
X23476Y374286D01*
X23425Y374190D01*
X23368Y374099D01*
X23352Y374051D01*
X23329Y374006D01*
X23317Y373942D01*
X23272Y373798D01*
X23263Y373655D01*
X23252Y373593D01*
X23253Y373584D01*
X23251Y373571D01*
X23251Y358653D01*
X21347Y356749D01*
X18653Y356749D01*
X16749Y358653D01*
X16749Y373571D01*
X16743Y373621D01*
X16745Y373671D01*
X16725Y373769D01*
X16724Y373779D01*
X16722Y373785D01*
X16709Y373884D01*
X16691Y373930D01*
X16681Y373980D01*
X16633Y374076D01*
X16592Y374177D01*
X16563Y374217D01*
X16541Y374262D01*
X16495Y374310D01*
X16406Y374431D01*
X16280Y374534D01*
X16234Y374582D01*
X14380Y375929D01*
X14363Y375966D01*
X14334Y376049D01*
X14296Y376108D01*
X14266Y376171D01*
X14209Y376239D01*
X14161Y376313D01*
X14109Y376360D01*
X14064Y376414D01*
X13993Y376465D01*
X13927Y376524D01*
X13865Y376557D01*
X13808Y376598D01*
X13726Y376630D01*
X13648Y376671D01*
X13597Y376680D01*
X13514Y376712D01*
X13236Y376745D01*
X13212Y376749D01*
X5000Y376749D01*
X4875Y376733D01*
X4750Y376724D01*
X4719Y376713D01*
X4687Y376709D01*
X4570Y376663D01*
X4451Y376622D01*
X4424Y376604D01*
X4394Y376592D01*
X4293Y376518D01*
X4187Y376449D01*
X4166Y376425D01*
X4140Y376406D01*
X4060Y376308D01*
X3976Y376215D01*
X3961Y376186D01*
X3940Y376161D01*
X3887Y376047D01*
X3829Y375936D01*
X3825Y375910D01*
X3808Y375875D01*
X3752Y375564D01*
X3755Y375525D01*
X3751Y375500D01*
X3751Y24500D01*
X3767Y24375D01*
X3776Y24250D01*
X3787Y24219D01*
X3791Y24187D01*
X3837Y24070D01*
X3878Y23951D01*
X3896Y23924D01*
X3908Y23894D01*
X3982Y23793D01*
X4051Y23687D01*
X4075Y23666D01*
X4094Y23640D01*
X4192Y23560D01*
X4285Y23476D01*
X4314Y23461D01*
X4339Y23440D01*
X4453Y23387D01*
X4565Y23329D01*
X4590Y23325D01*
X4625Y23308D01*
X4936Y23252D01*
X4975Y23255D01*
X5000Y23251D01*
X13212Y23251D01*
X13299Y23262D01*
X13388Y23263D01*
X13455Y23282D01*
X13525Y23291D01*
X13607Y23323D01*
X13692Y23347D01*
X13753Y23381D01*
X13818Y23408D01*
X13889Y23460D01*
X13966Y23503D01*
X14016Y23553D01*
X14072Y23594D01*
X14128Y23662D01*
X14191Y23724D01*
X14216Y23769D01*
X14272Y23839D01*
X14378Y24070D01*
X16234Y25418D01*
X16271Y25453D01*
X16313Y25480D01*
X16385Y25561D01*
X16464Y25635D01*
X16491Y25677D01*
X16524Y25714D01*
X16575Y25810D01*
X16632Y25901D01*
X16648Y25949D01*
X16671Y25994D01*
X16683Y26058D01*
X16728Y26202D01*
X16738Y26364D01*
X16749Y26429D01*
X16749Y41347D01*
X18653Y43251D01*
X21347Y43251D01*
X23251Y41347D01*
X23251Y26429D01*
X23257Y26379D01*
X23255Y26329D01*
X23277Y26223D01*
X23291Y26116D01*
X23309Y26070D01*
X23319Y26020D01*
X23367Y25924D01*
X23408Y25823D01*
X23437Y25783D01*
X23459Y25738D01*
X23505Y25690D01*
X23594Y25569D01*
X23720Y25466D01*
X23766Y25418D01*
X25620Y24071D01*
X25637Y24034D01*
X25666Y23951D01*
X25704Y23892D01*
X25734Y23829D01*
X25791Y23761D01*
X25839Y23687D01*
X25891Y23640D01*
X25936Y23586D01*
X26007Y23535D01*
X26073Y23476D01*
X26135Y23443D01*
X26192Y23402D01*
X26274Y23370D01*
X26352Y23329D01*
X26403Y23320D01*
X26486Y23288D01*
X26764Y23255D01*
X26788Y23251D01*
X41347Y23251D01*
X43251Y21347D01*
X43251Y18653D01*
X41347Y16749D01*
X26788Y16749D01*
X26701Y16738D01*
X26612Y16737D01*
X26545Y16718D01*
X26475Y16709D01*
X26393Y16677D01*
X26308Y16653D01*
X26247Y16619D01*
X26182Y16592D01*
X26111Y16540D01*
X26034Y16497D01*
X25984Y16447D01*
X25928Y16406D01*
X25872Y16338D01*
X25809Y16276D01*
X25784Y16231D01*
X25728Y16161D01*
X25622Y15930D01*
X23766Y14582D01*
X23729Y14547D01*
X23687Y14520D01*
X23615Y14439D01*
X23536Y14365D01*
X23509Y14323D01*
X23476Y14286D01*
X23425Y14190D01*
X23368Y14099D01*
X23352Y14051D01*
X23329Y14006D01*
X23317Y13942D01*
X23272Y13798D01*
X23262Y13636D01*
X23251Y13571D01*
X23251Y5000D01*
X23267Y4875D01*
X23276Y4750D01*
X23287Y4719D01*
X23291Y4687D01*
X23337Y4570D01*
X23378Y4451D01*
X23396Y4424D01*
X23408Y4394D01*
X23482Y4293D01*
X23551Y4187D01*
X23575Y4166D01*
X23594Y4140D01*
X23692Y4060D01*
X23785Y3976D01*
X23814Y3961D01*
X23839Y3940D01*
X23953Y3887D01*
X24064Y3829D01*
X24090Y3825D01*
X24125Y3808D01*
X24436Y3752D01*
X24475Y3755D01*
X24500Y3751D01*
X565000Y3751D01*
X565125Y3767D01*
G37*
G36*
X825625Y3767D02*
X825625Y3767D01*
X825750Y3776D01*
X825781Y3787D01*
X825813Y3791D01*
X825930Y3837D01*
X826049Y3878D01*
X826076Y3896D01*
X826106Y3908D01*
X826207Y3982D01*
X826313Y4051D01*
X826334Y4075D01*
X826360Y4094D01*
X826440Y4192D01*
X826524Y4285D01*
X826539Y4314D01*
X826560Y4339D01*
X826613Y4453D01*
X826671Y4565D01*
X826675Y4590D01*
X826692Y4625D01*
X826748Y4936D01*
X826745Y4975D01*
X826749Y5000D01*
X826749Y13571D01*
X826743Y13621D01*
X826745Y13671D01*
X826723Y13777D01*
X826709Y13884D01*
X826691Y13930D01*
X826681Y13980D01*
X826633Y14076D01*
X826592Y14177D01*
X826563Y14217D01*
X826541Y14262D01*
X826495Y14310D01*
X826406Y14431D01*
X826280Y14534D01*
X826234Y14582D01*
X824380Y15929D01*
X824363Y15966D01*
X824334Y16049D01*
X824296Y16108D01*
X824266Y16171D01*
X824209Y16239D01*
X824161Y16313D01*
X824109Y16360D01*
X824064Y16414D01*
X823993Y16465D01*
X823927Y16524D01*
X823865Y16557D01*
X823808Y16598D01*
X823726Y16630D01*
X823648Y16671D01*
X823597Y16680D01*
X823514Y16712D01*
X823236Y16745D01*
X823212Y16749D01*
X808653Y16749D01*
X806749Y18653D01*
X806749Y21347D01*
X808653Y23251D01*
X823212Y23251D01*
X823299Y23262D01*
X823388Y23263D01*
X823455Y23282D01*
X823525Y23291D01*
X823607Y23323D01*
X823692Y23347D01*
X823753Y23381D01*
X823818Y23408D01*
X823889Y23460D01*
X823966Y23503D01*
X824016Y23553D01*
X824072Y23594D01*
X824128Y23662D01*
X824191Y23724D01*
X824216Y23769D01*
X824272Y23839D01*
X824378Y24070D01*
X826234Y25418D01*
X826271Y25453D01*
X826313Y25480D01*
X826385Y25561D01*
X826464Y25635D01*
X826491Y25677D01*
X826524Y25714D01*
X826575Y25810D01*
X826632Y25901D01*
X826648Y25949D01*
X826671Y25994D01*
X826683Y26058D01*
X826728Y26202D01*
X826738Y26364D01*
X826749Y26429D01*
X826749Y41347D01*
X828653Y43251D01*
X831347Y43251D01*
X833251Y41347D01*
X833251Y26429D01*
X833257Y26379D01*
X833255Y26329D01*
X833277Y26223D01*
X833291Y26116D01*
X833309Y26070D01*
X833319Y26020D01*
X833367Y25924D01*
X833408Y25823D01*
X833437Y25783D01*
X833459Y25738D01*
X833505Y25690D01*
X833594Y25569D01*
X833720Y25466D01*
X833766Y25418D01*
X835620Y24071D01*
X835637Y24034D01*
X835666Y23951D01*
X835704Y23892D01*
X835734Y23829D01*
X835791Y23761D01*
X835839Y23687D01*
X835891Y23640D01*
X835936Y23586D01*
X836007Y23535D01*
X836073Y23476D01*
X836135Y23443D01*
X836192Y23402D01*
X836274Y23370D01*
X836352Y23329D01*
X836403Y23320D01*
X836486Y23288D01*
X836764Y23255D01*
X836788Y23251D01*
X845000Y23251D01*
X845125Y23267D01*
X845250Y23276D01*
X845281Y23287D01*
X845313Y23291D01*
X845430Y23337D01*
X845549Y23378D01*
X845576Y23396D01*
X845606Y23408D01*
X845707Y23482D01*
X845813Y23551D01*
X845834Y23575D01*
X845860Y23594D01*
X845940Y23692D01*
X846024Y23785D01*
X846039Y23814D01*
X846060Y23839D01*
X846113Y23953D01*
X846171Y24064D01*
X846175Y24090D01*
X846192Y24125D01*
X846248Y24436D01*
X846245Y24475D01*
X846249Y24500D01*
X846249Y375500D01*
X846233Y375625D01*
X846224Y375750D01*
X846213Y375781D01*
X846209Y375813D01*
X846163Y375930D01*
X846122Y376049D01*
X846104Y376076D01*
X846092Y376106D01*
X846018Y376207D01*
X845949Y376313D01*
X845925Y376334D01*
X845906Y376360D01*
X845808Y376440D01*
X845715Y376524D01*
X845686Y376539D01*
X845661Y376560D01*
X845547Y376613D01*
X845436Y376671D01*
X845410Y376675D01*
X845375Y376692D01*
X845064Y376748D01*
X845025Y376745D01*
X845000Y376749D01*
X836788Y376749D01*
X836701Y376738D01*
X836612Y376737D01*
X836545Y376718D01*
X836475Y376709D01*
X836393Y376677D01*
X836308Y376653D01*
X836247Y376619D01*
X836182Y376592D01*
X836111Y376540D01*
X836034Y376497D01*
X835984Y376447D01*
X835928Y376406D01*
X835872Y376338D01*
X835809Y376276D01*
X835784Y376231D01*
X835728Y376161D01*
X835622Y375930D01*
X833766Y374582D01*
X833729Y374547D01*
X833687Y374520D01*
X833615Y374439D01*
X833536Y374365D01*
X833509Y374323D01*
X833476Y374286D01*
X833425Y374190D01*
X833368Y374099D01*
X833352Y374051D01*
X833329Y374006D01*
X833317Y373942D01*
X833272Y373798D01*
X833263Y373655D01*
X833252Y373593D01*
X833253Y373584D01*
X833251Y373571D01*
X833251Y358653D01*
X831347Y356749D01*
X828653Y356749D01*
X826749Y358653D01*
X826749Y373571D01*
X826743Y373621D01*
X826745Y373671D01*
X826725Y373769D01*
X826724Y373779D01*
X826722Y373785D01*
X826709Y373884D01*
X826691Y373930D01*
X826681Y373980D01*
X826633Y374076D01*
X826592Y374177D01*
X826563Y374217D01*
X826541Y374262D01*
X826495Y374310D01*
X826406Y374431D01*
X826280Y374534D01*
X826234Y374582D01*
X824380Y375929D01*
X824363Y375965D01*
X824334Y376049D01*
X824296Y376108D01*
X824266Y376171D01*
X824209Y376239D01*
X824161Y376313D01*
X824109Y376360D01*
X824064Y376414D01*
X823993Y376465D01*
X823927Y376524D01*
X823865Y376557D01*
X823808Y376598D01*
X823726Y376630D01*
X823648Y376671D01*
X823597Y376680D01*
X823514Y376712D01*
X823236Y376745D01*
X823212Y376749D01*
X808653Y376749D01*
X806749Y378653D01*
X806749Y381347D01*
X808653Y383251D01*
X823212Y383251D01*
X823299Y383262D01*
X823388Y383263D01*
X823455Y383282D01*
X823525Y383291D01*
X823607Y383323D01*
X823692Y383347D01*
X823753Y383381D01*
X823818Y383408D01*
X823889Y383460D01*
X823966Y383503D01*
X824016Y383553D01*
X824072Y383594D01*
X824128Y383662D01*
X824191Y383724D01*
X824216Y383769D01*
X824272Y383839D01*
X824378Y384070D01*
X826234Y385418D01*
X826271Y385453D01*
X826313Y385480D01*
X826385Y385561D01*
X826464Y385635D01*
X826491Y385677D01*
X826524Y385714D01*
X826575Y385810D01*
X826632Y385901D01*
X826648Y385949D01*
X826671Y385994D01*
X826683Y386058D01*
X826728Y386202D01*
X826738Y386364D01*
X826749Y386429D01*
X826749Y395000D01*
X826733Y395125D01*
X826724Y395250D01*
X826713Y395281D01*
X826709Y395313D01*
X826663Y395430D01*
X826622Y395549D01*
X826604Y395576D01*
X826592Y395606D01*
X826518Y395707D01*
X826449Y395813D01*
X826425Y395834D01*
X826406Y395860D01*
X826308Y395940D01*
X826215Y396024D01*
X826186Y396039D01*
X826161Y396060D01*
X826047Y396113D01*
X825936Y396171D01*
X825910Y396175D01*
X825875Y396192D01*
X825564Y396248D01*
X825525Y396245D01*
X825500Y396249D01*
X575000Y396249D01*
X574875Y396233D01*
X574750Y396224D01*
X574719Y396213D01*
X574687Y396209D01*
X574570Y396163D01*
X574451Y396122D01*
X574424Y396104D01*
X574394Y396092D01*
X574293Y396018D01*
X574187Y395949D01*
X574166Y395925D01*
X574140Y395906D01*
X574060Y395808D01*
X573976Y395715D01*
X573961Y395686D01*
X573940Y395661D01*
X573887Y395547D01*
X573829Y395436D01*
X573825Y395410D01*
X573808Y395375D01*
X573752Y395064D01*
X573755Y395025D01*
X573751Y395000D01*
X573751Y5000D01*
X573767Y4875D01*
X573776Y4750D01*
X573787Y4719D01*
X573791Y4687D01*
X573837Y4570D01*
X573878Y4451D01*
X573896Y4424D01*
X573908Y4394D01*
X573982Y4293D01*
X574051Y4187D01*
X574075Y4166D01*
X574094Y4140D01*
X574192Y4060D01*
X574285Y3976D01*
X574314Y3961D01*
X574339Y3940D01*
X574453Y3887D01*
X574565Y3829D01*
X574590Y3825D01*
X574625Y3808D01*
X574936Y3752D01*
X574975Y3755D01*
X575000Y3751D01*
X825500Y3751D01*
X825625Y3767D01*
G37*
%LPC*%
G36*
X413259Y156249D02*
X413259Y156249D01*
X410043Y157581D01*
X407581Y160043D01*
X406249Y163259D01*
X406249Y166741D01*
X407581Y169957D01*
X410043Y172419D01*
X413259Y173751D01*
X416741Y173751D01*
X419957Y172419D01*
X422419Y169957D01*
X422806Y169022D01*
X422825Y168988D01*
X422838Y168951D01*
X422903Y168851D01*
X422962Y168748D01*
X422990Y168720D01*
X423011Y168687D01*
X423100Y168607D01*
X423183Y168522D01*
X423216Y168502D01*
X423245Y168476D01*
X423351Y168420D01*
X423452Y168359D01*
X423490Y168347D01*
X423524Y168329D01*
X423589Y168318D01*
X423755Y168268D01*
X423896Y168262D01*
X423960Y168251D01*
X438136Y168251D01*
X438245Y168265D01*
X438355Y168270D01*
X438401Y168284D01*
X438449Y168291D01*
X438551Y168331D01*
X438656Y168364D01*
X438687Y168386D01*
X438742Y168408D01*
X438996Y168594D01*
X439009Y168609D01*
X439019Y168617D01*
X451383Y180981D01*
X451451Y181067D01*
X451524Y181149D01*
X451547Y181192D01*
X451577Y181230D01*
X451620Y181331D01*
X451671Y181428D01*
X451678Y181465D01*
X451701Y181520D01*
X451749Y181832D01*
X451747Y181851D01*
X451749Y181864D01*
X451749Y190781D01*
X451734Y190900D01*
X451726Y191020D01*
X451714Y191056D01*
X451709Y191094D01*
X451665Y191205D01*
X451627Y191319D01*
X451607Y191351D01*
X451592Y191387D01*
X451521Y191484D01*
X451456Y191584D01*
X451428Y191610D01*
X451406Y191641D01*
X451313Y191717D01*
X451225Y191798D01*
X451191Y191816D01*
X451161Y191840D01*
X451052Y191891D01*
X450946Y191947D01*
X450909Y191956D01*
X450875Y191972D01*
X450756Y191994D01*
X450640Y192022D01*
X450602Y192021D01*
X450564Y192028D01*
X450444Y192019D01*
X450324Y192017D01*
X450288Y192007D01*
X450250Y192005D01*
X450136Y191966D01*
X450020Y191934D01*
X449987Y191915D01*
X449951Y191903D01*
X449850Y191837D01*
X449747Y191777D01*
X449719Y191750D01*
X449687Y191729D01*
X449607Y191640D01*
X449521Y191557D01*
X449507Y191530D01*
X449476Y191496D01*
X449329Y191216D01*
X449324Y191190D01*
X449312Y191167D01*
X449305Y191146D01*
X448588Y189738D01*
X447659Y188459D01*
X446541Y187341D01*
X445262Y186412D01*
X443854Y185695D01*
X442351Y185207D01*
X441249Y185032D01*
X441249Y195000D01*
X441249Y204968D01*
X442351Y204793D01*
X443854Y204305D01*
X445262Y203588D01*
X446541Y202659D01*
X447659Y201541D01*
X448588Y200262D01*
X449305Y198854D01*
X449312Y198833D01*
X449363Y198725D01*
X449408Y198613D01*
X449430Y198583D01*
X449446Y198548D01*
X449523Y198456D01*
X449594Y198359D01*
X449624Y198335D01*
X449648Y198306D01*
X449746Y198235D01*
X449839Y198160D01*
X449873Y198144D01*
X449904Y198121D01*
X450016Y198078D01*
X450125Y198028D01*
X450163Y198021D01*
X450198Y198007D01*
X450318Y197993D01*
X450436Y197972D01*
X450474Y197975D01*
X450512Y197970D01*
X450631Y197986D01*
X450750Y197995D01*
X450786Y198008D01*
X450824Y198013D01*
X450935Y198058D01*
X451049Y198097D01*
X451081Y198118D01*
X451116Y198133D01*
X451212Y198204D01*
X451313Y198271D01*
X451338Y198299D01*
X451369Y198322D01*
X451444Y198415D01*
X451524Y198504D01*
X451542Y198538D01*
X451566Y198568D01*
X451615Y198678D01*
X451671Y198784D01*
X451676Y198814D01*
X451695Y198856D01*
X451748Y199167D01*
X451745Y199193D01*
X451749Y199219D01*
X451749Y273136D01*
X451735Y273245D01*
X451730Y273355D01*
X451716Y273401D01*
X451709Y273449D01*
X451669Y273551D01*
X451636Y273656D01*
X451614Y273687D01*
X451592Y273742D01*
X451406Y273996D01*
X451391Y274009D01*
X451383Y274019D01*
X441519Y283883D01*
X441433Y283951D01*
X441351Y284024D01*
X441308Y284047D01*
X441270Y284077D01*
X441169Y284120D01*
X441072Y284171D01*
X441035Y284178D01*
X440980Y284201D01*
X440668Y284249D01*
X440649Y284247D01*
X440636Y284249D01*
X427203Y284249D01*
X427062Y284231D01*
X426921Y284217D01*
X426906Y284211D01*
X426890Y284209D01*
X426758Y284157D01*
X426625Y284108D01*
X426612Y284098D01*
X426597Y284092D01*
X426482Y284009D01*
X426366Y283928D01*
X426355Y283915D01*
X426342Y283906D01*
X426253Y283796D01*
X426160Y283688D01*
X426153Y283674D01*
X426143Y283661D01*
X426083Y283532D01*
X426021Y283405D01*
X426018Y283389D01*
X426011Y283375D01*
X425986Y283235D01*
X425957Y283096D01*
X425958Y283080D01*
X425955Y283064D01*
X425966Y282923D01*
X425973Y282781D01*
X425978Y282766D01*
X425979Y282750D01*
X426025Y282615D01*
X426067Y282480D01*
X426074Y282469D01*
X426081Y282451D01*
X426254Y282187D01*
X426298Y282147D01*
X426319Y282117D01*
X428054Y280382D01*
X429501Y276890D01*
X429501Y273110D01*
X428054Y269618D01*
X426319Y267883D01*
X426233Y267771D01*
X426143Y267661D01*
X426136Y267647D01*
X426126Y267634D01*
X426071Y267504D01*
X426011Y267375D01*
X426008Y267359D01*
X426002Y267344D01*
X425980Y267203D01*
X425955Y267064D01*
X425956Y267048D01*
X425954Y267032D01*
X425968Y266891D01*
X425979Y266750D01*
X425984Y266734D01*
X425986Y266718D01*
X426035Y266586D01*
X426081Y266451D01*
X426090Y266437D01*
X426095Y266422D01*
X426176Y266307D01*
X426254Y266187D01*
X426266Y266176D01*
X426275Y266163D01*
X426382Y266071D01*
X426488Y265976D01*
X426502Y265968D01*
X426514Y265958D01*
X426641Y265895D01*
X426767Y265829D01*
X426780Y265827D01*
X426797Y265818D01*
X427106Y265754D01*
X427166Y265757D01*
X427203Y265751D01*
X428847Y265751D01*
X431117Y263481D01*
X435963Y258634D01*
X435994Y258610D01*
X436020Y258581D01*
X436118Y258514D01*
X436212Y258441D01*
X436248Y258426D01*
X436281Y258404D01*
X436393Y258364D01*
X436502Y258317D01*
X436541Y258311D01*
X436578Y258298D01*
X436696Y258287D01*
X436814Y258269D01*
X436853Y258273D01*
X436892Y258269D01*
X436956Y258283D01*
X437128Y258301D01*
X437261Y258350D01*
X437324Y258363D01*
X438259Y258751D01*
X441741Y258751D01*
X444957Y257419D01*
X447419Y254957D01*
X448751Y251741D01*
X448751Y248259D01*
X447419Y245043D01*
X444957Y242581D01*
X441741Y241249D01*
X438259Y241249D01*
X435043Y242581D01*
X432581Y245043D01*
X431249Y248259D01*
X431249Y251741D01*
X431637Y252676D01*
X431647Y252713D01*
X431664Y252748D01*
X431688Y252865D01*
X431720Y252980D01*
X431720Y253019D01*
X431728Y253057D01*
X431722Y253176D01*
X431724Y253295D01*
X431714Y253333D01*
X431712Y253373D01*
X431677Y253486D01*
X431649Y253602D01*
X431630Y253636D01*
X431618Y253674D01*
X431581Y253727D01*
X431499Y253880D01*
X431403Y253983D01*
X431366Y254037D01*
X426519Y258883D01*
X426433Y258951D01*
X426351Y259024D01*
X426308Y259047D01*
X426270Y259077D01*
X426169Y259120D01*
X426072Y259171D01*
X426035Y259178D01*
X425980Y259201D01*
X425668Y259249D01*
X425649Y259247D01*
X425636Y259249D01*
X373653Y259249D01*
X364019Y268883D01*
X363933Y268951D01*
X363851Y269024D01*
X363808Y269047D01*
X363770Y269077D01*
X363669Y269120D01*
X363572Y269171D01*
X363535Y269178D01*
X363480Y269201D01*
X363168Y269249D01*
X363149Y269247D01*
X363136Y269249D01*
X173960Y269249D01*
X173921Y269244D01*
X173882Y269247D01*
X173765Y269224D01*
X173647Y269209D01*
X173611Y269195D01*
X173572Y269188D01*
X173465Y269137D01*
X173354Y269092D01*
X173322Y269069D01*
X173287Y269053D01*
X173196Y268976D01*
X173100Y268906D01*
X173075Y268876D01*
X173045Y268850D01*
X173010Y268795D01*
X172900Y268661D01*
X172841Y268533D01*
X172806Y268478D01*
X172419Y267543D01*
X169957Y265081D01*
X166741Y263749D01*
X163259Y263749D01*
X160043Y265081D01*
X157581Y267543D01*
X156249Y270759D01*
X156249Y274241D01*
X157581Y277457D01*
X160043Y279919D01*
X163259Y281251D01*
X166741Y281251D01*
X169957Y279919D01*
X172419Y277457D01*
X172806Y276522D01*
X172825Y276488D01*
X172838Y276451D01*
X172903Y276351D01*
X172962Y276248D01*
X172990Y276220D01*
X173011Y276187D01*
X173100Y276107D01*
X173183Y276022D01*
X173216Y276002D01*
X173245Y275976D01*
X173351Y275920D01*
X173452Y275859D01*
X173490Y275847D01*
X173524Y275829D01*
X173589Y275818D01*
X173755Y275768D01*
X173896Y275762D01*
X173960Y275751D01*
X366347Y275751D01*
X375981Y266117D01*
X376067Y266049D01*
X376149Y265976D01*
X376192Y265953D01*
X376230Y265923D01*
X376331Y265880D01*
X376428Y265829D01*
X376465Y265822D01*
X376520Y265799D01*
X376832Y265751D01*
X376851Y265753D01*
X376864Y265751D01*
X387797Y265751D01*
X387938Y265769D01*
X388079Y265783D01*
X388094Y265789D01*
X388110Y265791D01*
X388242Y265843D01*
X388375Y265892D01*
X388388Y265902D01*
X388403Y265908D01*
X388518Y265991D01*
X388634Y266072D01*
X388645Y266085D01*
X388658Y266094D01*
X388747Y266204D01*
X388840Y266312D01*
X388847Y266326D01*
X388857Y266339D01*
X388917Y266468D01*
X388979Y266595D01*
X388982Y266611D01*
X388989Y266625D01*
X389014Y266765D01*
X389043Y266904D01*
X389042Y266920D01*
X389045Y266936D01*
X389034Y267077D01*
X389027Y267219D01*
X389022Y267234D01*
X389021Y267250D01*
X388975Y267385D01*
X388933Y267520D01*
X388926Y267531D01*
X388919Y267549D01*
X388746Y267813D01*
X388702Y267853D01*
X388681Y267883D01*
X386946Y269618D01*
X385499Y273110D01*
X385499Y276890D01*
X386946Y280382D01*
X388681Y282117D01*
X388767Y282229D01*
X388857Y282339D01*
X388864Y282353D01*
X388874Y282366D01*
X388929Y282496D01*
X388989Y282625D01*
X388992Y282641D01*
X388998Y282656D01*
X389020Y282797D01*
X389045Y282936D01*
X389044Y282952D01*
X389046Y282968D01*
X389032Y283109D01*
X389021Y283250D01*
X389016Y283266D01*
X389014Y283282D01*
X388965Y283414D01*
X388919Y283549D01*
X388910Y283563D01*
X388905Y283578D01*
X388824Y283693D01*
X388746Y283813D01*
X388734Y283824D01*
X388725Y283837D01*
X388618Y283929D01*
X388512Y284024D01*
X388498Y284032D01*
X388486Y284042D01*
X388359Y284105D01*
X388233Y284171D01*
X388220Y284173D01*
X388203Y284182D01*
X387894Y284246D01*
X387834Y284243D01*
X387797Y284249D01*
X366153Y284249D01*
X363883Y286519D01*
X319602Y330801D01*
X319558Y330835D01*
X319521Y330875D01*
X319434Y330931D01*
X319353Y330994D01*
X319302Y331016D01*
X319255Y331046D01*
X319157Y331078D01*
X319063Y331118D01*
X319008Y331127D01*
X318956Y331144D01*
X318853Y331151D01*
X318751Y331166D01*
X318696Y331161D01*
X318641Y331164D01*
X318540Y331145D01*
X318437Y331135D01*
X318385Y331115D01*
X318331Y331105D01*
X318238Y331061D01*
X318141Y331025D01*
X318096Y330994D01*
X318046Y330970D01*
X317967Y330904D01*
X317882Y330845D01*
X317846Y330803D01*
X317804Y330768D01*
X317768Y330713D01*
X317676Y330606D01*
X317600Y330451D01*
X317564Y330396D01*
X317418Y330043D01*
X314957Y327581D01*
X311741Y326249D01*
X308259Y326249D01*
X305043Y327581D01*
X302581Y330043D01*
X301249Y333259D01*
X301249Y336741D01*
X302581Y339957D01*
X305043Y342419D01*
X308259Y343751D01*
X311741Y343751D01*
X314957Y342419D01*
X317419Y339957D01*
X317806Y339022D01*
X317825Y338988D01*
X317838Y338951D01*
X317903Y338851D01*
X317962Y338748D01*
X317990Y338720D01*
X318011Y338687D01*
X318100Y338607D01*
X318183Y338522D01*
X318216Y338502D01*
X318245Y338476D01*
X318351Y338420D01*
X318452Y338359D01*
X318490Y338347D01*
X318524Y338329D01*
X318589Y338318D01*
X318755Y338268D01*
X318896Y338262D01*
X318960Y338251D01*
X321347Y338251D01*
X368481Y291117D01*
X368567Y291049D01*
X368649Y290976D01*
X368692Y290953D01*
X368730Y290923D01*
X368831Y290880D01*
X368928Y290829D01*
X368965Y290822D01*
X369020Y290799D01*
X369332Y290751D01*
X369351Y290753D01*
X369364Y290751D01*
X372797Y290751D01*
X372938Y290769D01*
X373079Y290783D01*
X373094Y290789D01*
X373110Y290791D01*
X373242Y290843D01*
X373375Y290892D01*
X373388Y290902D01*
X373403Y290908D01*
X373518Y290991D01*
X373634Y291072D01*
X373645Y291085D01*
X373658Y291094D01*
X373747Y291204D01*
X373840Y291312D01*
X373847Y291326D01*
X373857Y291339D01*
X373917Y291468D01*
X373979Y291595D01*
X373982Y291611D01*
X373989Y291625D01*
X374014Y291765D01*
X374043Y291904D01*
X374042Y291920D01*
X374045Y291936D01*
X374034Y292077D01*
X374027Y292219D01*
X374022Y292234D01*
X374021Y292250D01*
X373975Y292385D01*
X373933Y292520D01*
X373926Y292531D01*
X373919Y292549D01*
X373746Y292813D01*
X373702Y292853D01*
X373681Y292883D01*
X371946Y294618D01*
X370499Y298110D01*
X370499Y301890D01*
X371946Y305382D01*
X374618Y308054D01*
X378110Y309501D01*
X381890Y309501D01*
X385382Y308054D01*
X385989Y307447D01*
X386076Y307379D01*
X386158Y307306D01*
X386201Y307283D01*
X386239Y307254D01*
X386340Y307210D01*
X386437Y307159D01*
X386474Y307152D01*
X386529Y307129D01*
X386841Y307081D01*
X386860Y307083D01*
X386873Y307081D01*
X463127Y307081D01*
X463236Y307095D01*
X463346Y307100D01*
X463392Y307114D01*
X463440Y307121D01*
X463542Y307161D01*
X463647Y307194D01*
X463678Y307216D01*
X463733Y307238D01*
X463988Y307424D01*
X464000Y307439D01*
X464011Y307447D01*
X464618Y308054D01*
X468110Y309501D01*
X471890Y309501D01*
X475382Y308054D01*
X478054Y305382D01*
X479501Y301890D01*
X479501Y298110D01*
X478054Y294618D01*
X475382Y291946D01*
X471890Y290499D01*
X468110Y290499D01*
X464618Y291946D01*
X464011Y292553D01*
X463924Y292621D01*
X463842Y292694D01*
X463799Y292717D01*
X463761Y292747D01*
X463660Y292790D01*
X463563Y292841D01*
X463526Y292848D01*
X463471Y292871D01*
X463159Y292919D01*
X463140Y292917D01*
X463127Y292919D01*
X444694Y292919D01*
X444554Y292901D01*
X444412Y292887D01*
X444397Y292881D01*
X444381Y292879D01*
X444249Y292827D01*
X444116Y292778D01*
X444103Y292768D01*
X444088Y292762D01*
X443973Y292678D01*
X443857Y292598D01*
X443847Y292585D01*
X443834Y292576D01*
X443744Y292466D01*
X443651Y292358D01*
X443644Y292344D01*
X443634Y292331D01*
X443575Y292202D01*
X443512Y292075D01*
X443509Y292059D01*
X443502Y292045D01*
X443477Y291905D01*
X443448Y291766D01*
X443449Y291750D01*
X443446Y291734D01*
X443457Y291593D01*
X443464Y291451D01*
X443469Y291436D01*
X443470Y291420D01*
X443516Y291285D01*
X443558Y291150D01*
X443566Y291139D01*
X443572Y291121D01*
X443745Y290857D01*
X443789Y290817D01*
X443811Y290787D01*
X446117Y288481D01*
X458251Y276347D01*
X458251Y178653D01*
X441347Y161749D01*
X423960Y161749D01*
X423921Y161744D01*
X423882Y161747D01*
X423765Y161724D01*
X423647Y161709D01*
X423611Y161695D01*
X423572Y161688D01*
X423465Y161637D01*
X423354Y161592D01*
X423322Y161569D01*
X423287Y161553D01*
X423196Y161476D01*
X423100Y161406D01*
X423075Y161376D01*
X423045Y161350D01*
X423010Y161295D01*
X422900Y161161D01*
X422841Y161033D01*
X422806Y160978D01*
X422419Y160043D01*
X419957Y157581D01*
X416741Y156249D01*
X413259Y156249D01*
G37*
%LPD*%
%LPC*%
G36*
X694649Y318007D02*
X694649Y318007D01*
X694649Y328950D01*
X694633Y329075D01*
X694624Y329200D01*
X694613Y329231D01*
X694609Y329263D01*
X694563Y329380D01*
X694522Y329499D01*
X694504Y329526D01*
X694492Y329556D01*
X694418Y329657D01*
X694349Y329763D01*
X694325Y329784D01*
X694306Y329810D01*
X694208Y329890D01*
X694115Y329974D01*
X694086Y329989D01*
X694061Y330010D01*
X693947Y330062D01*
X693835Y330121D01*
X693810Y330125D01*
X693775Y330142D01*
X693464Y330197D01*
X693425Y330195D01*
X693400Y330199D01*
X692149Y330199D01*
X692149Y331450D01*
X692133Y331575D01*
X692124Y331700D01*
X692113Y331731D01*
X692109Y331763D01*
X692063Y331880D01*
X692022Y331999D01*
X692004Y332026D01*
X691992Y332056D01*
X691918Y332157D01*
X691849Y332263D01*
X691825Y332284D01*
X691806Y332310D01*
X691708Y332390D01*
X691615Y332474D01*
X691586Y332489D01*
X691561Y332510D01*
X691447Y332562D01*
X691335Y332621D01*
X691310Y332625D01*
X691275Y332642D01*
X690964Y332698D01*
X690925Y332695D01*
X690900Y332699D01*
X679957Y332699D01*
X679957Y340186D01*
X680130Y340833D01*
X680465Y341412D01*
X680938Y341885D01*
X681517Y342220D01*
X682164Y342393D01*
X687305Y342393D01*
X687375Y342402D01*
X687447Y342401D01*
X687531Y342422D01*
X687618Y342433D01*
X687684Y342459D01*
X687753Y342476D01*
X687830Y342517D01*
X687911Y342550D01*
X687968Y342592D01*
X688031Y342625D01*
X688095Y342685D01*
X688165Y342736D01*
X688210Y342791D01*
X688262Y342840D01*
X688309Y342913D01*
X688365Y342981D01*
X688394Y343045D01*
X688433Y343105D01*
X688460Y343188D01*
X688496Y343267D01*
X688509Y343337D01*
X688531Y343405D01*
X688537Y343492D01*
X688552Y343578D01*
X688547Y343649D01*
X688552Y343720D01*
X688535Y343805D01*
X688529Y343892D01*
X688506Y343960D01*
X688492Y344030D01*
X688455Y344108D01*
X688427Y344191D01*
X688388Y344251D01*
X688357Y344315D01*
X688302Y344382D01*
X688254Y344455D01*
X688201Y344502D01*
X688155Y344557D01*
X688105Y344590D01*
X688020Y344666D01*
X687830Y344766D01*
X687783Y344796D01*
X685549Y345721D01*
X682271Y348999D01*
X680497Y353282D01*
X680497Y357918D01*
X682271Y362201D01*
X685549Y365479D01*
X689832Y367253D01*
X694468Y367253D01*
X698751Y365479D01*
X702029Y362201D01*
X703696Y358176D01*
X703766Y358053D01*
X703833Y357928D01*
X703844Y357916D01*
X703852Y357902D01*
X703951Y357801D01*
X704048Y357696D01*
X704061Y357688D01*
X704073Y357676D01*
X704193Y357603D01*
X704313Y357526D01*
X704329Y357521D01*
X704342Y357513D01*
X704478Y357472D01*
X704613Y357427D01*
X704629Y357426D01*
X704645Y357422D01*
X704786Y357416D01*
X704928Y357407D01*
X704944Y357410D01*
X704960Y357410D01*
X705099Y357440D01*
X705238Y357466D01*
X705252Y357473D01*
X705268Y357477D01*
X705395Y357541D01*
X705523Y357601D01*
X705535Y357612D01*
X705550Y357619D01*
X705656Y357713D01*
X705765Y357804D01*
X705772Y357815D01*
X705787Y357827D01*
X705964Y358088D01*
X705984Y358144D01*
X706004Y358176D01*
X707671Y362201D01*
X710949Y365479D01*
X715232Y367253D01*
X719868Y367253D01*
X724151Y365479D01*
X727429Y362201D01*
X729096Y358176D01*
X729166Y358053D01*
X729233Y357928D01*
X729244Y357916D01*
X729252Y357902D01*
X729351Y357801D01*
X729448Y357696D01*
X729461Y357688D01*
X729473Y357676D01*
X729593Y357603D01*
X729713Y357526D01*
X729729Y357521D01*
X729742Y357513D01*
X729878Y357472D01*
X730013Y357427D01*
X730029Y357426D01*
X730045Y357422D01*
X730186Y357416D01*
X730328Y357407D01*
X730344Y357410D01*
X730360Y357410D01*
X730499Y357440D01*
X730638Y357466D01*
X730652Y357473D01*
X730668Y357477D01*
X730795Y357541D01*
X730923Y357601D01*
X730935Y357612D01*
X730950Y357619D01*
X731056Y357713D01*
X731165Y357804D01*
X731172Y357815D01*
X731187Y357827D01*
X731364Y358088D01*
X731384Y358144D01*
X731404Y358176D01*
X733071Y362201D01*
X736349Y365479D01*
X740632Y367253D01*
X745268Y367253D01*
X749551Y365479D01*
X752829Y362201D01*
X754496Y358176D01*
X754566Y358053D01*
X754633Y357928D01*
X754644Y357916D01*
X754652Y357902D01*
X754751Y357801D01*
X754848Y357696D01*
X754861Y357688D01*
X754873Y357676D01*
X754993Y357603D01*
X755113Y357526D01*
X755129Y357521D01*
X755142Y357513D01*
X755278Y357472D01*
X755413Y357427D01*
X755429Y357426D01*
X755445Y357422D01*
X755586Y357416D01*
X755728Y357407D01*
X755744Y357410D01*
X755760Y357410D01*
X755899Y357440D01*
X756038Y357466D01*
X756052Y357473D01*
X756068Y357477D01*
X756195Y357541D01*
X756323Y357601D01*
X756335Y357612D01*
X756350Y357619D01*
X756456Y357713D01*
X756565Y357804D01*
X756572Y357815D01*
X756587Y357827D01*
X756764Y358088D01*
X756784Y358144D01*
X756804Y358176D01*
X758471Y362201D01*
X761749Y365479D01*
X766032Y367253D01*
X770668Y367253D01*
X774951Y365479D01*
X778229Y362201D01*
X779896Y358176D01*
X779966Y358053D01*
X780033Y357928D01*
X780044Y357916D01*
X780052Y357902D01*
X780151Y357801D01*
X780248Y357696D01*
X780261Y357688D01*
X780273Y357676D01*
X780393Y357603D01*
X780513Y357526D01*
X780529Y357521D01*
X780542Y357513D01*
X780678Y357472D01*
X780813Y357427D01*
X780829Y357426D01*
X780845Y357422D01*
X780986Y357416D01*
X781128Y357407D01*
X781144Y357410D01*
X781160Y357410D01*
X781299Y357440D01*
X781438Y357466D01*
X781452Y357473D01*
X781468Y357477D01*
X781595Y357541D01*
X781723Y357601D01*
X781735Y357612D01*
X781750Y357619D01*
X781856Y357713D01*
X781965Y357804D01*
X781972Y357815D01*
X781987Y357827D01*
X782164Y358088D01*
X782184Y358144D01*
X782204Y358176D01*
X783871Y362201D01*
X787149Y365479D01*
X791432Y367253D01*
X796068Y367253D01*
X800351Y365479D01*
X803629Y362201D01*
X805403Y357918D01*
X805403Y353282D01*
X803629Y348999D01*
X800351Y345721D01*
X796326Y344054D01*
X796203Y343984D01*
X796078Y343917D01*
X796066Y343906D01*
X796052Y343898D01*
X795951Y343799D01*
X795846Y343702D01*
X795838Y343689D01*
X795826Y343677D01*
X795753Y343556D01*
X795676Y343437D01*
X795671Y343421D01*
X795663Y343408D01*
X795622Y343272D01*
X795577Y343137D01*
X795576Y343121D01*
X795572Y343105D01*
X795566Y342964D01*
X795557Y342822D01*
X795560Y342806D01*
X795560Y342790D01*
X795590Y342651D01*
X795616Y342512D01*
X795623Y342498D01*
X795627Y342482D01*
X795691Y342355D01*
X795751Y342227D01*
X795762Y342215D01*
X795769Y342200D01*
X795863Y342094D01*
X795954Y341985D01*
X795965Y341978D01*
X795977Y341963D01*
X796238Y341786D01*
X796294Y341766D01*
X796326Y341746D01*
X800351Y340079D01*
X803629Y336801D01*
X805403Y332518D01*
X805403Y327882D01*
X803629Y323599D01*
X800351Y320321D01*
X796068Y318547D01*
X791432Y318547D01*
X787149Y320321D01*
X783871Y323599D01*
X782204Y327624D01*
X782134Y327747D01*
X782067Y327872D01*
X782056Y327884D01*
X782048Y327898D01*
X781949Y327999D01*
X781852Y328104D01*
X781839Y328112D01*
X781827Y328124D01*
X781706Y328197D01*
X781587Y328274D01*
X781571Y328279D01*
X781558Y328287D01*
X781422Y328328D01*
X781287Y328373D01*
X781271Y328374D01*
X781255Y328378D01*
X781114Y328384D01*
X780972Y328393D01*
X780956Y328390D01*
X780940Y328390D01*
X780801Y328360D01*
X780662Y328334D01*
X780648Y328327D01*
X780632Y328323D01*
X780505Y328259D01*
X780377Y328199D01*
X780365Y328188D01*
X780350Y328181D01*
X780244Y328087D01*
X780135Y327996D01*
X780128Y327985D01*
X780113Y327973D01*
X779936Y327712D01*
X779916Y327656D01*
X779896Y327624D01*
X778229Y323599D01*
X774951Y320321D01*
X770668Y318547D01*
X766032Y318547D01*
X761749Y320321D01*
X758471Y323599D01*
X756804Y327624D01*
X756734Y327747D01*
X756667Y327872D01*
X756656Y327884D01*
X756648Y327898D01*
X756549Y327999D01*
X756452Y328104D01*
X756439Y328112D01*
X756427Y328124D01*
X756306Y328197D01*
X756187Y328274D01*
X756171Y328279D01*
X756158Y328287D01*
X756022Y328328D01*
X755887Y328373D01*
X755871Y328374D01*
X755855Y328378D01*
X755714Y328384D01*
X755572Y328393D01*
X755556Y328390D01*
X755540Y328390D01*
X755401Y328360D01*
X755262Y328334D01*
X755248Y328327D01*
X755232Y328323D01*
X755105Y328259D01*
X754977Y328199D01*
X754965Y328188D01*
X754950Y328181D01*
X754844Y328087D01*
X754735Y327996D01*
X754728Y327985D01*
X754713Y327973D01*
X754536Y327712D01*
X754516Y327656D01*
X754496Y327624D01*
X752829Y323599D01*
X749551Y320321D01*
X745268Y318547D01*
X740632Y318547D01*
X736349Y320321D01*
X733071Y323599D01*
X731404Y327624D01*
X731334Y327747D01*
X731267Y327872D01*
X731256Y327884D01*
X731248Y327898D01*
X731149Y327999D01*
X731052Y328104D01*
X731039Y328112D01*
X731027Y328124D01*
X730906Y328197D01*
X730787Y328274D01*
X730771Y328279D01*
X730758Y328287D01*
X730622Y328328D01*
X730487Y328373D01*
X730471Y328374D01*
X730455Y328378D01*
X730314Y328384D01*
X730172Y328393D01*
X730156Y328390D01*
X730140Y328390D01*
X730001Y328360D01*
X729862Y328334D01*
X729848Y328327D01*
X729832Y328323D01*
X729705Y328259D01*
X729577Y328199D01*
X729565Y328188D01*
X729550Y328181D01*
X729444Y328087D01*
X729335Y327996D01*
X729328Y327985D01*
X729313Y327973D01*
X729136Y327712D01*
X729116Y327656D01*
X729096Y327624D01*
X727429Y323599D01*
X724151Y320321D01*
X719868Y318547D01*
X715232Y318547D01*
X710949Y320321D01*
X707671Y323599D01*
X706746Y325833D01*
X706711Y325895D01*
X706684Y325961D01*
X706633Y326031D01*
X706590Y326107D01*
X706540Y326158D01*
X706498Y326215D01*
X706430Y326270D01*
X706369Y326333D01*
X706309Y326370D01*
X706253Y326415D01*
X706174Y326451D01*
X706100Y326496D01*
X706031Y326517D01*
X705967Y326546D01*
X705881Y326562D01*
X705797Y326587D01*
X705726Y326590D01*
X705656Y326602D01*
X705569Y326596D01*
X705482Y326599D01*
X705413Y326584D01*
X705342Y326579D01*
X705259Y326551D01*
X705174Y326532D01*
X705110Y326500D01*
X705043Y326477D01*
X704970Y326429D01*
X704892Y326390D01*
X704839Y326343D01*
X704779Y326304D01*
X704721Y326239D01*
X704655Y326181D01*
X704615Y326123D01*
X704568Y326070D01*
X704527Y325992D01*
X704478Y325920D01*
X704454Y325853D01*
X704421Y325790D01*
X704410Y325731D01*
X704372Y325623D01*
X704353Y325410D01*
X704343Y325355D01*
X704343Y320214D01*
X704170Y319567D01*
X703835Y318988D01*
X703362Y318515D01*
X702783Y318180D01*
X702136Y318007D01*
X694649Y318007D01*
G37*
%LPD*%
%LPC*%
G36*
X765000Y191249D02*
X765000Y191249D01*
X755791Y191249D01*
X755938Y192176D01*
X756390Y193566D01*
X757054Y194870D01*
X757913Y196053D01*
X758947Y197087D01*
X760130Y197946D01*
X761434Y198610D01*
X762824Y199062D01*
X763030Y199095D01*
X763156Y199131D01*
X763283Y199162D01*
X763307Y199175D01*
X763333Y199183D01*
X763445Y199250D01*
X763561Y199312D01*
X763581Y199330D01*
X763604Y199344D01*
X763696Y199437D01*
X763792Y199526D01*
X763807Y199549D01*
X763826Y199568D01*
X763892Y199682D01*
X763963Y199792D01*
X763971Y199818D01*
X763985Y199841D01*
X764020Y199967D01*
X764061Y200091D01*
X764063Y200119D01*
X764070Y200145D01*
X764073Y200275D01*
X764082Y200406D01*
X764076Y200433D01*
X764077Y200460D01*
X764047Y200588D01*
X764022Y200716D01*
X764011Y200741D01*
X764004Y200767D01*
X763943Y200883D01*
X763887Y201001D01*
X763870Y201022D01*
X763857Y201046D01*
X763769Y201143D01*
X763685Y201244D01*
X763667Y201255D01*
X763645Y201279D01*
X763381Y201452D01*
X763338Y201467D01*
X763313Y201483D01*
X762462Y201835D01*
X762440Y201841D01*
X762420Y201852D01*
X762365Y201861D01*
X762158Y201918D01*
X762044Y201919D01*
X761984Y201930D01*
X703473Y201930D01*
X684019Y221383D01*
X683933Y221451D01*
X683851Y221524D01*
X683808Y221547D01*
X683770Y221577D01*
X683669Y221620D01*
X683572Y221671D01*
X683535Y221678D01*
X683480Y221701D01*
X683168Y221749D01*
X683149Y221747D01*
X683136Y221749D01*
X603196Y221749D01*
X603173Y221746D01*
X603151Y221748D01*
X603096Y221736D01*
X602883Y221709D01*
X602777Y221667D01*
X602718Y221654D01*
X601741Y221249D01*
X598259Y221249D01*
X595043Y222581D01*
X592581Y225043D01*
X591249Y228259D01*
X591249Y231741D01*
X592581Y234957D01*
X595043Y237419D01*
X598259Y238751D01*
X601741Y238751D01*
X604323Y237681D01*
X604391Y237663D01*
X604457Y237634D01*
X604543Y237621D01*
X604627Y237598D01*
X604698Y237597D01*
X604769Y237587D01*
X604855Y237595D01*
X604943Y237594D01*
X605012Y237611D01*
X605082Y237618D01*
X605164Y237649D01*
X605249Y237669D01*
X605312Y237703D01*
X605378Y237728D01*
X605450Y237777D01*
X605527Y237819D01*
X605579Y237867D01*
X605637Y237908D01*
X605694Y237974D01*
X605758Y238033D01*
X605797Y238093D01*
X605843Y238147D01*
X605882Y238225D01*
X605929Y238299D01*
X605951Y238366D01*
X605982Y238430D01*
X606000Y238515D01*
X606027Y238598D01*
X606032Y238669D01*
X606046Y238739D01*
X606042Y238826D01*
X606048Y238913D01*
X606034Y238983D01*
X606031Y239054D01*
X606005Y239138D01*
X605988Y239223D01*
X605958Y239287D01*
X605937Y239355D01*
X605902Y239405D01*
X605853Y239508D01*
X605716Y239673D01*
X605684Y239719D01*
X604037Y241366D01*
X604006Y241390D01*
X603980Y241419D01*
X603882Y241486D01*
X603788Y241559D01*
X603752Y241574D01*
X603719Y241596D01*
X603607Y241636D01*
X603498Y241683D01*
X603459Y241689D01*
X603422Y241702D01*
X603304Y241713D01*
X603186Y241731D01*
X603147Y241727D01*
X603108Y241731D01*
X603044Y241717D01*
X602872Y241699D01*
X602739Y241650D01*
X602676Y241637D01*
X601741Y241249D01*
X598259Y241249D01*
X595043Y242581D01*
X592581Y245043D01*
X591249Y248259D01*
X591249Y251741D01*
X592581Y254957D01*
X595043Y257419D01*
X598259Y258751D01*
X601741Y258751D01*
X604957Y257419D01*
X607419Y254957D01*
X608751Y251741D01*
X608751Y248259D01*
X608363Y247324D01*
X608353Y247287D01*
X608336Y247252D01*
X608312Y247135D01*
X608280Y247020D01*
X608280Y246981D01*
X608272Y246943D01*
X608278Y246824D01*
X608276Y246705D01*
X608286Y246667D01*
X608288Y246627D01*
X608323Y246514D01*
X608351Y246398D01*
X608370Y246364D01*
X608382Y246326D01*
X608419Y246273D01*
X608501Y246120D01*
X608597Y246017D01*
X608634Y245963D01*
X621481Y233117D01*
X621567Y233049D01*
X621649Y232976D01*
X621692Y232953D01*
X621730Y232923D01*
X621831Y232880D01*
X621928Y232829D01*
X621965Y232822D01*
X622020Y232799D01*
X622332Y232751D01*
X622351Y232753D01*
X622364Y232751D01*
X688211Y232751D01*
X706504Y214457D01*
X706591Y214390D01*
X706672Y214316D01*
X706715Y214294D01*
X706753Y214264D01*
X706855Y214221D01*
X706952Y214170D01*
X706989Y214163D01*
X707043Y214140D01*
X707355Y214092D01*
X707374Y214094D01*
X707387Y214091D01*
X746561Y214091D01*
X746670Y214105D01*
X746780Y214111D01*
X746826Y214125D01*
X746874Y214131D01*
X746976Y214172D01*
X747081Y214205D01*
X747112Y214226D01*
X747167Y214248D01*
X747421Y214435D01*
X747434Y214450D01*
X747444Y214457D01*
X762078Y229091D01*
X768740Y229091D01*
X768779Y229096D01*
X768818Y229094D01*
X768935Y229116D01*
X769053Y229131D01*
X769089Y229146D01*
X769128Y229153D01*
X769235Y229204D01*
X769346Y229248D01*
X769378Y229271D01*
X769413Y229288D01*
X769504Y229364D01*
X769600Y229435D01*
X769625Y229465D01*
X769655Y229490D01*
X769690Y229545D01*
X769800Y229679D01*
X769859Y229808D01*
X769894Y229863D01*
X770281Y230798D01*
X772743Y233259D01*
X775959Y234591D01*
X779441Y234591D01*
X782657Y233259D01*
X785119Y230798D01*
X786451Y227581D01*
X786451Y224100D01*
X785119Y220884D01*
X782657Y218422D01*
X779441Y217090D01*
X775959Y217090D01*
X772692Y218443D01*
X772624Y218462D01*
X772558Y218490D01*
X772472Y218503D01*
X772388Y218526D01*
X772317Y218527D01*
X772246Y218538D01*
X772160Y218529D01*
X772073Y218530D01*
X772003Y218513D01*
X771933Y218506D01*
X771851Y218476D01*
X771766Y218455D01*
X771704Y218421D01*
X771637Y218397D01*
X771565Y218347D01*
X771488Y218306D01*
X771436Y218257D01*
X771378Y218217D01*
X771321Y218150D01*
X771257Y218091D01*
X771218Y218031D01*
X771172Y217977D01*
X771133Y217899D01*
X771086Y217826D01*
X771064Y217758D01*
X771033Y217694D01*
X771015Y217609D01*
X770988Y217526D01*
X770983Y217455D01*
X770969Y217385D01*
X770973Y217298D01*
X770968Y217211D01*
X770981Y217141D01*
X770984Y217070D01*
X771011Y216987D01*
X771027Y216901D01*
X771057Y216837D01*
X771079Y216769D01*
X771113Y216720D01*
X771162Y216616D01*
X771299Y216452D01*
X771331Y216406D01*
X772599Y215137D01*
X773931Y211921D01*
X773931Y208440D01*
X772599Y205224D01*
X770138Y202762D01*
X766949Y201441D01*
X766835Y201376D01*
X766719Y201316D01*
X766698Y201298D01*
X766675Y201285D01*
X766581Y201194D01*
X766483Y201106D01*
X766468Y201083D01*
X766449Y201064D01*
X766381Y200953D01*
X766308Y200844D01*
X766299Y200818D01*
X766285Y200795D01*
X766247Y200669D01*
X766204Y200546D01*
X766202Y200519D01*
X766194Y200492D01*
X766189Y200362D01*
X766179Y200232D01*
X766183Y200205D01*
X766182Y200177D01*
X766210Y200049D01*
X766232Y199921D01*
X766244Y199896D01*
X766249Y199869D01*
X766308Y199752D01*
X766362Y199633D01*
X766379Y199612D01*
X766392Y199587D01*
X766478Y199489D01*
X766560Y199387D01*
X766582Y199371D01*
X766600Y199350D01*
X766708Y199277D01*
X766813Y199199D01*
X766834Y199192D01*
X766861Y199173D01*
X767072Y199098D01*
X767082Y199092D01*
X767137Y199075D01*
X767158Y199067D01*
X767161Y199067D01*
X768566Y198610D01*
X769870Y197946D01*
X771053Y197087D01*
X772087Y196053D01*
X772946Y194870D01*
X773610Y193566D01*
X774062Y192176D01*
X774209Y191249D01*
X765000Y191249D01*
X765000Y191249D01*
G37*
%LPD*%
%LPC*%
G36*
X99399Y338750D02*
X99399Y338750D01*
X99383Y338875D01*
X99374Y339000D01*
X99363Y339031D01*
X99359Y339063D01*
X99313Y339180D01*
X99272Y339299D01*
X99254Y339326D01*
X99242Y339356D01*
X99168Y339457D01*
X99099Y339563D01*
X99075Y339584D01*
X99056Y339610D01*
X98958Y339690D01*
X98865Y339774D01*
X98836Y339789D01*
X98811Y339810D01*
X98697Y339862D01*
X98585Y339921D01*
X98560Y339925D01*
X98525Y339942D01*
X98214Y339997D01*
X98175Y339995D01*
X98150Y339999D01*
X96899Y339999D01*
X96899Y340001D01*
X98150Y340001D01*
X98275Y340017D01*
X98400Y340026D01*
X98431Y340037D01*
X98463Y340041D01*
X98580Y340087D01*
X98699Y340128D01*
X98726Y340146D01*
X98756Y340158D01*
X98857Y340232D01*
X98963Y340301D01*
X98984Y340325D01*
X99010Y340344D01*
X99090Y340442D01*
X99174Y340535D01*
X99189Y340564D01*
X99210Y340589D01*
X99262Y340703D01*
X99321Y340815D01*
X99325Y340840D01*
X99342Y340875D01*
X99398Y341186D01*
X99395Y341225D01*
X99399Y341250D01*
X99399Y351949D01*
X99755Y351893D01*
X101580Y351299D01*
X103290Y350428D01*
X104843Y349300D01*
X106200Y347943D01*
X107328Y346390D01*
X108199Y344680D01*
X108659Y343265D01*
X108673Y343235D01*
X108681Y343203D01*
X108740Y343093D01*
X108794Y342980D01*
X108815Y342954D01*
X108831Y342925D01*
X108916Y342833D01*
X108996Y342737D01*
X109022Y342718D01*
X109045Y342694D01*
X109151Y342626D01*
X109252Y342553D01*
X109283Y342541D01*
X109311Y342523D01*
X109430Y342484D01*
X109546Y342439D01*
X109579Y342435D01*
X109610Y342425D01*
X109735Y342417D01*
X109859Y342402D01*
X109892Y342407D01*
X109925Y342404D01*
X110048Y342428D01*
X110172Y342445D01*
X110202Y342457D01*
X110235Y342464D01*
X110348Y342517D01*
X110464Y342565D01*
X110490Y342584D01*
X110520Y342599D01*
X110616Y342679D01*
X110716Y342754D01*
X110737Y342780D01*
X110762Y342801D01*
X110797Y342854D01*
X110913Y343000D01*
X110967Y343119D01*
X111002Y343173D01*
X112421Y346601D01*
X115699Y349879D01*
X119982Y351653D01*
X124618Y351653D01*
X128901Y349879D01*
X132179Y346601D01*
X133846Y342576D01*
X133916Y342453D01*
X133983Y342328D01*
X133994Y342316D01*
X134002Y342302D01*
X134101Y342201D01*
X134198Y342096D01*
X134211Y342088D01*
X134223Y342076D01*
X134343Y342003D01*
X134463Y341926D01*
X134479Y341921D01*
X134492Y341913D01*
X134628Y341872D01*
X134763Y341827D01*
X134779Y341826D01*
X134795Y341822D01*
X134936Y341816D01*
X135078Y341807D01*
X135094Y341810D01*
X135110Y341810D01*
X135249Y341840D01*
X135388Y341866D01*
X135402Y341873D01*
X135418Y341877D01*
X135545Y341941D01*
X135673Y342001D01*
X135685Y342012D01*
X135700Y342019D01*
X135806Y342113D01*
X135915Y342204D01*
X135922Y342215D01*
X135937Y342227D01*
X136114Y342488D01*
X136134Y342544D01*
X136154Y342576D01*
X137821Y346601D01*
X141099Y349879D01*
X145382Y351653D01*
X150018Y351653D01*
X154301Y349879D01*
X157579Y346601D01*
X159246Y342576D01*
X159316Y342453D01*
X159383Y342328D01*
X159394Y342316D01*
X159402Y342302D01*
X159501Y342201D01*
X159598Y342096D01*
X159611Y342088D01*
X159623Y342076D01*
X159743Y342003D01*
X159863Y341926D01*
X159879Y341921D01*
X159892Y341913D01*
X160028Y341872D01*
X160163Y341827D01*
X160179Y341826D01*
X160195Y341822D01*
X160336Y341816D01*
X160478Y341807D01*
X160494Y341810D01*
X160510Y341810D01*
X160649Y341840D01*
X160788Y341866D01*
X160802Y341873D01*
X160818Y341877D01*
X160945Y341941D01*
X161073Y342001D01*
X161085Y342012D01*
X161100Y342019D01*
X161206Y342113D01*
X161315Y342204D01*
X161322Y342215D01*
X161337Y342227D01*
X161514Y342488D01*
X161534Y342544D01*
X161554Y342576D01*
X163221Y346601D01*
X166499Y349879D01*
X170782Y351653D01*
X175418Y351653D01*
X179701Y349879D01*
X182979Y346601D01*
X184753Y342318D01*
X184753Y337682D01*
X182979Y333399D01*
X179701Y330121D01*
X175418Y328347D01*
X170782Y328347D01*
X166499Y330121D01*
X163221Y333399D01*
X161554Y337424D01*
X161484Y337547D01*
X161417Y337672D01*
X161406Y337684D01*
X161398Y337698D01*
X161299Y337799D01*
X161202Y337904D01*
X161189Y337912D01*
X161177Y337924D01*
X161056Y337997D01*
X160937Y338074D01*
X160921Y338079D01*
X160908Y338087D01*
X160772Y338128D01*
X160637Y338173D01*
X160621Y338174D01*
X160605Y338178D01*
X160464Y338184D01*
X160322Y338193D01*
X160306Y338190D01*
X160290Y338190D01*
X160151Y338160D01*
X160012Y338134D01*
X159998Y338127D01*
X159982Y338123D01*
X159855Y338059D01*
X159727Y337999D01*
X159715Y337988D01*
X159700Y337981D01*
X159594Y337887D01*
X159485Y337796D01*
X159478Y337785D01*
X159463Y337773D01*
X159286Y337512D01*
X159266Y337456D01*
X159246Y337424D01*
X157579Y333399D01*
X154301Y330121D01*
X150018Y328347D01*
X145382Y328347D01*
X141099Y330121D01*
X137821Y333399D01*
X136154Y337424D01*
X136084Y337547D01*
X136017Y337672D01*
X136006Y337684D01*
X135998Y337698D01*
X135899Y337799D01*
X135802Y337904D01*
X135789Y337912D01*
X135777Y337924D01*
X135656Y337997D01*
X135537Y338074D01*
X135521Y338079D01*
X135508Y338087D01*
X135372Y338128D01*
X135237Y338173D01*
X135221Y338174D01*
X135205Y338178D01*
X135064Y338184D01*
X134922Y338193D01*
X134906Y338190D01*
X134890Y338190D01*
X134751Y338160D01*
X134612Y338134D01*
X134598Y338127D01*
X134582Y338123D01*
X134455Y338059D01*
X134327Y337999D01*
X134315Y337988D01*
X134300Y337981D01*
X134194Y337887D01*
X134085Y337796D01*
X134078Y337785D01*
X134063Y337773D01*
X133886Y337512D01*
X133866Y337456D01*
X133846Y337424D01*
X132179Y333399D01*
X128901Y330121D01*
X124618Y328347D01*
X119982Y328347D01*
X115699Y330121D01*
X112421Y333399D01*
X111002Y336827D01*
X110985Y336856D01*
X110975Y336887D01*
X110907Y336992D01*
X110845Y337101D01*
X110822Y337124D01*
X110804Y337152D01*
X110712Y337237D01*
X110625Y337327D01*
X110596Y337344D01*
X110572Y337366D01*
X110462Y337425D01*
X110355Y337490D01*
X110323Y337500D01*
X110294Y337515D01*
X110173Y337545D01*
X110053Y337581D01*
X110020Y337582D01*
X109987Y337590D01*
X109862Y337588D01*
X109738Y337593D01*
X109705Y337586D01*
X109672Y337586D01*
X109552Y337553D01*
X109429Y337526D01*
X109400Y337511D01*
X109368Y337502D01*
X109259Y337440D01*
X109148Y337384D01*
X109123Y337362D01*
X109094Y337345D01*
X109004Y337258D01*
X108911Y337175D01*
X108892Y337148D01*
X108868Y337125D01*
X108838Y337069D01*
X108733Y336914D01*
X108689Y336791D01*
X108659Y336735D01*
X108199Y335320D01*
X107328Y333610D01*
X106200Y332057D01*
X104843Y330700D01*
X103290Y329572D01*
X101580Y328701D01*
X99755Y328108D01*
X99399Y328051D01*
X99399Y338750D01*
G37*
%LPD*%
%LPC*%
G36*
X400759Y51249D02*
X400759Y51249D01*
X397543Y52581D01*
X395081Y55043D01*
X393749Y58259D01*
X393749Y61741D01*
X395081Y64957D01*
X397085Y66961D01*
X397153Y67048D01*
X397226Y67129D01*
X397249Y67172D01*
X397279Y67210D01*
X397322Y67311D01*
X397373Y67409D01*
X397380Y67446D01*
X397403Y67500D01*
X397451Y67812D01*
X397449Y67831D01*
X397451Y67844D01*
X397451Y82156D01*
X397437Y82265D01*
X397432Y82375D01*
X397418Y82421D01*
X397411Y82469D01*
X397371Y82571D01*
X397338Y82676D01*
X397316Y82707D01*
X397294Y82762D01*
X397108Y83016D01*
X397093Y83028D01*
X397085Y83039D01*
X395081Y85043D01*
X393749Y88259D01*
X393749Y91741D01*
X395081Y94957D01*
X397543Y97419D01*
X400759Y98751D01*
X404241Y98751D01*
X407457Y97419D01*
X409919Y94957D01*
X411251Y91741D01*
X411251Y88259D01*
X409919Y85043D01*
X407915Y83039D01*
X407847Y82952D01*
X407774Y82871D01*
X407751Y82828D01*
X407721Y82790D01*
X407678Y82689D01*
X407627Y82591D01*
X407620Y82554D01*
X407597Y82500D01*
X407549Y82188D01*
X407551Y82169D01*
X407549Y82156D01*
X407549Y67844D01*
X407563Y67735D01*
X407568Y67625D01*
X407582Y67579D01*
X407589Y67531D01*
X407629Y67429D01*
X407662Y67324D01*
X407684Y67293D01*
X407706Y67238D01*
X407892Y66984D01*
X407907Y66972D01*
X407915Y66961D01*
X409919Y64957D01*
X411251Y61741D01*
X411251Y58259D01*
X409919Y55043D01*
X407457Y52581D01*
X404241Y51249D01*
X400759Y51249D01*
G37*
%LPD*%
%LPC*%
G36*
X601249Y346249D02*
X601249Y346249D01*
X601249Y363751D01*
X609209Y363751D01*
X609062Y362824D01*
X608610Y361434D01*
X607946Y360130D01*
X607087Y358947D01*
X606053Y357913D01*
X604870Y357054D01*
X603566Y356390D01*
X602945Y356188D01*
X602871Y356153D01*
X602793Y356127D01*
X602729Y356086D01*
X602660Y356054D01*
X602597Y356001D01*
X602528Y355957D01*
X602476Y355901D01*
X602417Y355852D01*
X602369Y355785D01*
X602314Y355725D01*
X602278Y355658D01*
X602233Y355596D01*
X602203Y355519D01*
X602165Y355447D01*
X602147Y355373D01*
X602119Y355302D01*
X602109Y355220D01*
X602090Y355140D01*
X602091Y355064D01*
X602082Y354988D01*
X602093Y354907D01*
X602094Y354825D01*
X602115Y354751D01*
X602125Y354676D01*
X602156Y354600D01*
X602178Y354520D01*
X602216Y354454D01*
X602245Y354384D01*
X602294Y354318D01*
X602335Y354247D01*
X602388Y354192D01*
X602434Y354131D01*
X602498Y354080D01*
X602555Y354021D01*
X602604Y353995D01*
X602680Y353934D01*
X602911Y353830D01*
X602945Y353812D01*
X603566Y353610D01*
X604870Y352946D01*
X606053Y352087D01*
X607087Y351053D01*
X607946Y349870D01*
X608610Y348566D01*
X609062Y347176D01*
X609209Y346249D01*
X601249Y346249D01*
G37*
%LPD*%
%LPC*%
G36*
X590791Y346249D02*
X590791Y346249D01*
X590938Y347176D01*
X591390Y348566D01*
X592054Y349870D01*
X592913Y351053D01*
X593947Y352087D01*
X595130Y352946D01*
X596434Y353610D01*
X597055Y353812D01*
X597129Y353847D01*
X597207Y353873D01*
X597271Y353914D01*
X597340Y353947D01*
X597403Y353999D01*
X597472Y354044D01*
X597524Y354099D01*
X597583Y354148D01*
X597631Y354215D01*
X597686Y354275D01*
X597722Y354343D01*
X597767Y354404D01*
X597797Y354481D01*
X597835Y354553D01*
X597854Y354628D01*
X597881Y354699D01*
X597891Y354780D01*
X597910Y354860D01*
X597909Y354936D01*
X597918Y355012D01*
X597907Y355093D01*
X597906Y355175D01*
X597885Y355249D01*
X597875Y355324D01*
X597844Y355400D01*
X597822Y355480D01*
X597784Y355546D01*
X597755Y355616D01*
X597706Y355682D01*
X597665Y355753D01*
X597612Y355808D01*
X597566Y355869D01*
X597502Y355920D01*
X597445Y355979D01*
X597396Y356005D01*
X597320Y356066D01*
X597089Y356170D01*
X597055Y356188D01*
X596434Y356390D01*
X595130Y357054D01*
X593947Y357913D01*
X592913Y358947D01*
X592054Y360130D01*
X591390Y361434D01*
X590938Y362824D01*
X590791Y363751D01*
X598751Y363751D01*
X598751Y346249D01*
X590791Y346249D01*
G37*
%LPD*%
%LPC*%
G36*
X682164Y318007D02*
X682164Y318007D01*
X681517Y318180D01*
X680938Y318515D01*
X680465Y318988D01*
X680130Y319567D01*
X679957Y320214D01*
X679957Y327701D01*
X689651Y327701D01*
X689651Y318007D01*
X682164Y318007D01*
G37*
%LPD*%
%LPC*%
G36*
X84951Y342499D02*
X84951Y342499D01*
X85008Y342855D01*
X85601Y344680D01*
X86472Y346390D01*
X87600Y347943D01*
X88957Y349300D01*
X90510Y350428D01*
X92220Y351299D01*
X94045Y351892D01*
X94401Y351949D01*
X94401Y342499D01*
X84951Y342499D01*
G37*
%LPD*%
%LPC*%
G36*
X94045Y328108D02*
X94045Y328108D01*
X92220Y328701D01*
X90510Y329572D01*
X88957Y330700D01*
X87600Y332057D01*
X86472Y333610D01*
X85601Y335320D01*
X85008Y337145D01*
X84951Y337501D01*
X94401Y337501D01*
X94401Y328051D01*
X94045Y328108D01*
G37*
%LPD*%
%LPC*%
G36*
X383299Y331524D02*
X383299Y331524D01*
X383299Y342920D01*
X384073Y342766D01*
X385490Y342179D01*
X386766Y341326D01*
X387851Y340241D01*
X388704Y338965D01*
X389291Y337548D01*
X389591Y336042D01*
X389591Y331524D01*
X383299Y331524D01*
G37*
%LPD*%
%LPC*%
G36*
X469699Y331524D02*
X469699Y331524D01*
X469699Y342920D01*
X470473Y342766D01*
X471890Y342179D01*
X473166Y341326D01*
X474251Y340241D01*
X475104Y338965D01*
X475691Y337548D01*
X475991Y336042D01*
X475991Y331524D01*
X469699Y331524D01*
G37*
%LPD*%
%LPC*%
G36*
X383299Y328526D02*
X383299Y328526D01*
X389591Y328526D01*
X389591Y324008D01*
X389291Y322502D01*
X388704Y321085D01*
X387851Y319809D01*
X386766Y318724D01*
X385490Y317871D01*
X384073Y317284D01*
X383299Y317130D01*
X383299Y328526D01*
G37*
%LPD*%
%LPC*%
G36*
X469699Y328526D02*
X469699Y328526D01*
X475991Y328526D01*
X475991Y324008D01*
X475691Y322502D01*
X475104Y321085D01*
X474251Y319809D01*
X473166Y318724D01*
X471890Y317871D01*
X470473Y317284D01*
X469699Y317130D01*
X469699Y328526D01*
G37*
%LPD*%
%LPC*%
G36*
X374009Y331524D02*
X374009Y331524D01*
X374009Y336042D01*
X374309Y337548D01*
X374896Y338965D01*
X375749Y340241D01*
X376834Y341326D01*
X378110Y342179D01*
X379527Y342766D01*
X380301Y342920D01*
X380301Y331524D01*
X374009Y331524D01*
G37*
%LPD*%
%LPC*%
G36*
X460409Y331524D02*
X460409Y331524D01*
X460409Y336042D01*
X460709Y337548D01*
X461296Y338965D01*
X462149Y340241D01*
X463234Y341326D01*
X464510Y342179D01*
X465927Y342766D01*
X466701Y342920D01*
X466701Y331524D01*
X460409Y331524D01*
G37*
%LPD*%
%LPC*%
G36*
X379527Y317284D02*
X379527Y317284D01*
X378110Y317871D01*
X376834Y318724D01*
X375749Y319809D01*
X374896Y321085D01*
X374309Y322502D01*
X374009Y324008D01*
X374009Y328526D01*
X380301Y328526D01*
X380301Y317130D01*
X379527Y317284D01*
G37*
%LPD*%
%LPC*%
G36*
X465927Y317284D02*
X465927Y317284D01*
X464510Y317871D01*
X463234Y318724D01*
X462149Y319809D01*
X461296Y321085D01*
X460709Y322502D01*
X460409Y324008D01*
X460409Y328526D01*
X466701Y328526D01*
X466701Y317130D01*
X465927Y317284D01*
G37*
%LPD*%
%LPC*%
G36*
X321249Y141249D02*
X321249Y141249D01*
X321249Y149968D01*
X322351Y149793D01*
X323854Y149305D01*
X325262Y148588D01*
X326541Y147659D01*
X327659Y146541D01*
X328588Y145262D01*
X329305Y143854D01*
X329793Y142351D01*
X329968Y141249D01*
X321249Y141249D01*
G37*
%LPD*%
%LPC*%
G36*
X430032Y196249D02*
X430032Y196249D01*
X430207Y197351D01*
X430695Y198854D01*
X431412Y200262D01*
X432341Y201541D01*
X433459Y202659D01*
X434738Y203588D01*
X436146Y204305D01*
X437649Y204793D01*
X438751Y204968D01*
X438751Y196249D01*
X430032Y196249D01*
G37*
%LPD*%
%LPC*%
G36*
X310032Y141249D02*
X310032Y141249D01*
X310207Y142351D01*
X310695Y143854D01*
X311412Y145262D01*
X312341Y146541D01*
X313459Y147659D01*
X314738Y148588D01*
X316146Y149305D01*
X317649Y149793D01*
X318751Y149968D01*
X318751Y141249D01*
X310032Y141249D01*
G37*
%LPD*%
%LPC*%
G36*
X321249Y138751D02*
X321249Y138751D01*
X329968Y138751D01*
X329793Y137649D01*
X329305Y136146D01*
X328588Y134738D01*
X327659Y133459D01*
X326541Y132341D01*
X325262Y131412D01*
X323854Y130695D01*
X322351Y130207D01*
X321249Y130032D01*
X321249Y138751D01*
G37*
%LPD*%
%LPC*%
G36*
X317649Y130207D02*
X317649Y130207D01*
X316146Y130695D01*
X314738Y131412D01*
X313459Y132341D01*
X312341Y133459D01*
X311412Y134738D01*
X310695Y136146D01*
X310207Y137649D01*
X310032Y138751D01*
X318751Y138751D01*
X318751Y130032D01*
X317649Y130207D01*
G37*
%LPD*%
%LPC*%
G36*
X437649Y185207D02*
X437649Y185207D01*
X436146Y185695D01*
X434738Y186412D01*
X433459Y187341D01*
X432341Y188459D01*
X431412Y189738D01*
X430695Y191146D01*
X430207Y192649D01*
X430032Y193751D01*
X438751Y193751D01*
X438751Y185032D01*
X437649Y185207D01*
G37*
%LPD*%
%LPC*%
G36*
X469699Y373324D02*
X469699Y373324D01*
X469699Y384280D01*
X470409Y384139D01*
X471787Y383568D01*
X473027Y382739D01*
X474082Y381684D01*
X474911Y380444D01*
X475482Y379066D01*
X475773Y377603D01*
X475773Y373324D01*
X469699Y373324D01*
G37*
%LPD*%
%LPC*%
G36*
X383299Y373324D02*
X383299Y373324D01*
X383299Y384280D01*
X384009Y384139D01*
X385387Y383568D01*
X386627Y382739D01*
X387682Y381684D01*
X388511Y380444D01*
X389082Y379066D01*
X389373Y377603D01*
X389373Y373324D01*
X383299Y373324D01*
G37*
%LPD*%
%LPC*%
G36*
X469699Y370326D02*
X469699Y370326D01*
X475773Y370326D01*
X475773Y366047D01*
X475482Y364584D01*
X474911Y363206D01*
X474082Y361966D01*
X473027Y360911D01*
X471787Y360082D01*
X470409Y359511D01*
X469699Y359370D01*
X469699Y370326D01*
G37*
%LPD*%
%LPC*%
G36*
X383299Y370326D02*
X383299Y370326D01*
X389373Y370326D01*
X389373Y366047D01*
X389082Y364584D01*
X388511Y363206D01*
X387682Y361966D01*
X386627Y360911D01*
X385387Y360082D01*
X384009Y359511D01*
X383299Y359370D01*
X383299Y370326D01*
G37*
%LPD*%
%LPC*%
G36*
X374227Y373324D02*
X374227Y373324D01*
X374227Y377603D01*
X374518Y379066D01*
X375089Y380444D01*
X375918Y381684D01*
X376973Y382739D01*
X378213Y383568D01*
X379591Y384139D01*
X380301Y384280D01*
X380301Y373324D01*
X374227Y373324D01*
G37*
%LPD*%
%LPC*%
G36*
X460627Y373324D02*
X460627Y373324D01*
X460627Y377603D01*
X460918Y379066D01*
X461489Y380444D01*
X462318Y381684D01*
X463373Y382739D01*
X464613Y383568D01*
X465991Y384139D01*
X466701Y384280D01*
X466701Y373324D01*
X460627Y373324D01*
G37*
%LPD*%
%LPC*%
G36*
X465991Y359511D02*
X465991Y359511D01*
X464613Y360082D01*
X463373Y360911D01*
X462318Y361966D01*
X461489Y363206D01*
X460918Y364584D01*
X460627Y366047D01*
X460627Y370326D01*
X466701Y370326D01*
X466701Y359370D01*
X465991Y359511D01*
G37*
%LPD*%
%LPC*%
G36*
X379591Y359511D02*
X379591Y359511D01*
X378213Y360082D01*
X376973Y360911D01*
X375918Y361966D01*
X375089Y363206D01*
X374518Y364584D01*
X374227Y366047D01*
X374227Y370326D01*
X380301Y370326D01*
X380301Y359370D01*
X379591Y359511D01*
G37*
%LPD*%
%LPC*%
G36*
X326249Y376249D02*
X326249Y376249D01*
X326249Y384209D01*
X327176Y384062D01*
X328566Y383610D01*
X329870Y382946D01*
X331053Y382087D01*
X332087Y381053D01*
X332946Y379870D01*
X333610Y378566D01*
X334062Y377176D01*
X334209Y376249D01*
X326249Y376249D01*
G37*
%LPD*%
%LPC*%
G36*
X491249Y373749D02*
X491249Y373749D01*
X491249Y381709D01*
X492176Y381562D01*
X493566Y381110D01*
X494870Y380446D01*
X496053Y379587D01*
X497087Y378553D01*
X497946Y377370D01*
X498610Y376066D01*
X499062Y374676D01*
X499209Y373749D01*
X491249Y373749D01*
G37*
%LPD*%
%LPC*%
G36*
X601249Y366249D02*
X601249Y366249D01*
X601249Y374209D01*
X602176Y374062D01*
X603566Y373610D01*
X604870Y372946D01*
X606053Y372087D01*
X607087Y371053D01*
X607946Y369870D01*
X608610Y368566D01*
X609062Y367176D01*
X609209Y366249D01*
X601249Y366249D01*
G37*
%LPD*%
%LPC*%
G36*
X646249Y166249D02*
X646249Y166249D01*
X646249Y174209D01*
X647176Y174062D01*
X648566Y173610D01*
X649870Y172946D01*
X651053Y172087D01*
X652087Y171053D01*
X652946Y169870D01*
X653610Y168566D01*
X654062Y167176D01*
X654209Y166249D01*
X646249Y166249D01*
G37*
%LPD*%
%LPC*%
G36*
X123749Y211249D02*
X123749Y211249D01*
X123749Y219209D01*
X124676Y219062D01*
X126066Y218610D01*
X127370Y217946D01*
X128553Y217087D01*
X129587Y216053D01*
X130446Y214870D01*
X131110Y213566D01*
X131562Y212176D01*
X131709Y211249D01*
X123749Y211249D01*
G37*
%LPD*%
%LPC*%
G36*
X491249Y331249D02*
X491249Y331249D01*
X491249Y339209D01*
X492176Y339062D01*
X493566Y338610D01*
X494870Y337946D01*
X496053Y337087D01*
X497087Y336053D01*
X497946Y334870D01*
X498610Y333566D01*
X499062Y332176D01*
X499209Y331249D01*
X491249Y331249D01*
G37*
%LPD*%
%LPC*%
G36*
X361249Y331249D02*
X361249Y331249D01*
X361249Y339209D01*
X362176Y339062D01*
X363566Y338610D01*
X364870Y337946D01*
X366053Y337087D01*
X367087Y336053D01*
X367946Y334870D01*
X368610Y333566D01*
X369062Y332176D01*
X369209Y331249D01*
X361249Y331249D01*
G37*
%LPD*%
%LPC*%
G36*
X366249Y251249D02*
X366249Y251249D01*
X366249Y259209D01*
X367176Y259062D01*
X368566Y258610D01*
X369870Y257946D01*
X371053Y257087D01*
X372087Y256053D01*
X372946Y254870D01*
X373610Y253566D01*
X374062Y252176D01*
X374209Y251249D01*
X366249Y251249D01*
G37*
%LPD*%
%LPC*%
G36*
X746249Y266249D02*
X746249Y266249D01*
X746249Y274209D01*
X747176Y274062D01*
X748566Y273610D01*
X749870Y272946D01*
X751053Y272087D01*
X752087Y271053D01*
X752946Y269870D01*
X753610Y268566D01*
X754062Y267176D01*
X754209Y266249D01*
X746249Y266249D01*
G37*
%LPD*%
%LPC*%
G36*
X646249Y266249D02*
X646249Y266249D01*
X646249Y274209D01*
X647176Y274062D01*
X648566Y273610D01*
X649870Y272946D01*
X651053Y272087D01*
X652087Y271053D01*
X652946Y269870D01*
X653610Y268566D01*
X654062Y267176D01*
X654209Y266249D01*
X646249Y266249D01*
G37*
%LPD*%
%LPC*%
G36*
X146249Y211249D02*
X146249Y211249D01*
X146249Y219209D01*
X147176Y219062D01*
X148566Y218610D01*
X149870Y217946D01*
X151053Y217087D01*
X152087Y216053D01*
X152946Y214870D01*
X153610Y213566D01*
X154062Y212176D01*
X154209Y211249D01*
X146249Y211249D01*
G37*
%LPD*%
%LPC*%
G36*
X353749Y91249D02*
X353749Y91249D01*
X353749Y99209D01*
X354676Y99062D01*
X356066Y98610D01*
X357370Y97946D01*
X358553Y97087D01*
X359587Y96053D01*
X360446Y94870D01*
X361110Y93566D01*
X361562Y92176D01*
X361709Y91249D01*
X353749Y91249D01*
G37*
%LPD*%
%LPC*%
G36*
X508749Y91249D02*
X508749Y91249D01*
X508749Y99209D01*
X509676Y99062D01*
X511066Y98610D01*
X512370Y97946D01*
X513553Y97087D01*
X514587Y96053D01*
X515446Y94870D01*
X516110Y93566D01*
X516562Y92176D01*
X516709Y91249D01*
X508749Y91249D01*
G37*
%LPD*%
%LPC*%
G36*
X146249Y208751D02*
X146249Y208751D01*
X154209Y208751D01*
X154062Y207824D01*
X153610Y206434D01*
X152946Y205130D01*
X152087Y203947D01*
X151053Y202913D01*
X149870Y202054D01*
X148566Y201390D01*
X147176Y200938D01*
X146249Y200791D01*
X146249Y208751D01*
G37*
%LPD*%
%LPC*%
G36*
X123749Y208751D02*
X123749Y208751D01*
X131709Y208751D01*
X131562Y207824D01*
X131110Y206434D01*
X130446Y205130D01*
X129587Y203947D01*
X128553Y202913D01*
X127370Y202054D01*
X126066Y201390D01*
X124676Y200938D01*
X123749Y200791D01*
X123749Y208751D01*
G37*
%LPD*%
%LPC*%
G36*
X326249Y373751D02*
X326249Y373751D01*
X334209Y373751D01*
X334062Y372824D01*
X333610Y371434D01*
X332946Y370130D01*
X332087Y368947D01*
X331053Y367913D01*
X329870Y367054D01*
X328566Y366390D01*
X327176Y365938D01*
X326249Y365791D01*
X326249Y373751D01*
G37*
%LPD*%
%LPC*%
G36*
X635791Y266249D02*
X635791Y266249D01*
X635938Y267176D01*
X636390Y268566D01*
X637054Y269870D01*
X637913Y271053D01*
X638947Y272087D01*
X640130Y272946D01*
X641434Y273610D01*
X642824Y274062D01*
X643751Y274209D01*
X643751Y266249D01*
X635791Y266249D01*
G37*
%LPD*%
%LPC*%
G36*
X315791Y376249D02*
X315791Y376249D01*
X315938Y377176D01*
X316390Y378566D01*
X317054Y379870D01*
X317913Y381053D01*
X318947Y382087D01*
X320130Y382946D01*
X321434Y383610D01*
X322824Y384062D01*
X323751Y384209D01*
X323751Y376249D01*
X315791Y376249D01*
G37*
%LPD*%
%LPC*%
G36*
X491249Y328751D02*
X491249Y328751D01*
X499209Y328751D01*
X499062Y327824D01*
X498610Y326434D01*
X497946Y325130D01*
X497087Y323947D01*
X496053Y322913D01*
X494870Y322054D01*
X493566Y321390D01*
X492176Y320938D01*
X491249Y320791D01*
X491249Y328751D01*
G37*
%LPD*%
%LPC*%
G36*
X646249Y263751D02*
X646249Y263751D01*
X654209Y263751D01*
X654062Y262824D01*
X653610Y261434D01*
X652946Y260130D01*
X652087Y258947D01*
X651053Y257913D01*
X649870Y257054D01*
X648566Y256390D01*
X647176Y255938D01*
X646249Y255791D01*
X646249Y263751D01*
G37*
%LPD*%
%LPC*%
G36*
X746249Y263751D02*
X746249Y263751D01*
X754209Y263751D01*
X754062Y262824D01*
X753610Y261434D01*
X752946Y260130D01*
X752087Y258947D01*
X751053Y257913D01*
X749870Y257054D01*
X748566Y256390D01*
X747176Y255938D01*
X746249Y255791D01*
X746249Y263751D01*
G37*
%LPD*%
%LPC*%
G36*
X361249Y328751D02*
X361249Y328751D01*
X369209Y328751D01*
X369062Y327824D01*
X368610Y326434D01*
X367946Y325130D01*
X367087Y323947D01*
X366053Y322913D01*
X364870Y322054D01*
X363566Y321390D01*
X362176Y320938D01*
X361249Y320791D01*
X361249Y328751D01*
G37*
%LPD*%
%LPC*%
G36*
X355791Y251249D02*
X355791Y251249D01*
X355938Y252176D01*
X356390Y253566D01*
X357054Y254870D01*
X357913Y256053D01*
X358947Y257087D01*
X360130Y257946D01*
X361434Y258610D01*
X362824Y259062D01*
X363751Y259209D01*
X363751Y251249D01*
X355791Y251249D01*
G37*
%LPD*%
%LPC*%
G36*
X480791Y331249D02*
X480791Y331249D01*
X480938Y332176D01*
X481390Y333566D01*
X482054Y334870D01*
X482913Y336053D01*
X483947Y337087D01*
X485130Y337946D01*
X486434Y338610D01*
X487824Y339062D01*
X488751Y339209D01*
X488751Y331249D01*
X480791Y331249D01*
G37*
%LPD*%
%LPC*%
G36*
X343291Y91249D02*
X343291Y91249D01*
X343438Y92176D01*
X343890Y93566D01*
X344554Y94870D01*
X345413Y96053D01*
X346447Y97087D01*
X347630Y97946D01*
X348934Y98610D01*
X350324Y99062D01*
X351251Y99209D01*
X351251Y91249D01*
X343291Y91249D01*
G37*
%LPD*%
%LPC*%
G36*
X366249Y248751D02*
X366249Y248751D01*
X374209Y248751D01*
X374062Y247824D01*
X373610Y246434D01*
X372946Y245130D01*
X372087Y243947D01*
X371053Y242913D01*
X369870Y242054D01*
X368566Y241390D01*
X367176Y240938D01*
X366249Y240791D01*
X366249Y248751D01*
G37*
%LPD*%
%LPC*%
G36*
X601249Y343751D02*
X601249Y343751D01*
X609209Y343751D01*
X609062Y342824D01*
X608610Y341434D01*
X607946Y340130D01*
X607087Y338947D01*
X606053Y337913D01*
X604870Y337054D01*
X603566Y336390D01*
X602176Y335938D01*
X601249Y335791D01*
X601249Y343751D01*
G37*
%LPD*%
%LPC*%
G36*
X498291Y91249D02*
X498291Y91249D01*
X498438Y92176D01*
X498890Y93566D01*
X499554Y94870D01*
X500413Y96053D01*
X501447Y97087D01*
X502630Y97946D01*
X503934Y98610D01*
X505324Y99062D01*
X506251Y99209D01*
X506251Y91249D01*
X498291Y91249D01*
G37*
%LPD*%
%LPC*%
G36*
X113291Y211249D02*
X113291Y211249D01*
X113438Y212176D01*
X113890Y213566D01*
X114554Y214870D01*
X115413Y216053D01*
X116447Y217087D01*
X117630Y217946D01*
X118934Y218610D01*
X120324Y219062D01*
X121251Y219209D01*
X121251Y211249D01*
X113291Y211249D01*
G37*
%LPD*%
%LPC*%
G36*
X135791Y211249D02*
X135791Y211249D01*
X135938Y212176D01*
X136390Y213566D01*
X137054Y214870D01*
X137913Y216053D01*
X138947Y217087D01*
X140130Y217946D01*
X141434Y218610D01*
X142824Y219062D01*
X143751Y219209D01*
X143751Y211249D01*
X135791Y211249D01*
G37*
%LPD*%
%LPC*%
G36*
X735791Y266249D02*
X735791Y266249D01*
X735938Y267176D01*
X736390Y268566D01*
X737054Y269870D01*
X737913Y271053D01*
X738947Y272087D01*
X740130Y272946D01*
X741434Y273610D01*
X742824Y274062D01*
X743751Y274209D01*
X743751Y266249D01*
X735791Y266249D01*
G37*
%LPD*%
%LPC*%
G36*
X508749Y88751D02*
X508749Y88751D01*
X516709Y88751D01*
X516562Y87824D01*
X516110Y86434D01*
X515446Y85130D01*
X514587Y83947D01*
X513553Y82913D01*
X512370Y82054D01*
X511066Y81390D01*
X509676Y80938D01*
X508749Y80791D01*
X508749Y88751D01*
G37*
%LPD*%
%LPC*%
G36*
X590791Y366249D02*
X590791Y366249D01*
X590938Y367176D01*
X591390Y368566D01*
X592054Y369870D01*
X592913Y371053D01*
X593947Y372087D01*
X595130Y372946D01*
X596434Y373610D01*
X597824Y374062D01*
X598751Y374209D01*
X598751Y366249D01*
X590791Y366249D01*
G37*
%LPD*%
%LPC*%
G36*
X353749Y88751D02*
X353749Y88751D01*
X361709Y88751D01*
X361562Y87824D01*
X361110Y86434D01*
X360446Y85130D01*
X359587Y83947D01*
X358553Y82913D01*
X357370Y82054D01*
X356066Y81390D01*
X354676Y80938D01*
X353749Y80791D01*
X353749Y88751D01*
G37*
%LPD*%
%LPC*%
G36*
X491249Y371251D02*
X491249Y371251D01*
X499209Y371251D01*
X499062Y370324D01*
X498610Y368934D01*
X497946Y367630D01*
X497087Y366447D01*
X496053Y365413D01*
X494870Y364554D01*
X493566Y363890D01*
X492176Y363438D01*
X491249Y363291D01*
X491249Y371251D01*
G37*
%LPD*%
%LPC*%
G36*
X766249Y188751D02*
X766249Y188751D01*
X774209Y188751D01*
X774062Y187824D01*
X773610Y186434D01*
X772946Y185130D01*
X772087Y183947D01*
X771053Y182913D01*
X769870Y182054D01*
X768566Y181390D01*
X767176Y180938D01*
X766249Y180791D01*
X766249Y188751D01*
G37*
%LPD*%
%LPC*%
G36*
X635791Y166249D02*
X635791Y166249D01*
X635938Y167176D01*
X636390Y168566D01*
X637054Y169870D01*
X637913Y171053D01*
X638947Y172087D01*
X640130Y172946D01*
X641434Y173610D01*
X642824Y174062D01*
X643751Y174209D01*
X643751Y166249D01*
X635791Y166249D01*
G37*
%LPD*%
%LPC*%
G36*
X646249Y163751D02*
X646249Y163751D01*
X654209Y163751D01*
X654062Y162824D01*
X653610Y161434D01*
X652946Y160130D01*
X652087Y158947D01*
X651053Y157913D01*
X649870Y157054D01*
X648566Y156390D01*
X647176Y155938D01*
X646249Y155791D01*
X646249Y163751D01*
G37*
%LPD*%
%LPC*%
G36*
X350791Y331249D02*
X350791Y331249D01*
X350938Y332176D01*
X351390Y333566D01*
X352054Y334870D01*
X352913Y336053D01*
X353947Y337087D01*
X355130Y337946D01*
X356434Y338610D01*
X357824Y339062D01*
X358751Y339209D01*
X358751Y331249D01*
X350791Y331249D01*
G37*
%LPD*%
%LPC*%
G36*
X480791Y373749D02*
X480791Y373749D01*
X480938Y374676D01*
X481390Y376066D01*
X482054Y377370D01*
X482913Y378553D01*
X483947Y379587D01*
X485130Y380446D01*
X486434Y381110D01*
X487824Y381562D01*
X488751Y381709D01*
X488751Y373749D01*
X480791Y373749D01*
G37*
%LPD*%
%LPC*%
G36*
X142824Y200938D02*
X142824Y200938D01*
X141434Y201390D01*
X140130Y202054D01*
X138947Y202913D01*
X137913Y203947D01*
X137054Y205130D01*
X136390Y206434D01*
X135938Y207824D01*
X135791Y208751D01*
X143751Y208751D01*
X143751Y200791D01*
X142824Y200938D01*
G37*
%LPD*%
%LPC*%
G36*
X120324Y200938D02*
X120324Y200938D01*
X118934Y201390D01*
X117630Y202054D01*
X116447Y202913D01*
X115413Y203947D01*
X114554Y205130D01*
X113890Y206434D01*
X113438Y207824D01*
X113291Y208751D01*
X121251Y208751D01*
X121251Y200791D01*
X120324Y200938D01*
G37*
%LPD*%
%LPC*%
G36*
X322824Y365938D02*
X322824Y365938D01*
X321434Y366390D01*
X320130Y367054D01*
X318947Y367913D01*
X317913Y368947D01*
X317054Y370130D01*
X316390Y371434D01*
X315938Y372824D01*
X315791Y373751D01*
X323751Y373751D01*
X323751Y365791D01*
X322824Y365938D01*
G37*
%LPD*%
%LPC*%
G36*
X642824Y255938D02*
X642824Y255938D01*
X641434Y256390D01*
X640130Y257054D01*
X638947Y257913D01*
X637913Y258947D01*
X637054Y260130D01*
X636390Y261434D01*
X635938Y262824D01*
X635791Y263751D01*
X643751Y263751D01*
X643751Y255791D01*
X642824Y255938D01*
G37*
%LPD*%
%LPC*%
G36*
X742824Y255938D02*
X742824Y255938D01*
X741434Y256390D01*
X740130Y257054D01*
X738947Y257913D01*
X737913Y258947D01*
X737054Y260130D01*
X736390Y261434D01*
X735938Y262824D01*
X735791Y263751D01*
X743751Y263751D01*
X743751Y255791D01*
X742824Y255938D01*
G37*
%LPD*%
%LPC*%
G36*
X357824Y320938D02*
X357824Y320938D01*
X356434Y321390D01*
X355130Y322054D01*
X353947Y322913D01*
X352913Y323947D01*
X352054Y325130D01*
X351390Y326434D01*
X350938Y327824D01*
X350791Y328751D01*
X358751Y328751D01*
X358751Y320791D01*
X357824Y320938D01*
G37*
%LPD*%
%LPC*%
G36*
X362824Y240938D02*
X362824Y240938D01*
X361434Y241390D01*
X360130Y242054D01*
X358947Y242913D01*
X357913Y243947D01*
X357054Y245130D01*
X356390Y246434D01*
X355938Y247824D01*
X355791Y248751D01*
X363751Y248751D01*
X363751Y240791D01*
X362824Y240938D01*
G37*
%LPD*%
%LPC*%
G36*
X597824Y335938D02*
X597824Y335938D01*
X596434Y336390D01*
X595130Y337054D01*
X593947Y337913D01*
X592913Y338947D01*
X592054Y340130D01*
X591390Y341434D01*
X590938Y342824D01*
X590791Y343751D01*
X598751Y343751D01*
X598751Y335791D01*
X597824Y335938D01*
G37*
%LPD*%
%LPC*%
G36*
X487824Y320938D02*
X487824Y320938D01*
X486434Y321390D01*
X485130Y322054D01*
X483947Y322913D01*
X482913Y323947D01*
X482054Y325130D01*
X481390Y326434D01*
X480938Y327824D01*
X480791Y328751D01*
X488751Y328751D01*
X488751Y320791D01*
X487824Y320938D01*
G37*
%LPD*%
%LPC*%
G36*
X642824Y155938D02*
X642824Y155938D01*
X641434Y156390D01*
X640130Y157054D01*
X638947Y157913D01*
X637913Y158947D01*
X637054Y160130D01*
X636390Y161434D01*
X635938Y162824D01*
X635791Y163751D01*
X643751Y163751D01*
X643751Y155791D01*
X642824Y155938D01*
G37*
%LPD*%
%LPC*%
G36*
X487824Y363438D02*
X487824Y363438D01*
X486434Y363890D01*
X485130Y364554D01*
X483947Y365413D01*
X482913Y366447D01*
X482054Y367630D01*
X481390Y368934D01*
X480938Y370324D01*
X480791Y371251D01*
X488751Y371251D01*
X488751Y363291D01*
X487824Y363438D01*
G37*
%LPD*%
%LPC*%
G36*
X505324Y80938D02*
X505324Y80938D01*
X503934Y81390D01*
X502630Y82054D01*
X501447Y82913D01*
X500413Y83947D01*
X499554Y85130D01*
X498890Y86434D01*
X498438Y87824D01*
X498291Y88751D01*
X506251Y88751D01*
X506251Y80791D01*
X505324Y80938D01*
G37*
%LPD*%
%LPC*%
G36*
X762824Y180938D02*
X762824Y180938D01*
X761434Y181390D01*
X760130Y182054D01*
X758947Y182913D01*
X757913Y183947D01*
X757054Y185130D01*
X756390Y186434D01*
X755938Y187824D01*
X755791Y188751D01*
X763751Y188751D01*
X763751Y180791D01*
X762824Y180938D01*
G37*
%LPD*%
%LPC*%
G36*
X350324Y80938D02*
X350324Y80938D01*
X348934Y81390D01*
X347630Y82054D01*
X346447Y82913D01*
X345413Y83947D01*
X344554Y85130D01*
X343890Y86434D01*
X343438Y87824D01*
X343291Y88751D01*
X351251Y88751D01*
X351251Y80791D01*
X350324Y80938D01*
G37*
%LPD*%
D10*
X16000Y380000D02*
X16002Y380126D01*
X16008Y380252D01*
X16018Y380378D01*
X16032Y380504D01*
X16050Y380629D01*
X16072Y380753D01*
X16097Y380877D01*
X16127Y381000D01*
X16160Y381121D01*
X16198Y381242D01*
X16239Y381361D01*
X16284Y381480D01*
X16332Y381596D01*
X16384Y381711D01*
X16440Y381824D01*
X16500Y381936D01*
X16563Y382045D01*
X16629Y382153D01*
X16698Y382258D01*
X16771Y382361D01*
X16848Y382462D01*
X16927Y382560D01*
X17009Y382656D01*
X17095Y382749D01*
X17183Y382840D01*
X17274Y382927D01*
X17368Y383012D01*
X17464Y383093D01*
X17563Y383172D01*
X17664Y383247D01*
X17768Y383319D01*
X17874Y383388D01*
X17982Y383454D01*
X18092Y383516D01*
X18204Y383574D01*
X18317Y383629D01*
X18433Y383680D01*
X18550Y383728D01*
X18668Y383772D01*
X18788Y383812D01*
X18909Y383848D01*
X19031Y383881D01*
X19154Y383910D01*
X19278Y383934D01*
X19402Y383955D01*
X19527Y383972D01*
X19653Y383985D01*
X19779Y383994D01*
X19905Y383999D01*
X20032Y384000D01*
X20158Y383997D01*
X20284Y383990D01*
X20410Y383979D01*
X20535Y383964D01*
X20660Y383945D01*
X20784Y383922D01*
X20908Y383896D01*
X21030Y383865D01*
X21152Y383831D01*
X21272Y383792D01*
X21391Y383750D01*
X21509Y383705D01*
X21625Y383655D01*
X21740Y383602D01*
X21852Y383545D01*
X21963Y383485D01*
X22072Y383421D01*
X22179Y383354D01*
X22284Y383284D01*
X22387Y383210D01*
X22487Y383133D01*
X22585Y383053D01*
X22680Y382970D01*
X22772Y382884D01*
X22862Y382795D01*
X22949Y382703D01*
X23032Y382609D01*
X23113Y382512D01*
X23191Y382412D01*
X23266Y382310D01*
X23337Y382206D01*
X23405Y382099D01*
X23469Y381991D01*
X23530Y381880D01*
X23588Y381768D01*
X23642Y381654D01*
X23692Y381538D01*
X23739Y381421D01*
X23782Y381302D01*
X23821Y381182D01*
X23857Y381061D01*
X23888Y380938D01*
X23916Y380815D01*
X23940Y380691D01*
X23960Y380566D01*
X23976Y380441D01*
X23988Y380315D01*
X23996Y380189D01*
X24000Y380063D01*
X24000Y379937D01*
X23996Y379811D01*
X23988Y379685D01*
X23976Y379559D01*
X23960Y379434D01*
X23940Y379309D01*
X23916Y379185D01*
X23888Y379062D01*
X23857Y378939D01*
X23821Y378818D01*
X23782Y378698D01*
X23739Y378579D01*
X23692Y378462D01*
X23642Y378346D01*
X23588Y378232D01*
X23530Y378120D01*
X23469Y378009D01*
X23405Y377901D01*
X23337Y377794D01*
X23266Y377690D01*
X23191Y377588D01*
X23113Y377488D01*
X23032Y377391D01*
X22949Y377297D01*
X22862Y377205D01*
X22772Y377116D01*
X22680Y377030D01*
X22585Y376947D01*
X22487Y376867D01*
X22387Y376790D01*
X22284Y376716D01*
X22179Y376646D01*
X22072Y376579D01*
X21963Y376515D01*
X21852Y376455D01*
X21740Y376398D01*
X21625Y376345D01*
X21509Y376295D01*
X21391Y376250D01*
X21272Y376208D01*
X21152Y376169D01*
X21030Y376135D01*
X20908Y376104D01*
X20784Y376078D01*
X20660Y376055D01*
X20535Y376036D01*
X20410Y376021D01*
X20284Y376010D01*
X20158Y376003D01*
X20032Y376000D01*
X19905Y376001D01*
X19779Y376006D01*
X19653Y376015D01*
X19527Y376028D01*
X19402Y376045D01*
X19278Y376066D01*
X19154Y376090D01*
X19031Y376119D01*
X18909Y376152D01*
X18788Y376188D01*
X18668Y376228D01*
X18550Y376272D01*
X18433Y376320D01*
X18317Y376371D01*
X18204Y376426D01*
X18092Y376484D01*
X17982Y376546D01*
X17874Y376612D01*
X17768Y376681D01*
X17664Y376753D01*
X17563Y376828D01*
X17464Y376907D01*
X17368Y376988D01*
X17274Y377073D01*
X17183Y377160D01*
X17095Y377251D01*
X17009Y377344D01*
X16927Y377440D01*
X16848Y377538D01*
X16771Y377639D01*
X16698Y377742D01*
X16629Y377847D01*
X16563Y377955D01*
X16500Y378064D01*
X16440Y378176D01*
X16384Y378289D01*
X16332Y378404D01*
X16284Y378520D01*
X16239Y378639D01*
X16198Y378758D01*
X16160Y378879D01*
X16127Y379000D01*
X16097Y379123D01*
X16072Y379247D01*
X16050Y379371D01*
X16032Y379496D01*
X16018Y379622D01*
X16008Y379748D01*
X16002Y379874D01*
X16000Y380000D01*
X16000Y20000D02*
X16002Y20126D01*
X16008Y20252D01*
X16018Y20378D01*
X16032Y20504D01*
X16050Y20629D01*
X16072Y20753D01*
X16097Y20877D01*
X16127Y21000D01*
X16160Y21121D01*
X16198Y21242D01*
X16239Y21361D01*
X16284Y21480D01*
X16332Y21596D01*
X16384Y21711D01*
X16440Y21824D01*
X16500Y21936D01*
X16563Y22045D01*
X16629Y22153D01*
X16698Y22258D01*
X16771Y22361D01*
X16848Y22462D01*
X16927Y22560D01*
X17009Y22656D01*
X17095Y22749D01*
X17183Y22840D01*
X17274Y22927D01*
X17368Y23012D01*
X17464Y23093D01*
X17563Y23172D01*
X17664Y23247D01*
X17768Y23319D01*
X17874Y23388D01*
X17982Y23454D01*
X18092Y23516D01*
X18204Y23574D01*
X18317Y23629D01*
X18433Y23680D01*
X18550Y23728D01*
X18668Y23772D01*
X18788Y23812D01*
X18909Y23848D01*
X19031Y23881D01*
X19154Y23910D01*
X19278Y23934D01*
X19402Y23955D01*
X19527Y23972D01*
X19653Y23985D01*
X19779Y23994D01*
X19905Y23999D01*
X20032Y24000D01*
X20158Y23997D01*
X20284Y23990D01*
X20410Y23979D01*
X20535Y23964D01*
X20660Y23945D01*
X20784Y23922D01*
X20908Y23896D01*
X21030Y23865D01*
X21152Y23831D01*
X21272Y23792D01*
X21391Y23750D01*
X21509Y23705D01*
X21625Y23655D01*
X21740Y23602D01*
X21852Y23545D01*
X21963Y23485D01*
X22072Y23421D01*
X22179Y23354D01*
X22284Y23284D01*
X22387Y23210D01*
X22487Y23133D01*
X22585Y23053D01*
X22680Y22970D01*
X22772Y22884D01*
X22862Y22795D01*
X22949Y22703D01*
X23032Y22609D01*
X23113Y22512D01*
X23191Y22412D01*
X23266Y22310D01*
X23337Y22206D01*
X23405Y22099D01*
X23469Y21991D01*
X23530Y21880D01*
X23588Y21768D01*
X23642Y21654D01*
X23692Y21538D01*
X23739Y21421D01*
X23782Y21302D01*
X23821Y21182D01*
X23857Y21061D01*
X23888Y20938D01*
X23916Y20815D01*
X23940Y20691D01*
X23960Y20566D01*
X23976Y20441D01*
X23988Y20315D01*
X23996Y20189D01*
X24000Y20063D01*
X24000Y19937D01*
X23996Y19811D01*
X23988Y19685D01*
X23976Y19559D01*
X23960Y19434D01*
X23940Y19309D01*
X23916Y19185D01*
X23888Y19062D01*
X23857Y18939D01*
X23821Y18818D01*
X23782Y18698D01*
X23739Y18579D01*
X23692Y18462D01*
X23642Y18346D01*
X23588Y18232D01*
X23530Y18120D01*
X23469Y18009D01*
X23405Y17901D01*
X23337Y17794D01*
X23266Y17690D01*
X23191Y17588D01*
X23113Y17488D01*
X23032Y17391D01*
X22949Y17297D01*
X22862Y17205D01*
X22772Y17116D01*
X22680Y17030D01*
X22585Y16947D01*
X22487Y16867D01*
X22387Y16790D01*
X22284Y16716D01*
X22179Y16646D01*
X22072Y16579D01*
X21963Y16515D01*
X21852Y16455D01*
X21740Y16398D01*
X21625Y16345D01*
X21509Y16295D01*
X21391Y16250D01*
X21272Y16208D01*
X21152Y16169D01*
X21030Y16135D01*
X20908Y16104D01*
X20784Y16078D01*
X20660Y16055D01*
X20535Y16036D01*
X20410Y16021D01*
X20284Y16010D01*
X20158Y16003D01*
X20032Y16000D01*
X19905Y16001D01*
X19779Y16006D01*
X19653Y16015D01*
X19527Y16028D01*
X19402Y16045D01*
X19278Y16066D01*
X19154Y16090D01*
X19031Y16119D01*
X18909Y16152D01*
X18788Y16188D01*
X18668Y16228D01*
X18550Y16272D01*
X18433Y16320D01*
X18317Y16371D01*
X18204Y16426D01*
X18092Y16484D01*
X17982Y16546D01*
X17874Y16612D01*
X17768Y16681D01*
X17664Y16753D01*
X17563Y16828D01*
X17464Y16907D01*
X17368Y16988D01*
X17274Y17073D01*
X17183Y17160D01*
X17095Y17251D01*
X17009Y17344D01*
X16927Y17440D01*
X16848Y17538D01*
X16771Y17639D01*
X16698Y17742D01*
X16629Y17847D01*
X16563Y17955D01*
X16500Y18064D01*
X16440Y18176D01*
X16384Y18289D01*
X16332Y18404D01*
X16284Y18520D01*
X16239Y18639D01*
X16198Y18758D01*
X16160Y18879D01*
X16127Y19000D01*
X16097Y19123D01*
X16072Y19247D01*
X16050Y19371D01*
X16032Y19496D01*
X16018Y19622D01*
X16008Y19748D01*
X16002Y19874D01*
X16000Y20000D01*
X826000Y20000D02*
X826002Y20126D01*
X826008Y20252D01*
X826018Y20378D01*
X826032Y20504D01*
X826050Y20629D01*
X826072Y20753D01*
X826097Y20877D01*
X826127Y21000D01*
X826160Y21121D01*
X826198Y21242D01*
X826239Y21361D01*
X826284Y21480D01*
X826332Y21596D01*
X826384Y21711D01*
X826440Y21824D01*
X826500Y21936D01*
X826563Y22045D01*
X826629Y22153D01*
X826698Y22258D01*
X826771Y22361D01*
X826848Y22462D01*
X826927Y22560D01*
X827009Y22656D01*
X827095Y22749D01*
X827183Y22840D01*
X827274Y22927D01*
X827368Y23012D01*
X827464Y23093D01*
X827563Y23172D01*
X827664Y23247D01*
X827768Y23319D01*
X827874Y23388D01*
X827982Y23454D01*
X828092Y23516D01*
X828204Y23574D01*
X828317Y23629D01*
X828433Y23680D01*
X828550Y23728D01*
X828668Y23772D01*
X828788Y23812D01*
X828909Y23848D01*
X829031Y23881D01*
X829154Y23910D01*
X829278Y23934D01*
X829402Y23955D01*
X829527Y23972D01*
X829653Y23985D01*
X829779Y23994D01*
X829905Y23999D01*
X830032Y24000D01*
X830158Y23997D01*
X830284Y23990D01*
X830410Y23979D01*
X830535Y23964D01*
X830660Y23945D01*
X830784Y23922D01*
X830908Y23896D01*
X831030Y23865D01*
X831152Y23831D01*
X831272Y23792D01*
X831391Y23750D01*
X831509Y23705D01*
X831625Y23655D01*
X831740Y23602D01*
X831852Y23545D01*
X831963Y23485D01*
X832072Y23421D01*
X832179Y23354D01*
X832284Y23284D01*
X832387Y23210D01*
X832487Y23133D01*
X832585Y23053D01*
X832680Y22970D01*
X832772Y22884D01*
X832862Y22795D01*
X832949Y22703D01*
X833032Y22609D01*
X833113Y22512D01*
X833191Y22412D01*
X833266Y22310D01*
X833337Y22206D01*
X833405Y22099D01*
X833469Y21991D01*
X833530Y21880D01*
X833588Y21768D01*
X833642Y21654D01*
X833692Y21538D01*
X833739Y21421D01*
X833782Y21302D01*
X833821Y21182D01*
X833857Y21061D01*
X833888Y20938D01*
X833916Y20815D01*
X833940Y20691D01*
X833960Y20566D01*
X833976Y20441D01*
X833988Y20315D01*
X833996Y20189D01*
X834000Y20063D01*
X834000Y19937D01*
X833996Y19811D01*
X833988Y19685D01*
X833976Y19559D01*
X833960Y19434D01*
X833940Y19309D01*
X833916Y19185D01*
X833888Y19062D01*
X833857Y18939D01*
X833821Y18818D01*
X833782Y18698D01*
X833739Y18579D01*
X833692Y18462D01*
X833642Y18346D01*
X833588Y18232D01*
X833530Y18120D01*
X833469Y18009D01*
X833405Y17901D01*
X833337Y17794D01*
X833266Y17690D01*
X833191Y17588D01*
X833113Y17488D01*
X833032Y17391D01*
X832949Y17297D01*
X832862Y17205D01*
X832772Y17116D01*
X832680Y17030D01*
X832585Y16947D01*
X832487Y16867D01*
X832387Y16790D01*
X832284Y16716D01*
X832179Y16646D01*
X832072Y16579D01*
X831963Y16515D01*
X831852Y16455D01*
X831740Y16398D01*
X831625Y16345D01*
X831509Y16295D01*
X831391Y16250D01*
X831272Y16208D01*
X831152Y16169D01*
X831030Y16135D01*
X830908Y16104D01*
X830784Y16078D01*
X830660Y16055D01*
X830535Y16036D01*
X830410Y16021D01*
X830284Y16010D01*
X830158Y16003D01*
X830032Y16000D01*
X829905Y16001D01*
X829779Y16006D01*
X829653Y16015D01*
X829527Y16028D01*
X829402Y16045D01*
X829278Y16066D01*
X829154Y16090D01*
X829031Y16119D01*
X828909Y16152D01*
X828788Y16188D01*
X828668Y16228D01*
X828550Y16272D01*
X828433Y16320D01*
X828317Y16371D01*
X828204Y16426D01*
X828092Y16484D01*
X827982Y16546D01*
X827874Y16612D01*
X827768Y16681D01*
X827664Y16753D01*
X827563Y16828D01*
X827464Y16907D01*
X827368Y16988D01*
X827274Y17073D01*
X827183Y17160D01*
X827095Y17251D01*
X827009Y17344D01*
X826927Y17440D01*
X826848Y17538D01*
X826771Y17639D01*
X826698Y17742D01*
X826629Y17847D01*
X826563Y17955D01*
X826500Y18064D01*
X826440Y18176D01*
X826384Y18289D01*
X826332Y18404D01*
X826284Y18520D01*
X826239Y18639D01*
X826198Y18758D01*
X826160Y18879D01*
X826127Y19000D01*
X826097Y19123D01*
X826072Y19247D01*
X826050Y19371D01*
X826032Y19496D01*
X826018Y19622D01*
X826008Y19748D01*
X826002Y19874D01*
X826000Y20000D01*
X826000Y380000D02*
X826002Y380126D01*
X826008Y380252D01*
X826018Y380378D01*
X826032Y380504D01*
X826050Y380629D01*
X826072Y380753D01*
X826097Y380877D01*
X826127Y381000D01*
X826160Y381121D01*
X826198Y381242D01*
X826239Y381361D01*
X826284Y381480D01*
X826332Y381596D01*
X826384Y381711D01*
X826440Y381824D01*
X826500Y381936D01*
X826563Y382045D01*
X826629Y382153D01*
X826698Y382258D01*
X826771Y382361D01*
X826848Y382462D01*
X826927Y382560D01*
X827009Y382656D01*
X827095Y382749D01*
X827183Y382840D01*
X827274Y382927D01*
X827368Y383012D01*
X827464Y383093D01*
X827563Y383172D01*
X827664Y383247D01*
X827768Y383319D01*
X827874Y383388D01*
X827982Y383454D01*
X828092Y383516D01*
X828204Y383574D01*
X828317Y383629D01*
X828433Y383680D01*
X828550Y383728D01*
X828668Y383772D01*
X828788Y383812D01*
X828909Y383848D01*
X829031Y383881D01*
X829154Y383910D01*
X829278Y383934D01*
X829402Y383955D01*
X829527Y383972D01*
X829653Y383985D01*
X829779Y383994D01*
X829905Y383999D01*
X830032Y384000D01*
X830158Y383997D01*
X830284Y383990D01*
X830410Y383979D01*
X830535Y383964D01*
X830660Y383945D01*
X830784Y383922D01*
X830908Y383896D01*
X831030Y383865D01*
X831152Y383831D01*
X831272Y383792D01*
X831391Y383750D01*
X831509Y383705D01*
X831625Y383655D01*
X831740Y383602D01*
X831852Y383545D01*
X831963Y383485D01*
X832072Y383421D01*
X832179Y383354D01*
X832284Y383284D01*
X832387Y383210D01*
X832487Y383133D01*
X832585Y383053D01*
X832680Y382970D01*
X832772Y382884D01*
X832862Y382795D01*
X832949Y382703D01*
X833032Y382609D01*
X833113Y382512D01*
X833191Y382412D01*
X833266Y382310D01*
X833337Y382206D01*
X833405Y382099D01*
X833469Y381991D01*
X833530Y381880D01*
X833588Y381768D01*
X833642Y381654D01*
X833692Y381538D01*
X833739Y381421D01*
X833782Y381302D01*
X833821Y381182D01*
X833857Y381061D01*
X833888Y380938D01*
X833916Y380815D01*
X833940Y380691D01*
X833960Y380566D01*
X833976Y380441D01*
X833988Y380315D01*
X833996Y380189D01*
X834000Y380063D01*
X834000Y379937D01*
X833996Y379811D01*
X833988Y379685D01*
X833976Y379559D01*
X833960Y379434D01*
X833940Y379309D01*
X833916Y379185D01*
X833888Y379062D01*
X833857Y378939D01*
X833821Y378818D01*
X833782Y378698D01*
X833739Y378579D01*
X833692Y378462D01*
X833642Y378346D01*
X833588Y378232D01*
X833530Y378120D01*
X833469Y378009D01*
X833405Y377901D01*
X833337Y377794D01*
X833266Y377690D01*
X833191Y377588D01*
X833113Y377488D01*
X833032Y377391D01*
X832949Y377297D01*
X832862Y377205D01*
X832772Y377116D01*
X832680Y377030D01*
X832585Y376947D01*
X832487Y376867D01*
X832387Y376790D01*
X832284Y376716D01*
X832179Y376646D01*
X832072Y376579D01*
X831963Y376515D01*
X831852Y376455D01*
X831740Y376398D01*
X831625Y376345D01*
X831509Y376295D01*
X831391Y376250D01*
X831272Y376208D01*
X831152Y376169D01*
X831030Y376135D01*
X830908Y376104D01*
X830784Y376078D01*
X830660Y376055D01*
X830535Y376036D01*
X830410Y376021D01*
X830284Y376010D01*
X830158Y376003D01*
X830032Y376000D01*
X829905Y376001D01*
X829779Y376006D01*
X829653Y376015D01*
X829527Y376028D01*
X829402Y376045D01*
X829278Y376066D01*
X829154Y376090D01*
X829031Y376119D01*
X828909Y376152D01*
X828788Y376188D01*
X828668Y376228D01*
X828550Y376272D01*
X828433Y376320D01*
X828317Y376371D01*
X828204Y376426D01*
X828092Y376484D01*
X827982Y376546D01*
X827874Y376612D01*
X827768Y376681D01*
X827664Y376753D01*
X827563Y376828D01*
X827464Y376907D01*
X827368Y376988D01*
X827274Y377073D01*
X827183Y377160D01*
X827095Y377251D01*
X827009Y377344D01*
X826927Y377440D01*
X826848Y377538D01*
X826771Y377639D01*
X826698Y377742D01*
X826629Y377847D01*
X826563Y377955D01*
X826500Y378064D01*
X826440Y378176D01*
X826384Y378289D01*
X826332Y378404D01*
X826284Y378520D01*
X826239Y378639D01*
X826198Y378758D01*
X826160Y378879D01*
X826127Y379000D01*
X826097Y379123D01*
X826072Y379247D01*
X826050Y379371D01*
X826032Y379496D01*
X826018Y379622D01*
X826008Y379748D01*
X826002Y379874D01*
X826000Y380000D01*
D11*
X468200Y376857D02*
X468200Y366793D01*
X381800Y366793D02*
X381800Y376857D01*
D12*
X468200Y335275D02*
X468200Y324775D01*
X381800Y324775D02*
X381800Y335275D01*
D13*
X96900Y340000D03*
X122300Y340000D03*
X147700Y340000D03*
X173100Y340000D03*
D14*
X692150Y330200D03*
D13*
X717550Y330200D03*
X742950Y330200D03*
X768350Y330200D03*
X793750Y330200D03*
X692150Y355600D03*
X717550Y355600D03*
X742950Y355600D03*
X768350Y355600D03*
X793750Y355600D03*
D15*
X145000Y210000D03*
X122500Y210000D03*
D16*
X320000Y140000D03*
X440000Y195000D03*
D15*
X352500Y90000D03*
X507500Y90000D03*
X365000Y250000D03*
X490000Y330000D03*
X490000Y372500D03*
X325000Y375000D03*
X360000Y330000D03*
X402500Y90000D03*
D17*
X402500Y60000D01*
D15*
X402500Y60000D03*
X557500Y195000D03*
D18*
X557500Y160000D01*
D15*
X557500Y160000D03*
D16*
X395000Y275000D03*
D19*
X420000Y275000D01*
D16*
X420000Y275000D03*
X380000Y300000D03*
X470000Y300000D03*
D20*
X380000Y300000D01*
D15*
X440000Y250000D03*
D19*
X427500Y262500D01*
X375000Y262500D01*
X365000Y272500D01*
X165000Y272500D01*
D15*
X165000Y272500D03*
X415000Y165000D03*
D19*
X440000Y165000D01*
X455000Y180000D01*
X367500Y287500D02*
X320000Y335000D01*
X310000Y335000D01*
X455000Y275000D02*
X455000Y180000D01*
X455000Y275000D02*
X442500Y287500D01*
X367500Y287500D01*
D15*
X310000Y335000D03*
X600000Y230000D03*
D19*
X605000Y225000D02*
X685000Y225000D01*
X605000Y225000D02*
X600000Y230000D01*
X685000Y225000D02*
X704819Y205181D01*
X760181Y205181D01*
X765181Y210181D01*
D15*
X765181Y210181D03*
X600000Y250000D03*
D19*
X620500Y229500D01*
X763425Y225841D02*
X777700Y225841D01*
X763425Y225841D02*
X748425Y210841D01*
X705523Y210841D01*
X686864Y229500D01*
D15*
X777700Y225841D03*
D19*
X686864Y229500D02*
X620500Y229500D01*
D15*
X600000Y365000D03*
X600000Y345000D03*
X645000Y265000D03*
X645000Y165000D03*
X765000Y190000D03*
X745000Y265000D03*
D19*
X20000Y385000D02*
X20000Y400000D01*
X25000Y380000D02*
X40000Y380000D01*
X20000Y375000D02*
X20000Y360000D01*
X15000Y380000D02*
X0Y380000D01*
X20000Y40000D02*
X20000Y25000D01*
X25000Y20000D02*
X40000Y20000D01*
X20000Y15000D02*
X20000Y0D01*
X15000Y20000D02*
X0Y20000D01*
X830000Y25000D02*
X830000Y40000D01*
X835000Y20000D02*
X850000Y20000D01*
X830000Y15000D02*
X830000Y0D01*
X825000Y20000D02*
X810000Y20000D01*
X830000Y385000D02*
X830000Y400000D01*
X835000Y380000D02*
X850000Y380000D01*
X830000Y375000D02*
X830000Y360000D01*
X825000Y380000D02*
X810000Y380000D01*
M02*
