G04 EAGLE Gerber RS-274X export*
G75*
%MOMM*%
%FSLAX34Y34*%
%LPD*%
%IN*%
%IPPOS*%
%AMOC8*
5,1,8,0,0,1.08239X$1,22.5*%
G01*
%ADD10C,0.254000*%


D10*
X0Y0D02*
X850000Y0D01*
X850000Y400000D01*
X0Y400000D01*
X0Y0D01*
X378800Y324525D02*
X378811Y324264D01*
X378846Y324004D01*
X378902Y323749D01*
X378981Y323499D01*
X379081Y323257D01*
X379202Y323025D01*
X379343Y322804D01*
X379502Y322597D01*
X379679Y322404D01*
X379872Y322227D01*
X380079Y322068D01*
X380300Y321927D01*
X380532Y321806D01*
X380774Y321706D01*
X381024Y321627D01*
X381279Y321571D01*
X381539Y321536D01*
X381800Y321525D01*
X382061Y321536D01*
X382321Y321571D01*
X382576Y321627D01*
X382826Y321706D01*
X383068Y321806D01*
X383300Y321927D01*
X383521Y322068D01*
X383728Y322227D01*
X383921Y322404D01*
X384098Y322597D01*
X384257Y322804D01*
X384398Y323025D01*
X384519Y323257D01*
X384619Y323499D01*
X384698Y323749D01*
X384754Y324004D01*
X384789Y324264D01*
X384800Y324525D01*
X384800Y335525D01*
X384789Y335786D01*
X384754Y336046D01*
X384698Y336301D01*
X384619Y336551D01*
X384519Y336793D01*
X384398Y337025D01*
X384257Y337246D01*
X384098Y337453D01*
X383921Y337646D01*
X383728Y337823D01*
X383521Y337982D01*
X383300Y338123D01*
X383068Y338244D01*
X382826Y338344D01*
X382576Y338423D01*
X382321Y338479D01*
X382061Y338514D01*
X381800Y338525D01*
X381539Y338514D01*
X381279Y338479D01*
X381024Y338423D01*
X380774Y338344D01*
X380532Y338244D01*
X380300Y338123D01*
X380079Y337982D01*
X379872Y337823D01*
X379679Y337646D01*
X379502Y337453D01*
X379343Y337246D01*
X379202Y337025D01*
X379081Y336793D01*
X378981Y336551D01*
X378902Y336301D01*
X378846Y336046D01*
X378811Y335786D01*
X378800Y335525D01*
X378800Y324525D01*
X465200Y324525D02*
X465211Y324264D01*
X465246Y324004D01*
X465302Y323749D01*
X465381Y323499D01*
X465481Y323257D01*
X465602Y323025D01*
X465743Y322804D01*
X465902Y322597D01*
X466079Y322404D01*
X466272Y322227D01*
X466479Y322068D01*
X466700Y321927D01*
X466932Y321806D01*
X467174Y321706D01*
X467424Y321627D01*
X467679Y321571D01*
X467939Y321536D01*
X468200Y321525D01*
X468461Y321536D01*
X468721Y321571D01*
X468976Y321627D01*
X469226Y321706D01*
X469468Y321806D01*
X469700Y321927D01*
X469921Y322068D01*
X470128Y322227D01*
X470321Y322404D01*
X470498Y322597D01*
X470657Y322804D01*
X470798Y323025D01*
X470919Y323257D01*
X471019Y323499D01*
X471098Y323749D01*
X471154Y324004D01*
X471189Y324264D01*
X471200Y324525D01*
X471200Y335525D01*
X471189Y335786D01*
X471154Y336046D01*
X471098Y336301D01*
X471019Y336551D01*
X470919Y336793D01*
X470798Y337025D01*
X470657Y337246D01*
X470498Y337453D01*
X470321Y337646D01*
X470128Y337823D01*
X469921Y337982D01*
X469700Y338123D01*
X469468Y338244D01*
X469226Y338344D01*
X468976Y338423D01*
X468721Y338479D01*
X468461Y338514D01*
X468200Y338525D01*
X467939Y338514D01*
X467679Y338479D01*
X467424Y338423D01*
X467174Y338344D01*
X466932Y338244D01*
X466700Y338123D01*
X466479Y337982D01*
X466272Y337823D01*
X466079Y337646D01*
X465902Y337453D01*
X465743Y337246D01*
X465602Y337025D01*
X465481Y336793D01*
X465381Y336551D01*
X465302Y336301D01*
X465246Y336046D01*
X465211Y335786D01*
X465200Y335525D01*
X465200Y324525D01*
X378800Y367825D02*
X378811Y367564D01*
X378846Y367304D01*
X378902Y367049D01*
X378981Y366799D01*
X379081Y366557D01*
X379202Y366325D01*
X379343Y366104D01*
X379502Y365897D01*
X379679Y365704D01*
X379872Y365527D01*
X380079Y365368D01*
X380300Y365227D01*
X380532Y365106D01*
X380774Y365006D01*
X381024Y364927D01*
X381279Y364871D01*
X381539Y364836D01*
X381800Y364825D01*
X382061Y364836D01*
X382321Y364871D01*
X382576Y364927D01*
X382826Y365006D01*
X383068Y365106D01*
X383300Y365227D01*
X383521Y365368D01*
X383728Y365527D01*
X383921Y365704D01*
X384098Y365897D01*
X384257Y366104D01*
X384398Y366325D01*
X384519Y366557D01*
X384619Y366799D01*
X384698Y367049D01*
X384754Y367304D01*
X384789Y367564D01*
X384800Y367825D01*
X384800Y375825D01*
X384789Y376086D01*
X384754Y376346D01*
X384698Y376601D01*
X384619Y376851D01*
X384519Y377093D01*
X384398Y377325D01*
X384257Y377546D01*
X384098Y377753D01*
X383921Y377946D01*
X383728Y378123D01*
X383521Y378282D01*
X383300Y378423D01*
X383068Y378544D01*
X382826Y378644D01*
X382576Y378723D01*
X382321Y378779D01*
X382061Y378814D01*
X381800Y378825D01*
X381539Y378814D01*
X381279Y378779D01*
X381024Y378723D01*
X380774Y378644D01*
X380532Y378544D01*
X380300Y378423D01*
X380079Y378282D01*
X379872Y378123D01*
X379679Y377946D01*
X379502Y377753D01*
X379343Y377546D01*
X379202Y377325D01*
X379081Y377093D01*
X378981Y376851D01*
X378902Y376601D01*
X378846Y376346D01*
X378811Y376086D01*
X378800Y375825D01*
X378800Y367825D01*
X465200Y367825D02*
X465211Y367564D01*
X465246Y367304D01*
X465302Y367049D01*
X465381Y366799D01*
X465481Y366557D01*
X465602Y366325D01*
X465743Y366104D01*
X465902Y365897D01*
X466079Y365704D01*
X466272Y365527D01*
X466479Y365368D01*
X466700Y365227D01*
X466932Y365106D01*
X467174Y365006D01*
X467424Y364927D01*
X467679Y364871D01*
X467939Y364836D01*
X468200Y364825D01*
X468461Y364836D01*
X468721Y364871D01*
X468976Y364927D01*
X469226Y365006D01*
X469468Y365106D01*
X469700Y365227D01*
X469921Y365368D01*
X470128Y365527D01*
X470321Y365704D01*
X470498Y365897D01*
X470657Y366104D01*
X470798Y366325D01*
X470919Y366557D01*
X471019Y366799D01*
X471098Y367049D01*
X471154Y367304D01*
X471189Y367564D01*
X471200Y367825D01*
X471200Y375825D01*
X471189Y376086D01*
X471154Y376346D01*
X471098Y376601D01*
X471019Y376851D01*
X470919Y377093D01*
X470798Y377325D01*
X470657Y377546D01*
X470498Y377753D01*
X470321Y377946D01*
X470128Y378123D01*
X469921Y378282D01*
X469700Y378423D01*
X469468Y378544D01*
X469226Y378644D01*
X468976Y378723D01*
X468721Y378779D01*
X468461Y378814D01*
X468200Y378825D01*
X467939Y378814D01*
X467679Y378779D01*
X467424Y378723D01*
X467174Y378644D01*
X466932Y378544D01*
X466700Y378423D01*
X466479Y378282D01*
X466272Y378123D01*
X466079Y377946D01*
X465902Y377753D01*
X465743Y377546D01*
X465602Y377325D01*
X465481Y377093D01*
X465381Y376851D01*
X465302Y376601D01*
X465246Y376346D01*
X465211Y376086D01*
X465200Y375825D01*
X465200Y367825D01*
M02*
