G04 EAGLE Gerber RS-274X export*
G75*
%MOMM*%
%FSLAX34Y34*%
%LPD*%
%INSoldermask Top*%
%IPPOS*%
%AMOC8*
5,1,8,0,0,1.08239X$1,22.5*%
G01*
%ADD10R,1.803200X1.503200*%
%ADD11R,1.403200X1.403200*%
%ADD12R,2.438400X1.422400*%
%ADD13R,2.403200X3.803200*%
%ADD14R,1.703200X1.503200*%
%ADD15R,0.503200X0.953200*%
%ADD16R,0.953200X0.503200*%
%ADD17R,3.053200X3.053200*%
%ADD18C,1.209600*%
%ADD19C,1.253200*%
%ADD20R,0.803200X1.353200*%
%ADD21R,0.503200X1.353200*%
%ADD22R,0.853200X1.703200*%
%ADD23R,1.503200X1.703200*%
%ADD24R,1.503200X1.803200*%
%ADD25R,1.313200X1.933200*%
%ADD26R,1.753200X0.853200*%
%ADD27C,2.003200*%
%ADD28C,2.133600*%
%ADD29R,0.710400X1.965197*%
%ADD30R,1.965197X0.710400*%
%ADD31R,1.803200X2.503200*%
%ADD32R,0.711200X1.473200*%
%ADD33R,2.133600X2.133600*%
%ADD34C,1.553200*%
%ADD35C,1.703200*%


D10*
X165000Y240000D03*
X165000Y220000D03*
X70000Y285000D03*
X70000Y305000D03*
X20000Y285000D03*
X20000Y305000D03*
X45000Y285000D03*
X45000Y305000D03*
D11*
X110500Y190000D03*
X89500Y190000D03*
D12*
X130988Y226886D03*
X130988Y250000D03*
X130988Y273114D03*
D13*
X69010Y250000D03*
D14*
X65000Y190500D03*
X65000Y209500D03*
D15*
X387500Y195000D03*
X392500Y195000D03*
X397500Y195000D03*
X402500Y195000D03*
X407500Y195000D03*
X412500Y195000D03*
D16*
X420000Y202500D03*
X420000Y207500D03*
X420000Y212500D03*
X420000Y217500D03*
X420000Y222500D03*
X420000Y227500D03*
D15*
X412500Y235000D03*
X407500Y235000D03*
X402500Y235000D03*
X397500Y235000D03*
X392500Y235000D03*
X387500Y235000D03*
D16*
X380000Y227500D03*
X380000Y222500D03*
X380000Y217500D03*
X380000Y212500D03*
X380000Y207500D03*
X380000Y202500D03*
D17*
X400000Y215000D03*
D18*
X468200Y366793D02*
X468200Y376857D01*
X381800Y376857D02*
X381800Y366793D01*
D19*
X468200Y335275D02*
X468200Y324775D01*
X381800Y324775D02*
X381800Y335275D01*
D20*
X457000Y324275D03*
X393000Y324275D03*
X449000Y324275D03*
X401000Y324275D03*
D21*
X422500Y324275D03*
X427500Y324275D03*
X417500Y324275D03*
X412500Y324275D03*
X407500Y324275D03*
X432500Y324275D03*
X437500Y324275D03*
X442500Y324275D03*
D14*
X340000Y110500D03*
X340000Y129500D03*
X390000Y129500D03*
X390000Y110500D03*
X365000Y110500D03*
X365000Y129500D03*
X415000Y129500D03*
X415000Y110500D03*
X495000Y110500D03*
X495000Y129500D03*
X445000Y129500D03*
X445000Y110500D03*
X520000Y110500D03*
X520000Y129500D03*
X470000Y129500D03*
X470000Y110500D03*
D22*
X205950Y203000D03*
X218650Y203000D03*
X231350Y203000D03*
X244050Y203000D03*
X244050Y257000D03*
X231350Y257000D03*
X218650Y257000D03*
X205950Y257000D03*
D23*
X289500Y115000D03*
X270500Y115000D03*
D10*
X185000Y240000D03*
X185000Y220000D03*
D24*
X345000Y190000D03*
X325000Y190000D03*
X345000Y215000D03*
X325000Y215000D03*
X345000Y240000D03*
X325000Y240000D03*
X345000Y165000D03*
X325000Y165000D03*
X290000Y190000D03*
X270000Y190000D03*
D23*
X289500Y215000D03*
X270500Y215000D03*
X270500Y140000D03*
X289500Y140000D03*
D22*
X244050Y342000D03*
X231350Y342000D03*
X218650Y342000D03*
X205950Y342000D03*
X205950Y288000D03*
X218650Y288000D03*
X231350Y288000D03*
X244050Y288000D03*
D23*
X270500Y335000D03*
X289500Y335000D03*
X289500Y360000D03*
X270500Y360000D03*
D11*
X514500Y165000D03*
X535500Y165000D03*
D23*
X534500Y195000D03*
X515500Y195000D03*
D25*
X257950Y165000D03*
X292050Y165000D03*
D10*
X350000Y355000D03*
X350000Y375000D03*
D23*
X489500Y250000D03*
X470500Y250000D03*
X515500Y225000D03*
X534500Y225000D03*
X515500Y250000D03*
X534500Y250000D03*
D26*
X471500Y204600D03*
X471500Y185400D03*
X488500Y195000D03*
D23*
X489500Y225000D03*
X470500Y225000D03*
X470500Y165000D03*
X489500Y165000D03*
D27*
X265000Y272500D03*
X165000Y272500D03*
X280000Y235000D03*
X280000Y315000D03*
D28*
X96900Y340000D03*
X122300Y340000D03*
X147700Y340000D03*
X173100Y340000D03*
D27*
X345000Y260000D03*
X372500Y175000D03*
X440000Y300000D03*
X405000Y300000D03*
D29*
X667000Y173310D03*
X675000Y173310D03*
X683000Y173310D03*
X691000Y173310D03*
X699000Y173310D03*
X707000Y173310D03*
X715000Y173310D03*
X723000Y173310D03*
D30*
X736690Y187000D03*
X736690Y195000D03*
X736690Y203000D03*
X736690Y211000D03*
X736690Y219000D03*
X736690Y227000D03*
X736690Y235000D03*
X736690Y243000D03*
D29*
X723000Y256690D03*
X715000Y256690D03*
X707000Y256690D03*
X699000Y256690D03*
X691000Y256690D03*
X683000Y256690D03*
X675000Y256690D03*
X667000Y256690D03*
D30*
X653310Y243000D03*
X653310Y235000D03*
X653310Y227000D03*
X653310Y219000D03*
X653310Y211000D03*
X653310Y203000D03*
X653310Y195000D03*
X653310Y187000D03*
D23*
X629500Y205000D03*
X610500Y205000D03*
D11*
X654500Y145000D03*
X675500Y145000D03*
D31*
X625000Y258500D03*
X625000Y321500D03*
D23*
X607000Y160000D03*
X588000Y160000D03*
D14*
X760000Y169500D03*
X760000Y150500D03*
D23*
X700500Y145000D03*
X719500Y145000D03*
X560500Y300000D03*
X579500Y300000D03*
X560500Y320000D03*
X579500Y320000D03*
X579500Y250000D03*
X560500Y250000D03*
X579500Y225000D03*
X560500Y225000D03*
X579500Y130000D03*
X560500Y130000D03*
X579500Y345000D03*
X560500Y345000D03*
X579500Y365000D03*
X560500Y365000D03*
D32*
X700000Y94130D03*
X712700Y94130D03*
X725400Y94130D03*
X687300Y94130D03*
X674600Y94130D03*
X674600Y45870D03*
X687300Y45870D03*
X700000Y45870D03*
X712700Y45870D03*
X725400Y45870D03*
D23*
X700500Y120000D03*
X719500Y120000D03*
D33*
X692150Y330200D03*
D28*
X717550Y330200D03*
X742950Y330200D03*
X768350Y330200D03*
X793750Y330200D03*
X692150Y355600D03*
X717550Y355600D03*
X742950Y355600D03*
X768350Y355600D03*
X793750Y355600D03*
D34*
X145000Y210000D03*
X122500Y210000D03*
D35*
X320000Y140000D03*
X440000Y195000D03*
D34*
X352500Y90000D03*
X507500Y90000D03*
X365000Y250000D03*
X490000Y330000D03*
X490000Y372500D03*
X325000Y375000D03*
X360000Y330000D03*
X402500Y90000D03*
X402500Y60000D03*
X557500Y195000D03*
X557500Y160000D03*
D35*
X395000Y275000D03*
X420000Y275000D03*
X380000Y300000D03*
X470000Y300000D03*
D34*
X440000Y250000D03*
X165000Y272500D03*
X415000Y165000D03*
X310000Y335000D03*
X600000Y230000D03*
X765181Y210181D03*
X600000Y250000D03*
X777700Y225841D03*
X600000Y365000D03*
X600000Y345000D03*
X645000Y265000D03*
X645000Y165000D03*
X765000Y190000D03*
X745000Y265000D03*
M02*
