G04 EAGLE Gerber RS-274X export*
G75*
%MOMM*%
%FSLAX34Y34*%
%LPD*%
%INSoldermask Bottom*%
%IPPOS*%
%AMOC8*
5,1,8,0,0,1.08239X$1,22.5*%
G01*
%ADD10C,1.209600*%
%ADD11C,1.253200*%
%ADD12C,2.133600*%
%ADD13R,2.133600X2.133600*%
%ADD14C,1.553200*%
%ADD15C,1.703200*%


D10*
X468200Y376857D02*
X468200Y366793D01*
X381800Y366793D02*
X381800Y376857D01*
D11*
X468200Y335275D02*
X468200Y324775D01*
X381800Y324775D02*
X381800Y335275D01*
D12*
X96900Y340000D03*
X122300Y340000D03*
X147700Y340000D03*
X173100Y340000D03*
D13*
X692150Y330200D03*
D12*
X717550Y330200D03*
X742950Y330200D03*
X768350Y330200D03*
X793750Y330200D03*
X692150Y355600D03*
X717550Y355600D03*
X742950Y355600D03*
X768350Y355600D03*
X793750Y355600D03*
D14*
X145000Y210000D03*
X122500Y210000D03*
D15*
X320000Y140000D03*
X440000Y195000D03*
D14*
X352500Y90000D03*
X507500Y90000D03*
X365000Y250000D03*
X490000Y330000D03*
X490000Y372500D03*
X325000Y375000D03*
X360000Y330000D03*
X402500Y90000D03*
X402500Y60000D03*
X557500Y195000D03*
X557500Y160000D03*
D15*
X395000Y275000D03*
X420000Y275000D03*
X380000Y300000D03*
X470000Y300000D03*
D14*
X440000Y250000D03*
X165000Y272500D03*
X415000Y165000D03*
X310000Y335000D03*
X600000Y230000D03*
X765181Y210181D03*
X600000Y250000D03*
X777700Y225841D03*
X600000Y365000D03*
X600000Y345000D03*
X645000Y265000D03*
X645000Y165000D03*
X765000Y190000D03*
X745000Y265000D03*
M02*
