G04 EAGLE Gerber RS-274X export*
G75*
%MOMM*%
%FSLAX34Y34*%
%LPD*%
%INSolderpaste Top*%
%IPPOS*%
%AMOC8*
5,1,8,0,0,1.08239X$1,22.5*%
G01*
%ADD10R,1.600000X1.300000*%
%ADD11R,1.200000X1.200000*%
%ADD12R,2.235200X1.219200*%
%ADD13R,2.200000X3.600000*%
%ADD14R,1.500000X1.300000*%
%ADD15R,0.300000X0.750000*%
%ADD16R,0.750000X0.300000*%
%ADD17R,2.850000X2.850000*%
%ADD18R,0.600000X1.150000*%
%ADD19R,0.300000X1.150000*%
%ADD20R,0.650000X1.500000*%
%ADD21R,1.300000X1.500000*%
%ADD22R,1.300000X1.600000*%
%ADD23R,1.110000X1.730000*%
%ADD24R,1.550000X0.650000*%
%ADD25R,0.507200X1.761997*%
%ADD26R,1.761997X0.507200*%
%ADD27R,1.600000X2.300000*%
%ADD28R,0.508000X1.270000*%


D10*
X165000Y240000D03*
X165000Y220000D03*
X70000Y285000D03*
X70000Y305000D03*
X20000Y285000D03*
X20000Y305000D03*
X45000Y285000D03*
X45000Y305000D03*
D11*
X110500Y190000D03*
X89500Y190000D03*
D12*
X130988Y226886D03*
X130988Y250000D03*
X130988Y273114D03*
D13*
X69010Y250000D03*
D14*
X65000Y190500D03*
X65000Y209500D03*
D15*
X387500Y195000D03*
X392500Y195000D03*
X397500Y195000D03*
X402500Y195000D03*
X407500Y195000D03*
X412500Y195000D03*
D16*
X420000Y202500D03*
X420000Y207500D03*
X420000Y212500D03*
X420000Y217500D03*
X420000Y222500D03*
X420000Y227500D03*
D15*
X412500Y235000D03*
X407500Y235000D03*
X402500Y235000D03*
X397500Y235000D03*
X392500Y235000D03*
X387500Y235000D03*
D16*
X380000Y227500D03*
X380000Y222500D03*
X380000Y217500D03*
X380000Y212500D03*
X380000Y207500D03*
X380000Y202500D03*
D17*
X400000Y215000D03*
D18*
X457000Y324275D03*
X393000Y324275D03*
X449000Y324275D03*
X401000Y324275D03*
D19*
X422500Y324275D03*
X427500Y324275D03*
X417500Y324275D03*
X412500Y324275D03*
X407500Y324275D03*
X432500Y324275D03*
X437500Y324275D03*
X442500Y324275D03*
D14*
X340000Y110500D03*
X340000Y129500D03*
X390000Y129500D03*
X390000Y110500D03*
X365000Y110500D03*
X365000Y129500D03*
X415000Y129500D03*
X415000Y110500D03*
X495000Y110500D03*
X495000Y129500D03*
X445000Y129500D03*
X445000Y110500D03*
X520000Y110500D03*
X520000Y129500D03*
X470000Y129500D03*
X470000Y110500D03*
D20*
X205950Y203000D03*
X218650Y203000D03*
X231350Y203000D03*
X244050Y203000D03*
X244050Y257000D03*
X231350Y257000D03*
X218650Y257000D03*
X205950Y257000D03*
D21*
X289500Y115000D03*
X270500Y115000D03*
D10*
X185000Y240000D03*
X185000Y220000D03*
D22*
X345000Y190000D03*
X325000Y190000D03*
X345000Y215000D03*
X325000Y215000D03*
X345000Y240000D03*
X325000Y240000D03*
X345000Y165000D03*
X325000Y165000D03*
X290000Y190000D03*
X270000Y190000D03*
D21*
X289500Y215000D03*
X270500Y215000D03*
X270500Y140000D03*
X289500Y140000D03*
D20*
X244050Y342000D03*
X231350Y342000D03*
X218650Y342000D03*
X205950Y342000D03*
X205950Y288000D03*
X218650Y288000D03*
X231350Y288000D03*
X244050Y288000D03*
D21*
X270500Y335000D03*
X289500Y335000D03*
X289500Y360000D03*
X270500Y360000D03*
D11*
X514500Y165000D03*
X535500Y165000D03*
D21*
X534500Y195000D03*
X515500Y195000D03*
D23*
X257950Y165000D03*
X292050Y165000D03*
D10*
X350000Y355000D03*
X350000Y375000D03*
D21*
X489500Y250000D03*
X470500Y250000D03*
X515500Y225000D03*
X534500Y225000D03*
X515500Y250000D03*
X534500Y250000D03*
D24*
X471500Y204600D03*
X471500Y185400D03*
X488500Y195000D03*
D21*
X489500Y225000D03*
X470500Y225000D03*
X470500Y165000D03*
X489500Y165000D03*
D25*
X667000Y173310D03*
X675000Y173310D03*
X683000Y173310D03*
X691000Y173310D03*
X699000Y173310D03*
X707000Y173310D03*
X715000Y173310D03*
X723000Y173310D03*
D26*
X736690Y187000D03*
X736690Y195000D03*
X736690Y203000D03*
X736690Y211000D03*
X736690Y219000D03*
X736690Y227000D03*
X736690Y235000D03*
X736690Y243000D03*
D25*
X723000Y256690D03*
X715000Y256690D03*
X707000Y256690D03*
X699000Y256690D03*
X691000Y256690D03*
X683000Y256690D03*
X675000Y256690D03*
X667000Y256690D03*
D26*
X653310Y243000D03*
X653310Y235000D03*
X653310Y227000D03*
X653310Y219000D03*
X653310Y211000D03*
X653310Y203000D03*
X653310Y195000D03*
X653310Y187000D03*
D21*
X629500Y205000D03*
X610500Y205000D03*
D11*
X654500Y145000D03*
X675500Y145000D03*
D27*
X625000Y258500D03*
X625000Y321500D03*
D21*
X607000Y160000D03*
X588000Y160000D03*
D14*
X760000Y169500D03*
X760000Y150500D03*
D21*
X700500Y145000D03*
X719500Y145000D03*
X560500Y300000D03*
X579500Y300000D03*
X560500Y320000D03*
X579500Y320000D03*
X579500Y250000D03*
X560500Y250000D03*
X579500Y225000D03*
X560500Y225000D03*
X579500Y130000D03*
X560500Y130000D03*
X579500Y345000D03*
X560500Y345000D03*
X579500Y365000D03*
X560500Y365000D03*
D28*
X700000Y94130D03*
X712700Y94130D03*
X725400Y94130D03*
X687300Y94130D03*
X674600Y94130D03*
X674600Y45870D03*
X687300Y45870D03*
X700000Y45870D03*
X712700Y45870D03*
X725400Y45870D03*
D21*
X700500Y120000D03*
X719500Y120000D03*
M02*
