G04 EAGLE Gerber RS-274X export*
G75*
%MOMM*%
%FSLAX34Y34*%
%LPD*%
%IN*%
%IPPOS*%
%AMOC8*
5,1,8,0,0,1.08239X$1,22.5*%
G01*
%ADD10C,0.254000*%


D10*
X0Y0D02*
X304600Y0D01*
X304600Y575820D01*
X0Y575820D01*
X0Y0D01*
X169900Y523535D02*
X169977Y524120D01*
X170130Y524690D01*
X170355Y525235D01*
X170650Y525745D01*
X171009Y526213D01*
X171427Y526631D01*
X171895Y526990D01*
X172405Y527285D01*
X172950Y527510D01*
X173520Y527663D01*
X174105Y527740D01*
X174695Y527740D01*
X175280Y527663D01*
X175850Y527510D01*
X176395Y527285D01*
X176905Y526990D01*
X177373Y526631D01*
X177791Y526213D01*
X178150Y525745D01*
X178445Y525235D01*
X178670Y524690D01*
X178823Y524120D01*
X178900Y523535D01*
X178900Y522945D01*
X178823Y522360D01*
X178670Y521790D01*
X178445Y521245D01*
X178150Y520735D01*
X177791Y520267D01*
X177373Y519849D01*
X176905Y519490D01*
X176395Y519195D01*
X175850Y518970D01*
X175280Y518817D01*
X174695Y518740D01*
X174105Y518740D01*
X173520Y518817D01*
X172950Y518970D01*
X172405Y519195D01*
X171895Y519490D01*
X171427Y519849D01*
X171009Y520267D01*
X170650Y520735D01*
X170355Y521245D01*
X170130Y521790D01*
X169977Y522360D01*
X169900Y522945D01*
X169900Y523535D01*
X125900Y523535D02*
X125977Y524120D01*
X126130Y524690D01*
X126355Y525235D01*
X126650Y525745D01*
X127009Y526213D01*
X127427Y526631D01*
X127895Y526990D01*
X128405Y527285D01*
X128950Y527510D01*
X129520Y527663D01*
X130105Y527740D01*
X130695Y527740D01*
X131280Y527663D01*
X131850Y527510D01*
X132395Y527285D01*
X132905Y526990D01*
X133373Y526631D01*
X133791Y526213D01*
X134150Y525745D01*
X134445Y525235D01*
X134670Y524690D01*
X134823Y524120D01*
X134900Y523535D01*
X134900Y522945D01*
X134823Y522360D01*
X134670Y521790D01*
X134445Y521245D01*
X134150Y520735D01*
X133791Y520267D01*
X133373Y519849D01*
X132905Y519490D01*
X132395Y519195D01*
X131850Y518970D01*
X131280Y518817D01*
X130695Y518740D01*
X130105Y518740D01*
X129520Y518817D01*
X128950Y518970D01*
X128405Y519195D01*
X127895Y519490D01*
X127427Y519849D01*
X127009Y520267D01*
X126650Y520735D01*
X126355Y521245D01*
X126130Y521790D01*
X125977Y522360D01*
X125900Y522945D01*
X125900Y523535D01*
M02*
