G04 EAGLE Gerber RS-274X export*
G75*
%MOMM*%
%FSLAX34Y34*%
%LPD*%
%INSilkscreen Top*%
%IPPOS*%
%AMOC8*
5,1,8,0,0,1.08239X$1,22.5*%
G01*
%ADD10C,0.101600*%
%ADD11C,0.127000*%
%ADD12C,0.200000*%
%ADD13C,0.203200*%
%ADD14C,0.025400*%
%ADD15C,0.152400*%
%ADD16C,0.076200*%
%ADD17C,0.254000*%


D10*
X247142Y460361D02*
X247142Y457764D01*
X247140Y457665D01*
X247134Y457565D01*
X247125Y457466D01*
X247112Y457368D01*
X247095Y457270D01*
X247074Y457172D01*
X247049Y457076D01*
X247021Y456981D01*
X246989Y456887D01*
X246954Y456794D01*
X246915Y456702D01*
X246872Y456612D01*
X246827Y456524D01*
X246777Y456437D01*
X246725Y456353D01*
X246669Y456270D01*
X246611Y456190D01*
X246549Y456112D01*
X246484Y456037D01*
X246416Y455964D01*
X246346Y455894D01*
X246273Y455826D01*
X246198Y455761D01*
X246120Y455699D01*
X246040Y455641D01*
X245957Y455585D01*
X245873Y455533D01*
X245786Y455483D01*
X245698Y455438D01*
X245608Y455395D01*
X245516Y455356D01*
X245423Y455321D01*
X245329Y455289D01*
X245234Y455261D01*
X245138Y455236D01*
X245040Y455215D01*
X244942Y455198D01*
X244844Y455185D01*
X244745Y455176D01*
X244645Y455170D01*
X244546Y455168D01*
X238054Y455168D01*
X237955Y455170D01*
X237855Y455176D01*
X237756Y455185D01*
X237658Y455198D01*
X237560Y455216D01*
X237462Y455236D01*
X237366Y455261D01*
X237270Y455289D01*
X237176Y455321D01*
X237083Y455356D01*
X236992Y455395D01*
X236902Y455438D01*
X236813Y455483D01*
X236727Y455533D01*
X236642Y455585D01*
X236560Y455641D01*
X236480Y455700D01*
X236402Y455761D01*
X236326Y455826D01*
X236253Y455894D01*
X236183Y455964D01*
X236115Y456037D01*
X236050Y456113D01*
X235989Y456191D01*
X235930Y456271D01*
X235874Y456353D01*
X235822Y456438D01*
X235773Y456524D01*
X235727Y456613D01*
X235684Y456703D01*
X235645Y456794D01*
X235610Y456887D01*
X235578Y456981D01*
X235550Y457077D01*
X235525Y457173D01*
X235505Y457271D01*
X235487Y457369D01*
X235474Y457467D01*
X235465Y457566D01*
X235459Y457665D01*
X235457Y457765D01*
X235458Y457764D02*
X235458Y460361D01*
X241949Y467323D02*
X241949Y471217D01*
X241949Y467323D02*
X241947Y467224D01*
X241941Y467124D01*
X241932Y467025D01*
X241919Y466927D01*
X241902Y466829D01*
X241881Y466731D01*
X241856Y466635D01*
X241828Y466540D01*
X241796Y466446D01*
X241761Y466353D01*
X241722Y466261D01*
X241679Y466171D01*
X241634Y466083D01*
X241584Y465996D01*
X241532Y465912D01*
X241476Y465829D01*
X241418Y465749D01*
X241356Y465671D01*
X241291Y465596D01*
X241223Y465523D01*
X241153Y465453D01*
X241080Y465385D01*
X241005Y465320D01*
X240927Y465258D01*
X240847Y465200D01*
X240764Y465144D01*
X240680Y465092D01*
X240593Y465042D01*
X240505Y464997D01*
X240415Y464954D01*
X240323Y464915D01*
X240230Y464880D01*
X240136Y464848D01*
X240041Y464820D01*
X239945Y464795D01*
X239847Y464774D01*
X239749Y464757D01*
X239651Y464744D01*
X239552Y464735D01*
X239452Y464729D01*
X239353Y464727D01*
X239353Y464726D02*
X238704Y464726D01*
X238591Y464728D01*
X238478Y464734D01*
X238365Y464744D01*
X238252Y464758D01*
X238140Y464775D01*
X238029Y464797D01*
X237919Y464822D01*
X237809Y464852D01*
X237701Y464885D01*
X237594Y464922D01*
X237488Y464962D01*
X237384Y465007D01*
X237281Y465055D01*
X237180Y465106D01*
X237081Y465161D01*
X236984Y465219D01*
X236889Y465281D01*
X236796Y465346D01*
X236706Y465414D01*
X236618Y465485D01*
X236532Y465560D01*
X236449Y465637D01*
X236369Y465717D01*
X236292Y465800D01*
X236217Y465886D01*
X236146Y465974D01*
X236078Y466064D01*
X236013Y466157D01*
X235951Y466252D01*
X235893Y466349D01*
X235838Y466448D01*
X235787Y466549D01*
X235739Y466652D01*
X235694Y466756D01*
X235654Y466862D01*
X235617Y466969D01*
X235584Y467077D01*
X235554Y467187D01*
X235529Y467297D01*
X235507Y467408D01*
X235490Y467520D01*
X235476Y467633D01*
X235466Y467746D01*
X235460Y467859D01*
X235458Y467972D01*
X235460Y468085D01*
X235466Y468198D01*
X235476Y468311D01*
X235490Y468424D01*
X235507Y468536D01*
X235529Y468647D01*
X235554Y468757D01*
X235584Y468867D01*
X235617Y468975D01*
X235654Y469082D01*
X235694Y469188D01*
X235739Y469292D01*
X235787Y469395D01*
X235838Y469496D01*
X235893Y469595D01*
X235951Y469692D01*
X236013Y469787D01*
X236078Y469880D01*
X236146Y469970D01*
X236217Y470058D01*
X236292Y470144D01*
X236369Y470227D01*
X236449Y470307D01*
X236532Y470384D01*
X236618Y470459D01*
X236706Y470530D01*
X236796Y470598D01*
X236889Y470663D01*
X236984Y470725D01*
X237081Y470783D01*
X237180Y470838D01*
X237281Y470889D01*
X237384Y470937D01*
X237488Y470982D01*
X237594Y471022D01*
X237701Y471059D01*
X237809Y471092D01*
X237919Y471122D01*
X238029Y471147D01*
X238140Y471169D01*
X238252Y471186D01*
X238365Y471200D01*
X238478Y471210D01*
X238591Y471216D01*
X238704Y471218D01*
X238704Y471217D02*
X241949Y471217D01*
X242092Y471215D01*
X242235Y471209D01*
X242378Y471199D01*
X242520Y471185D01*
X242662Y471168D01*
X242804Y471146D01*
X242945Y471121D01*
X243085Y471091D01*
X243224Y471058D01*
X243362Y471021D01*
X243499Y470980D01*
X243635Y470936D01*
X243770Y470887D01*
X243903Y470835D01*
X244035Y470780D01*
X244165Y470720D01*
X244294Y470657D01*
X244421Y470591D01*
X244546Y470521D01*
X244668Y470448D01*
X244789Y470371D01*
X244908Y470291D01*
X245024Y470208D01*
X245139Y470122D01*
X245250Y470033D01*
X245360Y469940D01*
X245466Y469845D01*
X245570Y469746D01*
X245671Y469645D01*
X245770Y469541D01*
X245865Y469435D01*
X245958Y469325D01*
X246047Y469214D01*
X246133Y469099D01*
X246216Y468983D01*
X246296Y468864D01*
X246373Y468743D01*
X246446Y468621D01*
X246516Y468496D01*
X246582Y468369D01*
X246645Y468240D01*
X246705Y468110D01*
X246760Y467978D01*
X246812Y467845D01*
X246861Y467710D01*
X246905Y467574D01*
X246946Y467437D01*
X246983Y467299D01*
X247016Y467160D01*
X247046Y467020D01*
X247071Y466879D01*
X247093Y466737D01*
X247110Y466595D01*
X247124Y466453D01*
X247134Y466310D01*
X247140Y466167D01*
X247142Y466024D01*
D11*
X113900Y513240D02*
X113900Y537740D01*
X190900Y538240D02*
X190900Y512740D01*
X190900Y568240D02*
X190900Y582240D01*
X113900Y582240D01*
X113900Y567740D01*
X174200Y493740D02*
X184500Y493740D01*
X131300Y493740D02*
X122000Y493740D01*
D12*
X167680Y477800D02*
X167682Y477863D01*
X167688Y477925D01*
X167698Y477987D01*
X167711Y478049D01*
X167729Y478109D01*
X167750Y478168D01*
X167775Y478226D01*
X167804Y478282D01*
X167836Y478336D01*
X167871Y478388D01*
X167909Y478437D01*
X167951Y478485D01*
X167995Y478529D01*
X168043Y478571D01*
X168092Y478609D01*
X168144Y478644D01*
X168198Y478676D01*
X168254Y478705D01*
X168312Y478730D01*
X168371Y478751D01*
X168431Y478769D01*
X168493Y478782D01*
X168555Y478792D01*
X168617Y478798D01*
X168680Y478800D01*
X168743Y478798D01*
X168805Y478792D01*
X168867Y478782D01*
X168929Y478769D01*
X168989Y478751D01*
X169048Y478730D01*
X169106Y478705D01*
X169162Y478676D01*
X169216Y478644D01*
X169268Y478609D01*
X169317Y478571D01*
X169365Y478529D01*
X169409Y478485D01*
X169451Y478437D01*
X169489Y478388D01*
X169524Y478336D01*
X169556Y478282D01*
X169585Y478226D01*
X169610Y478168D01*
X169631Y478109D01*
X169649Y478049D01*
X169662Y477987D01*
X169672Y477925D01*
X169678Y477863D01*
X169680Y477800D01*
X169678Y477737D01*
X169672Y477675D01*
X169662Y477613D01*
X169649Y477551D01*
X169631Y477491D01*
X169610Y477432D01*
X169585Y477374D01*
X169556Y477318D01*
X169524Y477264D01*
X169489Y477212D01*
X169451Y477163D01*
X169409Y477115D01*
X169365Y477071D01*
X169317Y477029D01*
X169268Y476991D01*
X169216Y476956D01*
X169162Y476924D01*
X169106Y476895D01*
X169048Y476870D01*
X168989Y476849D01*
X168929Y476831D01*
X168867Y476818D01*
X168805Y476808D01*
X168743Y476802D01*
X168680Y476800D01*
X168617Y476802D01*
X168555Y476808D01*
X168493Y476818D01*
X168431Y476831D01*
X168371Y476849D01*
X168312Y476870D01*
X168254Y476895D01*
X168198Y476924D01*
X168144Y476956D01*
X168092Y476991D01*
X168043Y477029D01*
X167995Y477071D01*
X167951Y477115D01*
X167909Y477163D01*
X167871Y477212D01*
X167836Y477264D01*
X167804Y477318D01*
X167775Y477374D01*
X167750Y477432D01*
X167729Y477491D01*
X167711Y477551D01*
X167698Y477613D01*
X167688Y477675D01*
X167682Y477737D01*
X167680Y477800D01*
D10*
X78587Y493928D02*
X78587Y503036D01*
X78587Y493928D02*
X78585Y493828D01*
X78579Y493729D01*
X78570Y493630D01*
X78557Y493531D01*
X78539Y493433D01*
X78519Y493335D01*
X78494Y493239D01*
X78466Y493143D01*
X78434Y493048D01*
X78398Y492955D01*
X78359Y492864D01*
X78317Y492773D01*
X78271Y492685D01*
X78222Y492598D01*
X78169Y492514D01*
X78113Y492431D01*
X78054Y492351D01*
X77992Y492272D01*
X77928Y492197D01*
X77860Y492124D01*
X77789Y492053D01*
X77716Y491985D01*
X77641Y491921D01*
X77562Y491859D01*
X77482Y491800D01*
X77399Y491744D01*
X77315Y491691D01*
X77228Y491642D01*
X77140Y491596D01*
X77049Y491554D01*
X76958Y491515D01*
X76865Y491479D01*
X76770Y491447D01*
X76674Y491419D01*
X76578Y491394D01*
X76480Y491374D01*
X76382Y491356D01*
X76283Y491343D01*
X76184Y491334D01*
X76085Y491328D01*
X75985Y491326D01*
X75985Y491325D02*
X74684Y491325D01*
X83871Y500434D02*
X87124Y503036D01*
X87124Y491325D01*
X83871Y491325D02*
X90377Y491325D01*
X101868Y330256D02*
X101868Y326362D01*
X104140Y323441D01*
X101868Y326362D02*
X99596Y323441D01*
X101868Y326362D02*
X105438Y327660D01*
X101868Y326362D02*
X98298Y327660D01*
D13*
X205740Y426466D02*
X238760Y426466D01*
X238760Y360934D01*
X205740Y360934D01*
X205740Y426466D01*
D14*
X175980Y385572D02*
X173228Y385572D01*
X175980Y385572D02*
X176044Y385574D01*
X176108Y385580D01*
X176171Y385589D01*
X176233Y385603D01*
X176295Y385620D01*
X176355Y385641D01*
X176414Y385665D01*
X176472Y385693D01*
X176527Y385725D01*
X176581Y385759D01*
X176632Y385797D01*
X176682Y385838D01*
X176728Y385882D01*
X176772Y385928D01*
X176813Y385978D01*
X176851Y386029D01*
X176885Y386083D01*
X176917Y386138D01*
X176945Y386196D01*
X176969Y386255D01*
X176990Y386315D01*
X177007Y386377D01*
X177021Y386439D01*
X177030Y386502D01*
X177036Y386566D01*
X177038Y386630D01*
X177036Y386694D01*
X177030Y386758D01*
X177021Y386821D01*
X177007Y386883D01*
X176990Y386945D01*
X176969Y387005D01*
X176945Y387064D01*
X176917Y387122D01*
X176885Y387177D01*
X176851Y387231D01*
X176813Y387282D01*
X176772Y387332D01*
X176728Y387378D01*
X176682Y387422D01*
X176632Y387463D01*
X176581Y387501D01*
X176527Y387535D01*
X176472Y387567D01*
X176414Y387595D01*
X176355Y387619D01*
X176295Y387640D01*
X176233Y387657D01*
X176171Y387671D01*
X176108Y387680D01*
X176044Y387686D01*
X175980Y387688D01*
X175980Y387689D02*
X173228Y387689D01*
X177038Y389352D02*
X177038Y390410D01*
X177036Y390474D01*
X177030Y390538D01*
X177021Y390601D01*
X177007Y390663D01*
X176990Y390725D01*
X176969Y390785D01*
X176945Y390844D01*
X176917Y390902D01*
X176885Y390957D01*
X176851Y391011D01*
X176813Y391062D01*
X176772Y391112D01*
X176728Y391158D01*
X176682Y391202D01*
X176632Y391243D01*
X176581Y391281D01*
X176527Y391315D01*
X176472Y391347D01*
X176414Y391375D01*
X176355Y391399D01*
X176295Y391420D01*
X176233Y391437D01*
X176171Y391451D01*
X176108Y391460D01*
X176044Y391466D01*
X175980Y391468D01*
X175916Y391466D01*
X175852Y391460D01*
X175789Y391451D01*
X175727Y391437D01*
X175665Y391420D01*
X175605Y391399D01*
X175546Y391375D01*
X175488Y391347D01*
X175433Y391315D01*
X175379Y391281D01*
X175328Y391243D01*
X175278Y391202D01*
X175232Y391158D01*
X175188Y391112D01*
X175147Y391062D01*
X175109Y391011D01*
X175075Y390957D01*
X175043Y390902D01*
X175015Y390844D01*
X174991Y390785D01*
X174970Y390725D01*
X174953Y390663D01*
X174939Y390601D01*
X174930Y390538D01*
X174924Y390474D01*
X174922Y390410D01*
X173228Y390622D02*
X173228Y389352D01*
X173228Y390622D02*
X173230Y390679D01*
X173236Y390735D01*
X173245Y390791D01*
X173258Y390846D01*
X173275Y390900D01*
X173295Y390953D01*
X173319Y391004D01*
X173346Y391054D01*
X173377Y391101D01*
X173410Y391147D01*
X173447Y391190D01*
X173486Y391231D01*
X173528Y391269D01*
X173573Y391304D01*
X173619Y391336D01*
X173668Y391365D01*
X173718Y391390D01*
X173771Y391412D01*
X173824Y391431D01*
X173879Y391446D01*
X173934Y391457D01*
X173990Y391465D01*
X174047Y391469D01*
X174103Y391469D01*
X174160Y391465D01*
X174216Y391457D01*
X174271Y391446D01*
X174326Y391431D01*
X174379Y391412D01*
X174432Y391390D01*
X174482Y391365D01*
X174531Y391336D01*
X174577Y391304D01*
X174622Y391269D01*
X174664Y391231D01*
X174703Y391190D01*
X174740Y391147D01*
X174773Y391101D01*
X174804Y391054D01*
X174831Y391004D01*
X174855Y390953D01*
X174875Y390900D01*
X174892Y390846D01*
X174905Y390791D01*
X174914Y390735D01*
X174920Y390679D01*
X174922Y390622D01*
X174921Y390622D02*
X174921Y389775D01*
D15*
X95250Y177800D02*
X82550Y177800D01*
X95250Y177800D02*
X101600Y171450D01*
X101600Y158750D02*
X95250Y152400D01*
X101600Y171450D02*
X107950Y177800D01*
X120650Y177800D01*
X127000Y171450D01*
X127000Y158750D02*
X120650Y152400D01*
X107950Y152400D01*
X101600Y158750D01*
X76200Y158750D02*
X76200Y171450D01*
X82550Y177800D01*
X76200Y158750D02*
X82550Y152400D01*
X95250Y152400D01*
X127000Y171450D02*
X133350Y177800D01*
X146050Y177800D01*
X152400Y171450D01*
X152400Y158750D02*
X146050Y152400D01*
X133350Y152400D01*
X127000Y158750D01*
X158750Y177800D02*
X171450Y177800D01*
X177800Y171450D01*
X177800Y158750D02*
X171450Y152400D01*
X177800Y171450D02*
X184150Y177800D01*
X196850Y177800D01*
X203200Y171450D01*
X203200Y158750D02*
X196850Y152400D01*
X184150Y152400D01*
X177800Y158750D01*
X158750Y177800D02*
X152400Y171450D01*
X152400Y158750D02*
X158750Y152400D01*
X171450Y152400D01*
X203200Y171450D02*
X209550Y177800D01*
X222250Y177800D01*
X228600Y171450D01*
X228600Y158750D02*
X222250Y152400D01*
X209550Y152400D01*
X203200Y158750D01*
X228600Y158750D02*
X228600Y171450D01*
D11*
X86360Y147955D02*
X83185Y145415D01*
X86360Y147955D02*
X86360Y136525D01*
X83185Y136525D02*
X89535Y136525D01*
X210185Y188595D02*
X213995Y188595D01*
X214095Y188593D01*
X214194Y188587D01*
X214294Y188577D01*
X214392Y188564D01*
X214491Y188546D01*
X214588Y188525D01*
X214684Y188500D01*
X214780Y188471D01*
X214874Y188438D01*
X214967Y188402D01*
X215058Y188362D01*
X215148Y188318D01*
X215236Y188271D01*
X215322Y188221D01*
X215406Y188167D01*
X215488Y188110D01*
X215567Y188050D01*
X215645Y187986D01*
X215719Y187920D01*
X215791Y187851D01*
X215860Y187779D01*
X215926Y187705D01*
X215990Y187627D01*
X216050Y187548D01*
X216107Y187466D01*
X216161Y187382D01*
X216211Y187296D01*
X216258Y187208D01*
X216302Y187118D01*
X216342Y187027D01*
X216378Y186934D01*
X216411Y186840D01*
X216440Y186744D01*
X216465Y186648D01*
X216486Y186551D01*
X216504Y186452D01*
X216517Y186354D01*
X216527Y186254D01*
X216533Y186155D01*
X216535Y186055D01*
X216535Y185420D01*
X216533Y185309D01*
X216527Y185199D01*
X216518Y185088D01*
X216504Y184978D01*
X216487Y184869D01*
X216466Y184760D01*
X216441Y184652D01*
X216412Y184545D01*
X216380Y184439D01*
X216344Y184334D01*
X216304Y184231D01*
X216261Y184129D01*
X216214Y184028D01*
X216163Y183929D01*
X216110Y183832D01*
X216053Y183738D01*
X215992Y183645D01*
X215929Y183554D01*
X215862Y183465D01*
X215792Y183379D01*
X215719Y183296D01*
X215644Y183214D01*
X215566Y183136D01*
X215484Y183061D01*
X215401Y182988D01*
X215315Y182918D01*
X215226Y182851D01*
X215135Y182788D01*
X215042Y182727D01*
X214947Y182670D01*
X214851Y182617D01*
X214752Y182566D01*
X214651Y182519D01*
X214549Y182476D01*
X214446Y182436D01*
X214341Y182400D01*
X214235Y182368D01*
X214128Y182339D01*
X214020Y182314D01*
X213911Y182293D01*
X213802Y182276D01*
X213692Y182262D01*
X213581Y182253D01*
X213471Y182247D01*
X213360Y182245D01*
X213249Y182247D01*
X213139Y182253D01*
X213028Y182262D01*
X212918Y182276D01*
X212809Y182293D01*
X212700Y182314D01*
X212592Y182339D01*
X212485Y182368D01*
X212379Y182400D01*
X212274Y182436D01*
X212171Y182476D01*
X212069Y182519D01*
X211968Y182566D01*
X211869Y182617D01*
X211773Y182670D01*
X211678Y182727D01*
X211585Y182788D01*
X211494Y182851D01*
X211405Y182918D01*
X211319Y182988D01*
X211236Y183061D01*
X211154Y183136D01*
X211076Y183214D01*
X211001Y183296D01*
X210928Y183379D01*
X210858Y183465D01*
X210791Y183554D01*
X210728Y183645D01*
X210667Y183738D01*
X210610Y183833D01*
X210557Y183929D01*
X210506Y184028D01*
X210459Y184129D01*
X210416Y184231D01*
X210376Y184334D01*
X210340Y184439D01*
X210308Y184545D01*
X210279Y184652D01*
X210254Y184760D01*
X210233Y184869D01*
X210216Y184978D01*
X210202Y185088D01*
X210193Y185199D01*
X210187Y185309D01*
X210185Y185420D01*
X210185Y188595D01*
X210187Y188735D01*
X210193Y188875D01*
X210202Y189015D01*
X210216Y189154D01*
X210233Y189293D01*
X210254Y189431D01*
X210279Y189569D01*
X210308Y189706D01*
X210340Y189842D01*
X210377Y189977D01*
X210417Y190111D01*
X210460Y190244D01*
X210508Y190376D01*
X210558Y190507D01*
X210613Y190636D01*
X210671Y190763D01*
X210732Y190889D01*
X210797Y191013D01*
X210866Y191135D01*
X210937Y191255D01*
X211012Y191373D01*
X211090Y191490D01*
X211172Y191604D01*
X211256Y191715D01*
X211344Y191824D01*
X211434Y191931D01*
X211528Y192036D01*
X211624Y192137D01*
X211723Y192236D01*
X211824Y192332D01*
X211929Y192426D01*
X212036Y192516D01*
X212145Y192604D01*
X212256Y192688D01*
X212370Y192770D01*
X212487Y192848D01*
X212605Y192923D01*
X212725Y192994D01*
X212847Y193063D01*
X212971Y193128D01*
X213097Y193189D01*
X213224Y193247D01*
X213353Y193302D01*
X213484Y193352D01*
X213616Y193400D01*
X213749Y193443D01*
X213883Y193483D01*
X214018Y193520D01*
X214154Y193552D01*
X214291Y193581D01*
X214429Y193606D01*
X214567Y193627D01*
X214706Y193644D01*
X214845Y193658D01*
X214985Y193667D01*
X215125Y193673D01*
X215265Y193675D01*
X83185Y184785D02*
X83183Y184685D01*
X83177Y184586D01*
X83167Y184486D01*
X83154Y184388D01*
X83136Y184289D01*
X83115Y184192D01*
X83090Y184096D01*
X83061Y184000D01*
X83028Y183906D01*
X82992Y183813D01*
X82952Y183722D01*
X82908Y183632D01*
X82861Y183544D01*
X82811Y183458D01*
X82757Y183374D01*
X82700Y183292D01*
X82640Y183213D01*
X82576Y183135D01*
X82510Y183061D01*
X82441Y182989D01*
X82369Y182920D01*
X82295Y182854D01*
X82217Y182790D01*
X82138Y182730D01*
X82056Y182673D01*
X81972Y182619D01*
X81886Y182569D01*
X81798Y182522D01*
X81708Y182478D01*
X81617Y182438D01*
X81524Y182402D01*
X81430Y182369D01*
X81334Y182340D01*
X81238Y182315D01*
X81141Y182294D01*
X81042Y182276D01*
X80944Y182263D01*
X80844Y182253D01*
X80745Y182247D01*
X80645Y182245D01*
X80504Y182247D01*
X80363Y182252D01*
X80222Y182262D01*
X80081Y182275D01*
X79941Y182291D01*
X79801Y182312D01*
X79662Y182336D01*
X79523Y182364D01*
X79386Y182395D01*
X79249Y182430D01*
X79113Y182468D01*
X78978Y182510D01*
X78845Y182556D01*
X78712Y182605D01*
X78581Y182658D01*
X78452Y182714D01*
X78323Y182773D01*
X78197Y182836D01*
X78072Y182902D01*
X77949Y182971D01*
X77828Y183044D01*
X77709Y183120D01*
X77591Y183199D01*
X77476Y183280D01*
X77364Y183365D01*
X77253Y183453D01*
X77145Y183544D01*
X77039Y183637D01*
X76936Y183734D01*
X76835Y183833D01*
X77153Y191135D02*
X77155Y191235D01*
X77161Y191334D01*
X77171Y191434D01*
X77184Y191532D01*
X77202Y191631D01*
X77223Y191728D01*
X77248Y191824D01*
X77277Y191920D01*
X77310Y192014D01*
X77346Y192107D01*
X77386Y192198D01*
X77430Y192288D01*
X77477Y192376D01*
X77527Y192462D01*
X77581Y192546D01*
X77638Y192628D01*
X77698Y192707D01*
X77762Y192785D01*
X77828Y192859D01*
X77897Y192931D01*
X77969Y193000D01*
X78043Y193066D01*
X78121Y193130D01*
X78200Y193190D01*
X78282Y193247D01*
X78366Y193301D01*
X78452Y193351D01*
X78540Y193398D01*
X78630Y193442D01*
X78721Y193482D01*
X78814Y193518D01*
X78908Y193551D01*
X79004Y193580D01*
X79100Y193605D01*
X79197Y193626D01*
X79296Y193644D01*
X79394Y193657D01*
X79494Y193667D01*
X79593Y193673D01*
X79693Y193675D01*
X79693Y193676D02*
X79826Y193674D01*
X79959Y193669D01*
X80092Y193659D01*
X80225Y193646D01*
X80357Y193629D01*
X80489Y193609D01*
X80620Y193585D01*
X80750Y193557D01*
X80880Y193526D01*
X81008Y193491D01*
X81136Y193452D01*
X81262Y193410D01*
X81387Y193364D01*
X81511Y193315D01*
X81634Y193263D01*
X81755Y193207D01*
X81874Y193147D01*
X81992Y193085D01*
X82107Y193019D01*
X82221Y192950D01*
X82333Y192877D01*
X82443Y192802D01*
X82551Y192723D01*
X78422Y188912D02*
X78338Y188964D01*
X78255Y189019D01*
X78175Y189078D01*
X78097Y189139D01*
X78022Y189203D01*
X77949Y189271D01*
X77878Y189341D01*
X77811Y189413D01*
X77746Y189488D01*
X77684Y189566D01*
X77625Y189646D01*
X77569Y189728D01*
X77517Y189812D01*
X77468Y189898D01*
X77422Y189986D01*
X77379Y190076D01*
X77340Y190167D01*
X77305Y190260D01*
X77273Y190354D01*
X77245Y190449D01*
X77220Y190545D01*
X77200Y190642D01*
X77182Y190740D01*
X77169Y190838D01*
X77160Y190937D01*
X77154Y191036D01*
X77152Y191135D01*
X81915Y187008D02*
X81999Y186956D01*
X82082Y186901D01*
X82162Y186842D01*
X82240Y186781D01*
X82315Y186717D01*
X82388Y186649D01*
X82459Y186579D01*
X82526Y186507D01*
X82591Y186432D01*
X82653Y186354D01*
X82712Y186274D01*
X82768Y186192D01*
X82820Y186108D01*
X82869Y186022D01*
X82915Y185934D01*
X82958Y185844D01*
X82997Y185753D01*
X83032Y185660D01*
X83064Y185566D01*
X83092Y185471D01*
X83117Y185375D01*
X83137Y185278D01*
X83155Y185180D01*
X83168Y185082D01*
X83177Y184983D01*
X83183Y184884D01*
X83185Y184785D01*
X81915Y187008D02*
X78423Y188913D01*
X87249Y193675D02*
X91059Y182245D01*
X94869Y193675D01*
X99314Y191135D02*
X102489Y193675D01*
X102489Y182245D01*
X99314Y182245D02*
X105664Y182245D01*
D16*
X215518Y434103D02*
X215518Y441469D01*
X217564Y441469D01*
X217653Y441467D01*
X217742Y441461D01*
X217831Y441451D01*
X217919Y441438D01*
X218007Y441421D01*
X218094Y441399D01*
X218179Y441374D01*
X218264Y441346D01*
X218347Y441313D01*
X218429Y441277D01*
X218509Y441238D01*
X218587Y441195D01*
X218663Y441149D01*
X218738Y441099D01*
X218810Y441046D01*
X218879Y440990D01*
X218946Y440931D01*
X219011Y440870D01*
X219072Y440805D01*
X219131Y440738D01*
X219187Y440669D01*
X219240Y440597D01*
X219290Y440522D01*
X219336Y440446D01*
X219379Y440368D01*
X219418Y440288D01*
X219454Y440206D01*
X219487Y440123D01*
X219515Y440038D01*
X219540Y439953D01*
X219562Y439866D01*
X219579Y439778D01*
X219592Y439690D01*
X219602Y439601D01*
X219608Y439512D01*
X219610Y439423D01*
X219610Y436149D01*
X219608Y436060D01*
X219602Y435971D01*
X219592Y435882D01*
X219579Y435794D01*
X219562Y435706D01*
X219540Y435619D01*
X219515Y435534D01*
X219487Y435449D01*
X219454Y435366D01*
X219418Y435284D01*
X219379Y435204D01*
X219336Y435126D01*
X219290Y435050D01*
X219240Y434975D01*
X219187Y434903D01*
X219131Y434834D01*
X219072Y434767D01*
X219011Y434702D01*
X218946Y434641D01*
X218879Y434582D01*
X218810Y434526D01*
X218738Y434473D01*
X218663Y434423D01*
X218587Y434377D01*
X218509Y434334D01*
X218429Y434295D01*
X218347Y434259D01*
X218264Y434226D01*
X218179Y434198D01*
X218094Y434173D01*
X218007Y434151D01*
X217919Y434134D01*
X217831Y434121D01*
X217742Y434111D01*
X217653Y434105D01*
X217564Y434103D01*
X215518Y434103D01*
X223077Y439832D02*
X225123Y441469D01*
X225123Y434103D01*
X223077Y434103D02*
X227169Y434103D01*
D15*
X63799Y54642D02*
X64018Y54342D01*
X64245Y54048D01*
X64479Y53760D01*
X64720Y53477D01*
X64967Y53200D01*
X65222Y52929D01*
X65483Y52665D01*
X65750Y52407D01*
X66023Y52156D01*
X66303Y51911D01*
X66588Y51673D01*
X66879Y51443D01*
X67176Y51219D01*
X67478Y51003D01*
X67785Y50794D01*
X68097Y50593D01*
X68414Y50399D01*
X68736Y50213D01*
X69062Y50035D01*
X69392Y49865D01*
X69726Y49703D01*
X70064Y49550D01*
X70406Y49404D01*
X70751Y49267D01*
X71100Y49139D01*
X71451Y49019D01*
X71806Y48907D01*
X72163Y48805D01*
X72522Y48710D01*
X72883Y48625D01*
X73247Y48549D01*
X73612Y48481D01*
X73979Y48423D01*
X74347Y48373D01*
X74716Y48332D01*
X75086Y48301D01*
X75457Y48278D01*
X75828Y48265D01*
X76200Y48260D01*
X76572Y48265D01*
X76943Y48278D01*
X77315Y48301D01*
X77685Y48333D01*
X78055Y48373D01*
X78423Y48423D01*
X78791Y48482D01*
X79156Y48549D01*
X79520Y48626D01*
X79882Y48712D01*
X80242Y48806D01*
X80599Y48909D01*
X80954Y49020D01*
X81306Y49141D01*
X81655Y49270D01*
X82000Y49407D01*
X82342Y49553D01*
X82681Y49707D01*
X83016Y49869D01*
X83346Y50039D01*
X83672Y50218D01*
X83994Y50404D01*
X84312Y50598D01*
X84624Y50800D01*
X84931Y51009D01*
X85233Y51226D01*
X85530Y51450D01*
X85822Y51681D01*
X86107Y51919D01*
X86387Y52165D01*
X86660Y52417D01*
X86928Y52675D01*
X87188Y52940D01*
X87443Y53211D01*
X87691Y53489D01*
X87931Y53772D01*
X88165Y54061D01*
X88392Y54356D01*
X76200Y78740D02*
X75835Y78736D01*
X75470Y78723D01*
X75106Y78701D01*
X74743Y78670D01*
X74380Y78631D01*
X74018Y78583D01*
X73658Y78526D01*
X73299Y78461D01*
X72941Y78388D01*
X72586Y78305D01*
X72233Y78215D01*
X71881Y78115D01*
X71533Y78008D01*
X71187Y77892D01*
X70844Y77768D01*
X70504Y77635D01*
X70167Y77495D01*
X69834Y77347D01*
X69504Y77190D01*
X69178Y77026D01*
X68856Y76854D01*
X68539Y76674D01*
X68226Y76487D01*
X67917Y76293D01*
X67613Y76091D01*
X67314Y75881D01*
X67020Y75665D01*
X66732Y75442D01*
X66449Y75212D01*
X66171Y74975D01*
X65899Y74732D01*
X65633Y74482D01*
X65373Y74226D01*
X65120Y73963D01*
X64872Y73695D01*
X64632Y73421D01*
X64397Y73141D01*
X64170Y72856D01*
X76200Y78740D02*
X76565Y78736D01*
X76930Y78723D01*
X77294Y78701D01*
X77657Y78670D01*
X78020Y78631D01*
X78382Y78583D01*
X78742Y78526D01*
X79101Y78461D01*
X79459Y78388D01*
X79814Y78305D01*
X80167Y78215D01*
X80519Y78115D01*
X80867Y78008D01*
X81213Y77892D01*
X81556Y77768D01*
X81896Y77635D01*
X82233Y77495D01*
X82566Y77347D01*
X82896Y77190D01*
X83222Y77026D01*
X83544Y76854D01*
X83861Y76674D01*
X84174Y76487D01*
X84483Y76293D01*
X84787Y76091D01*
X85086Y75881D01*
X85380Y75665D01*
X85668Y75442D01*
X85951Y75212D01*
X86229Y74975D01*
X86501Y74732D01*
X86767Y74482D01*
X87027Y74226D01*
X87280Y73963D01*
X87528Y73695D01*
X87768Y73421D01*
X88003Y73141D01*
X88230Y72856D01*
D17*
X76200Y43180D02*
X75706Y43186D01*
X75212Y43204D01*
X74718Y43234D01*
X74225Y43276D01*
X73734Y43330D01*
X73244Y43396D01*
X72756Y43474D01*
X72269Y43564D01*
X71785Y43665D01*
X71304Y43779D01*
X70826Y43904D01*
X70350Y44040D01*
X69879Y44188D01*
X69411Y44348D01*
X68947Y44519D01*
X68487Y44701D01*
X68032Y44894D01*
X67581Y45098D01*
X67136Y45313D01*
X66696Y45539D01*
X66262Y45776D01*
X65834Y46023D01*
X65412Y46280D01*
X64996Y46548D01*
X64587Y46826D01*
X64185Y47113D01*
X63789Y47410D01*
X63402Y47717D01*
X63021Y48033D01*
X62649Y48358D01*
X62284Y48693D01*
X61928Y49036D01*
X61581Y49387D01*
X61241Y49747D01*
X60911Y50115D01*
X60590Y50491D01*
X76200Y43180D02*
X76688Y43186D01*
X77175Y43203D01*
X77662Y43233D01*
X78149Y43274D01*
X78634Y43326D01*
X79118Y43391D01*
X79600Y43467D01*
X80080Y43554D01*
X80558Y43653D01*
X81033Y43763D01*
X81506Y43885D01*
X81975Y44018D01*
X82442Y44163D01*
X82904Y44318D01*
X83363Y44485D01*
X83818Y44662D01*
X84268Y44851D01*
X84713Y45050D01*
X85154Y45260D01*
X85590Y45480D01*
X86020Y45711D01*
X86444Y45952D01*
X86862Y46203D01*
X87275Y46464D01*
X87681Y46735D01*
X88080Y47015D01*
X88473Y47305D01*
X88858Y47605D01*
X89236Y47914D01*
X89607Y48231D01*
X89969Y48558D01*
X90324Y48893D01*
X90671Y49236D01*
X91009Y49588D01*
X91339Y49947D01*
X91660Y50315D01*
X91973Y50690D01*
X92276Y51073D01*
X92570Y51462D01*
X92854Y51859D01*
X93129Y52262D01*
X93394Y52672D01*
X93649Y53088D01*
X93894Y53510D01*
X94129Y53938D01*
X76200Y83820D02*
X75710Y83814D01*
X75220Y83796D01*
X74731Y83767D01*
X74242Y83725D01*
X73755Y83672D01*
X73269Y83608D01*
X72785Y83531D01*
X72303Y83443D01*
X71823Y83343D01*
X71345Y83232D01*
X70871Y83109D01*
X70399Y82974D01*
X69931Y82829D01*
X69467Y82672D01*
X69006Y82504D01*
X68550Y82325D01*
X68098Y82135D01*
X67651Y81934D01*
X67209Y81722D01*
X66772Y81500D01*
X66340Y81268D01*
X65914Y81025D01*
X65495Y80771D01*
X65081Y80508D01*
X64674Y80235D01*
X64274Y79952D01*
X63880Y79659D01*
X63494Y79358D01*
X63115Y79046D01*
X62744Y78726D01*
X62381Y78397D01*
X62025Y78060D01*
X61678Y77713D01*
X61340Y77359D01*
X61010Y76996D01*
X60688Y76626D01*
X76200Y83820D02*
X76697Y83814D01*
X77194Y83796D01*
X77690Y83765D01*
X78185Y83723D01*
X78679Y83668D01*
X79172Y83602D01*
X79662Y83523D01*
X80151Y83432D01*
X80637Y83330D01*
X81121Y83215D01*
X81601Y83089D01*
X82079Y82951D01*
X82553Y82802D01*
X83023Y82641D01*
X83489Y82468D01*
X83951Y82284D01*
X84408Y82089D01*
X84860Y81883D01*
X85307Y81666D01*
X85748Y81437D01*
X86184Y81199D01*
X86614Y80949D01*
X87037Y80689D01*
X87455Y80419D01*
X87865Y80139D01*
X88268Y79849D01*
X88665Y79549D01*
X89053Y79239D01*
X89434Y78920D01*
X89807Y78592D01*
X90172Y78255D01*
X90529Y77909D01*
X90877Y77554D01*
X91216Y77191D01*
X91547Y76820D01*
X91868Y76440D01*
X92180Y76053D01*
X92482Y75659D01*
X92774Y75257D01*
X93057Y74848D01*
X93329Y74433D01*
X93592Y74010D01*
X93843Y73582D01*
D10*
X69342Y57658D02*
X57658Y57658D01*
X57658Y60904D01*
X57660Y61017D01*
X57666Y61130D01*
X57676Y61243D01*
X57690Y61356D01*
X57707Y61468D01*
X57729Y61579D01*
X57754Y61689D01*
X57784Y61799D01*
X57817Y61907D01*
X57854Y62014D01*
X57894Y62120D01*
X57939Y62224D01*
X57987Y62327D01*
X58038Y62428D01*
X58093Y62527D01*
X58151Y62624D01*
X58213Y62719D01*
X58278Y62812D01*
X58346Y62902D01*
X58417Y62990D01*
X58492Y63076D01*
X58569Y63159D01*
X58649Y63239D01*
X58732Y63316D01*
X58818Y63391D01*
X58906Y63462D01*
X58996Y63530D01*
X59089Y63595D01*
X59184Y63657D01*
X59281Y63715D01*
X59380Y63770D01*
X59481Y63821D01*
X59584Y63869D01*
X59688Y63914D01*
X59794Y63954D01*
X59901Y63991D01*
X60009Y64024D01*
X60119Y64054D01*
X60229Y64079D01*
X60340Y64101D01*
X60452Y64118D01*
X60565Y64132D01*
X60678Y64142D01*
X60791Y64148D01*
X60904Y64150D01*
X60904Y64149D02*
X66096Y64149D01*
X66096Y64150D02*
X66209Y64148D01*
X66322Y64142D01*
X66435Y64132D01*
X66548Y64118D01*
X66660Y64101D01*
X66771Y64079D01*
X66881Y64054D01*
X66991Y64024D01*
X67099Y63991D01*
X67206Y63954D01*
X67312Y63914D01*
X67416Y63869D01*
X67519Y63821D01*
X67620Y63770D01*
X67719Y63715D01*
X67816Y63657D01*
X67911Y63595D01*
X68004Y63530D01*
X68094Y63462D01*
X68182Y63391D01*
X68268Y63316D01*
X68351Y63239D01*
X68431Y63159D01*
X68508Y63076D01*
X68583Y62990D01*
X68654Y62902D01*
X68722Y62812D01*
X68787Y62719D01*
X68849Y62624D01*
X68907Y62527D01*
X68962Y62428D01*
X69013Y62327D01*
X69061Y62224D01*
X69106Y62120D01*
X69146Y62014D01*
X69183Y61907D01*
X69216Y61799D01*
X69246Y61689D01*
X69271Y61579D01*
X69293Y61468D01*
X69310Y61356D01*
X69324Y61243D01*
X69334Y61130D01*
X69340Y61017D01*
X69342Y60904D01*
X69342Y57658D01*
X57658Y73039D02*
X57660Y73146D01*
X57666Y73252D01*
X57676Y73358D01*
X57689Y73464D01*
X57707Y73570D01*
X57728Y73674D01*
X57753Y73778D01*
X57782Y73881D01*
X57814Y73982D01*
X57851Y74082D01*
X57891Y74181D01*
X57934Y74279D01*
X57981Y74375D01*
X58032Y74469D01*
X58086Y74561D01*
X58143Y74651D01*
X58203Y74739D01*
X58267Y74824D01*
X58334Y74907D01*
X58404Y74988D01*
X58476Y75066D01*
X58552Y75142D01*
X58630Y75214D01*
X58711Y75284D01*
X58794Y75351D01*
X58879Y75415D01*
X58967Y75475D01*
X59057Y75532D01*
X59149Y75586D01*
X59243Y75637D01*
X59339Y75684D01*
X59437Y75727D01*
X59536Y75767D01*
X59636Y75804D01*
X59737Y75836D01*
X59840Y75865D01*
X59944Y75890D01*
X60048Y75911D01*
X60154Y75929D01*
X60260Y75942D01*
X60366Y75952D01*
X60472Y75958D01*
X60579Y75960D01*
X57658Y73039D02*
X57660Y72918D01*
X57666Y72797D01*
X57676Y72677D01*
X57689Y72556D01*
X57707Y72437D01*
X57728Y72317D01*
X57753Y72199D01*
X57782Y72082D01*
X57815Y71965D01*
X57851Y71850D01*
X57892Y71736D01*
X57935Y71623D01*
X57983Y71511D01*
X58034Y71402D01*
X58089Y71294D01*
X58147Y71187D01*
X58208Y71083D01*
X58273Y70981D01*
X58341Y70881D01*
X58412Y70783D01*
X58486Y70687D01*
X58563Y70594D01*
X58644Y70504D01*
X58727Y70416D01*
X58813Y70331D01*
X58902Y70248D01*
X58993Y70169D01*
X59087Y70092D01*
X59183Y70019D01*
X59281Y69949D01*
X59382Y69882D01*
X59485Y69818D01*
X59590Y69758D01*
X59697Y69700D01*
X59805Y69647D01*
X59915Y69597D01*
X60027Y69551D01*
X60140Y69508D01*
X60255Y69469D01*
X62851Y74986D02*
X62773Y75065D01*
X62693Y75141D01*
X62610Y75214D01*
X62524Y75284D01*
X62437Y75351D01*
X62346Y75415D01*
X62254Y75475D01*
X62160Y75533D01*
X62063Y75587D01*
X61965Y75637D01*
X61865Y75684D01*
X61764Y75728D01*
X61661Y75768D01*
X61556Y75804D01*
X61451Y75836D01*
X61344Y75865D01*
X61237Y75890D01*
X61128Y75912D01*
X61019Y75929D01*
X60910Y75943D01*
X60800Y75952D01*
X60689Y75958D01*
X60579Y75960D01*
X62851Y74986D02*
X69342Y69469D01*
X69342Y75960D01*
X76708Y105918D02*
X88392Y105918D01*
X76708Y105918D02*
X76708Y109164D01*
X76710Y109277D01*
X76716Y109390D01*
X76726Y109503D01*
X76740Y109616D01*
X76757Y109728D01*
X76779Y109839D01*
X76804Y109949D01*
X76834Y110059D01*
X76867Y110167D01*
X76904Y110274D01*
X76944Y110380D01*
X76989Y110484D01*
X77037Y110587D01*
X77088Y110688D01*
X77143Y110787D01*
X77201Y110884D01*
X77263Y110979D01*
X77328Y111072D01*
X77396Y111162D01*
X77467Y111250D01*
X77542Y111336D01*
X77619Y111419D01*
X77699Y111499D01*
X77782Y111576D01*
X77868Y111651D01*
X77956Y111722D01*
X78046Y111790D01*
X78139Y111855D01*
X78234Y111917D01*
X78331Y111975D01*
X78430Y112030D01*
X78531Y112081D01*
X78634Y112129D01*
X78738Y112174D01*
X78844Y112214D01*
X78951Y112251D01*
X79059Y112284D01*
X79169Y112314D01*
X79279Y112339D01*
X79390Y112361D01*
X79502Y112378D01*
X79615Y112392D01*
X79728Y112402D01*
X79841Y112408D01*
X79954Y112410D01*
X80067Y112408D01*
X80180Y112402D01*
X80293Y112392D01*
X80406Y112378D01*
X80518Y112361D01*
X80629Y112339D01*
X80739Y112314D01*
X80849Y112284D01*
X80957Y112251D01*
X81064Y112214D01*
X81170Y112174D01*
X81274Y112129D01*
X81377Y112081D01*
X81478Y112030D01*
X81577Y111975D01*
X81674Y111917D01*
X81769Y111855D01*
X81862Y111790D01*
X81952Y111722D01*
X82040Y111651D01*
X82126Y111576D01*
X82209Y111499D01*
X82289Y111419D01*
X82366Y111336D01*
X82441Y111250D01*
X82512Y111162D01*
X82580Y111072D01*
X82645Y110979D01*
X82707Y110884D01*
X82765Y110787D01*
X82820Y110688D01*
X82871Y110587D01*
X82919Y110484D01*
X82964Y110380D01*
X83004Y110274D01*
X83041Y110167D01*
X83074Y110059D01*
X83104Y109949D01*
X83129Y109839D01*
X83151Y109728D01*
X83168Y109616D01*
X83182Y109503D01*
X83192Y109390D01*
X83198Y109277D01*
X83200Y109164D01*
X83199Y109164D02*
X83199Y105918D01*
X83199Y109813D02*
X88392Y112409D01*
X79304Y117274D02*
X76708Y120520D01*
X88392Y120520D01*
X88392Y123765D02*
X88392Y117274D01*
D15*
X114599Y54642D02*
X114818Y54342D01*
X115045Y54048D01*
X115279Y53760D01*
X115520Y53477D01*
X115767Y53200D01*
X116022Y52929D01*
X116283Y52665D01*
X116550Y52407D01*
X116823Y52156D01*
X117103Y51911D01*
X117388Y51673D01*
X117679Y51443D01*
X117976Y51219D01*
X118278Y51003D01*
X118585Y50794D01*
X118897Y50593D01*
X119214Y50399D01*
X119536Y50213D01*
X119862Y50035D01*
X120192Y49865D01*
X120526Y49703D01*
X120864Y49550D01*
X121206Y49404D01*
X121551Y49267D01*
X121900Y49139D01*
X122251Y49019D01*
X122606Y48907D01*
X122963Y48805D01*
X123322Y48710D01*
X123683Y48625D01*
X124047Y48549D01*
X124412Y48481D01*
X124779Y48423D01*
X125147Y48373D01*
X125516Y48332D01*
X125886Y48301D01*
X126257Y48278D01*
X126628Y48265D01*
X127000Y48260D01*
X127372Y48265D01*
X127743Y48278D01*
X128115Y48301D01*
X128485Y48333D01*
X128855Y48373D01*
X129223Y48423D01*
X129591Y48482D01*
X129956Y48549D01*
X130320Y48626D01*
X130682Y48712D01*
X131042Y48806D01*
X131399Y48909D01*
X131754Y49020D01*
X132106Y49141D01*
X132455Y49270D01*
X132800Y49407D01*
X133142Y49553D01*
X133481Y49707D01*
X133816Y49869D01*
X134146Y50039D01*
X134472Y50218D01*
X134794Y50404D01*
X135112Y50598D01*
X135424Y50800D01*
X135731Y51009D01*
X136033Y51226D01*
X136330Y51450D01*
X136622Y51681D01*
X136907Y51919D01*
X137187Y52165D01*
X137460Y52417D01*
X137728Y52675D01*
X137988Y52940D01*
X138243Y53211D01*
X138491Y53489D01*
X138731Y53772D01*
X138965Y54061D01*
X139192Y54356D01*
X127000Y78740D02*
X126635Y78736D01*
X126270Y78723D01*
X125906Y78701D01*
X125543Y78670D01*
X125180Y78631D01*
X124818Y78583D01*
X124458Y78526D01*
X124099Y78461D01*
X123741Y78388D01*
X123386Y78305D01*
X123033Y78215D01*
X122681Y78115D01*
X122333Y78008D01*
X121987Y77892D01*
X121644Y77768D01*
X121304Y77635D01*
X120967Y77495D01*
X120634Y77347D01*
X120304Y77190D01*
X119978Y77026D01*
X119656Y76854D01*
X119339Y76674D01*
X119026Y76487D01*
X118717Y76293D01*
X118413Y76091D01*
X118114Y75881D01*
X117820Y75665D01*
X117532Y75442D01*
X117249Y75212D01*
X116971Y74975D01*
X116699Y74732D01*
X116433Y74482D01*
X116173Y74226D01*
X115920Y73963D01*
X115672Y73695D01*
X115432Y73421D01*
X115197Y73141D01*
X114970Y72856D01*
X127000Y78740D02*
X127365Y78736D01*
X127730Y78723D01*
X128094Y78701D01*
X128457Y78670D01*
X128820Y78631D01*
X129182Y78583D01*
X129542Y78526D01*
X129901Y78461D01*
X130259Y78388D01*
X130614Y78305D01*
X130967Y78215D01*
X131319Y78115D01*
X131667Y78008D01*
X132013Y77892D01*
X132356Y77768D01*
X132696Y77635D01*
X133033Y77495D01*
X133366Y77347D01*
X133696Y77190D01*
X134022Y77026D01*
X134344Y76854D01*
X134661Y76674D01*
X134974Y76487D01*
X135283Y76293D01*
X135587Y76091D01*
X135886Y75881D01*
X136180Y75665D01*
X136468Y75442D01*
X136751Y75212D01*
X137029Y74975D01*
X137301Y74732D01*
X137567Y74482D01*
X137827Y74226D01*
X138080Y73963D01*
X138328Y73695D01*
X138568Y73421D01*
X138803Y73141D01*
X139030Y72856D01*
D17*
X127000Y43180D02*
X126506Y43186D01*
X126012Y43204D01*
X125518Y43234D01*
X125025Y43276D01*
X124534Y43330D01*
X124044Y43396D01*
X123556Y43474D01*
X123069Y43564D01*
X122585Y43665D01*
X122104Y43779D01*
X121626Y43904D01*
X121150Y44040D01*
X120679Y44188D01*
X120211Y44348D01*
X119747Y44519D01*
X119287Y44701D01*
X118832Y44894D01*
X118381Y45098D01*
X117936Y45313D01*
X117496Y45539D01*
X117062Y45776D01*
X116634Y46023D01*
X116212Y46280D01*
X115796Y46548D01*
X115387Y46826D01*
X114985Y47113D01*
X114589Y47410D01*
X114202Y47717D01*
X113821Y48033D01*
X113449Y48358D01*
X113084Y48693D01*
X112728Y49036D01*
X112381Y49387D01*
X112041Y49747D01*
X111711Y50115D01*
X111390Y50491D01*
X127000Y43180D02*
X127488Y43186D01*
X127975Y43203D01*
X128462Y43233D01*
X128949Y43274D01*
X129434Y43326D01*
X129918Y43391D01*
X130400Y43467D01*
X130880Y43554D01*
X131358Y43653D01*
X131833Y43763D01*
X132306Y43885D01*
X132775Y44018D01*
X133242Y44163D01*
X133704Y44318D01*
X134163Y44485D01*
X134618Y44662D01*
X135068Y44851D01*
X135513Y45050D01*
X135954Y45260D01*
X136390Y45480D01*
X136820Y45711D01*
X137244Y45952D01*
X137662Y46203D01*
X138075Y46464D01*
X138481Y46735D01*
X138880Y47015D01*
X139273Y47305D01*
X139658Y47605D01*
X140036Y47914D01*
X140407Y48231D01*
X140769Y48558D01*
X141124Y48893D01*
X141471Y49236D01*
X141809Y49588D01*
X142139Y49947D01*
X142460Y50315D01*
X142773Y50690D01*
X143076Y51073D01*
X143370Y51462D01*
X143654Y51859D01*
X143929Y52262D01*
X144194Y52672D01*
X144449Y53088D01*
X144694Y53510D01*
X144929Y53938D01*
X127000Y83820D02*
X126510Y83814D01*
X126020Y83796D01*
X125531Y83767D01*
X125042Y83725D01*
X124555Y83672D01*
X124069Y83608D01*
X123585Y83531D01*
X123103Y83443D01*
X122623Y83343D01*
X122145Y83232D01*
X121671Y83109D01*
X121199Y82974D01*
X120731Y82829D01*
X120267Y82672D01*
X119806Y82504D01*
X119350Y82325D01*
X118898Y82135D01*
X118451Y81934D01*
X118009Y81722D01*
X117572Y81500D01*
X117140Y81268D01*
X116714Y81025D01*
X116295Y80771D01*
X115881Y80508D01*
X115474Y80235D01*
X115074Y79952D01*
X114680Y79659D01*
X114294Y79358D01*
X113915Y79046D01*
X113544Y78726D01*
X113181Y78397D01*
X112825Y78060D01*
X112478Y77713D01*
X112140Y77359D01*
X111810Y76996D01*
X111488Y76626D01*
X127000Y83820D02*
X127497Y83814D01*
X127994Y83796D01*
X128490Y83765D01*
X128985Y83723D01*
X129479Y83668D01*
X129972Y83602D01*
X130462Y83523D01*
X130951Y83432D01*
X131437Y83330D01*
X131921Y83215D01*
X132401Y83089D01*
X132879Y82951D01*
X133353Y82802D01*
X133823Y82641D01*
X134289Y82468D01*
X134751Y82284D01*
X135208Y82089D01*
X135660Y81883D01*
X136107Y81666D01*
X136548Y81437D01*
X136984Y81199D01*
X137414Y80949D01*
X137837Y80689D01*
X138255Y80419D01*
X138665Y80139D01*
X139068Y79849D01*
X139465Y79549D01*
X139853Y79239D01*
X140234Y78920D01*
X140607Y78592D01*
X140972Y78255D01*
X141329Y77909D01*
X141677Y77554D01*
X142016Y77191D01*
X142347Y76820D01*
X142668Y76440D01*
X142980Y76053D01*
X143282Y75659D01*
X143574Y75257D01*
X143857Y74848D01*
X144129Y74433D01*
X144392Y74010D01*
X144643Y73582D01*
D11*
X89154Y59055D02*
X89154Y47625D01*
X89154Y59055D02*
X92329Y59055D01*
X92440Y59053D01*
X92550Y59047D01*
X92661Y59038D01*
X92771Y59024D01*
X92880Y59007D01*
X92989Y58986D01*
X93097Y58961D01*
X93204Y58932D01*
X93310Y58900D01*
X93415Y58864D01*
X93518Y58824D01*
X93620Y58781D01*
X93721Y58734D01*
X93820Y58683D01*
X93917Y58630D01*
X94011Y58573D01*
X94104Y58512D01*
X94195Y58449D01*
X94284Y58382D01*
X94370Y58312D01*
X94453Y58239D01*
X94535Y58164D01*
X94613Y58086D01*
X94688Y58004D01*
X94761Y57921D01*
X94831Y57835D01*
X94898Y57746D01*
X94961Y57655D01*
X95022Y57562D01*
X95079Y57468D01*
X95132Y57371D01*
X95183Y57272D01*
X95230Y57171D01*
X95273Y57069D01*
X95313Y56966D01*
X95349Y56861D01*
X95381Y56755D01*
X95410Y56648D01*
X95435Y56540D01*
X95456Y56431D01*
X95473Y56322D01*
X95487Y56212D01*
X95496Y56101D01*
X95502Y55991D01*
X95504Y55880D01*
X95504Y50800D01*
X95502Y50689D01*
X95496Y50579D01*
X95487Y50468D01*
X95473Y50358D01*
X95456Y50249D01*
X95435Y50140D01*
X95410Y50032D01*
X95381Y49925D01*
X95349Y49819D01*
X95313Y49714D01*
X95273Y49611D01*
X95230Y49509D01*
X95183Y49408D01*
X95132Y49309D01*
X95079Y49212D01*
X95022Y49118D01*
X94961Y49025D01*
X94898Y48934D01*
X94831Y48845D01*
X94761Y48759D01*
X94688Y48676D01*
X94613Y48594D01*
X94535Y48516D01*
X94453Y48441D01*
X94370Y48368D01*
X94284Y48298D01*
X94195Y48231D01*
X94104Y48168D01*
X94011Y48107D01*
X93916Y48050D01*
X93820Y47997D01*
X93721Y47946D01*
X93620Y47899D01*
X93518Y47856D01*
X93415Y47816D01*
X93310Y47780D01*
X93204Y47748D01*
X93097Y47719D01*
X92989Y47694D01*
X92880Y47673D01*
X92771Y47656D01*
X92661Y47642D01*
X92550Y47633D01*
X92440Y47627D01*
X92329Y47625D01*
X89154Y47625D01*
X100965Y47625D02*
X104140Y47625D01*
X104251Y47627D01*
X104361Y47633D01*
X104472Y47642D01*
X104582Y47656D01*
X104691Y47673D01*
X104800Y47694D01*
X104908Y47719D01*
X105015Y47748D01*
X105121Y47780D01*
X105226Y47816D01*
X105329Y47856D01*
X105431Y47899D01*
X105532Y47946D01*
X105631Y47997D01*
X105727Y48050D01*
X105822Y48107D01*
X105915Y48168D01*
X106006Y48231D01*
X106095Y48298D01*
X106181Y48368D01*
X106264Y48441D01*
X106346Y48516D01*
X106424Y48594D01*
X106499Y48676D01*
X106572Y48759D01*
X106642Y48845D01*
X106709Y48934D01*
X106772Y49025D01*
X106833Y49118D01*
X106890Y49212D01*
X106943Y49309D01*
X106994Y49408D01*
X107041Y49509D01*
X107084Y49611D01*
X107124Y49714D01*
X107160Y49819D01*
X107192Y49925D01*
X107221Y50032D01*
X107246Y50140D01*
X107267Y50249D01*
X107284Y50358D01*
X107298Y50468D01*
X107307Y50579D01*
X107313Y50689D01*
X107315Y50800D01*
X107313Y50911D01*
X107307Y51021D01*
X107298Y51132D01*
X107284Y51242D01*
X107267Y51351D01*
X107246Y51460D01*
X107221Y51568D01*
X107192Y51675D01*
X107160Y51781D01*
X107124Y51886D01*
X107084Y51989D01*
X107041Y52091D01*
X106994Y52192D01*
X106943Y52291D01*
X106890Y52387D01*
X106833Y52482D01*
X106772Y52575D01*
X106709Y52666D01*
X106642Y52755D01*
X106572Y52841D01*
X106499Y52924D01*
X106424Y53006D01*
X106346Y53084D01*
X106264Y53159D01*
X106181Y53232D01*
X106095Y53302D01*
X106006Y53369D01*
X105915Y53432D01*
X105822Y53493D01*
X105728Y53550D01*
X105631Y53603D01*
X105532Y53654D01*
X105431Y53701D01*
X105329Y53744D01*
X105226Y53784D01*
X105121Y53820D01*
X105015Y53852D01*
X104908Y53881D01*
X104800Y53906D01*
X104691Y53927D01*
X104582Y53944D01*
X104472Y53958D01*
X104361Y53967D01*
X104251Y53973D01*
X104140Y53975D01*
X104775Y59055D02*
X100965Y59055D01*
X104775Y59055D02*
X104875Y59053D01*
X104974Y59047D01*
X105074Y59037D01*
X105172Y59024D01*
X105271Y59006D01*
X105368Y58985D01*
X105464Y58960D01*
X105560Y58931D01*
X105654Y58898D01*
X105747Y58862D01*
X105838Y58822D01*
X105928Y58778D01*
X106016Y58731D01*
X106102Y58681D01*
X106186Y58627D01*
X106268Y58570D01*
X106347Y58510D01*
X106425Y58446D01*
X106499Y58380D01*
X106571Y58311D01*
X106640Y58239D01*
X106706Y58165D01*
X106770Y58087D01*
X106830Y58008D01*
X106887Y57926D01*
X106941Y57842D01*
X106991Y57756D01*
X107038Y57668D01*
X107082Y57578D01*
X107122Y57487D01*
X107158Y57394D01*
X107191Y57300D01*
X107220Y57204D01*
X107245Y57108D01*
X107266Y57011D01*
X107284Y56912D01*
X107297Y56814D01*
X107307Y56714D01*
X107313Y56615D01*
X107315Y56515D01*
X107313Y56415D01*
X107307Y56316D01*
X107297Y56216D01*
X107284Y56118D01*
X107266Y56019D01*
X107245Y55922D01*
X107220Y55826D01*
X107191Y55730D01*
X107158Y55636D01*
X107122Y55543D01*
X107082Y55452D01*
X107038Y55362D01*
X106991Y55274D01*
X106941Y55188D01*
X106887Y55104D01*
X106830Y55022D01*
X106770Y54943D01*
X106706Y54865D01*
X106640Y54791D01*
X106571Y54719D01*
X106499Y54650D01*
X106425Y54584D01*
X106347Y54520D01*
X106268Y54460D01*
X106186Y54403D01*
X106102Y54349D01*
X106016Y54299D01*
X105928Y54252D01*
X105838Y54208D01*
X105747Y54168D01*
X105654Y54132D01*
X105560Y54099D01*
X105464Y54070D01*
X105368Y54045D01*
X105271Y54024D01*
X105172Y54006D01*
X105074Y53993D01*
X104974Y53983D01*
X104875Y53977D01*
X104775Y53975D01*
X102235Y53975D01*
D15*
X165399Y54642D02*
X165618Y54342D01*
X165845Y54048D01*
X166079Y53760D01*
X166320Y53477D01*
X166567Y53200D01*
X166822Y52929D01*
X167083Y52665D01*
X167350Y52407D01*
X167623Y52156D01*
X167903Y51911D01*
X168188Y51673D01*
X168479Y51443D01*
X168776Y51219D01*
X169078Y51003D01*
X169385Y50794D01*
X169697Y50593D01*
X170014Y50399D01*
X170336Y50213D01*
X170662Y50035D01*
X170992Y49865D01*
X171326Y49703D01*
X171664Y49550D01*
X172006Y49404D01*
X172351Y49267D01*
X172700Y49139D01*
X173051Y49019D01*
X173406Y48907D01*
X173763Y48805D01*
X174122Y48710D01*
X174483Y48625D01*
X174847Y48549D01*
X175212Y48481D01*
X175579Y48423D01*
X175947Y48373D01*
X176316Y48332D01*
X176686Y48301D01*
X177057Y48278D01*
X177428Y48265D01*
X177800Y48260D01*
X178172Y48265D01*
X178543Y48278D01*
X178915Y48301D01*
X179285Y48333D01*
X179655Y48373D01*
X180023Y48423D01*
X180391Y48482D01*
X180756Y48549D01*
X181120Y48626D01*
X181482Y48712D01*
X181842Y48806D01*
X182199Y48909D01*
X182554Y49020D01*
X182906Y49141D01*
X183255Y49270D01*
X183600Y49407D01*
X183942Y49553D01*
X184281Y49707D01*
X184616Y49869D01*
X184946Y50039D01*
X185272Y50218D01*
X185594Y50404D01*
X185912Y50598D01*
X186224Y50800D01*
X186531Y51009D01*
X186833Y51226D01*
X187130Y51450D01*
X187422Y51681D01*
X187707Y51919D01*
X187987Y52165D01*
X188260Y52417D01*
X188528Y52675D01*
X188788Y52940D01*
X189043Y53211D01*
X189291Y53489D01*
X189531Y53772D01*
X189765Y54061D01*
X189992Y54356D01*
X177800Y78740D02*
X177435Y78736D01*
X177070Y78723D01*
X176706Y78701D01*
X176343Y78670D01*
X175980Y78631D01*
X175618Y78583D01*
X175258Y78526D01*
X174899Y78461D01*
X174541Y78388D01*
X174186Y78305D01*
X173833Y78215D01*
X173481Y78115D01*
X173133Y78008D01*
X172787Y77892D01*
X172444Y77768D01*
X172104Y77635D01*
X171767Y77495D01*
X171434Y77347D01*
X171104Y77190D01*
X170778Y77026D01*
X170456Y76854D01*
X170139Y76674D01*
X169826Y76487D01*
X169517Y76293D01*
X169213Y76091D01*
X168914Y75881D01*
X168620Y75665D01*
X168332Y75442D01*
X168049Y75212D01*
X167771Y74975D01*
X167499Y74732D01*
X167233Y74482D01*
X166973Y74226D01*
X166720Y73963D01*
X166472Y73695D01*
X166232Y73421D01*
X165997Y73141D01*
X165770Y72856D01*
X177800Y78740D02*
X178165Y78736D01*
X178530Y78723D01*
X178894Y78701D01*
X179257Y78670D01*
X179620Y78631D01*
X179982Y78583D01*
X180342Y78526D01*
X180701Y78461D01*
X181059Y78388D01*
X181414Y78305D01*
X181767Y78215D01*
X182119Y78115D01*
X182467Y78008D01*
X182813Y77892D01*
X183156Y77768D01*
X183496Y77635D01*
X183833Y77495D01*
X184166Y77347D01*
X184496Y77190D01*
X184822Y77026D01*
X185144Y76854D01*
X185461Y76674D01*
X185774Y76487D01*
X186083Y76293D01*
X186387Y76091D01*
X186686Y75881D01*
X186980Y75665D01*
X187268Y75442D01*
X187551Y75212D01*
X187829Y74975D01*
X188101Y74732D01*
X188367Y74482D01*
X188627Y74226D01*
X188880Y73963D01*
X189128Y73695D01*
X189368Y73421D01*
X189603Y73141D01*
X189830Y72856D01*
D17*
X177800Y43180D02*
X177306Y43186D01*
X176812Y43204D01*
X176318Y43234D01*
X175825Y43276D01*
X175334Y43330D01*
X174844Y43396D01*
X174356Y43474D01*
X173869Y43564D01*
X173385Y43665D01*
X172904Y43779D01*
X172426Y43904D01*
X171950Y44040D01*
X171479Y44188D01*
X171011Y44348D01*
X170547Y44519D01*
X170087Y44701D01*
X169632Y44894D01*
X169181Y45098D01*
X168736Y45313D01*
X168296Y45539D01*
X167862Y45776D01*
X167434Y46023D01*
X167012Y46280D01*
X166596Y46548D01*
X166187Y46826D01*
X165785Y47113D01*
X165389Y47410D01*
X165002Y47717D01*
X164621Y48033D01*
X164249Y48358D01*
X163884Y48693D01*
X163528Y49036D01*
X163181Y49387D01*
X162841Y49747D01*
X162511Y50115D01*
X162190Y50491D01*
X177800Y43180D02*
X178288Y43186D01*
X178775Y43203D01*
X179262Y43233D01*
X179749Y43274D01*
X180234Y43326D01*
X180718Y43391D01*
X181200Y43467D01*
X181680Y43554D01*
X182158Y43653D01*
X182633Y43763D01*
X183106Y43885D01*
X183575Y44018D01*
X184042Y44163D01*
X184504Y44318D01*
X184963Y44485D01*
X185418Y44662D01*
X185868Y44851D01*
X186313Y45050D01*
X186754Y45260D01*
X187190Y45480D01*
X187620Y45711D01*
X188044Y45952D01*
X188462Y46203D01*
X188875Y46464D01*
X189281Y46735D01*
X189680Y47015D01*
X190073Y47305D01*
X190458Y47605D01*
X190836Y47914D01*
X191207Y48231D01*
X191569Y48558D01*
X191924Y48893D01*
X192271Y49236D01*
X192609Y49588D01*
X192939Y49947D01*
X193260Y50315D01*
X193573Y50690D01*
X193876Y51073D01*
X194170Y51462D01*
X194454Y51859D01*
X194729Y52262D01*
X194994Y52672D01*
X195249Y53088D01*
X195494Y53510D01*
X195729Y53938D01*
X177800Y83820D02*
X177310Y83814D01*
X176820Y83796D01*
X176331Y83767D01*
X175842Y83725D01*
X175355Y83672D01*
X174869Y83608D01*
X174385Y83531D01*
X173903Y83443D01*
X173423Y83343D01*
X172945Y83232D01*
X172471Y83109D01*
X171999Y82974D01*
X171531Y82829D01*
X171067Y82672D01*
X170606Y82504D01*
X170150Y82325D01*
X169698Y82135D01*
X169251Y81934D01*
X168809Y81722D01*
X168372Y81500D01*
X167940Y81268D01*
X167514Y81025D01*
X167095Y80771D01*
X166681Y80508D01*
X166274Y80235D01*
X165874Y79952D01*
X165480Y79659D01*
X165094Y79358D01*
X164715Y79046D01*
X164344Y78726D01*
X163981Y78397D01*
X163625Y78060D01*
X163278Y77713D01*
X162940Y77359D01*
X162610Y76996D01*
X162288Y76626D01*
X177800Y83820D02*
X178297Y83814D01*
X178794Y83796D01*
X179290Y83765D01*
X179785Y83723D01*
X180279Y83668D01*
X180772Y83602D01*
X181262Y83523D01*
X181751Y83432D01*
X182237Y83330D01*
X182721Y83215D01*
X183201Y83089D01*
X183679Y82951D01*
X184153Y82802D01*
X184623Y82641D01*
X185089Y82468D01*
X185551Y82284D01*
X186008Y82089D01*
X186460Y81883D01*
X186907Y81666D01*
X187348Y81437D01*
X187784Y81199D01*
X188214Y80949D01*
X188637Y80689D01*
X189055Y80419D01*
X189465Y80139D01*
X189868Y79849D01*
X190265Y79549D01*
X190653Y79239D01*
X191034Y78920D01*
X191407Y78592D01*
X191772Y78255D01*
X192129Y77909D01*
X192477Y77554D01*
X192816Y77191D01*
X193147Y76820D01*
X193468Y76440D01*
X193780Y76053D01*
X194082Y75659D01*
X194374Y75257D01*
X194657Y74848D01*
X194929Y74433D01*
X195192Y74010D01*
X195443Y73582D01*
D11*
X139954Y59055D02*
X139954Y47625D01*
X139954Y59055D02*
X143129Y59055D01*
X143240Y59053D01*
X143350Y59047D01*
X143461Y59038D01*
X143571Y59024D01*
X143680Y59007D01*
X143789Y58986D01*
X143897Y58961D01*
X144004Y58932D01*
X144110Y58900D01*
X144215Y58864D01*
X144318Y58824D01*
X144420Y58781D01*
X144521Y58734D01*
X144620Y58683D01*
X144717Y58630D01*
X144811Y58573D01*
X144904Y58512D01*
X144995Y58449D01*
X145084Y58382D01*
X145170Y58312D01*
X145253Y58239D01*
X145335Y58164D01*
X145413Y58086D01*
X145488Y58004D01*
X145561Y57921D01*
X145631Y57835D01*
X145698Y57746D01*
X145761Y57655D01*
X145822Y57562D01*
X145879Y57468D01*
X145932Y57371D01*
X145983Y57272D01*
X146030Y57171D01*
X146073Y57069D01*
X146113Y56966D01*
X146149Y56861D01*
X146181Y56755D01*
X146210Y56648D01*
X146235Y56540D01*
X146256Y56431D01*
X146273Y56322D01*
X146287Y56212D01*
X146296Y56101D01*
X146302Y55991D01*
X146304Y55880D01*
X146304Y50800D01*
X146302Y50689D01*
X146296Y50579D01*
X146287Y50468D01*
X146273Y50358D01*
X146256Y50249D01*
X146235Y50140D01*
X146210Y50032D01*
X146181Y49925D01*
X146149Y49819D01*
X146113Y49714D01*
X146073Y49611D01*
X146030Y49509D01*
X145983Y49408D01*
X145932Y49309D01*
X145879Y49212D01*
X145822Y49118D01*
X145761Y49025D01*
X145698Y48934D01*
X145631Y48845D01*
X145561Y48759D01*
X145488Y48676D01*
X145413Y48594D01*
X145335Y48516D01*
X145253Y48441D01*
X145170Y48368D01*
X145084Y48298D01*
X144995Y48231D01*
X144904Y48168D01*
X144811Y48107D01*
X144716Y48050D01*
X144620Y47997D01*
X144521Y47946D01*
X144420Y47899D01*
X144318Y47856D01*
X144215Y47816D01*
X144110Y47780D01*
X144004Y47748D01*
X143897Y47719D01*
X143789Y47694D01*
X143680Y47673D01*
X143571Y47656D01*
X143461Y47642D01*
X143350Y47633D01*
X143240Y47627D01*
X143129Y47625D01*
X139954Y47625D01*
X151765Y50165D02*
X154305Y59055D01*
X151765Y50165D02*
X158115Y50165D01*
X156210Y52705D02*
X156210Y47625D01*
D15*
X216199Y54642D02*
X216418Y54342D01*
X216645Y54048D01*
X216879Y53760D01*
X217120Y53477D01*
X217367Y53200D01*
X217622Y52929D01*
X217883Y52665D01*
X218150Y52407D01*
X218423Y52156D01*
X218703Y51911D01*
X218988Y51673D01*
X219279Y51443D01*
X219576Y51219D01*
X219878Y51003D01*
X220185Y50794D01*
X220497Y50593D01*
X220814Y50399D01*
X221136Y50213D01*
X221462Y50035D01*
X221792Y49865D01*
X222126Y49703D01*
X222464Y49550D01*
X222806Y49404D01*
X223151Y49267D01*
X223500Y49139D01*
X223851Y49019D01*
X224206Y48907D01*
X224563Y48805D01*
X224922Y48710D01*
X225283Y48625D01*
X225647Y48549D01*
X226012Y48481D01*
X226379Y48423D01*
X226747Y48373D01*
X227116Y48332D01*
X227486Y48301D01*
X227857Y48278D01*
X228228Y48265D01*
X228600Y48260D01*
X228972Y48265D01*
X229343Y48278D01*
X229715Y48301D01*
X230085Y48333D01*
X230455Y48373D01*
X230823Y48423D01*
X231191Y48482D01*
X231556Y48549D01*
X231920Y48626D01*
X232282Y48712D01*
X232642Y48806D01*
X232999Y48909D01*
X233354Y49020D01*
X233706Y49141D01*
X234055Y49270D01*
X234400Y49407D01*
X234742Y49553D01*
X235081Y49707D01*
X235416Y49869D01*
X235746Y50039D01*
X236072Y50218D01*
X236394Y50404D01*
X236712Y50598D01*
X237024Y50800D01*
X237331Y51009D01*
X237633Y51226D01*
X237930Y51450D01*
X238222Y51681D01*
X238507Y51919D01*
X238787Y52165D01*
X239060Y52417D01*
X239328Y52675D01*
X239588Y52940D01*
X239843Y53211D01*
X240091Y53489D01*
X240331Y53772D01*
X240565Y54061D01*
X240792Y54356D01*
X228600Y78740D02*
X228235Y78736D01*
X227870Y78723D01*
X227506Y78701D01*
X227143Y78670D01*
X226780Y78631D01*
X226418Y78583D01*
X226058Y78526D01*
X225699Y78461D01*
X225341Y78388D01*
X224986Y78305D01*
X224633Y78215D01*
X224281Y78115D01*
X223933Y78008D01*
X223587Y77892D01*
X223244Y77768D01*
X222904Y77635D01*
X222567Y77495D01*
X222234Y77347D01*
X221904Y77190D01*
X221578Y77026D01*
X221256Y76854D01*
X220939Y76674D01*
X220626Y76487D01*
X220317Y76293D01*
X220013Y76091D01*
X219714Y75881D01*
X219420Y75665D01*
X219132Y75442D01*
X218849Y75212D01*
X218571Y74975D01*
X218299Y74732D01*
X218033Y74482D01*
X217773Y74226D01*
X217520Y73963D01*
X217272Y73695D01*
X217032Y73421D01*
X216797Y73141D01*
X216570Y72856D01*
X228600Y78740D02*
X228965Y78736D01*
X229330Y78723D01*
X229694Y78701D01*
X230057Y78670D01*
X230420Y78631D01*
X230782Y78583D01*
X231142Y78526D01*
X231501Y78461D01*
X231859Y78388D01*
X232214Y78305D01*
X232567Y78215D01*
X232919Y78115D01*
X233267Y78008D01*
X233613Y77892D01*
X233956Y77768D01*
X234296Y77635D01*
X234633Y77495D01*
X234966Y77347D01*
X235296Y77190D01*
X235622Y77026D01*
X235944Y76854D01*
X236261Y76674D01*
X236574Y76487D01*
X236883Y76293D01*
X237187Y76091D01*
X237486Y75881D01*
X237780Y75665D01*
X238068Y75442D01*
X238351Y75212D01*
X238629Y74975D01*
X238901Y74732D01*
X239167Y74482D01*
X239427Y74226D01*
X239680Y73963D01*
X239928Y73695D01*
X240168Y73421D01*
X240403Y73141D01*
X240630Y72856D01*
D17*
X228600Y43180D02*
X228106Y43186D01*
X227612Y43204D01*
X227118Y43234D01*
X226625Y43276D01*
X226134Y43330D01*
X225644Y43396D01*
X225156Y43474D01*
X224669Y43564D01*
X224185Y43665D01*
X223704Y43779D01*
X223226Y43904D01*
X222750Y44040D01*
X222279Y44188D01*
X221811Y44348D01*
X221347Y44519D01*
X220887Y44701D01*
X220432Y44894D01*
X219981Y45098D01*
X219536Y45313D01*
X219096Y45539D01*
X218662Y45776D01*
X218234Y46023D01*
X217812Y46280D01*
X217396Y46548D01*
X216987Y46826D01*
X216585Y47113D01*
X216189Y47410D01*
X215802Y47717D01*
X215421Y48033D01*
X215049Y48358D01*
X214684Y48693D01*
X214328Y49036D01*
X213981Y49387D01*
X213641Y49747D01*
X213311Y50115D01*
X212990Y50491D01*
X228600Y43180D02*
X229088Y43186D01*
X229575Y43203D01*
X230062Y43233D01*
X230549Y43274D01*
X231034Y43326D01*
X231518Y43391D01*
X232000Y43467D01*
X232480Y43554D01*
X232958Y43653D01*
X233433Y43763D01*
X233906Y43885D01*
X234375Y44018D01*
X234842Y44163D01*
X235304Y44318D01*
X235763Y44485D01*
X236218Y44662D01*
X236668Y44851D01*
X237113Y45050D01*
X237554Y45260D01*
X237990Y45480D01*
X238420Y45711D01*
X238844Y45952D01*
X239262Y46203D01*
X239675Y46464D01*
X240081Y46735D01*
X240480Y47015D01*
X240873Y47305D01*
X241258Y47605D01*
X241636Y47914D01*
X242007Y48231D01*
X242369Y48558D01*
X242724Y48893D01*
X243071Y49236D01*
X243409Y49588D01*
X243739Y49947D01*
X244060Y50315D01*
X244373Y50690D01*
X244676Y51073D01*
X244970Y51462D01*
X245254Y51859D01*
X245529Y52262D01*
X245794Y52672D01*
X246049Y53088D01*
X246294Y53510D01*
X246529Y53938D01*
X228600Y83820D02*
X228110Y83814D01*
X227620Y83796D01*
X227131Y83767D01*
X226642Y83725D01*
X226155Y83672D01*
X225669Y83608D01*
X225185Y83531D01*
X224703Y83443D01*
X224223Y83343D01*
X223745Y83232D01*
X223271Y83109D01*
X222799Y82974D01*
X222331Y82829D01*
X221867Y82672D01*
X221406Y82504D01*
X220950Y82325D01*
X220498Y82135D01*
X220051Y81934D01*
X219609Y81722D01*
X219172Y81500D01*
X218740Y81268D01*
X218314Y81025D01*
X217895Y80771D01*
X217481Y80508D01*
X217074Y80235D01*
X216674Y79952D01*
X216280Y79659D01*
X215894Y79358D01*
X215515Y79046D01*
X215144Y78726D01*
X214781Y78397D01*
X214425Y78060D01*
X214078Y77713D01*
X213740Y77359D01*
X213410Y76996D01*
X213088Y76626D01*
X228600Y83820D02*
X229097Y83814D01*
X229594Y83796D01*
X230090Y83765D01*
X230585Y83723D01*
X231079Y83668D01*
X231572Y83602D01*
X232062Y83523D01*
X232551Y83432D01*
X233037Y83330D01*
X233521Y83215D01*
X234001Y83089D01*
X234479Y82951D01*
X234953Y82802D01*
X235423Y82641D01*
X235889Y82468D01*
X236351Y82284D01*
X236808Y82089D01*
X237260Y81883D01*
X237707Y81666D01*
X238148Y81437D01*
X238584Y81199D01*
X239014Y80949D01*
X239437Y80689D01*
X239855Y80419D01*
X240265Y80139D01*
X240668Y79849D01*
X241065Y79549D01*
X241453Y79239D01*
X241834Y78920D01*
X242207Y78592D01*
X242572Y78255D01*
X242929Y77909D01*
X243277Y77554D01*
X243616Y77191D01*
X243947Y76820D01*
X244268Y76440D01*
X244580Y76053D01*
X244882Y75659D01*
X245174Y75257D01*
X245457Y74848D01*
X245729Y74433D01*
X245992Y74010D01*
X246243Y73582D01*
D11*
X190754Y59055D02*
X190754Y47625D01*
X190754Y59055D02*
X193929Y59055D01*
X194040Y59053D01*
X194150Y59047D01*
X194261Y59038D01*
X194371Y59024D01*
X194480Y59007D01*
X194589Y58986D01*
X194697Y58961D01*
X194804Y58932D01*
X194910Y58900D01*
X195015Y58864D01*
X195118Y58824D01*
X195220Y58781D01*
X195321Y58734D01*
X195420Y58683D01*
X195517Y58630D01*
X195611Y58573D01*
X195704Y58512D01*
X195795Y58449D01*
X195884Y58382D01*
X195970Y58312D01*
X196053Y58239D01*
X196135Y58164D01*
X196213Y58086D01*
X196288Y58004D01*
X196361Y57921D01*
X196431Y57835D01*
X196498Y57746D01*
X196561Y57655D01*
X196622Y57562D01*
X196679Y57468D01*
X196732Y57371D01*
X196783Y57272D01*
X196830Y57171D01*
X196873Y57069D01*
X196913Y56966D01*
X196949Y56861D01*
X196981Y56755D01*
X197010Y56648D01*
X197035Y56540D01*
X197056Y56431D01*
X197073Y56322D01*
X197087Y56212D01*
X197096Y56101D01*
X197102Y55991D01*
X197104Y55880D01*
X197104Y50800D01*
X197102Y50689D01*
X197096Y50579D01*
X197087Y50468D01*
X197073Y50358D01*
X197056Y50249D01*
X197035Y50140D01*
X197010Y50032D01*
X196981Y49925D01*
X196949Y49819D01*
X196913Y49714D01*
X196873Y49611D01*
X196830Y49509D01*
X196783Y49408D01*
X196732Y49309D01*
X196679Y49212D01*
X196622Y49118D01*
X196561Y49025D01*
X196498Y48934D01*
X196431Y48845D01*
X196361Y48759D01*
X196288Y48676D01*
X196213Y48594D01*
X196135Y48516D01*
X196053Y48441D01*
X195970Y48368D01*
X195884Y48298D01*
X195795Y48231D01*
X195704Y48168D01*
X195611Y48107D01*
X195516Y48050D01*
X195420Y47997D01*
X195321Y47946D01*
X195220Y47899D01*
X195118Y47856D01*
X195015Y47816D01*
X194910Y47780D01*
X194804Y47748D01*
X194697Y47719D01*
X194589Y47694D01*
X194480Y47673D01*
X194371Y47656D01*
X194261Y47642D01*
X194150Y47633D01*
X194040Y47627D01*
X193929Y47625D01*
X190754Y47625D01*
X202565Y53975D02*
X206375Y53975D01*
X206475Y53973D01*
X206574Y53967D01*
X206674Y53957D01*
X206772Y53944D01*
X206871Y53926D01*
X206968Y53905D01*
X207064Y53880D01*
X207160Y53851D01*
X207254Y53818D01*
X207347Y53782D01*
X207438Y53742D01*
X207528Y53698D01*
X207616Y53651D01*
X207702Y53601D01*
X207786Y53547D01*
X207868Y53490D01*
X207947Y53430D01*
X208025Y53366D01*
X208099Y53300D01*
X208171Y53231D01*
X208240Y53159D01*
X208306Y53085D01*
X208370Y53007D01*
X208430Y52928D01*
X208487Y52846D01*
X208541Y52762D01*
X208591Y52676D01*
X208638Y52588D01*
X208682Y52498D01*
X208722Y52407D01*
X208758Y52314D01*
X208791Y52220D01*
X208820Y52124D01*
X208845Y52028D01*
X208866Y51931D01*
X208884Y51832D01*
X208897Y51734D01*
X208907Y51634D01*
X208913Y51535D01*
X208915Y51435D01*
X208915Y50800D01*
X208913Y50689D01*
X208907Y50579D01*
X208898Y50468D01*
X208884Y50358D01*
X208867Y50249D01*
X208846Y50140D01*
X208821Y50032D01*
X208792Y49925D01*
X208760Y49819D01*
X208724Y49714D01*
X208684Y49611D01*
X208641Y49509D01*
X208594Y49408D01*
X208543Y49309D01*
X208490Y49212D01*
X208433Y49118D01*
X208372Y49025D01*
X208309Y48934D01*
X208242Y48845D01*
X208172Y48759D01*
X208099Y48676D01*
X208024Y48594D01*
X207946Y48516D01*
X207864Y48441D01*
X207781Y48368D01*
X207695Y48298D01*
X207606Y48231D01*
X207515Y48168D01*
X207422Y48107D01*
X207327Y48050D01*
X207231Y47997D01*
X207132Y47946D01*
X207031Y47899D01*
X206929Y47856D01*
X206826Y47816D01*
X206721Y47780D01*
X206615Y47748D01*
X206508Y47719D01*
X206400Y47694D01*
X206291Y47673D01*
X206182Y47656D01*
X206072Y47642D01*
X205961Y47633D01*
X205851Y47627D01*
X205740Y47625D01*
X205629Y47627D01*
X205519Y47633D01*
X205408Y47642D01*
X205298Y47656D01*
X205189Y47673D01*
X205080Y47694D01*
X204972Y47719D01*
X204865Y47748D01*
X204759Y47780D01*
X204654Y47816D01*
X204551Y47856D01*
X204449Y47899D01*
X204348Y47946D01*
X204249Y47997D01*
X204153Y48050D01*
X204058Y48107D01*
X203965Y48168D01*
X203874Y48231D01*
X203785Y48298D01*
X203699Y48368D01*
X203616Y48441D01*
X203534Y48516D01*
X203456Y48594D01*
X203381Y48676D01*
X203308Y48759D01*
X203238Y48845D01*
X203171Y48934D01*
X203108Y49025D01*
X203047Y49118D01*
X202990Y49213D01*
X202937Y49309D01*
X202886Y49408D01*
X202839Y49509D01*
X202796Y49611D01*
X202756Y49714D01*
X202720Y49819D01*
X202688Y49925D01*
X202659Y50032D01*
X202634Y50140D01*
X202613Y50249D01*
X202596Y50358D01*
X202582Y50468D01*
X202573Y50579D01*
X202567Y50689D01*
X202565Y50800D01*
X202565Y53975D01*
X202567Y54115D01*
X202573Y54255D01*
X202582Y54395D01*
X202596Y54534D01*
X202613Y54673D01*
X202634Y54811D01*
X202659Y54949D01*
X202688Y55086D01*
X202720Y55222D01*
X202757Y55357D01*
X202797Y55491D01*
X202840Y55624D01*
X202888Y55756D01*
X202938Y55887D01*
X202993Y56016D01*
X203051Y56143D01*
X203112Y56269D01*
X203177Y56393D01*
X203246Y56515D01*
X203317Y56635D01*
X203392Y56753D01*
X203470Y56870D01*
X203552Y56984D01*
X203636Y57095D01*
X203724Y57204D01*
X203814Y57311D01*
X203908Y57416D01*
X204004Y57517D01*
X204103Y57616D01*
X204204Y57712D01*
X204309Y57806D01*
X204416Y57896D01*
X204525Y57984D01*
X204636Y58068D01*
X204750Y58150D01*
X204867Y58228D01*
X204985Y58303D01*
X205105Y58374D01*
X205227Y58443D01*
X205351Y58508D01*
X205477Y58569D01*
X205604Y58627D01*
X205733Y58682D01*
X205864Y58732D01*
X205996Y58780D01*
X206129Y58823D01*
X206263Y58863D01*
X206398Y58900D01*
X206534Y58932D01*
X206671Y58961D01*
X206809Y58986D01*
X206947Y59007D01*
X207086Y59024D01*
X207225Y59038D01*
X207365Y59047D01*
X207505Y59053D01*
X207645Y59055D01*
D16*
X240119Y326631D02*
X242208Y326631D01*
X240119Y326631D02*
X240030Y326633D01*
X239942Y326639D01*
X239854Y326648D01*
X239766Y326661D01*
X239679Y326678D01*
X239593Y326698D01*
X239508Y326723D01*
X239423Y326750D01*
X239340Y326782D01*
X239259Y326816D01*
X239179Y326855D01*
X239101Y326896D01*
X239024Y326941D01*
X238950Y326989D01*
X238877Y327040D01*
X238807Y327094D01*
X238740Y327152D01*
X238674Y327212D01*
X238612Y327274D01*
X238552Y327340D01*
X238494Y327407D01*
X238440Y327477D01*
X238389Y327550D01*
X238341Y327624D01*
X238296Y327701D01*
X238255Y327779D01*
X238216Y327859D01*
X238182Y327940D01*
X238150Y328023D01*
X238123Y328108D01*
X238098Y328193D01*
X238078Y328279D01*
X238061Y328366D01*
X238048Y328454D01*
X238039Y328542D01*
X238033Y328630D01*
X238031Y328719D01*
X238031Y333941D01*
X238033Y334032D01*
X238039Y334123D01*
X238049Y334214D01*
X238063Y334304D01*
X238080Y334393D01*
X238102Y334481D01*
X238128Y334569D01*
X238157Y334655D01*
X238190Y334740D01*
X238227Y334823D01*
X238267Y334905D01*
X238311Y334985D01*
X238358Y335063D01*
X238409Y335139D01*
X238462Y335212D01*
X238519Y335283D01*
X238580Y335352D01*
X238643Y335417D01*
X238708Y335480D01*
X238777Y335540D01*
X238848Y335598D01*
X238921Y335651D01*
X238997Y335702D01*
X239075Y335749D01*
X239155Y335793D01*
X239237Y335833D01*
X239320Y335870D01*
X239405Y335903D01*
X239491Y335932D01*
X239579Y335958D01*
X239667Y335980D01*
X239756Y335997D01*
X239846Y336011D01*
X239937Y336021D01*
X240028Y336027D01*
X240119Y336029D01*
X242208Y336029D01*
X245677Y333941D02*
X248287Y336029D01*
X248287Y326631D01*
X245677Y326631D02*
X250898Y326631D01*
X242208Y352031D02*
X240119Y352031D01*
X240030Y352033D01*
X239942Y352039D01*
X239854Y352048D01*
X239766Y352061D01*
X239679Y352078D01*
X239593Y352098D01*
X239508Y352123D01*
X239423Y352150D01*
X239340Y352182D01*
X239259Y352216D01*
X239179Y352255D01*
X239101Y352296D01*
X239024Y352341D01*
X238950Y352389D01*
X238877Y352440D01*
X238807Y352494D01*
X238740Y352552D01*
X238674Y352612D01*
X238612Y352674D01*
X238552Y352740D01*
X238494Y352807D01*
X238440Y352877D01*
X238389Y352950D01*
X238341Y353024D01*
X238296Y353101D01*
X238255Y353179D01*
X238216Y353259D01*
X238182Y353340D01*
X238150Y353423D01*
X238123Y353508D01*
X238098Y353593D01*
X238078Y353679D01*
X238061Y353766D01*
X238048Y353854D01*
X238039Y353942D01*
X238033Y354030D01*
X238031Y354119D01*
X238031Y359341D01*
X238033Y359432D01*
X238039Y359523D01*
X238049Y359614D01*
X238063Y359704D01*
X238080Y359793D01*
X238102Y359881D01*
X238128Y359969D01*
X238157Y360055D01*
X238190Y360140D01*
X238227Y360223D01*
X238267Y360305D01*
X238311Y360385D01*
X238358Y360463D01*
X238409Y360539D01*
X238462Y360612D01*
X238519Y360683D01*
X238580Y360752D01*
X238643Y360817D01*
X238708Y360880D01*
X238777Y360940D01*
X238848Y360998D01*
X238921Y361051D01*
X238997Y361102D01*
X239075Y361149D01*
X239155Y361193D01*
X239237Y361233D01*
X239320Y361270D01*
X239405Y361303D01*
X239491Y361332D01*
X239579Y361358D01*
X239667Y361380D01*
X239756Y361397D01*
X239846Y361411D01*
X239937Y361421D01*
X240028Y361427D01*
X240119Y361429D01*
X242208Y361429D01*
X248548Y361430D02*
X248643Y361428D01*
X248737Y361422D01*
X248831Y361413D01*
X248925Y361400D01*
X249018Y361383D01*
X249110Y361362D01*
X249202Y361337D01*
X249292Y361309D01*
X249381Y361277D01*
X249469Y361242D01*
X249555Y361203D01*
X249640Y361161D01*
X249723Y361115D01*
X249804Y361066D01*
X249883Y361014D01*
X249960Y360959D01*
X250034Y360900D01*
X250106Y360839D01*
X250176Y360775D01*
X250243Y360708D01*
X250307Y360638D01*
X250368Y360566D01*
X250427Y360492D01*
X250482Y360415D01*
X250534Y360336D01*
X250583Y360255D01*
X250629Y360172D01*
X250671Y360087D01*
X250710Y360001D01*
X250745Y359913D01*
X250777Y359824D01*
X250805Y359734D01*
X250830Y359642D01*
X250851Y359550D01*
X250868Y359457D01*
X250881Y359363D01*
X250890Y359269D01*
X250896Y359175D01*
X250898Y359080D01*
X248548Y361429D02*
X248440Y361427D01*
X248331Y361421D01*
X248223Y361411D01*
X248116Y361398D01*
X248009Y361380D01*
X247902Y361359D01*
X247797Y361334D01*
X247692Y361305D01*
X247589Y361273D01*
X247487Y361236D01*
X247386Y361196D01*
X247287Y361153D01*
X247189Y361106D01*
X247093Y361055D01*
X246999Y361001D01*
X246907Y360944D01*
X246817Y360883D01*
X246729Y360819D01*
X246644Y360753D01*
X246561Y360683D01*
X246481Y360610D01*
X246403Y360534D01*
X246328Y360456D01*
X246256Y360375D01*
X246187Y360291D01*
X246121Y360205D01*
X246058Y360117D01*
X245999Y360026D01*
X245942Y359934D01*
X245889Y359839D01*
X245840Y359743D01*
X245794Y359644D01*
X245751Y359545D01*
X245712Y359443D01*
X245677Y359341D01*
X250115Y357252D02*
X250184Y357321D01*
X250250Y357392D01*
X250314Y357465D01*
X250375Y357541D01*
X250433Y357620D01*
X250487Y357700D01*
X250539Y357783D01*
X250587Y357867D01*
X250633Y357953D01*
X250674Y358041D01*
X250713Y358131D01*
X250748Y358222D01*
X250779Y358314D01*
X250807Y358407D01*
X250831Y358501D01*
X250851Y358596D01*
X250868Y358692D01*
X250881Y358789D01*
X250890Y358886D01*
X250896Y358983D01*
X250898Y359080D01*
X250115Y357252D02*
X245677Y352031D01*
X250898Y352031D01*
D10*
X120142Y105918D02*
X108458Y105918D01*
X108458Y109164D01*
X108460Y109277D01*
X108466Y109390D01*
X108476Y109503D01*
X108490Y109616D01*
X108507Y109728D01*
X108529Y109839D01*
X108554Y109949D01*
X108584Y110059D01*
X108617Y110167D01*
X108654Y110274D01*
X108694Y110380D01*
X108739Y110484D01*
X108787Y110587D01*
X108838Y110688D01*
X108893Y110787D01*
X108951Y110884D01*
X109013Y110979D01*
X109078Y111072D01*
X109146Y111162D01*
X109217Y111250D01*
X109292Y111336D01*
X109369Y111419D01*
X109449Y111499D01*
X109532Y111576D01*
X109618Y111651D01*
X109706Y111722D01*
X109796Y111790D01*
X109889Y111855D01*
X109984Y111917D01*
X110081Y111975D01*
X110180Y112030D01*
X110281Y112081D01*
X110384Y112129D01*
X110488Y112174D01*
X110594Y112214D01*
X110701Y112251D01*
X110809Y112284D01*
X110919Y112314D01*
X111029Y112339D01*
X111140Y112361D01*
X111252Y112378D01*
X111365Y112392D01*
X111478Y112402D01*
X111591Y112408D01*
X111704Y112410D01*
X111817Y112408D01*
X111930Y112402D01*
X112043Y112392D01*
X112156Y112378D01*
X112268Y112361D01*
X112379Y112339D01*
X112489Y112314D01*
X112599Y112284D01*
X112707Y112251D01*
X112814Y112214D01*
X112920Y112174D01*
X113024Y112129D01*
X113127Y112081D01*
X113228Y112030D01*
X113327Y111975D01*
X113424Y111917D01*
X113519Y111855D01*
X113612Y111790D01*
X113702Y111722D01*
X113790Y111651D01*
X113876Y111576D01*
X113959Y111499D01*
X114039Y111419D01*
X114116Y111336D01*
X114191Y111250D01*
X114262Y111162D01*
X114330Y111072D01*
X114395Y110979D01*
X114457Y110884D01*
X114515Y110787D01*
X114570Y110688D01*
X114621Y110587D01*
X114669Y110484D01*
X114714Y110380D01*
X114754Y110274D01*
X114791Y110167D01*
X114824Y110059D01*
X114854Y109949D01*
X114879Y109839D01*
X114901Y109728D01*
X114918Y109616D01*
X114932Y109503D01*
X114942Y109390D01*
X114948Y109277D01*
X114950Y109164D01*
X114949Y109164D02*
X114949Y105918D01*
X114949Y109813D02*
X120142Y112409D01*
X111379Y123765D02*
X111272Y123763D01*
X111166Y123757D01*
X111060Y123747D01*
X110954Y123734D01*
X110848Y123716D01*
X110744Y123695D01*
X110640Y123670D01*
X110537Y123641D01*
X110436Y123609D01*
X110336Y123572D01*
X110237Y123532D01*
X110139Y123489D01*
X110043Y123442D01*
X109949Y123391D01*
X109857Y123337D01*
X109767Y123280D01*
X109679Y123220D01*
X109594Y123156D01*
X109511Y123089D01*
X109430Y123019D01*
X109352Y122947D01*
X109276Y122871D01*
X109204Y122793D01*
X109134Y122712D01*
X109067Y122629D01*
X109003Y122544D01*
X108943Y122456D01*
X108886Y122366D01*
X108832Y122274D01*
X108781Y122180D01*
X108734Y122084D01*
X108691Y121986D01*
X108651Y121887D01*
X108614Y121787D01*
X108582Y121686D01*
X108553Y121583D01*
X108528Y121479D01*
X108507Y121375D01*
X108489Y121269D01*
X108476Y121163D01*
X108466Y121057D01*
X108460Y120951D01*
X108458Y120844D01*
X108460Y120723D01*
X108466Y120602D01*
X108476Y120482D01*
X108489Y120361D01*
X108507Y120242D01*
X108528Y120122D01*
X108553Y120004D01*
X108582Y119887D01*
X108615Y119770D01*
X108651Y119655D01*
X108692Y119541D01*
X108735Y119428D01*
X108783Y119316D01*
X108834Y119207D01*
X108889Y119099D01*
X108947Y118992D01*
X109008Y118888D01*
X109073Y118786D01*
X109141Y118686D01*
X109212Y118588D01*
X109286Y118492D01*
X109363Y118399D01*
X109444Y118309D01*
X109527Y118221D01*
X109613Y118136D01*
X109702Y118053D01*
X109793Y117974D01*
X109887Y117897D01*
X109983Y117824D01*
X110081Y117754D01*
X110182Y117687D01*
X110285Y117623D01*
X110390Y117563D01*
X110497Y117505D01*
X110605Y117452D01*
X110715Y117402D01*
X110827Y117356D01*
X110940Y117313D01*
X111055Y117274D01*
X113651Y122791D02*
X113573Y122870D01*
X113493Y122946D01*
X113410Y123019D01*
X113324Y123089D01*
X113237Y123156D01*
X113146Y123220D01*
X113054Y123280D01*
X112960Y123338D01*
X112863Y123392D01*
X112765Y123442D01*
X112665Y123489D01*
X112564Y123533D01*
X112461Y123573D01*
X112356Y123609D01*
X112251Y123641D01*
X112144Y123670D01*
X112037Y123695D01*
X111928Y123717D01*
X111819Y123734D01*
X111710Y123748D01*
X111600Y123757D01*
X111489Y123763D01*
X111379Y123765D01*
X113651Y122792D02*
X120142Y117274D01*
X120142Y123765D01*
X146558Y105918D02*
X158242Y105918D01*
X146558Y105918D02*
X146558Y109164D01*
X146560Y109277D01*
X146566Y109390D01*
X146576Y109503D01*
X146590Y109616D01*
X146607Y109728D01*
X146629Y109839D01*
X146654Y109949D01*
X146684Y110059D01*
X146717Y110167D01*
X146754Y110274D01*
X146794Y110380D01*
X146839Y110484D01*
X146887Y110587D01*
X146938Y110688D01*
X146993Y110787D01*
X147051Y110884D01*
X147113Y110979D01*
X147178Y111072D01*
X147246Y111162D01*
X147317Y111250D01*
X147392Y111336D01*
X147469Y111419D01*
X147549Y111499D01*
X147632Y111576D01*
X147718Y111651D01*
X147806Y111722D01*
X147896Y111790D01*
X147989Y111855D01*
X148084Y111917D01*
X148181Y111975D01*
X148280Y112030D01*
X148381Y112081D01*
X148484Y112129D01*
X148588Y112174D01*
X148694Y112214D01*
X148801Y112251D01*
X148909Y112284D01*
X149019Y112314D01*
X149129Y112339D01*
X149240Y112361D01*
X149352Y112378D01*
X149465Y112392D01*
X149578Y112402D01*
X149691Y112408D01*
X149804Y112410D01*
X149917Y112408D01*
X150030Y112402D01*
X150143Y112392D01*
X150256Y112378D01*
X150368Y112361D01*
X150479Y112339D01*
X150589Y112314D01*
X150699Y112284D01*
X150807Y112251D01*
X150914Y112214D01*
X151020Y112174D01*
X151124Y112129D01*
X151227Y112081D01*
X151328Y112030D01*
X151427Y111975D01*
X151524Y111917D01*
X151619Y111855D01*
X151712Y111790D01*
X151802Y111722D01*
X151890Y111651D01*
X151976Y111576D01*
X152059Y111499D01*
X152139Y111419D01*
X152216Y111336D01*
X152291Y111250D01*
X152362Y111162D01*
X152430Y111072D01*
X152495Y110979D01*
X152557Y110884D01*
X152615Y110787D01*
X152670Y110688D01*
X152721Y110587D01*
X152769Y110484D01*
X152814Y110380D01*
X152854Y110274D01*
X152891Y110167D01*
X152924Y110059D01*
X152954Y109949D01*
X152979Y109839D01*
X153001Y109728D01*
X153018Y109616D01*
X153032Y109503D01*
X153042Y109390D01*
X153048Y109277D01*
X153050Y109164D01*
X153049Y109164D02*
X153049Y105918D01*
X153049Y109813D02*
X158242Y112409D01*
X158242Y117274D02*
X158242Y120520D01*
X158240Y120633D01*
X158234Y120746D01*
X158224Y120859D01*
X158210Y120972D01*
X158193Y121084D01*
X158171Y121195D01*
X158146Y121305D01*
X158116Y121415D01*
X158083Y121523D01*
X158046Y121630D01*
X158006Y121736D01*
X157961Y121840D01*
X157913Y121943D01*
X157862Y122044D01*
X157807Y122143D01*
X157749Y122240D01*
X157687Y122335D01*
X157622Y122428D01*
X157554Y122518D01*
X157483Y122606D01*
X157408Y122692D01*
X157331Y122775D01*
X157251Y122855D01*
X157168Y122932D01*
X157082Y123007D01*
X156994Y123078D01*
X156904Y123146D01*
X156811Y123211D01*
X156716Y123273D01*
X156619Y123331D01*
X156520Y123386D01*
X156419Y123437D01*
X156316Y123485D01*
X156212Y123530D01*
X156106Y123570D01*
X155999Y123607D01*
X155891Y123640D01*
X155781Y123670D01*
X155671Y123695D01*
X155560Y123717D01*
X155448Y123734D01*
X155335Y123748D01*
X155222Y123758D01*
X155109Y123764D01*
X154996Y123766D01*
X154883Y123764D01*
X154770Y123758D01*
X154657Y123748D01*
X154544Y123734D01*
X154432Y123717D01*
X154321Y123695D01*
X154211Y123670D01*
X154101Y123640D01*
X153993Y123607D01*
X153886Y123570D01*
X153780Y123530D01*
X153676Y123485D01*
X153573Y123437D01*
X153472Y123386D01*
X153373Y123331D01*
X153276Y123273D01*
X153181Y123211D01*
X153088Y123146D01*
X152998Y123078D01*
X152910Y123007D01*
X152824Y122932D01*
X152741Y122855D01*
X152661Y122775D01*
X152584Y122692D01*
X152509Y122606D01*
X152438Y122518D01*
X152370Y122428D01*
X152305Y122335D01*
X152243Y122240D01*
X152185Y122143D01*
X152130Y122044D01*
X152079Y121943D01*
X152031Y121840D01*
X151986Y121736D01*
X151946Y121630D01*
X151909Y121523D01*
X151876Y121415D01*
X151846Y121305D01*
X151821Y121195D01*
X151799Y121084D01*
X151782Y120972D01*
X151768Y120859D01*
X151758Y120746D01*
X151752Y120633D01*
X151750Y120520D01*
X146558Y121169D02*
X146558Y117274D01*
X146558Y121169D02*
X146560Y121270D01*
X146566Y121370D01*
X146576Y121470D01*
X146589Y121570D01*
X146607Y121669D01*
X146628Y121768D01*
X146653Y121865D01*
X146682Y121962D01*
X146715Y122057D01*
X146751Y122151D01*
X146791Y122243D01*
X146834Y122334D01*
X146881Y122423D01*
X146931Y122510D01*
X146985Y122596D01*
X147042Y122679D01*
X147102Y122759D01*
X147165Y122838D01*
X147232Y122914D01*
X147301Y122987D01*
X147373Y123057D01*
X147447Y123125D01*
X147524Y123190D01*
X147604Y123251D01*
X147686Y123310D01*
X147770Y123365D01*
X147856Y123417D01*
X147944Y123466D01*
X148034Y123511D01*
X148126Y123553D01*
X148219Y123591D01*
X148314Y123625D01*
X148409Y123656D01*
X148506Y123683D01*
X148604Y123706D01*
X148703Y123726D01*
X148803Y123741D01*
X148903Y123753D01*
X149003Y123761D01*
X149104Y123765D01*
X149204Y123765D01*
X149305Y123761D01*
X149405Y123753D01*
X149505Y123741D01*
X149605Y123726D01*
X149704Y123706D01*
X149802Y123683D01*
X149899Y123656D01*
X149994Y123625D01*
X150089Y123591D01*
X150182Y123553D01*
X150274Y123511D01*
X150364Y123466D01*
X150452Y123417D01*
X150538Y123365D01*
X150622Y123310D01*
X150704Y123251D01*
X150784Y123190D01*
X150861Y123125D01*
X150935Y123057D01*
X151007Y122987D01*
X151076Y122914D01*
X151143Y122838D01*
X151206Y122759D01*
X151266Y122679D01*
X151323Y122596D01*
X151377Y122510D01*
X151427Y122423D01*
X151474Y122334D01*
X151517Y122243D01*
X151557Y122151D01*
X151593Y122057D01*
X151626Y121962D01*
X151655Y121865D01*
X151680Y121768D01*
X151701Y121669D01*
X151719Y121570D01*
X151732Y121470D01*
X151742Y121370D01*
X151748Y121270D01*
X151750Y121169D01*
X151751Y121169D02*
X151751Y118573D01*
X184658Y105918D02*
X196342Y105918D01*
X184658Y105918D02*
X184658Y109164D01*
X184660Y109277D01*
X184666Y109390D01*
X184676Y109503D01*
X184690Y109616D01*
X184707Y109728D01*
X184729Y109839D01*
X184754Y109949D01*
X184784Y110059D01*
X184817Y110167D01*
X184854Y110274D01*
X184894Y110380D01*
X184939Y110484D01*
X184987Y110587D01*
X185038Y110688D01*
X185093Y110787D01*
X185151Y110884D01*
X185213Y110979D01*
X185278Y111072D01*
X185346Y111162D01*
X185417Y111250D01*
X185492Y111336D01*
X185569Y111419D01*
X185649Y111499D01*
X185732Y111576D01*
X185818Y111651D01*
X185906Y111722D01*
X185996Y111790D01*
X186089Y111855D01*
X186184Y111917D01*
X186281Y111975D01*
X186380Y112030D01*
X186481Y112081D01*
X186584Y112129D01*
X186688Y112174D01*
X186794Y112214D01*
X186901Y112251D01*
X187009Y112284D01*
X187119Y112314D01*
X187229Y112339D01*
X187340Y112361D01*
X187452Y112378D01*
X187565Y112392D01*
X187678Y112402D01*
X187791Y112408D01*
X187904Y112410D01*
X188017Y112408D01*
X188130Y112402D01*
X188243Y112392D01*
X188356Y112378D01*
X188468Y112361D01*
X188579Y112339D01*
X188689Y112314D01*
X188799Y112284D01*
X188907Y112251D01*
X189014Y112214D01*
X189120Y112174D01*
X189224Y112129D01*
X189327Y112081D01*
X189428Y112030D01*
X189527Y111975D01*
X189624Y111917D01*
X189719Y111855D01*
X189812Y111790D01*
X189902Y111722D01*
X189990Y111651D01*
X190076Y111576D01*
X190159Y111499D01*
X190239Y111419D01*
X190316Y111336D01*
X190391Y111250D01*
X190462Y111162D01*
X190530Y111072D01*
X190595Y110979D01*
X190657Y110884D01*
X190715Y110787D01*
X190770Y110688D01*
X190821Y110587D01*
X190869Y110484D01*
X190914Y110380D01*
X190954Y110274D01*
X190991Y110167D01*
X191024Y110059D01*
X191054Y109949D01*
X191079Y109839D01*
X191101Y109728D01*
X191118Y109616D01*
X191132Y109503D01*
X191142Y109390D01*
X191148Y109277D01*
X191150Y109164D01*
X191149Y109164D02*
X191149Y105918D01*
X191149Y109813D02*
X196342Y112409D01*
X193746Y117274D02*
X184658Y119871D01*
X193746Y117274D02*
X193746Y123765D01*
X191149Y121818D02*
X196342Y121818D01*
M02*
