G04 EAGLE Gerber RS-274X export*
G75*
%MOMM*%
%FSLAX34Y34*%
%LPD*%
%INSoldermask Top*%
%IPPOS*%
%AMOC8*
5,1,8,0,0,1.08239X$1,22.5*%
G01*
%ADD10R,1.803200X1.503200*%
%ADD11R,2.203200X2.703200*%
%ADD12R,0.703200X2.503200*%
%ADD13C,1.103200*%
%ADD14R,2.403200X0.803200*%
%ADD15R,2.438400X1.422400*%
%ADD16R,2.403200X3.803200*%
%ADD17C,1.727200*%
%ADD18R,1.603200X1.603200*%
%ADD19P,2.034460X8X202.500000*%
%ADD20R,1.879600X1.879600*%
%ADD21R,1.703200X1.503200*%
%ADD22R,1.503200X1.803200*%


D10*
X254000Y451010D03*
X254000Y471010D03*
D11*
X196900Y498240D03*
X107900Y498240D03*
X196900Y553240D03*
X107900Y553240D03*
D12*
X168400Y497240D03*
X160400Y497240D03*
X152400Y497240D03*
X144400Y497240D03*
X136400Y497240D03*
D13*
X174400Y523240D03*
X130400Y523240D03*
D14*
X116400Y323850D03*
X116400Y311150D03*
X116400Y298450D03*
X116400Y285750D03*
X116400Y273050D03*
X116400Y260350D03*
X116400Y247650D03*
X116400Y234950D03*
X188400Y234950D03*
X188400Y247650D03*
X188400Y260350D03*
X188400Y273050D03*
X188400Y285750D03*
X188400Y298450D03*
X188400Y311150D03*
X188400Y323850D03*
D15*
X253238Y370586D03*
X253238Y393700D03*
X253238Y416814D03*
D16*
X191260Y393700D03*
D17*
X88900Y172720D02*
X88900Y157480D01*
X114300Y157480D02*
X114300Y172720D01*
X139700Y172720D02*
X139700Y157480D01*
X165100Y157480D02*
X165100Y172720D01*
X190500Y172720D02*
X190500Y157480D01*
X215900Y157480D02*
X215900Y172720D01*
D18*
X228550Y450850D03*
X190550Y450850D03*
D19*
X88900Y63500D03*
D20*
X63500Y63500D03*
D21*
X95250Y102260D03*
X95250Y121260D03*
D19*
X139700Y63500D03*
D20*
X114300Y63500D03*
D19*
X190500Y63500D03*
D20*
X165100Y63500D03*
D19*
X241300Y63500D03*
D20*
X215900Y63500D03*
D22*
X237650Y317500D03*
X257650Y317500D03*
X237650Y342900D03*
X257650Y342900D03*
D21*
X133350Y102260D03*
X133350Y121260D03*
X171450Y102260D03*
X171450Y121260D03*
X209550Y102260D03*
X209550Y121260D03*
M02*
