G04 EAGLE Gerber RS-274X export*
G75*
%MOMM*%
%FSLAX34Y34*%
%LPD*%
%INBottom Copper*%
%IPPOS*%
%AMOC8*
5,1,8,0,0,1.08239X$1,22.5*%
G01*
%ADD10C,1.320800*%
%ADD11C,1.524000*%
%ADD12P,4.870755X8X292.500000*%
%ADD13C,2.000000*%
%ADD14P,2.749271X8X22.500000*%
%ADD15C,1.000000*%
%ADD16C,1.500000*%
%ADD17C,0.756400*%
%ADD18C,4.000000*%


D10*
X475996Y127000D02*
X489204Y127000D01*
X489204Y101600D02*
X475996Y101600D01*
X70104Y165100D02*
X56896Y165100D01*
X56896Y139700D02*
X70104Y139700D01*
X133096Y139700D02*
X146304Y139700D01*
X146304Y165100D02*
X133096Y165100D01*
X70104Y114300D02*
X56896Y114300D01*
X56896Y88900D02*
X70104Y88900D01*
X133096Y114300D02*
X146304Y114300D01*
X146304Y88900D02*
X133096Y88900D01*
D11*
X436880Y215900D02*
X452120Y215900D01*
X452120Y190500D02*
X436880Y190500D01*
X436880Y165100D02*
X452120Y165100D01*
D12*
X226500Y150000D03*
X393500Y150000D03*
D10*
X552196Y127000D02*
X565404Y127000D01*
X565404Y177800D02*
X552196Y177800D01*
X552196Y152400D02*
X565404Y152400D01*
X330200Y229996D02*
X330200Y243204D01*
X279400Y243204D02*
X279400Y229996D01*
X304800Y229996D02*
X304800Y243204D01*
D13*
X190500Y114300D03*
X190500Y190500D03*
X520700Y254000D03*
X520700Y177800D03*
X520700Y50800D03*
X520700Y127000D03*
D14*
X279400Y50800D03*
X342900Y50800D03*
D15*
X35292Y152708D02*
X35292Y220008D01*
X344600Y265000D02*
X393700Y215900D01*
X444500Y215900D01*
X63500Y139700D02*
X48300Y139700D01*
X35292Y152708D01*
X35292Y220008D02*
X80284Y265000D01*
X344600Y265000D01*
X190500Y114300D02*
X139700Y114300D01*
X139700Y165100D02*
X211400Y165100D01*
X226500Y150000D01*
X444500Y139700D02*
X444500Y165100D01*
X444500Y139700D02*
X389800Y85000D01*
D16*
X279400Y50800D02*
X241300Y88900D01*
X226500Y103700D01*
X226500Y150000D01*
D15*
X241300Y88900D02*
X245200Y85000D01*
X389800Y85000D01*
D17*
X211400Y165100D03*
X226500Y103700D03*
D18*
X160000Y30000D03*
X440000Y270000D03*
D15*
X558800Y127000D02*
X533400Y101600D01*
X520700Y101600D01*
X482600Y101600D01*
X520700Y101600D02*
X520700Y50800D01*
X482600Y101600D02*
X457200Y101600D01*
X406400Y50800D01*
X342900Y50800D01*
D16*
X310100Y18000D01*
X223300Y18000D02*
X177800Y63500D01*
X101600Y63500D01*
X101600Y203600D02*
X135000Y237000D01*
X279000Y237000D01*
X279400Y236600D01*
X310100Y18000D02*
X223300Y18000D01*
X101600Y63500D02*
X101600Y88900D01*
X101600Y203600D01*
D15*
X101600Y88900D02*
X63500Y88900D01*
X520700Y152400D02*
X520700Y177800D01*
X520700Y152400D02*
X520700Y127000D01*
X520700Y152400D02*
X558800Y152400D01*
X520700Y127000D02*
X482600Y127000D01*
X469900Y190500D02*
X444500Y190500D01*
X469900Y190500D02*
X482600Y203200D01*
X533400Y203200D01*
X558800Y177800D01*
X304800Y217000D02*
X304800Y236600D01*
X294300Y206500D02*
X206500Y206500D01*
X190500Y190500D01*
X294300Y206500D02*
X304800Y217000D01*
D16*
X330200Y236600D02*
X393500Y173300D01*
X393500Y150000D01*
D15*
X520700Y241300D02*
X520700Y254000D01*
X520700Y241300D02*
X397000Y241300D01*
X353300Y285000D01*
X72000Y285000D02*
X15000Y228000D01*
X15000Y137400D02*
X38100Y114300D01*
X63500Y114300D01*
X72000Y285000D02*
X353300Y285000D01*
X15000Y228000D02*
X15000Y137400D01*
M02*
