G04 EAGLE Gerber RS-274X export*
G75*
%MOMM*%
%FSLAX34Y34*%
%LPD*%
%INSilkscreen Top*%
%IPPOS*%
%AMOC8*
5,1,8,0,0,1.08239X$1,22.5*%
G01*
%ADD10C,0.152400*%
%ADD11C,0.254000*%
%ADD12C,0.127000*%
%ADD13R,0.508000X0.381000*%
%ADD14C,0.101600*%


D10*
X495300Y135890D02*
X495300Y92710D01*
X469900Y92710D02*
X469900Y135890D01*
X472440Y90170D02*
X492760Y90170D01*
X492760Y138430D02*
X472440Y138430D01*
X495300Y92710D02*
X495298Y92610D01*
X495292Y92511D01*
X495282Y92411D01*
X495269Y92313D01*
X495251Y92214D01*
X495230Y92117D01*
X495205Y92021D01*
X495176Y91925D01*
X495143Y91831D01*
X495107Y91738D01*
X495067Y91647D01*
X495023Y91557D01*
X494976Y91469D01*
X494926Y91383D01*
X494872Y91299D01*
X494815Y91217D01*
X494755Y91138D01*
X494691Y91060D01*
X494625Y90986D01*
X494556Y90914D01*
X494484Y90845D01*
X494410Y90779D01*
X494332Y90715D01*
X494253Y90655D01*
X494171Y90598D01*
X494087Y90544D01*
X494001Y90494D01*
X493913Y90447D01*
X493823Y90403D01*
X493732Y90363D01*
X493639Y90327D01*
X493545Y90294D01*
X493449Y90265D01*
X493353Y90240D01*
X493256Y90219D01*
X493157Y90201D01*
X493059Y90188D01*
X492959Y90178D01*
X492860Y90172D01*
X492760Y90170D01*
X495300Y135890D02*
X495298Y135990D01*
X495292Y136089D01*
X495282Y136189D01*
X495269Y136287D01*
X495251Y136386D01*
X495230Y136483D01*
X495205Y136579D01*
X495176Y136675D01*
X495143Y136769D01*
X495107Y136862D01*
X495067Y136953D01*
X495023Y137043D01*
X494976Y137131D01*
X494926Y137217D01*
X494872Y137301D01*
X494815Y137383D01*
X494755Y137462D01*
X494691Y137540D01*
X494625Y137614D01*
X494556Y137686D01*
X494484Y137755D01*
X494410Y137821D01*
X494332Y137885D01*
X494253Y137945D01*
X494171Y138002D01*
X494087Y138056D01*
X494001Y138106D01*
X493913Y138153D01*
X493823Y138197D01*
X493732Y138237D01*
X493639Y138273D01*
X493545Y138306D01*
X493449Y138335D01*
X493353Y138360D01*
X493256Y138381D01*
X493157Y138399D01*
X493059Y138412D01*
X492959Y138422D01*
X492860Y138428D01*
X492760Y138430D01*
X469900Y92710D02*
X469902Y92610D01*
X469908Y92511D01*
X469918Y92411D01*
X469931Y92313D01*
X469949Y92214D01*
X469970Y92117D01*
X469995Y92021D01*
X470024Y91925D01*
X470057Y91831D01*
X470093Y91738D01*
X470133Y91647D01*
X470177Y91557D01*
X470224Y91469D01*
X470274Y91383D01*
X470328Y91299D01*
X470385Y91217D01*
X470445Y91138D01*
X470509Y91060D01*
X470575Y90986D01*
X470644Y90914D01*
X470716Y90845D01*
X470790Y90779D01*
X470868Y90715D01*
X470947Y90655D01*
X471029Y90598D01*
X471113Y90544D01*
X471199Y90494D01*
X471287Y90447D01*
X471377Y90403D01*
X471468Y90363D01*
X471561Y90327D01*
X471655Y90294D01*
X471751Y90265D01*
X471847Y90240D01*
X471944Y90219D01*
X472043Y90201D01*
X472141Y90188D01*
X472241Y90178D01*
X472340Y90172D01*
X472440Y90170D01*
X469900Y135890D02*
X469902Y135990D01*
X469908Y136089D01*
X469918Y136189D01*
X469931Y136287D01*
X469949Y136386D01*
X469970Y136483D01*
X469995Y136579D01*
X470024Y136675D01*
X470057Y136769D01*
X470093Y136862D01*
X470133Y136953D01*
X470177Y137043D01*
X470224Y137131D01*
X470274Y137217D01*
X470328Y137301D01*
X470385Y137383D01*
X470445Y137462D01*
X470509Y137540D01*
X470575Y137614D01*
X470644Y137686D01*
X470716Y137755D01*
X470790Y137821D01*
X470868Y137885D01*
X470947Y137945D01*
X471029Y138002D01*
X471113Y138056D01*
X471199Y138106D01*
X471287Y138153D01*
X471377Y138197D01*
X471468Y138237D01*
X471561Y138273D01*
X471655Y138306D01*
X471751Y138335D01*
X471847Y138360D01*
X471944Y138381D01*
X472043Y138399D01*
X472141Y138412D01*
X472241Y138422D01*
X472340Y138428D01*
X472440Y138430D01*
X482600Y111760D02*
X482600Y110490D01*
D11*
X482600Y111760D02*
X490220Y111760D01*
X482600Y111760D02*
X474980Y111760D01*
X482600Y116840D02*
X490220Y116840D01*
X482600Y116840D02*
X474980Y116840D01*
D10*
X482600Y116840D02*
X482600Y118110D01*
D12*
X509905Y123153D02*
X509905Y125693D01*
X509905Y123153D02*
X509903Y123053D01*
X509897Y122954D01*
X509887Y122854D01*
X509874Y122756D01*
X509856Y122657D01*
X509835Y122560D01*
X509810Y122464D01*
X509781Y122368D01*
X509748Y122274D01*
X509712Y122181D01*
X509672Y122090D01*
X509628Y122000D01*
X509581Y121912D01*
X509531Y121826D01*
X509477Y121742D01*
X509420Y121660D01*
X509360Y121581D01*
X509296Y121503D01*
X509230Y121429D01*
X509161Y121357D01*
X509089Y121288D01*
X509015Y121222D01*
X508937Y121158D01*
X508858Y121098D01*
X508776Y121041D01*
X508692Y120987D01*
X508606Y120937D01*
X508518Y120890D01*
X508428Y120846D01*
X508337Y120806D01*
X508244Y120770D01*
X508150Y120737D01*
X508054Y120708D01*
X507958Y120683D01*
X507861Y120662D01*
X507762Y120644D01*
X507664Y120631D01*
X507564Y120621D01*
X507465Y120615D01*
X507365Y120613D01*
X501015Y120613D01*
X500915Y120615D01*
X500816Y120621D01*
X500716Y120631D01*
X500618Y120644D01*
X500519Y120662D01*
X500422Y120683D01*
X500326Y120708D01*
X500230Y120737D01*
X500136Y120770D01*
X500043Y120806D01*
X499952Y120846D01*
X499862Y120890D01*
X499774Y120937D01*
X499688Y120987D01*
X499604Y121041D01*
X499522Y121098D01*
X499443Y121158D01*
X499365Y121222D01*
X499291Y121288D01*
X499219Y121357D01*
X499150Y121429D01*
X499084Y121503D01*
X499020Y121581D01*
X498960Y121660D01*
X498903Y121742D01*
X498849Y121826D01*
X498799Y121912D01*
X498752Y122000D01*
X498708Y122090D01*
X498668Y122181D01*
X498632Y122274D01*
X498599Y122368D01*
X498570Y122464D01*
X498545Y122560D01*
X498524Y122657D01*
X498506Y122756D01*
X498493Y122854D01*
X498483Y122954D01*
X498477Y123053D01*
X498475Y123153D01*
X498475Y125693D01*
X501015Y130175D02*
X498475Y133350D01*
X509905Y133350D01*
X509905Y130175D02*
X509905Y136525D01*
D10*
X130810Y177800D02*
X130810Y76200D01*
X72390Y76200D02*
X72390Y177800D01*
X72390Y76200D02*
X130810Y76200D01*
X130810Y177800D02*
X111760Y177800D01*
X91440Y177800D02*
X72390Y177800D01*
X91440Y177800D02*
X91443Y177553D01*
X91452Y177305D01*
X91467Y177058D01*
X91488Y176812D01*
X91515Y176566D01*
X91548Y176321D01*
X91587Y176076D01*
X91632Y175833D01*
X91683Y175591D01*
X91740Y175350D01*
X91802Y175111D01*
X91871Y174873D01*
X91945Y174637D01*
X92025Y174403D01*
X92110Y174171D01*
X92202Y173941D01*
X92298Y173713D01*
X92401Y173488D01*
X92508Y173265D01*
X92622Y173045D01*
X92740Y172828D01*
X92864Y172613D01*
X92993Y172402D01*
X93127Y172194D01*
X93266Y171989D01*
X93410Y171788D01*
X93558Y171590D01*
X93712Y171396D01*
X93870Y171206D01*
X94033Y171020D01*
X94200Y170838D01*
X94372Y170660D01*
X94548Y170486D01*
X94728Y170316D01*
X94913Y170151D01*
X95101Y169991D01*
X95293Y169835D01*
X95489Y169683D01*
X95688Y169537D01*
X95891Y169395D01*
X96098Y169259D01*
X96307Y169127D01*
X96520Y169001D01*
X96736Y168880D01*
X96954Y168764D01*
X97176Y168654D01*
X97400Y168549D01*
X97626Y168449D01*
X97855Y168355D01*
X98086Y168267D01*
X98320Y168184D01*
X98555Y168107D01*
X98792Y168036D01*
X99030Y167970D01*
X99270Y167911D01*
X99512Y167857D01*
X99755Y167809D01*
X99998Y167767D01*
X100243Y167731D01*
X100489Y167701D01*
X100735Y167677D01*
X100982Y167659D01*
X101229Y167647D01*
X101476Y167641D01*
X101724Y167641D01*
X101971Y167647D01*
X102218Y167659D01*
X102465Y167677D01*
X102711Y167701D01*
X102957Y167731D01*
X103202Y167767D01*
X103445Y167809D01*
X103688Y167857D01*
X103930Y167911D01*
X104170Y167970D01*
X104408Y168036D01*
X104645Y168107D01*
X104880Y168184D01*
X105114Y168267D01*
X105345Y168355D01*
X105574Y168449D01*
X105800Y168549D01*
X106024Y168654D01*
X106246Y168764D01*
X106464Y168880D01*
X106680Y169001D01*
X106893Y169127D01*
X107102Y169259D01*
X107309Y169395D01*
X107512Y169537D01*
X107711Y169683D01*
X107907Y169835D01*
X108099Y169991D01*
X108287Y170151D01*
X108472Y170316D01*
X108652Y170486D01*
X108828Y170660D01*
X109000Y170838D01*
X109167Y171020D01*
X109330Y171206D01*
X109488Y171396D01*
X109642Y171590D01*
X109790Y171788D01*
X109934Y171989D01*
X110073Y172194D01*
X110207Y172402D01*
X110336Y172613D01*
X110460Y172828D01*
X110578Y173045D01*
X110692Y173265D01*
X110799Y173488D01*
X110902Y173713D01*
X110998Y173941D01*
X111090Y174171D01*
X111175Y174403D01*
X111255Y174637D01*
X111329Y174873D01*
X111398Y175111D01*
X111460Y175350D01*
X111517Y175591D01*
X111568Y175833D01*
X111613Y176076D01*
X111652Y176321D01*
X111685Y176566D01*
X111712Y176812D01*
X111733Y177058D01*
X111748Y177305D01*
X111757Y177553D01*
X111760Y177800D01*
D12*
X74295Y180975D02*
X74295Y192405D01*
X73025Y180975D02*
X75565Y180975D01*
X75565Y192405D02*
X73025Y192405D01*
X82767Y180975D02*
X85307Y180975D01*
X82767Y180975D02*
X82667Y180977D01*
X82568Y180983D01*
X82468Y180993D01*
X82370Y181006D01*
X82271Y181024D01*
X82174Y181045D01*
X82078Y181070D01*
X81982Y181099D01*
X81888Y181132D01*
X81795Y181168D01*
X81704Y181208D01*
X81614Y181252D01*
X81526Y181299D01*
X81440Y181349D01*
X81356Y181403D01*
X81274Y181460D01*
X81195Y181520D01*
X81117Y181584D01*
X81043Y181650D01*
X80971Y181719D01*
X80902Y181791D01*
X80836Y181865D01*
X80772Y181943D01*
X80712Y182022D01*
X80655Y182104D01*
X80601Y182188D01*
X80551Y182274D01*
X80504Y182362D01*
X80460Y182452D01*
X80420Y182543D01*
X80384Y182636D01*
X80351Y182730D01*
X80322Y182826D01*
X80297Y182922D01*
X80276Y183019D01*
X80258Y183118D01*
X80245Y183216D01*
X80235Y183316D01*
X80229Y183415D01*
X80227Y183515D01*
X80227Y189865D01*
X80229Y189965D01*
X80235Y190064D01*
X80245Y190164D01*
X80258Y190262D01*
X80276Y190361D01*
X80297Y190458D01*
X80322Y190554D01*
X80351Y190650D01*
X80384Y190744D01*
X80420Y190837D01*
X80460Y190928D01*
X80504Y191018D01*
X80551Y191106D01*
X80601Y191192D01*
X80655Y191276D01*
X80712Y191358D01*
X80772Y191437D01*
X80836Y191515D01*
X80902Y191589D01*
X80971Y191661D01*
X81043Y191730D01*
X81117Y191796D01*
X81195Y191860D01*
X81274Y191920D01*
X81356Y191977D01*
X81440Y192031D01*
X81526Y192081D01*
X81614Y192128D01*
X81704Y192172D01*
X81795Y192212D01*
X81888Y192248D01*
X81982Y192281D01*
X82078Y192310D01*
X82174Y192335D01*
X82271Y192356D01*
X82370Y192374D01*
X82468Y192387D01*
X82568Y192397D01*
X82667Y192403D01*
X82767Y192405D01*
X85307Y192405D01*
X89789Y189865D02*
X92964Y192405D01*
X92964Y180975D01*
X89789Y180975D02*
X96139Y180975D01*
D10*
X457200Y209550D02*
X457200Y222250D01*
X457200Y209550D02*
X450850Y203200D01*
X438150Y203200D02*
X431800Y209550D01*
X450850Y203200D02*
X457200Y196850D01*
X457200Y184150D01*
X450850Y177800D01*
X438150Y177800D02*
X431800Y184150D01*
X431800Y196850D01*
X438150Y203200D01*
X438150Y228600D02*
X450850Y228600D01*
X457200Y222250D01*
X438150Y228600D02*
X431800Y222250D01*
X431800Y209550D01*
X450850Y177800D02*
X457200Y171450D01*
X457200Y158750D01*
X450850Y152400D01*
X438150Y152400D02*
X431800Y158750D01*
X431800Y171450D01*
X438150Y177800D01*
X438150Y152400D02*
X450850Y152400D01*
D12*
X441325Y234315D02*
X438785Y237490D01*
X450215Y237490D01*
X450215Y234315D02*
X450215Y240665D01*
X461645Y215182D02*
X473075Y215182D01*
X473075Y213912D02*
X473075Y216452D01*
X461645Y216452D02*
X461645Y213912D01*
X461645Y221615D02*
X473075Y221615D01*
X461645Y221615D02*
X461645Y224790D01*
X461647Y224901D01*
X461653Y225011D01*
X461662Y225122D01*
X461676Y225232D01*
X461693Y225341D01*
X461714Y225450D01*
X461739Y225558D01*
X461768Y225665D01*
X461800Y225771D01*
X461836Y225876D01*
X461876Y225979D01*
X461919Y226081D01*
X461966Y226182D01*
X462017Y226281D01*
X462070Y226378D01*
X462127Y226472D01*
X462188Y226565D01*
X462251Y226656D01*
X462318Y226745D01*
X462388Y226831D01*
X462461Y226914D01*
X462536Y226996D01*
X462614Y227074D01*
X462696Y227149D01*
X462779Y227222D01*
X462865Y227292D01*
X462954Y227359D01*
X463045Y227422D01*
X463138Y227483D01*
X463233Y227540D01*
X463329Y227593D01*
X463428Y227644D01*
X463529Y227691D01*
X463631Y227734D01*
X463734Y227774D01*
X463839Y227810D01*
X463945Y227842D01*
X464052Y227871D01*
X464160Y227896D01*
X464269Y227917D01*
X464378Y227934D01*
X464488Y227948D01*
X464599Y227957D01*
X464709Y227963D01*
X464820Y227965D01*
X464931Y227963D01*
X465041Y227957D01*
X465152Y227948D01*
X465262Y227934D01*
X465371Y227917D01*
X465480Y227896D01*
X465588Y227871D01*
X465695Y227842D01*
X465801Y227810D01*
X465906Y227774D01*
X466009Y227734D01*
X466111Y227691D01*
X466212Y227644D01*
X466311Y227593D01*
X466408Y227540D01*
X466502Y227483D01*
X466595Y227422D01*
X466686Y227359D01*
X466775Y227292D01*
X466861Y227222D01*
X466944Y227149D01*
X467026Y227074D01*
X467104Y226996D01*
X467179Y226914D01*
X467252Y226831D01*
X467322Y226745D01*
X467389Y226656D01*
X467452Y226565D01*
X467513Y226472D01*
X467570Y226378D01*
X467623Y226281D01*
X467674Y226182D01*
X467721Y226081D01*
X467764Y225979D01*
X467804Y225876D01*
X467840Y225771D01*
X467872Y225665D01*
X467901Y225558D01*
X467926Y225450D01*
X467947Y225341D01*
X467964Y225232D01*
X467978Y225122D01*
X467987Y225011D01*
X467993Y224901D01*
X467995Y224790D01*
X467995Y221615D01*
X467995Y225425D02*
X473075Y227965D01*
D10*
X213800Y142380D02*
X213800Y137300D01*
X218880Y137300D01*
X234120Y137300D02*
X239200Y137300D01*
X239200Y142380D01*
X239200Y157620D02*
X239200Y162700D01*
X234120Y162700D01*
X218880Y162700D02*
X213800Y162700D01*
X213800Y157620D01*
D12*
X219007Y134125D02*
X219007Y122695D01*
X222817Y127775D02*
X219007Y134125D01*
X222817Y127775D02*
X226627Y134125D01*
X226627Y122695D01*
X232215Y131585D02*
X235390Y134125D01*
X235390Y122695D01*
X232215Y122695D02*
X238565Y122695D01*
D10*
X380800Y137300D02*
X380800Y142380D01*
X380800Y137300D02*
X385880Y137300D01*
X401120Y137300D02*
X406200Y137300D01*
X406200Y142380D01*
X406200Y157620D02*
X406200Y162700D01*
X401120Y162700D01*
X385880Y162700D02*
X380800Y162700D01*
X380800Y157620D01*
D12*
X386007Y134125D02*
X386007Y122695D01*
X389817Y127775D02*
X386007Y134125D01*
X389817Y127775D02*
X393627Y134125D01*
X393627Y122695D01*
X402708Y134126D02*
X402812Y134124D01*
X402917Y134118D01*
X403021Y134109D01*
X403124Y134096D01*
X403227Y134078D01*
X403329Y134058D01*
X403431Y134033D01*
X403531Y134005D01*
X403631Y133973D01*
X403729Y133937D01*
X403826Y133898D01*
X403921Y133856D01*
X404015Y133810D01*
X404107Y133760D01*
X404197Y133708D01*
X404285Y133652D01*
X404371Y133592D01*
X404455Y133530D01*
X404536Y133465D01*
X404615Y133397D01*
X404692Y133325D01*
X404765Y133252D01*
X404837Y133175D01*
X404905Y133096D01*
X404970Y133015D01*
X405032Y132931D01*
X405092Y132845D01*
X405148Y132757D01*
X405200Y132667D01*
X405250Y132575D01*
X405296Y132481D01*
X405338Y132386D01*
X405377Y132289D01*
X405413Y132191D01*
X405445Y132091D01*
X405473Y131991D01*
X405498Y131889D01*
X405518Y131787D01*
X405536Y131684D01*
X405549Y131581D01*
X405558Y131477D01*
X405564Y131372D01*
X405566Y131268D01*
X402708Y134125D02*
X402590Y134123D01*
X402471Y134117D01*
X402353Y134108D01*
X402236Y134095D01*
X402119Y134077D01*
X402002Y134057D01*
X401886Y134032D01*
X401771Y134004D01*
X401658Y133971D01*
X401545Y133936D01*
X401433Y133896D01*
X401323Y133854D01*
X401214Y133807D01*
X401106Y133757D01*
X401001Y133704D01*
X400897Y133647D01*
X400795Y133587D01*
X400695Y133524D01*
X400597Y133457D01*
X400501Y133388D01*
X400408Y133315D01*
X400317Y133239D01*
X400228Y133161D01*
X400142Y133079D01*
X400059Y132995D01*
X399978Y132909D01*
X399901Y132819D01*
X399826Y132728D01*
X399754Y132634D01*
X399685Y132537D01*
X399620Y132439D01*
X399557Y132338D01*
X399498Y132235D01*
X399442Y132131D01*
X399390Y132025D01*
X399341Y131917D01*
X399296Y131808D01*
X399254Y131697D01*
X399216Y131585D01*
X404613Y129046D02*
X404689Y129121D01*
X404764Y129200D01*
X404835Y129281D01*
X404904Y129365D01*
X404969Y129451D01*
X405031Y129539D01*
X405091Y129629D01*
X405147Y129721D01*
X405200Y129816D01*
X405249Y129912D01*
X405295Y130010D01*
X405338Y130109D01*
X405377Y130210D01*
X405412Y130312D01*
X405444Y130415D01*
X405472Y130519D01*
X405497Y130624D01*
X405518Y130731D01*
X405535Y130837D01*
X405548Y130944D01*
X405557Y131052D01*
X405563Y131160D01*
X405565Y131268D01*
X404613Y129045D02*
X399215Y122695D01*
X405565Y122695D01*
X575310Y131455D02*
X575310Y173345D01*
X547441Y176530D02*
X546858Y176247D01*
X546281Y175949D01*
X545712Y175638D01*
X545151Y175313D01*
X544598Y174974D01*
X544053Y174622D01*
X543517Y174257D01*
X542990Y173879D01*
X542473Y173488D01*
X541965Y173085D01*
X541467Y172669D01*
X540979Y172242D01*
X540502Y171803D01*
X540035Y171352D01*
X539580Y170890D01*
X539136Y170417D01*
X538704Y169934D01*
X538283Y169440D01*
X537875Y168936D01*
X537479Y168422D01*
X537096Y167899D01*
X536725Y167367D01*
X536368Y166826D01*
X536024Y166276D01*
X535693Y165718D01*
X535376Y165152D01*
X535073Y164579D01*
X534784Y163998D01*
X534509Y163411D01*
X534248Y162817D01*
X534002Y162217D01*
X533771Y161611D01*
X533554Y160999D01*
X533353Y160383D01*
X533166Y159762D01*
X532995Y159136D01*
X532839Y158507D01*
X532698Y157874D01*
X532572Y157237D01*
X532463Y156598D01*
X532368Y155957D01*
X532290Y155313D01*
X532227Y154667D01*
X532179Y154020D01*
X532148Y153373D01*
X532132Y152724D01*
X532132Y152076D01*
X532148Y151427D01*
X532179Y150780D01*
X532227Y150133D01*
X532290Y149487D01*
X532368Y148843D01*
X532463Y148202D01*
X532572Y147563D01*
X532698Y146926D01*
X532839Y146293D01*
X532995Y145664D01*
X533166Y145038D01*
X533353Y144417D01*
X533554Y143801D01*
X533771Y143189D01*
X534002Y142583D01*
X534248Y141983D01*
X534509Y141389D01*
X534784Y140802D01*
X535073Y140221D01*
X535376Y139648D01*
X535693Y139082D01*
X536024Y138524D01*
X536368Y137974D01*
X536725Y137433D01*
X537096Y136901D01*
X537479Y136378D01*
X537875Y135864D01*
X538283Y135360D01*
X538704Y134866D01*
X539136Y134383D01*
X539580Y133910D01*
X540035Y133448D01*
X540502Y132997D01*
X540979Y132558D01*
X541467Y132131D01*
X541965Y131715D01*
X542473Y131312D01*
X542990Y130921D01*
X543517Y130543D01*
X544053Y130178D01*
X544598Y129826D01*
X545151Y129487D01*
X545712Y129162D01*
X546281Y128851D01*
X546858Y128553D01*
X547441Y128270D01*
X570159Y128270D02*
X570705Y128535D01*
X571245Y128812D01*
X571778Y129101D01*
X572305Y129403D01*
X572825Y129716D01*
X573338Y130041D01*
X573843Y130378D01*
X574340Y130726D01*
X574829Y131085D01*
X575310Y131455D01*
X560070Y138359D02*
X560070Y141041D01*
X560070Y163759D02*
X560070Y166441D01*
X569918Y176642D02*
X570491Y176371D01*
X571057Y176086D01*
X571616Y175789D01*
X572168Y175478D01*
X572712Y175153D01*
X573248Y174817D01*
X573777Y174467D01*
X574297Y174105D01*
X574808Y173731D01*
X575310Y173345D01*
X524510Y127635D02*
X519430Y127635D01*
X519319Y127637D01*
X519209Y127643D01*
X519098Y127652D01*
X518988Y127666D01*
X518879Y127683D01*
X518770Y127704D01*
X518662Y127729D01*
X518555Y127758D01*
X518449Y127790D01*
X518344Y127826D01*
X518241Y127866D01*
X518139Y127909D01*
X518038Y127956D01*
X517939Y128007D01*
X517843Y128060D01*
X517748Y128117D01*
X517655Y128178D01*
X517564Y128241D01*
X517475Y128308D01*
X517389Y128378D01*
X517306Y128451D01*
X517224Y128526D01*
X517146Y128604D01*
X517071Y128686D01*
X516998Y128769D01*
X516928Y128855D01*
X516861Y128944D01*
X516798Y129035D01*
X516737Y129128D01*
X516680Y129222D01*
X516627Y129319D01*
X516576Y129418D01*
X516529Y129519D01*
X516486Y129621D01*
X516446Y129724D01*
X516410Y129829D01*
X516378Y129935D01*
X516349Y130042D01*
X516324Y130150D01*
X516303Y130259D01*
X516286Y130368D01*
X516272Y130478D01*
X516263Y130589D01*
X516257Y130699D01*
X516255Y130810D01*
X516257Y130921D01*
X516263Y131031D01*
X516272Y131142D01*
X516286Y131252D01*
X516303Y131361D01*
X516324Y131470D01*
X516349Y131578D01*
X516378Y131685D01*
X516410Y131791D01*
X516446Y131896D01*
X516486Y131999D01*
X516529Y132101D01*
X516576Y132202D01*
X516627Y132301D01*
X516680Y132398D01*
X516737Y132492D01*
X516798Y132585D01*
X516861Y132676D01*
X516928Y132765D01*
X516998Y132851D01*
X517071Y132934D01*
X517146Y133016D01*
X517224Y133094D01*
X517306Y133169D01*
X517389Y133242D01*
X517475Y133312D01*
X517564Y133379D01*
X517655Y133442D01*
X517748Y133503D01*
X517843Y133560D01*
X517939Y133613D01*
X518038Y133664D01*
X518139Y133711D01*
X518241Y133754D01*
X518344Y133794D01*
X518449Y133830D01*
X518555Y133862D01*
X518662Y133891D01*
X518770Y133916D01*
X518879Y133937D01*
X518988Y133954D01*
X519098Y133968D01*
X519209Y133977D01*
X519319Y133983D01*
X519430Y133985D01*
X524510Y133985D01*
X524621Y133983D01*
X524731Y133977D01*
X524842Y133968D01*
X524952Y133954D01*
X525061Y133937D01*
X525170Y133916D01*
X525278Y133891D01*
X525385Y133862D01*
X525491Y133830D01*
X525596Y133794D01*
X525699Y133754D01*
X525801Y133711D01*
X525902Y133664D01*
X526001Y133613D01*
X526098Y133560D01*
X526192Y133503D01*
X526285Y133442D01*
X526376Y133379D01*
X526465Y133312D01*
X526551Y133242D01*
X526634Y133169D01*
X526716Y133094D01*
X526794Y133016D01*
X526869Y132934D01*
X526942Y132851D01*
X527012Y132765D01*
X527079Y132676D01*
X527142Y132585D01*
X527203Y132492D01*
X527260Y132397D01*
X527313Y132301D01*
X527364Y132202D01*
X527411Y132101D01*
X527454Y131999D01*
X527494Y131896D01*
X527530Y131791D01*
X527562Y131685D01*
X527591Y131578D01*
X527616Y131470D01*
X527637Y131361D01*
X527654Y131252D01*
X527668Y131142D01*
X527677Y131031D01*
X527683Y130921D01*
X527685Y130810D01*
X527683Y130699D01*
X527677Y130589D01*
X527668Y130478D01*
X527654Y130368D01*
X527637Y130259D01*
X527616Y130150D01*
X527591Y130042D01*
X527562Y129935D01*
X527530Y129829D01*
X527494Y129724D01*
X527454Y129621D01*
X527411Y129519D01*
X527364Y129418D01*
X527313Y129319D01*
X527260Y129222D01*
X527203Y129128D01*
X527142Y129035D01*
X527079Y128944D01*
X527012Y128855D01*
X526942Y128769D01*
X526869Y128686D01*
X526794Y128604D01*
X526716Y128526D01*
X526634Y128451D01*
X526551Y128378D01*
X526465Y128308D01*
X526376Y128241D01*
X526285Y128178D01*
X526192Y128117D01*
X526098Y128060D01*
X526001Y128007D01*
X525902Y127956D01*
X525801Y127909D01*
X525699Y127866D01*
X525596Y127826D01*
X525491Y127790D01*
X525385Y127758D01*
X525278Y127729D01*
X525170Y127704D01*
X525061Y127683D01*
X524952Y127666D01*
X524842Y127652D01*
X524731Y127643D01*
X524621Y127637D01*
X524510Y127635D01*
X525145Y132715D02*
X527685Y135255D01*
X518795Y138696D02*
X516255Y141871D01*
X527685Y141871D01*
X527685Y138696D02*
X527685Y145046D01*
X325750Y220090D02*
X283850Y220090D01*
X280670Y247959D02*
X280953Y248543D01*
X281251Y249119D01*
X281562Y249688D01*
X281887Y250249D01*
X282226Y250802D01*
X282578Y251347D01*
X282943Y251883D01*
X283321Y252410D01*
X283712Y252927D01*
X284115Y253435D01*
X284531Y253933D01*
X284958Y254421D01*
X285397Y254898D01*
X285848Y255365D01*
X286310Y255820D01*
X286783Y256264D01*
X287266Y256696D01*
X287760Y257117D01*
X288264Y257525D01*
X288778Y257921D01*
X289301Y258304D01*
X289833Y258675D01*
X290375Y259032D01*
X290924Y259376D01*
X291482Y259707D01*
X292048Y260024D01*
X292621Y260327D01*
X293202Y260616D01*
X293789Y260891D01*
X294383Y261152D01*
X294983Y261398D01*
X295589Y261629D01*
X296201Y261846D01*
X296817Y262047D01*
X297438Y262234D01*
X298064Y262405D01*
X298693Y262561D01*
X299326Y262702D01*
X299963Y262828D01*
X300602Y262937D01*
X301243Y263032D01*
X301887Y263110D01*
X302533Y263173D01*
X303180Y263221D01*
X303827Y263252D01*
X304476Y263268D01*
X305124Y263268D01*
X305773Y263252D01*
X306420Y263221D01*
X307067Y263173D01*
X307713Y263110D01*
X308357Y263032D01*
X308998Y262937D01*
X309637Y262828D01*
X310274Y262702D01*
X310907Y262561D01*
X311536Y262405D01*
X312162Y262234D01*
X312783Y262047D01*
X313399Y261846D01*
X314011Y261629D01*
X314617Y261398D01*
X315217Y261152D01*
X315811Y260891D01*
X316398Y260616D01*
X316979Y260327D01*
X317552Y260024D01*
X318118Y259707D01*
X318676Y259376D01*
X319225Y259032D01*
X319767Y258675D01*
X320299Y258304D01*
X320822Y257921D01*
X321336Y257525D01*
X321840Y257117D01*
X322334Y256696D01*
X322817Y256264D01*
X323290Y255820D01*
X323752Y255365D01*
X324203Y254898D01*
X324642Y254421D01*
X325069Y253933D01*
X325485Y253435D01*
X325888Y252927D01*
X326279Y252410D01*
X326657Y251883D01*
X327022Y251347D01*
X327374Y250802D01*
X327713Y250249D01*
X328038Y249688D01*
X328349Y249119D01*
X328647Y248543D01*
X328930Y247959D01*
X283850Y220090D02*
X283480Y220571D01*
X283121Y221060D01*
X282773Y221557D01*
X282436Y222062D01*
X282111Y222575D01*
X281798Y223095D01*
X281496Y223622D01*
X281207Y224155D01*
X280930Y224695D01*
X280665Y225241D01*
X290760Y235330D02*
X293440Y235330D01*
X316160Y235330D02*
X318840Y235330D01*
X329047Y225482D02*
X328776Y224909D01*
X328491Y224343D01*
X328194Y223784D01*
X327883Y223232D01*
X327558Y222688D01*
X327222Y222152D01*
X326872Y221623D01*
X326510Y221103D01*
X326136Y220592D01*
X325750Y220090D01*
X280035Y270890D02*
X280035Y275970D01*
X280037Y276081D01*
X280043Y276191D01*
X280052Y276302D01*
X280066Y276412D01*
X280083Y276521D01*
X280104Y276630D01*
X280129Y276738D01*
X280158Y276845D01*
X280190Y276951D01*
X280226Y277056D01*
X280266Y277159D01*
X280309Y277261D01*
X280356Y277362D01*
X280407Y277461D01*
X280460Y277558D01*
X280517Y277652D01*
X280578Y277745D01*
X280641Y277836D01*
X280708Y277925D01*
X280778Y278011D01*
X280851Y278094D01*
X280926Y278176D01*
X281004Y278254D01*
X281086Y278329D01*
X281169Y278402D01*
X281255Y278472D01*
X281344Y278539D01*
X281435Y278602D01*
X281528Y278663D01*
X281623Y278720D01*
X281719Y278773D01*
X281818Y278824D01*
X281919Y278871D01*
X282021Y278914D01*
X282124Y278954D01*
X282229Y278990D01*
X282335Y279022D01*
X282442Y279051D01*
X282550Y279076D01*
X282659Y279097D01*
X282768Y279114D01*
X282878Y279128D01*
X282989Y279137D01*
X283099Y279143D01*
X283210Y279145D01*
X283321Y279143D01*
X283431Y279137D01*
X283542Y279128D01*
X283652Y279114D01*
X283761Y279097D01*
X283870Y279076D01*
X283978Y279051D01*
X284085Y279022D01*
X284191Y278990D01*
X284296Y278954D01*
X284399Y278914D01*
X284501Y278871D01*
X284602Y278824D01*
X284701Y278773D01*
X284798Y278720D01*
X284892Y278663D01*
X284985Y278602D01*
X285076Y278539D01*
X285165Y278472D01*
X285251Y278402D01*
X285334Y278329D01*
X285416Y278254D01*
X285494Y278176D01*
X285569Y278094D01*
X285642Y278011D01*
X285712Y277925D01*
X285779Y277836D01*
X285842Y277745D01*
X285903Y277652D01*
X285960Y277558D01*
X286013Y277461D01*
X286064Y277362D01*
X286111Y277261D01*
X286154Y277159D01*
X286194Y277056D01*
X286230Y276951D01*
X286262Y276845D01*
X286291Y276738D01*
X286316Y276630D01*
X286337Y276521D01*
X286354Y276412D01*
X286368Y276302D01*
X286377Y276191D01*
X286383Y276081D01*
X286385Y275970D01*
X286385Y270890D01*
X286383Y270779D01*
X286377Y270669D01*
X286368Y270558D01*
X286354Y270448D01*
X286337Y270339D01*
X286316Y270230D01*
X286291Y270122D01*
X286262Y270015D01*
X286230Y269909D01*
X286194Y269804D01*
X286154Y269701D01*
X286111Y269599D01*
X286064Y269498D01*
X286013Y269399D01*
X285960Y269302D01*
X285903Y269208D01*
X285842Y269115D01*
X285779Y269024D01*
X285712Y268935D01*
X285642Y268849D01*
X285569Y268766D01*
X285494Y268684D01*
X285416Y268606D01*
X285334Y268531D01*
X285251Y268458D01*
X285165Y268388D01*
X285076Y268321D01*
X284985Y268258D01*
X284892Y268197D01*
X284797Y268140D01*
X284701Y268087D01*
X284602Y268036D01*
X284501Y267989D01*
X284399Y267946D01*
X284296Y267906D01*
X284191Y267870D01*
X284085Y267838D01*
X283978Y267809D01*
X283870Y267784D01*
X283761Y267763D01*
X283652Y267746D01*
X283542Y267732D01*
X283431Y267723D01*
X283321Y267717D01*
X283210Y267715D01*
X283099Y267717D01*
X282989Y267723D01*
X282878Y267732D01*
X282768Y267746D01*
X282659Y267763D01*
X282550Y267784D01*
X282442Y267809D01*
X282335Y267838D01*
X282229Y267870D01*
X282124Y267906D01*
X282021Y267946D01*
X281919Y267989D01*
X281818Y268036D01*
X281719Y268087D01*
X281623Y268140D01*
X281528Y268197D01*
X281435Y268258D01*
X281344Y268321D01*
X281255Y268388D01*
X281169Y268458D01*
X281086Y268531D01*
X281004Y268606D01*
X280926Y268684D01*
X280851Y268766D01*
X280778Y268849D01*
X280708Y268935D01*
X280641Y269024D01*
X280578Y269115D01*
X280517Y269208D01*
X280460Y269303D01*
X280407Y269399D01*
X280356Y269498D01*
X280309Y269599D01*
X280266Y269701D01*
X280226Y269804D01*
X280190Y269909D01*
X280158Y270015D01*
X280129Y270122D01*
X280104Y270230D01*
X280083Y270339D01*
X280066Y270448D01*
X280052Y270558D01*
X280043Y270669D01*
X280037Y270779D01*
X280035Y270890D01*
X285115Y270255D02*
X287655Y267715D01*
X297446Y276288D02*
X297444Y276392D01*
X297438Y276497D01*
X297429Y276601D01*
X297416Y276704D01*
X297398Y276807D01*
X297378Y276909D01*
X297353Y277011D01*
X297325Y277111D01*
X297293Y277211D01*
X297257Y277309D01*
X297218Y277406D01*
X297176Y277501D01*
X297130Y277595D01*
X297080Y277687D01*
X297028Y277777D01*
X296972Y277865D01*
X296912Y277951D01*
X296850Y278035D01*
X296785Y278116D01*
X296717Y278195D01*
X296645Y278272D01*
X296572Y278345D01*
X296495Y278417D01*
X296416Y278485D01*
X296335Y278550D01*
X296251Y278612D01*
X296165Y278672D01*
X296077Y278728D01*
X295987Y278780D01*
X295895Y278830D01*
X295801Y278876D01*
X295706Y278918D01*
X295609Y278957D01*
X295511Y278993D01*
X295411Y279025D01*
X295311Y279053D01*
X295209Y279078D01*
X295107Y279098D01*
X295004Y279116D01*
X294901Y279129D01*
X294797Y279138D01*
X294692Y279144D01*
X294588Y279146D01*
X294588Y279145D02*
X294470Y279143D01*
X294351Y279137D01*
X294233Y279128D01*
X294116Y279115D01*
X293999Y279097D01*
X293882Y279077D01*
X293766Y279052D01*
X293651Y279024D01*
X293538Y278991D01*
X293425Y278956D01*
X293313Y278916D01*
X293203Y278874D01*
X293094Y278827D01*
X292986Y278777D01*
X292881Y278724D01*
X292777Y278667D01*
X292675Y278607D01*
X292575Y278544D01*
X292477Y278477D01*
X292381Y278408D01*
X292288Y278335D01*
X292197Y278259D01*
X292108Y278181D01*
X292022Y278099D01*
X291939Y278015D01*
X291858Y277929D01*
X291781Y277839D01*
X291706Y277748D01*
X291634Y277654D01*
X291565Y277557D01*
X291500Y277459D01*
X291437Y277358D01*
X291378Y277255D01*
X291322Y277151D01*
X291270Y277045D01*
X291221Y276937D01*
X291176Y276828D01*
X291134Y276717D01*
X291096Y276605D01*
X296493Y274066D02*
X296569Y274141D01*
X296644Y274220D01*
X296715Y274301D01*
X296784Y274385D01*
X296849Y274471D01*
X296911Y274559D01*
X296971Y274649D01*
X297027Y274741D01*
X297080Y274836D01*
X297129Y274932D01*
X297175Y275030D01*
X297218Y275129D01*
X297257Y275230D01*
X297292Y275332D01*
X297324Y275435D01*
X297352Y275539D01*
X297377Y275644D01*
X297398Y275751D01*
X297415Y275857D01*
X297428Y275964D01*
X297437Y276072D01*
X297443Y276180D01*
X297445Y276288D01*
X296493Y274065D02*
X291096Y267715D01*
X297446Y267715D01*
D10*
X180340Y129540D02*
X180342Y129440D01*
X180348Y129341D01*
X180358Y129241D01*
X180371Y129143D01*
X180389Y129044D01*
X180410Y128947D01*
X180435Y128851D01*
X180464Y128755D01*
X180497Y128661D01*
X180533Y128568D01*
X180573Y128477D01*
X180617Y128387D01*
X180664Y128299D01*
X180714Y128213D01*
X180768Y128129D01*
X180825Y128047D01*
X180885Y127968D01*
X180949Y127890D01*
X181015Y127816D01*
X181084Y127744D01*
X181156Y127675D01*
X181230Y127609D01*
X181308Y127545D01*
X181387Y127485D01*
X181469Y127428D01*
X181553Y127374D01*
X181639Y127324D01*
X181727Y127277D01*
X181817Y127233D01*
X181908Y127193D01*
X182001Y127157D01*
X182095Y127124D01*
X182191Y127095D01*
X182287Y127070D01*
X182384Y127049D01*
X182483Y127031D01*
X182581Y127018D01*
X182681Y127008D01*
X182780Y127002D01*
X182880Y127000D01*
X198120Y127000D02*
X198220Y127002D01*
X198319Y127008D01*
X198419Y127018D01*
X198517Y127031D01*
X198616Y127049D01*
X198713Y127070D01*
X198809Y127095D01*
X198905Y127124D01*
X198999Y127157D01*
X199092Y127193D01*
X199183Y127233D01*
X199273Y127277D01*
X199361Y127324D01*
X199447Y127374D01*
X199531Y127428D01*
X199613Y127485D01*
X199692Y127545D01*
X199770Y127609D01*
X199844Y127675D01*
X199916Y127744D01*
X199985Y127816D01*
X200051Y127890D01*
X200115Y127968D01*
X200175Y128047D01*
X200232Y128129D01*
X200286Y128213D01*
X200336Y128299D01*
X200383Y128387D01*
X200427Y128477D01*
X200467Y128568D01*
X200503Y128661D01*
X200536Y128755D01*
X200565Y128851D01*
X200590Y128947D01*
X200611Y129044D01*
X200629Y129143D01*
X200642Y129241D01*
X200652Y129341D01*
X200658Y129440D01*
X200660Y129540D01*
X200660Y175260D02*
X200658Y175360D01*
X200652Y175459D01*
X200642Y175559D01*
X200629Y175657D01*
X200611Y175756D01*
X200590Y175853D01*
X200565Y175949D01*
X200536Y176045D01*
X200503Y176139D01*
X200467Y176232D01*
X200427Y176323D01*
X200383Y176413D01*
X200336Y176501D01*
X200286Y176587D01*
X200232Y176671D01*
X200175Y176753D01*
X200115Y176832D01*
X200051Y176910D01*
X199985Y176984D01*
X199916Y177056D01*
X199844Y177125D01*
X199770Y177191D01*
X199692Y177255D01*
X199613Y177315D01*
X199531Y177372D01*
X199447Y177426D01*
X199361Y177476D01*
X199273Y177523D01*
X199183Y177567D01*
X199092Y177607D01*
X198999Y177643D01*
X198905Y177676D01*
X198809Y177705D01*
X198713Y177730D01*
X198616Y177751D01*
X198517Y177769D01*
X198419Y177782D01*
X198319Y177792D01*
X198220Y177798D01*
X198120Y177800D01*
X182880Y177800D02*
X182780Y177798D01*
X182681Y177792D01*
X182581Y177782D01*
X182483Y177769D01*
X182384Y177751D01*
X182287Y177730D01*
X182191Y177705D01*
X182095Y177676D01*
X182001Y177643D01*
X181908Y177607D01*
X181817Y177567D01*
X181727Y177523D01*
X181639Y177476D01*
X181553Y177426D01*
X181469Y177372D01*
X181387Y177315D01*
X181308Y177255D01*
X181230Y177191D01*
X181156Y177125D01*
X181084Y177056D01*
X181015Y176984D01*
X180949Y176910D01*
X180885Y176832D01*
X180825Y176753D01*
X180768Y176671D01*
X180714Y176587D01*
X180664Y176501D01*
X180617Y176413D01*
X180573Y176323D01*
X180533Y176232D01*
X180497Y176139D01*
X180464Y176045D01*
X180435Y175949D01*
X180410Y175853D01*
X180389Y175756D01*
X180371Y175657D01*
X180358Y175559D01*
X180348Y175459D01*
X180342Y175360D01*
X180340Y175260D01*
X182880Y127000D02*
X198120Y127000D01*
X180340Y129540D02*
X180340Y133350D01*
X181610Y134620D01*
X200660Y133350D02*
X200660Y129540D01*
X200660Y133350D02*
X199390Y134620D01*
X181610Y170180D02*
X180340Y171450D01*
X181610Y170180D02*
X181610Y134620D01*
X199390Y170180D02*
X200660Y171450D01*
X199390Y170180D02*
X199390Y134620D01*
X180340Y171450D02*
X180340Y175260D01*
X200660Y175260D02*
X200660Y171450D01*
X198120Y177800D02*
X182880Y177800D01*
D13*
X190500Y179705D03*
X190500Y125095D03*
D14*
X177038Y127508D02*
X168148Y127508D01*
X168148Y129977D01*
X168150Y130075D01*
X168156Y130173D01*
X168166Y130271D01*
X168179Y130368D01*
X168197Y130465D01*
X168218Y130561D01*
X168243Y130655D01*
X168272Y130749D01*
X168304Y130842D01*
X168341Y130933D01*
X168380Y131023D01*
X168424Y131111D01*
X168471Y131197D01*
X168521Y131282D01*
X168574Y131364D01*
X168631Y131444D01*
X168691Y131522D01*
X168754Y131597D01*
X168820Y131670D01*
X168889Y131740D01*
X168960Y131807D01*
X169034Y131872D01*
X169111Y131933D01*
X169190Y131992D01*
X169271Y132047D01*
X169354Y132099D01*
X169440Y132147D01*
X169527Y132192D01*
X169616Y132234D01*
X169706Y132272D01*
X169798Y132306D01*
X169891Y132337D01*
X169986Y132364D01*
X170081Y132387D01*
X170178Y132407D01*
X170274Y132422D01*
X170372Y132434D01*
X170470Y132442D01*
X170568Y132446D01*
X170666Y132446D01*
X170764Y132442D01*
X170862Y132434D01*
X170960Y132422D01*
X171056Y132407D01*
X171153Y132387D01*
X171248Y132364D01*
X171343Y132337D01*
X171436Y132306D01*
X171528Y132272D01*
X171618Y132234D01*
X171707Y132192D01*
X171794Y132147D01*
X171880Y132099D01*
X171963Y132047D01*
X172044Y131992D01*
X172123Y131933D01*
X172200Y131872D01*
X172274Y131807D01*
X172345Y131740D01*
X172414Y131670D01*
X172480Y131597D01*
X172543Y131522D01*
X172603Y131444D01*
X172660Y131364D01*
X172713Y131282D01*
X172763Y131197D01*
X172810Y131111D01*
X172854Y131023D01*
X172893Y130933D01*
X172930Y130842D01*
X172962Y130749D01*
X172991Y130655D01*
X173016Y130561D01*
X173037Y130465D01*
X173055Y130368D01*
X173068Y130271D01*
X173078Y130173D01*
X173084Y130075D01*
X173086Y129977D01*
X173087Y129977D02*
X173087Y127508D01*
X173087Y130471D02*
X177038Y132447D01*
X170124Y136358D02*
X168148Y138827D01*
X177038Y138827D01*
X177038Y136358D02*
X177038Y141297D01*
D10*
X528320Y241300D02*
X528420Y241298D01*
X528519Y241292D01*
X528619Y241282D01*
X528717Y241269D01*
X528816Y241251D01*
X528913Y241230D01*
X529009Y241205D01*
X529105Y241176D01*
X529199Y241143D01*
X529292Y241107D01*
X529383Y241067D01*
X529473Y241023D01*
X529561Y240976D01*
X529647Y240926D01*
X529731Y240872D01*
X529813Y240815D01*
X529892Y240755D01*
X529970Y240691D01*
X530044Y240625D01*
X530116Y240556D01*
X530185Y240484D01*
X530251Y240410D01*
X530315Y240332D01*
X530375Y240253D01*
X530432Y240171D01*
X530486Y240087D01*
X530536Y240001D01*
X530583Y239913D01*
X530627Y239823D01*
X530667Y239732D01*
X530703Y239639D01*
X530736Y239545D01*
X530765Y239449D01*
X530790Y239353D01*
X530811Y239256D01*
X530829Y239157D01*
X530842Y239059D01*
X530852Y238959D01*
X530858Y238860D01*
X530860Y238760D01*
X513080Y241300D02*
X512980Y241298D01*
X512881Y241292D01*
X512781Y241282D01*
X512683Y241269D01*
X512584Y241251D01*
X512487Y241230D01*
X512391Y241205D01*
X512295Y241176D01*
X512201Y241143D01*
X512108Y241107D01*
X512017Y241067D01*
X511927Y241023D01*
X511839Y240976D01*
X511753Y240926D01*
X511669Y240872D01*
X511587Y240815D01*
X511508Y240755D01*
X511430Y240691D01*
X511356Y240625D01*
X511284Y240556D01*
X511215Y240484D01*
X511149Y240410D01*
X511085Y240332D01*
X511025Y240253D01*
X510968Y240171D01*
X510914Y240087D01*
X510864Y240001D01*
X510817Y239913D01*
X510773Y239823D01*
X510733Y239732D01*
X510697Y239639D01*
X510664Y239545D01*
X510635Y239449D01*
X510610Y239353D01*
X510589Y239256D01*
X510571Y239157D01*
X510558Y239059D01*
X510548Y238959D01*
X510542Y238860D01*
X510540Y238760D01*
X510540Y193040D02*
X510542Y192940D01*
X510548Y192841D01*
X510558Y192741D01*
X510571Y192643D01*
X510589Y192544D01*
X510610Y192447D01*
X510635Y192351D01*
X510664Y192255D01*
X510697Y192161D01*
X510733Y192068D01*
X510773Y191977D01*
X510817Y191887D01*
X510864Y191799D01*
X510914Y191713D01*
X510968Y191629D01*
X511025Y191547D01*
X511085Y191468D01*
X511149Y191390D01*
X511215Y191316D01*
X511284Y191244D01*
X511356Y191175D01*
X511430Y191109D01*
X511508Y191045D01*
X511587Y190985D01*
X511669Y190928D01*
X511753Y190874D01*
X511839Y190824D01*
X511927Y190777D01*
X512017Y190733D01*
X512108Y190693D01*
X512201Y190657D01*
X512295Y190624D01*
X512391Y190595D01*
X512487Y190570D01*
X512584Y190549D01*
X512683Y190531D01*
X512781Y190518D01*
X512881Y190508D01*
X512980Y190502D01*
X513080Y190500D01*
X528320Y190500D02*
X528420Y190502D01*
X528519Y190508D01*
X528619Y190518D01*
X528717Y190531D01*
X528816Y190549D01*
X528913Y190570D01*
X529009Y190595D01*
X529105Y190624D01*
X529199Y190657D01*
X529292Y190693D01*
X529383Y190733D01*
X529473Y190777D01*
X529561Y190824D01*
X529647Y190874D01*
X529731Y190928D01*
X529813Y190985D01*
X529892Y191045D01*
X529970Y191109D01*
X530044Y191175D01*
X530116Y191244D01*
X530185Y191316D01*
X530251Y191390D01*
X530315Y191468D01*
X530375Y191547D01*
X530432Y191629D01*
X530486Y191713D01*
X530536Y191799D01*
X530583Y191887D01*
X530627Y191977D01*
X530667Y192068D01*
X530703Y192161D01*
X530736Y192255D01*
X530765Y192351D01*
X530790Y192447D01*
X530811Y192544D01*
X530829Y192643D01*
X530842Y192741D01*
X530852Y192841D01*
X530858Y192940D01*
X530860Y193040D01*
X528320Y241300D02*
X513080Y241300D01*
X530860Y238760D02*
X530860Y234950D01*
X529590Y233680D01*
X510540Y234950D02*
X510540Y238760D01*
X510540Y234950D02*
X511810Y233680D01*
X529590Y198120D02*
X530860Y196850D01*
X529590Y198120D02*
X529590Y233680D01*
X511810Y198120D02*
X510540Y196850D01*
X511810Y198120D02*
X511810Y233680D01*
X530860Y196850D02*
X530860Y193040D01*
X510540Y193040D02*
X510540Y196850D01*
X513080Y190500D02*
X528320Y190500D01*
D13*
X520700Y188595D03*
X520700Y243205D03*
D14*
X534162Y227003D02*
X543052Y227003D01*
X534162Y227003D02*
X534162Y229473D01*
X534164Y229571D01*
X534170Y229669D01*
X534180Y229767D01*
X534193Y229864D01*
X534211Y229961D01*
X534232Y230057D01*
X534257Y230151D01*
X534286Y230245D01*
X534318Y230338D01*
X534355Y230429D01*
X534394Y230519D01*
X534438Y230607D01*
X534485Y230693D01*
X534535Y230778D01*
X534588Y230860D01*
X534645Y230940D01*
X534705Y231018D01*
X534768Y231093D01*
X534834Y231166D01*
X534903Y231236D01*
X534974Y231303D01*
X535048Y231368D01*
X535125Y231429D01*
X535204Y231488D01*
X535285Y231543D01*
X535368Y231595D01*
X535454Y231643D01*
X535541Y231688D01*
X535630Y231730D01*
X535720Y231768D01*
X535812Y231802D01*
X535905Y231833D01*
X536000Y231860D01*
X536095Y231883D01*
X536192Y231903D01*
X536288Y231918D01*
X536386Y231930D01*
X536484Y231938D01*
X536582Y231942D01*
X536680Y231942D01*
X536778Y231938D01*
X536876Y231930D01*
X536974Y231918D01*
X537070Y231903D01*
X537167Y231883D01*
X537262Y231860D01*
X537357Y231833D01*
X537450Y231802D01*
X537542Y231768D01*
X537632Y231730D01*
X537721Y231688D01*
X537808Y231643D01*
X537894Y231595D01*
X537977Y231543D01*
X538058Y231488D01*
X538137Y231429D01*
X538214Y231368D01*
X538288Y231303D01*
X538359Y231236D01*
X538428Y231166D01*
X538494Y231093D01*
X538557Y231018D01*
X538617Y230940D01*
X538674Y230860D01*
X538727Y230778D01*
X538777Y230693D01*
X538824Y230607D01*
X538868Y230519D01*
X538907Y230429D01*
X538944Y230338D01*
X538976Y230245D01*
X539005Y230151D01*
X539030Y230057D01*
X539051Y229961D01*
X539069Y229864D01*
X539082Y229767D01*
X539092Y229669D01*
X539098Y229571D01*
X539100Y229473D01*
X539101Y229473D02*
X539101Y227003D01*
X539101Y229967D02*
X543052Y231942D01*
X536385Y240793D02*
X536293Y240791D01*
X536201Y240785D01*
X536110Y240776D01*
X536019Y240763D01*
X535929Y240746D01*
X535839Y240725D01*
X535751Y240701D01*
X535663Y240673D01*
X535577Y240641D01*
X535492Y240606D01*
X535409Y240567D01*
X535327Y240525D01*
X535247Y240480D01*
X535169Y240431D01*
X535093Y240379D01*
X535020Y240324D01*
X534948Y240266D01*
X534879Y240206D01*
X534813Y240142D01*
X534749Y240076D01*
X534689Y240007D01*
X534631Y239935D01*
X534576Y239862D01*
X534524Y239786D01*
X534475Y239708D01*
X534430Y239628D01*
X534388Y239546D01*
X534349Y239463D01*
X534314Y239378D01*
X534282Y239292D01*
X534254Y239204D01*
X534230Y239116D01*
X534209Y239026D01*
X534192Y238936D01*
X534179Y238845D01*
X534170Y238754D01*
X534164Y238662D01*
X534162Y238570D01*
X534164Y238464D01*
X534170Y238359D01*
X534180Y238254D01*
X534193Y238149D01*
X534211Y238045D01*
X534232Y237942D01*
X534257Y237839D01*
X534286Y237737D01*
X534319Y237637D01*
X534355Y237538D01*
X534395Y237440D01*
X534439Y237344D01*
X534486Y237249D01*
X534536Y237157D01*
X534590Y237066D01*
X534648Y236977D01*
X534708Y236891D01*
X534772Y236807D01*
X534838Y236725D01*
X534908Y236645D01*
X534981Y236569D01*
X535056Y236495D01*
X535134Y236424D01*
X535215Y236356D01*
X535298Y236290D01*
X535384Y236228D01*
X535471Y236170D01*
X535561Y236114D01*
X535653Y236062D01*
X535747Y236013D01*
X535842Y235968D01*
X535939Y235926D01*
X536038Y235888D01*
X536137Y235854D01*
X538114Y240051D02*
X538045Y240120D01*
X537975Y240186D01*
X537901Y240249D01*
X537825Y240308D01*
X537747Y240365D01*
X537667Y240419D01*
X537584Y240469D01*
X537500Y240516D01*
X537413Y240559D01*
X537325Y240599D01*
X537236Y240635D01*
X537145Y240668D01*
X537053Y240697D01*
X536959Y240722D01*
X536865Y240743D01*
X536770Y240761D01*
X536674Y240774D01*
X536578Y240784D01*
X536482Y240790D01*
X536385Y240792D01*
X538113Y240051D02*
X543052Y235853D01*
X543052Y240792D01*
D10*
X510540Y66040D02*
X510542Y65940D01*
X510548Y65841D01*
X510558Y65741D01*
X510571Y65643D01*
X510589Y65544D01*
X510610Y65447D01*
X510635Y65351D01*
X510664Y65255D01*
X510697Y65161D01*
X510733Y65068D01*
X510773Y64977D01*
X510817Y64887D01*
X510864Y64799D01*
X510914Y64713D01*
X510968Y64629D01*
X511025Y64547D01*
X511085Y64468D01*
X511149Y64390D01*
X511215Y64316D01*
X511284Y64244D01*
X511356Y64175D01*
X511430Y64109D01*
X511508Y64045D01*
X511587Y63985D01*
X511669Y63928D01*
X511753Y63874D01*
X511839Y63824D01*
X511927Y63777D01*
X512017Y63733D01*
X512108Y63693D01*
X512201Y63657D01*
X512295Y63624D01*
X512391Y63595D01*
X512487Y63570D01*
X512584Y63549D01*
X512683Y63531D01*
X512781Y63518D01*
X512881Y63508D01*
X512980Y63502D01*
X513080Y63500D01*
X528320Y63500D02*
X528420Y63502D01*
X528519Y63508D01*
X528619Y63518D01*
X528717Y63531D01*
X528816Y63549D01*
X528913Y63570D01*
X529009Y63595D01*
X529105Y63624D01*
X529199Y63657D01*
X529292Y63693D01*
X529383Y63733D01*
X529473Y63777D01*
X529561Y63824D01*
X529647Y63874D01*
X529731Y63928D01*
X529813Y63985D01*
X529892Y64045D01*
X529970Y64109D01*
X530044Y64175D01*
X530116Y64244D01*
X530185Y64316D01*
X530251Y64390D01*
X530315Y64468D01*
X530375Y64547D01*
X530432Y64629D01*
X530486Y64713D01*
X530536Y64799D01*
X530583Y64887D01*
X530627Y64977D01*
X530667Y65068D01*
X530703Y65161D01*
X530736Y65255D01*
X530765Y65351D01*
X530790Y65447D01*
X530811Y65544D01*
X530829Y65643D01*
X530842Y65741D01*
X530852Y65841D01*
X530858Y65940D01*
X530860Y66040D01*
X530860Y111760D02*
X530858Y111860D01*
X530852Y111959D01*
X530842Y112059D01*
X530829Y112157D01*
X530811Y112256D01*
X530790Y112353D01*
X530765Y112449D01*
X530736Y112545D01*
X530703Y112639D01*
X530667Y112732D01*
X530627Y112823D01*
X530583Y112913D01*
X530536Y113001D01*
X530486Y113087D01*
X530432Y113171D01*
X530375Y113253D01*
X530315Y113332D01*
X530251Y113410D01*
X530185Y113484D01*
X530116Y113556D01*
X530044Y113625D01*
X529970Y113691D01*
X529892Y113755D01*
X529813Y113815D01*
X529731Y113872D01*
X529647Y113926D01*
X529561Y113976D01*
X529473Y114023D01*
X529383Y114067D01*
X529292Y114107D01*
X529199Y114143D01*
X529105Y114176D01*
X529009Y114205D01*
X528913Y114230D01*
X528816Y114251D01*
X528717Y114269D01*
X528619Y114282D01*
X528519Y114292D01*
X528420Y114298D01*
X528320Y114300D01*
X513080Y114300D02*
X512980Y114298D01*
X512881Y114292D01*
X512781Y114282D01*
X512683Y114269D01*
X512584Y114251D01*
X512487Y114230D01*
X512391Y114205D01*
X512295Y114176D01*
X512201Y114143D01*
X512108Y114107D01*
X512017Y114067D01*
X511927Y114023D01*
X511839Y113976D01*
X511753Y113926D01*
X511669Y113872D01*
X511587Y113815D01*
X511508Y113755D01*
X511430Y113691D01*
X511356Y113625D01*
X511284Y113556D01*
X511215Y113484D01*
X511149Y113410D01*
X511085Y113332D01*
X511025Y113253D01*
X510968Y113171D01*
X510914Y113087D01*
X510864Y113001D01*
X510817Y112913D01*
X510773Y112823D01*
X510733Y112732D01*
X510697Y112639D01*
X510664Y112545D01*
X510635Y112449D01*
X510610Y112353D01*
X510589Y112256D01*
X510571Y112157D01*
X510558Y112059D01*
X510548Y111959D01*
X510542Y111860D01*
X510540Y111760D01*
X513080Y63500D02*
X528320Y63500D01*
X510540Y66040D02*
X510540Y69850D01*
X511810Y71120D01*
X530860Y69850D02*
X530860Y66040D01*
X530860Y69850D02*
X529590Y71120D01*
X511810Y106680D02*
X510540Y107950D01*
X511810Y106680D02*
X511810Y71120D01*
X529590Y106680D02*
X530860Y107950D01*
X529590Y106680D02*
X529590Y71120D01*
X510540Y107950D02*
X510540Y111760D01*
X530860Y111760D02*
X530860Y107950D01*
X528320Y114300D02*
X513080Y114300D01*
D13*
X520700Y116205D03*
X520700Y61595D03*
D14*
X507238Y64008D02*
X498348Y64008D01*
X498348Y66477D01*
X498350Y66575D01*
X498356Y66673D01*
X498366Y66771D01*
X498379Y66868D01*
X498397Y66965D01*
X498418Y67061D01*
X498443Y67155D01*
X498472Y67249D01*
X498504Y67342D01*
X498541Y67433D01*
X498580Y67523D01*
X498624Y67611D01*
X498671Y67697D01*
X498721Y67782D01*
X498774Y67864D01*
X498831Y67944D01*
X498891Y68022D01*
X498954Y68097D01*
X499020Y68170D01*
X499089Y68240D01*
X499160Y68307D01*
X499234Y68372D01*
X499311Y68433D01*
X499390Y68492D01*
X499471Y68547D01*
X499554Y68599D01*
X499640Y68647D01*
X499727Y68692D01*
X499816Y68734D01*
X499906Y68772D01*
X499998Y68806D01*
X500091Y68837D01*
X500186Y68864D01*
X500281Y68887D01*
X500378Y68907D01*
X500474Y68922D01*
X500572Y68934D01*
X500670Y68942D01*
X500768Y68946D01*
X500866Y68946D01*
X500964Y68942D01*
X501062Y68934D01*
X501160Y68922D01*
X501256Y68907D01*
X501353Y68887D01*
X501448Y68864D01*
X501543Y68837D01*
X501636Y68806D01*
X501728Y68772D01*
X501818Y68734D01*
X501907Y68692D01*
X501994Y68647D01*
X502080Y68599D01*
X502163Y68547D01*
X502244Y68492D01*
X502323Y68433D01*
X502400Y68372D01*
X502474Y68307D01*
X502545Y68240D01*
X502614Y68170D01*
X502680Y68097D01*
X502743Y68022D01*
X502803Y67944D01*
X502860Y67864D01*
X502913Y67782D01*
X502963Y67697D01*
X503010Y67611D01*
X503054Y67523D01*
X503093Y67433D01*
X503130Y67342D01*
X503162Y67249D01*
X503191Y67155D01*
X503216Y67061D01*
X503237Y66965D01*
X503255Y66868D01*
X503268Y66771D01*
X503278Y66673D01*
X503284Y66575D01*
X503286Y66477D01*
X503287Y66477D02*
X503287Y64008D01*
X503287Y66971D02*
X507238Y68947D01*
X507238Y72858D02*
X507238Y75327D01*
X507236Y75425D01*
X507230Y75523D01*
X507220Y75621D01*
X507207Y75718D01*
X507189Y75815D01*
X507168Y75911D01*
X507143Y76005D01*
X507114Y76099D01*
X507082Y76192D01*
X507045Y76283D01*
X507006Y76373D01*
X506962Y76461D01*
X506915Y76547D01*
X506865Y76632D01*
X506812Y76714D01*
X506755Y76794D01*
X506695Y76872D01*
X506632Y76947D01*
X506566Y77020D01*
X506497Y77090D01*
X506426Y77157D01*
X506352Y77222D01*
X506275Y77283D01*
X506196Y77342D01*
X506115Y77397D01*
X506032Y77449D01*
X505946Y77497D01*
X505859Y77542D01*
X505770Y77584D01*
X505680Y77622D01*
X505588Y77656D01*
X505495Y77687D01*
X505400Y77714D01*
X505305Y77737D01*
X505208Y77757D01*
X505112Y77772D01*
X505014Y77784D01*
X504916Y77792D01*
X504818Y77796D01*
X504720Y77796D01*
X504622Y77792D01*
X504524Y77784D01*
X504426Y77772D01*
X504330Y77757D01*
X504233Y77737D01*
X504138Y77714D01*
X504043Y77687D01*
X503950Y77656D01*
X503858Y77622D01*
X503768Y77584D01*
X503679Y77542D01*
X503592Y77497D01*
X503506Y77449D01*
X503423Y77397D01*
X503342Y77342D01*
X503263Y77283D01*
X503186Y77222D01*
X503112Y77157D01*
X503041Y77090D01*
X502972Y77020D01*
X502906Y76947D01*
X502843Y76872D01*
X502783Y76794D01*
X502726Y76714D01*
X502673Y76632D01*
X502623Y76547D01*
X502576Y76461D01*
X502532Y76373D01*
X502493Y76283D01*
X502456Y76192D01*
X502424Y76099D01*
X502395Y76005D01*
X502370Y75911D01*
X502349Y75815D01*
X502331Y75718D01*
X502318Y75621D01*
X502308Y75523D01*
X502302Y75425D01*
X502300Y75327D01*
X498348Y75821D02*
X498348Y72858D01*
X498348Y75821D02*
X498350Y75908D01*
X498356Y75996D01*
X498365Y76083D01*
X498379Y76169D01*
X498396Y76255D01*
X498417Y76339D01*
X498442Y76423D01*
X498471Y76506D01*
X498503Y76587D01*
X498538Y76667D01*
X498577Y76745D01*
X498620Y76822D01*
X498666Y76896D01*
X498715Y76968D01*
X498767Y77038D01*
X498823Y77106D01*
X498881Y77171D01*
X498942Y77234D01*
X499006Y77293D01*
X499073Y77350D01*
X499141Y77404D01*
X499213Y77455D01*
X499286Y77502D01*
X499361Y77547D01*
X499439Y77588D01*
X499518Y77625D01*
X499598Y77659D01*
X499680Y77689D01*
X499763Y77716D01*
X499848Y77739D01*
X499933Y77758D01*
X500019Y77773D01*
X500106Y77785D01*
X500193Y77793D01*
X500280Y77797D01*
X500368Y77797D01*
X500455Y77793D01*
X500542Y77785D01*
X500629Y77773D01*
X500715Y77758D01*
X500800Y77739D01*
X500885Y77716D01*
X500968Y77689D01*
X501050Y77659D01*
X501130Y77625D01*
X501209Y77588D01*
X501287Y77547D01*
X501362Y77502D01*
X501435Y77455D01*
X501507Y77404D01*
X501575Y77350D01*
X501642Y77293D01*
X501706Y77234D01*
X501767Y77171D01*
X501825Y77106D01*
X501881Y77038D01*
X501933Y76968D01*
X501982Y76896D01*
X502028Y76822D01*
X502071Y76745D01*
X502110Y76667D01*
X502145Y76587D01*
X502177Y76506D01*
X502206Y76423D01*
X502231Y76339D01*
X502252Y76255D01*
X502269Y76169D01*
X502283Y76083D01*
X502292Y75996D01*
X502298Y75908D01*
X502300Y75821D01*
X502299Y75821D02*
X502299Y73846D01*
D10*
X292100Y63500D02*
X292100Y58420D01*
X292100Y63500D02*
X287020Y63500D01*
X271780Y63500D02*
X266700Y63500D01*
X266700Y58420D01*
X266700Y43180D02*
X266700Y38100D01*
X271780Y38100D01*
X287020Y38100D02*
X292100Y38100D01*
X292100Y43180D01*
D12*
X271145Y66675D02*
X267335Y78105D01*
X274955Y78105D02*
X271145Y66675D01*
X281903Y66675D02*
X284443Y66675D01*
X281903Y66675D02*
X281803Y66677D01*
X281704Y66683D01*
X281604Y66693D01*
X281506Y66706D01*
X281407Y66724D01*
X281310Y66745D01*
X281214Y66770D01*
X281118Y66799D01*
X281024Y66832D01*
X280931Y66868D01*
X280840Y66908D01*
X280750Y66952D01*
X280662Y66999D01*
X280576Y67049D01*
X280492Y67103D01*
X280410Y67160D01*
X280331Y67220D01*
X280253Y67284D01*
X280179Y67350D01*
X280107Y67419D01*
X280038Y67491D01*
X279972Y67565D01*
X279908Y67643D01*
X279848Y67722D01*
X279791Y67804D01*
X279737Y67888D01*
X279687Y67974D01*
X279640Y68062D01*
X279596Y68152D01*
X279556Y68243D01*
X279520Y68336D01*
X279487Y68430D01*
X279458Y68526D01*
X279433Y68622D01*
X279412Y68719D01*
X279394Y68818D01*
X279381Y68916D01*
X279371Y69016D01*
X279365Y69115D01*
X279363Y69215D01*
X279363Y75565D01*
X279365Y75665D01*
X279371Y75764D01*
X279381Y75864D01*
X279394Y75962D01*
X279412Y76061D01*
X279433Y76158D01*
X279458Y76254D01*
X279487Y76350D01*
X279520Y76444D01*
X279556Y76537D01*
X279596Y76628D01*
X279640Y76718D01*
X279687Y76806D01*
X279737Y76892D01*
X279791Y76976D01*
X279848Y77058D01*
X279908Y77137D01*
X279972Y77215D01*
X280038Y77289D01*
X280107Y77361D01*
X280179Y77430D01*
X280253Y77496D01*
X280331Y77560D01*
X280410Y77620D01*
X280492Y77677D01*
X280576Y77731D01*
X280662Y77781D01*
X280750Y77828D01*
X280840Y77872D01*
X280931Y77912D01*
X281024Y77948D01*
X281118Y77981D01*
X281214Y78010D01*
X281310Y78035D01*
X281407Y78056D01*
X281506Y78074D01*
X281604Y78087D01*
X281704Y78097D01*
X281803Y78103D01*
X281903Y78105D01*
X284443Y78105D01*
X291428Y66675D02*
X293968Y66675D01*
X291428Y66675D02*
X291328Y66677D01*
X291229Y66683D01*
X291129Y66693D01*
X291031Y66706D01*
X290932Y66724D01*
X290835Y66745D01*
X290739Y66770D01*
X290643Y66799D01*
X290549Y66832D01*
X290456Y66868D01*
X290365Y66908D01*
X290275Y66952D01*
X290187Y66999D01*
X290101Y67049D01*
X290017Y67103D01*
X289935Y67160D01*
X289856Y67220D01*
X289778Y67284D01*
X289704Y67350D01*
X289632Y67419D01*
X289563Y67491D01*
X289497Y67565D01*
X289433Y67643D01*
X289373Y67722D01*
X289316Y67804D01*
X289262Y67888D01*
X289212Y67974D01*
X289165Y68062D01*
X289121Y68152D01*
X289081Y68243D01*
X289045Y68336D01*
X289012Y68430D01*
X288983Y68526D01*
X288958Y68622D01*
X288937Y68719D01*
X288919Y68818D01*
X288906Y68916D01*
X288896Y69016D01*
X288890Y69115D01*
X288888Y69215D01*
X288888Y75565D01*
X288890Y75665D01*
X288896Y75764D01*
X288906Y75864D01*
X288919Y75962D01*
X288937Y76061D01*
X288958Y76158D01*
X288983Y76254D01*
X289012Y76350D01*
X289045Y76444D01*
X289081Y76537D01*
X289121Y76628D01*
X289165Y76718D01*
X289212Y76806D01*
X289262Y76892D01*
X289316Y76976D01*
X289373Y77058D01*
X289433Y77137D01*
X289497Y77215D01*
X289563Y77289D01*
X289632Y77361D01*
X289704Y77430D01*
X289778Y77496D01*
X289856Y77560D01*
X289935Y77620D01*
X290017Y77677D01*
X290101Y77731D01*
X290187Y77781D01*
X290275Y77828D01*
X290365Y77872D01*
X290456Y77912D01*
X290549Y77948D01*
X290643Y77981D01*
X290739Y78010D01*
X290835Y78035D01*
X290932Y78056D01*
X291031Y78074D01*
X291129Y78087D01*
X291229Y78097D01*
X291328Y78103D01*
X291428Y78105D01*
X293968Y78105D01*
D10*
X355600Y63500D02*
X355600Y58420D01*
X355600Y63500D02*
X350520Y63500D01*
X335280Y63500D02*
X330200Y63500D01*
X330200Y58420D01*
X330200Y43180D02*
X330200Y38100D01*
X335280Y38100D01*
X350520Y38100D02*
X355600Y38100D01*
X355600Y43180D01*
D12*
X337185Y73025D02*
X335280Y73025D01*
X337185Y73025D02*
X337185Y66675D01*
X333375Y66675D01*
X333275Y66677D01*
X333176Y66683D01*
X333076Y66693D01*
X332978Y66706D01*
X332879Y66724D01*
X332782Y66745D01*
X332686Y66770D01*
X332590Y66799D01*
X332496Y66832D01*
X332403Y66868D01*
X332312Y66908D01*
X332222Y66952D01*
X332134Y66999D01*
X332048Y67049D01*
X331964Y67103D01*
X331882Y67160D01*
X331803Y67220D01*
X331725Y67284D01*
X331651Y67350D01*
X331579Y67419D01*
X331510Y67491D01*
X331444Y67565D01*
X331380Y67643D01*
X331320Y67722D01*
X331263Y67804D01*
X331209Y67888D01*
X331159Y67974D01*
X331112Y68062D01*
X331068Y68152D01*
X331028Y68243D01*
X330992Y68336D01*
X330959Y68430D01*
X330930Y68526D01*
X330905Y68622D01*
X330884Y68719D01*
X330866Y68818D01*
X330853Y68916D01*
X330843Y69016D01*
X330837Y69115D01*
X330835Y69215D01*
X330835Y75565D01*
X330837Y75665D01*
X330843Y75764D01*
X330853Y75864D01*
X330866Y75962D01*
X330884Y76061D01*
X330905Y76158D01*
X330930Y76254D01*
X330959Y76350D01*
X330992Y76444D01*
X331028Y76537D01*
X331068Y76628D01*
X331112Y76718D01*
X331159Y76806D01*
X331209Y76892D01*
X331263Y76976D01*
X331320Y77058D01*
X331380Y77137D01*
X331444Y77215D01*
X331510Y77289D01*
X331579Y77361D01*
X331651Y77430D01*
X331725Y77496D01*
X331803Y77560D01*
X331882Y77620D01*
X331964Y77677D01*
X332048Y77731D01*
X332134Y77781D01*
X332222Y77828D01*
X332312Y77872D01*
X332403Y77912D01*
X332496Y77948D01*
X332590Y77981D01*
X332686Y78010D01*
X332782Y78035D01*
X332879Y78056D01*
X332978Y78074D01*
X333076Y78087D01*
X333176Y78097D01*
X333275Y78103D01*
X333375Y78105D01*
X337185Y78105D01*
X343027Y78105D02*
X343027Y66675D01*
X349377Y66675D02*
X343027Y78105D01*
X349377Y78105D02*
X349377Y66675D01*
X355219Y66675D02*
X355219Y78105D01*
X358394Y78105D01*
X358505Y78103D01*
X358615Y78097D01*
X358726Y78088D01*
X358836Y78074D01*
X358945Y78057D01*
X359054Y78036D01*
X359162Y78011D01*
X359269Y77982D01*
X359375Y77950D01*
X359480Y77914D01*
X359583Y77874D01*
X359685Y77831D01*
X359786Y77784D01*
X359885Y77733D01*
X359982Y77680D01*
X360076Y77623D01*
X360169Y77562D01*
X360260Y77499D01*
X360349Y77432D01*
X360435Y77362D01*
X360518Y77289D01*
X360600Y77214D01*
X360678Y77136D01*
X360753Y77054D01*
X360826Y76971D01*
X360896Y76885D01*
X360963Y76796D01*
X361026Y76705D01*
X361087Y76612D01*
X361144Y76518D01*
X361197Y76421D01*
X361248Y76322D01*
X361295Y76221D01*
X361338Y76119D01*
X361378Y76016D01*
X361414Y75911D01*
X361446Y75805D01*
X361475Y75698D01*
X361500Y75590D01*
X361521Y75481D01*
X361538Y75372D01*
X361552Y75262D01*
X361561Y75151D01*
X361567Y75041D01*
X361569Y74930D01*
X361569Y69850D01*
X361567Y69739D01*
X361561Y69629D01*
X361552Y69518D01*
X361538Y69408D01*
X361521Y69299D01*
X361500Y69190D01*
X361475Y69082D01*
X361446Y68975D01*
X361414Y68869D01*
X361378Y68764D01*
X361338Y68661D01*
X361295Y68559D01*
X361248Y68458D01*
X361197Y68359D01*
X361144Y68262D01*
X361087Y68168D01*
X361026Y68075D01*
X360963Y67984D01*
X360896Y67895D01*
X360826Y67809D01*
X360753Y67726D01*
X360678Y67644D01*
X360600Y67566D01*
X360518Y67491D01*
X360435Y67418D01*
X360349Y67348D01*
X360260Y67281D01*
X360169Y67218D01*
X360076Y67157D01*
X359982Y67100D01*
X359885Y67047D01*
X359786Y66996D01*
X359685Y66949D01*
X359583Y66906D01*
X359480Y66866D01*
X359375Y66830D01*
X359269Y66798D01*
X359162Y66769D01*
X359054Y66744D01*
X358945Y66723D01*
X358836Y66706D01*
X358726Y66692D01*
X358615Y66683D01*
X358505Y66677D01*
X358394Y66675D01*
X355219Y66675D01*
M02*
